<svg width="14" height="16" viewBox="0 0 14 16" fill="none" xmlns="http://www.w3.org/2000/svg">
<path d="M3.5 3.5C3.5 1.59375 5.0625 0 7 0C8.90625 0 10.5 1.59375 10.5 3.5V5H12.5C13.3125 5 14 5.6875 14 6.5V13C14 14.6562 12.6562 16 11 16H3C1.3125 16 0 14.6562 0 13V6.5C0 5.6875 0.65625 5 1.5 5H3.5V3.5ZM5 5H9V3.5C9 2.40625 8.09375 1.5 7 1.5C5.875 1.5 5 2.40625 5 3.5V5ZM4.25 8C4.65625 8 5 7.6875 5 7.25C5 6.84375 4.65625 6.5 4.25 6.5C3.8125 6.5 3.5 6.84375 3.5 7.25C3.5 7.6875 3.8125 8 4.25 8ZM9.75 6.5C9.3125 6.5 9 6.84375 9 7.25C9 7.6875 9.3125 8 9.75 8C10.1562 8 10.5 7.6875 10.5 7.25C10.5 6.84375 10.1562 6.5 9.75 6.5Z" fill="#464646"/>
</svg>
