<svg width="16" height="19" viewBox="0 0 16 19" fill="none" xmlns="http://www.w3.org/2000/svg">
<path d="M3.375 1.375C3.375 0.777344 3.86719 0.25 4.5 0.25C5.09766 0.25 5.625 0.777344 5.625 1.375V2.5H10.125V1.375C10.125 0.777344 10.6172 0.25 11.25 0.25C11.8477 0.25 12.375 0.777344 12.375 1.375V2.5H14.0625C14.9766 2.5 15.75 3.27344 15.75 4.1875V5.875H0V4.1875C0 3.27344 0.738281 2.5 1.6875 2.5H3.375V1.375ZM15.75 16.5625C15.75 17.5117 14.9766 18.25 14.0625 18.25H1.6875C0.738281 18.25 0 17.5117 0 16.5625V7H15.75V16.5625Z" fill="#A58C79"/>
</svg>
