<svg width="16" height="14" viewBox="0 0 16 14" fill="none" xmlns="http://www.w3.org/2000/svg">
<path d="M0 4.96875V4.8125C0 2.625 1.5625 0.75 3.71875 0.40625C5.125 0.15625 6.59375 0.625 7.625 1.65625L8 2L8.34375 1.65625C9.375 0.625 10.8438 0.15625 12.25 0.40625C14.4062 0.75 16 2.625 16 4.8125V4.96875C16 6.28125 15.4375 7.53125 14.5 8.40625L8.84375 13.6875C8.625 13.9062 8.3125 14 8 14C7.65625 14 7.34375 13.9062 7.125 13.6875L1.46875 8.40625C0.53125 7.53125 0 6.28125 0 4.96875Z" fill="#464646"/>
</svg>
