<svg width="22" height="22" viewBox="0 0 22 22" fill="none" xmlns="http://www.w3.org/2000/svg">
<path d="M13.75 8.60938V11.9375C13.75 12.0312 13.6562 12.0781 13.5625 12.0781H13.0469C13 12.0781 12.9531 12.0312 12.9062 12.0312L11.4062 9.96875V11.9375C11.4062 12.0312 11.3125 12.0781 11.2656 12.0781H10.7031C10.6094 12.0781 10.5625 12.0312 10.5625 11.9375V8.60938C10.5625 8.51562 10.6094 8.46875 10.7031 8.46875H11.2656C11.3125 8.46875 11.3594 8.46875 11.3594 8.51562L12.9062 10.5781V8.60938C12.9062 8.51562 12.9531 8.46875 13.0469 8.46875H13.5625C13.6562 8.42188 13.75 8.51562 13.75 8.60938ZM9.90625 8.42188C9.95312 8.42188 10.0469 8.51562 10.0469 8.60938V11.9375C10.0469 12.0312 9.95312 12.0781 9.90625 12.0781H9.34375C9.25 12.0781 9.20312 12.0312 9.20312 11.9375V8.60938C9.20312 8.51562 9.25 8.42188 9.34375 8.42188H9.90625ZM8.59375 11.2344C8.6875 11.2344 8.73438 11.3281 8.73438 11.375V11.9375C8.73438 11.9844 8.6875 12.0781 8.59375 12.0781H6.4375C6.39062 12.0781 6.39062 12.0312 6.34375 12.0312C6.34375 11.9844 6.29688 11.9844 6.29688 11.9375V8.60938C6.29688 8.51562 6.39062 8.42188 6.4375 8.42188H7C7.09375 8.42188 7.14062 8.51562 7.14062 8.60938V11.2344H8.59375ZM16.5625 8.42188C16.6094 8.42188 16.7031 8.51562 16.7031 8.60938V9.125C16.7031 9.21875 16.6094 9.26562 16.5625 9.26562H15.1094V9.82812H16.5625C16.6094 9.82812 16.7031 9.92188 16.7031 9.96875V10.5312C16.7031 10.625 16.6094 10.6719 16.5625 10.6719H15.1094V11.2344H16.5625C16.6094 11.2344 16.7031 11.3281 16.7031 11.375V11.9375C16.7031 12.0312 16.6094 12.0781 16.5625 12.0781H14.4062C14.3125 12.0781 14.2656 11.9844 14.2656 11.9375V8.60938C14.2656 8.51562 14.3125 8.42188 14.4062 8.42188H16.5625ZM22 4.34375V17.7031C21.9531 19.8125 20.2656 21.5469 18.1562 21.5H4.79688C2.6875 21.5 0.953125 19.8125 1 17.7031V4.29688C1 2.23438 2.6875 0.5 4.79688 0.5H18.2031C20.2656 0.546875 22 2.23438 22 4.34375ZM19.0938 10.1094C19.0938 6.6875 15.6719 3.875 11.4531 3.875C7.23438 3.875 3.8125 6.6875 3.8125 10.1094C3.8125 13.1562 6.53125 15.7344 10.1875 16.2031C11.0781 16.3906 10.9844 16.7188 10.7969 17.9375C10.75 18.125 10.6094 18.6875 11.4531 18.3594C12.25 18.0312 15.8594 15.7812 17.4531 13.9062C18.5781 12.6875 19.0938 11.4688 19.0938 10.1094Z" fill="#A58C79"/>
</svg>
