<svg width="616" height="332" viewBox="0 0 616 332" fill="none" xmlns="http://www.w3.org/2000/svg">
<g opacity="0.3" clip-path="url(#clip0_19_964)">
<path d="M198.5 111.49C186.175 111.49 174.79 104.972 168.033 94.056C165.954 90.7072 164.695 87.0985 163.485 83.6098C162.755 81.5105 161.996 79.3413 161.066 77.2521C158.587 71.6641 154.659 66.7859 149.711 63.1572C143.764 58.7987 136.417 56.3996 129.02 56.3996C128.66 56.3996 128.37 56.1097 128.37 55.7499C128.37 55.39 128.66 55.1001 129.02 55.1001C140.885 55.1001 151.86 48.8124 158.377 38.2862C160.376 35.0573 161.556 31.6786 162.805 28.0898C163.545 25.9706 164.315 23.7714 165.264 21.6322C167.833 15.8343 171.901 10.7761 177.039 7.01746C183.207 2.4991 190.833 0 198.5 0C206.167 0 213.793 2.4891 219.961 7.01746C225.088 10.7761 229.167 15.8343 231.736 21.6322C232.685 23.7714 233.455 25.9706 234.195 28.0898C235.444 31.6686 236.624 35.0473 238.623 38.2762C245.14 48.8024 256.115 55.0901 267.98 55.0901C268.34 55.0901 268.63 55.38 268.63 55.7398C268.63 56.0997 268.34 56.3896 267.98 56.3896C260.583 56.3896 253.236 58.7887 247.289 63.1472C242.341 66.7759 238.413 71.6441 235.934 77.2421C235.004 79.3313 234.255 81.5005 233.515 83.5998C232.295 87.0885 231.036 90.6972 228.967 94.046C222.21 104.962 210.815 111.48 198.5 111.48V111.49ZM135.777 55.7299C141.075 56.7395 146.143 58.9187 150.491 62.0976C155.618 65.8562 159.697 70.9144 162.266 76.7123C163.215 78.8515 163.985 81.0507 164.725 83.1699C165.974 86.7486 167.153 90.1274 169.153 93.3563C175.67 103.882 186.645 110.17 198.51 110.17C210.375 110.17 221.35 103.882 227.867 93.3563C229.866 90.1274 231.046 86.7486 232.295 83.1699C233.035 81.0507 233.805 78.8515 234.754 76.7123C237.323 70.9144 241.391 65.8562 246.529 62.0976C250.877 58.9087 255.945 56.7295 261.243 55.7299C251.597 53.8205 243.031 47.8427 237.523 38.9559C235.444 35.6071 234.185 31.9984 232.975 28.5097C232.245 26.4105 231.486 24.2412 230.556 22.152C228.077 16.564 224.149 11.6858 219.201 8.05709C213.254 3.69866 205.907 1.29953 198.51 1.29953C191.113 1.29953 183.766 3.69866 177.819 8.05709C172.871 11.6858 168.943 16.554 166.464 22.152C165.534 24.2412 164.784 26.4105 164.045 28.5097C162.825 31.9984 161.566 35.6071 159.497 38.9559C153.999 47.8427 145.423 53.8106 135.777 55.7299Z" fill="#A58C79"/>
<path d="M157.997 71.2542C157.768 71.2542 157.538 71.1242 157.418 70.9043C157.248 70.5844 157.368 70.1946 157.688 70.0246C165.804 65.7062 171.941 57.1993 175.67 50.8216C177.649 47.4328 178.968 44.044 180.248 40.7752C182.297 35.5471 183.916 31.4086 187.535 28.5496C190.723 26.0405 194.612 24.631 198.5 24.591C202.388 24.5711 206.197 25.8806 209.265 28.2797C212.984 31.1787 214.343 34.9173 216.232 40.0854C217.372 43.1943 218.661 46.723 220.66 50.2318C223.799 55.7198 230.416 65.5462 239.462 69.7347C239.792 69.8847 239.932 70.2745 239.782 70.6044C239.632 70.9343 239.242 71.0742 238.913 70.9243C229.537 66.5759 222.74 56.4995 219.521 50.8815C217.462 47.2828 216.152 43.7041 214.993 40.5353C213.184 35.5671 211.864 31.9784 208.446 29.3093C205.607 27.0901 202.078 25.8806 198.49 25.8906C194.892 25.9206 191.283 27.2301 188.324 29.5592C184.976 32.1983 183.416 36.1869 181.437 41.235C180.138 44.5538 178.798 47.9826 176.769 51.4613C172.961 57.979 166.664 66.6958 158.277 71.1542C158.177 71.2042 158.077 71.2342 157.967 71.2342L157.997 71.2542Z" fill="#A58C79"/>
<path d="M198.5 78.3616C197.061 78.3616 195.891 77.192 195.891 75.7525V63.8469C195.891 62.4074 197.061 61.2378 198.5 61.2378C199.939 61.2378 201.109 62.4074 201.109 63.8469V75.7525C201.109 77.192 199.939 78.3616 198.5 78.3616Z" fill="#A58C79"/>
<path d="M198.5 84.4297C197.061 84.4297 195.891 85.5993 195.891 87.0387V110.74C196.751 110.8 197.62 110.85 198.5 110.85C199.38 110.85 200.249 110.81 201.109 110.74V87.0387C201.109 85.5993 199.939 84.4297 198.5 84.4297Z" fill="#A58C79"/>
<path d="M181.667 84.4297C180.228 84.4297 179.058 85.5993 179.058 87.0387V104.782C180.708 105.922 182.457 106.902 184.276 107.741V87.0387C184.276 85.5993 183.107 84.4297 181.667 84.4297Z" fill="#A58C79"/>
<path d="M215.343 84.4297C213.903 84.4297 212.734 85.5993 212.734 87.0387V107.741C214.553 106.912 216.302 105.922 217.952 104.782V87.0387C217.952 85.5993 216.782 84.4297 215.343 84.4297Z" fill="#A58C79"/>
<path d="M197.98 54.4701C199.708 54.4701 201.109 53.0693 201.109 51.3413C201.109 49.6132 199.708 48.2124 197.98 48.2124C196.252 48.2124 194.852 49.6132 194.852 51.3413C194.852 53.0693 196.252 54.4701 197.98 54.4701Z" fill="#A58C79"/>
<path d="M181.147 78.5717C182.875 78.5717 184.276 77.1709 184.276 75.4428C184.276 73.7148 182.875 72.314 181.147 72.314C179.42 72.314 178.019 73.7148 178.019 75.4428C178.019 77.1709 179.42 78.5717 181.147 78.5717Z" fill="#A58C79"/>
<path d="M215.862 78.5717C217.59 78.5717 218.991 77.1709 218.991 75.4428C218.991 73.7148 217.59 72.314 215.862 72.314C214.135 72.314 212.734 73.7148 212.734 75.4428C212.734 77.1709 214.135 78.5717 215.862 78.5717Z" fill="#A58C79"/>
<path d="M249.978 60.6978C241.062 60.5079 233.325 48.7322 230.396 43.614C228.757 40.7551 227.637 37.6862 226.558 34.7272C224.429 28.9093 222.23 22.8915 216.162 18.1432C211.204 14.2746 205.057 12.1654 198.84 12.2254C192.642 12.2853 186.465 14.4945 181.467 18.4431C175.61 23.0714 173.191 29.2492 170.852 35.2171C169.672 38.226 168.463 41.3248 166.814 44.1438C163.965 49.0221 156.768 59.8981 148.482 61.4776C149.061 61.8474 149.641 62.2273 150.201 62.6371C151.35 63.4768 152.43 64.3965 153.469 65.3662C161.566 61.7575 167.923 52.7107 171.362 46.8029C173.211 43.634 174.5 40.3352 175.75 37.1464C177.929 31.5784 179.988 26.3203 184.726 22.5816C188.824 19.3528 193.852 17.5434 198.89 17.5035C203.908 17.4635 208.905 19.1629 212.924 22.3017C217.812 26.1203 219.571 30.9486 221.62 36.5466C222.779 39.7154 223.979 42.9942 225.838 46.2431C229.307 52.3009 235.824 61.6775 244.29 64.8763C245.16 64.0966 246.059 63.3369 247.009 62.6471C247.969 61.9474 248.968 61.3176 249.988 60.7178L249.978 60.6978Z" fill="#A58C79"/>
<path d="M337.47 111.489C325.145 111.489 313.76 104.972 307.003 94.0558C304.924 90.707 303.665 87.0983 302.455 83.6096C301.725 81.5103 300.966 79.3411 300.036 77.2518C297.557 71.6639 293.629 66.7856 288.681 63.1569C282.734 58.7985 275.387 56.3994 267.99 56.3994C267.63 56.3994 267.34 56.1095 267.34 55.7496C267.34 55.3898 267.63 55.0999 267.99 55.0999C279.855 55.0999 290.83 48.8121 297.347 38.2859C299.347 35.0571 300.526 31.6783 301.775 28.0996C302.515 25.9804 303.285 23.7812 304.234 21.6419C306.803 15.844 310.872 10.7859 316.009 7.02723C322.177 2.50886 329.803 0.00976562 337.47 0.00976562C345.137 0.00976562 352.763 2.49887 358.931 7.02723C364.059 10.7859 368.137 15.844 370.706 21.6419C371.655 23.7812 372.425 25.9804 373.165 28.0996C374.414 31.6783 375.594 35.0571 377.593 38.2859C384.11 48.8121 395.085 55.0999 406.95 55.0999C407.31 55.0999 407.6 55.3898 407.6 55.7496C407.6 56.1095 407.31 56.3994 406.95 56.3994C399.553 56.3994 392.206 58.7985 386.259 63.1569C381.311 66.7856 377.383 71.6539 374.904 77.2518C373.974 79.3411 373.225 81.5103 372.485 83.6096C371.265 87.0983 370.006 90.707 367.937 94.0558C361.18 104.972 349.785 111.489 337.47 111.489ZM274.747 55.7296C280.045 56.7393 285.113 58.9185 289.461 62.0973C294.589 65.856 298.667 70.9141 301.236 76.712C302.185 78.8513 302.955 81.0505 303.695 83.1697C304.944 86.7484 306.124 90.1272 308.123 93.356C314.64 103.882 325.615 110.17 337.48 110.17C349.345 110.17 360.32 103.882 366.837 93.356C368.837 90.1272 370.016 86.7484 371.265 83.1697C372.005 81.0505 372.775 78.8513 373.724 76.712C376.293 70.9141 380.362 65.856 385.499 62.0973C389.848 58.9085 394.915 56.7293 400.213 55.7296C390.567 53.8203 382.001 47.8425 376.493 38.9557C374.414 35.6069 373.155 31.9982 371.945 28.5095C371.216 26.4102 370.456 24.241 369.526 22.1518C367.047 16.5638 363.119 11.6855 358.171 8.05686C352.224 3.69843 344.877 1.2993 337.48 1.2993C330.083 1.2993 322.736 3.69843 316.789 8.05686C311.841 11.6855 307.913 16.5538 305.434 22.1518C304.504 24.241 303.755 26.4102 303.015 28.5095C301.795 31.9982 300.536 35.6069 298.467 38.9557C292.969 47.8425 284.393 53.8103 274.747 55.7296Z" fill="#A58C79"/>
<path d="M296.958 71.2542C296.728 71.2542 296.498 71.1242 296.378 70.9043C296.208 70.5844 296.328 70.1946 296.648 70.0246C304.764 65.7062 310.902 57.1993 314.63 50.8216C316.609 47.4328 317.928 44.044 319.208 40.7752C321.257 35.5471 322.876 31.4086 326.495 28.5496C329.683 26.0405 333.572 24.631 337.46 24.591C341.328 24.5711 345.157 25.8806 348.225 28.2797C351.944 31.1787 353.303 34.9173 355.192 40.0854C356.332 43.1943 357.621 46.723 359.621 50.2318C362.759 55.7198 369.376 65.5462 378.422 69.7347C378.752 69.8847 378.892 70.2745 378.742 70.6044C378.592 70.9343 378.203 71.0742 377.873 70.9243C368.497 66.5759 361.7 56.4995 358.481 50.8815C356.422 47.2828 355.112 43.7041 353.953 40.5353C352.144 35.5671 350.824 31.9784 347.406 29.3093C344.567 27.0901 341.049 25.8806 337.45 25.8906C333.852 25.9206 330.243 27.2301 327.284 29.5592C323.936 32.1983 322.377 36.1869 320.397 41.235C319.098 44.5538 317.759 47.9826 315.729 51.4613C311.921 57.979 305.624 66.6958 297.237 71.1542C297.137 71.2042 297.037 71.2342 296.928 71.2342L296.958 71.2542Z" fill="#A58C79"/>
<path d="M337.47 78.3616C336.031 78.3616 334.861 77.192 334.861 75.7525V63.8469C334.861 62.4074 336.031 61.2378 337.47 61.2378C338.909 61.2378 340.079 62.4074 340.079 63.8469V75.7525C340.079 77.192 338.909 78.3616 337.47 78.3616Z" fill="#A58C79"/>
<path d="M337.47 84.4292C336.031 84.4292 334.861 85.5988 334.861 87.0383V110.74C335.721 110.8 336.59 110.85 337.47 110.85C338.35 110.85 339.219 110.81 340.079 110.74V87.0383C340.079 85.5988 338.909 84.4292 337.47 84.4292Z" fill="#A58C79"/>
<path d="M320.627 84.4292C319.188 84.4292 318.018 85.5988 318.018 87.0383V104.782C319.668 105.921 321.417 106.901 323.236 107.741V87.0383C323.236 85.5988 322.067 84.4292 320.627 84.4292Z" fill="#A58C79"/>
<path d="M354.303 84.4292C352.863 84.4292 351.694 85.5988 351.694 87.0383V107.741C353.513 106.911 355.262 105.921 356.912 104.782V87.0383C356.912 85.5988 355.742 84.4292 354.303 84.4292Z" fill="#A58C79"/>
<path d="M336.95 54.4701C338.678 54.4701 340.079 53.0693 340.079 51.3413C340.079 49.6132 338.678 48.2124 336.95 48.2124C335.222 48.2124 333.822 49.6132 333.822 51.3413C333.822 53.0693 335.222 54.4701 336.95 54.4701Z" fill="#A58C79"/>
<path d="M320.108 78.5712C321.835 78.5712 323.236 77.1704 323.236 75.4424C323.236 73.7143 321.835 72.3135 320.108 72.3135C318.38 72.3135 316.979 73.7143 316.979 75.4424C316.979 77.1704 318.38 78.5712 320.108 78.5712Z" fill="#A58C79"/>
<path d="M354.823 78.5712C356.551 78.5712 357.951 77.1704 357.951 75.4424C357.951 73.7143 356.551 72.3135 354.823 72.3135C353.095 72.3135 351.694 73.7143 351.694 75.4424C351.694 77.1704 353.095 78.5712 354.823 78.5712Z" fill="#A58C79"/>
<path d="M388.948 60.6978C380.032 60.5079 372.295 48.7322 369.366 43.614C367.727 40.7551 366.607 37.6862 365.528 34.7272C363.399 28.9093 361.2 22.8915 355.132 18.1432C350.175 14.2746 344.027 12.1654 337.81 12.2254C331.613 12.2853 325.435 14.4945 320.437 18.4431C314.58 23.0714 312.161 29.2492 309.822 35.2171C308.642 38.226 307.433 41.3248 305.784 44.1438C302.935 49.0221 295.738 59.8981 287.452 61.4776C288.031 61.8474 288.611 62.2273 289.171 62.6371C290.32 63.4768 291.4 64.3965 292.439 65.3662C300.536 61.7575 306.893 52.7107 310.332 46.8029C312.181 43.634 313.47 40.3352 314.72 37.1464C316.899 31.5784 318.958 26.3203 323.696 22.5816C327.794 19.3528 332.822 17.5434 337.86 17.5035C342.878 17.4635 347.876 19.1629 351.894 22.3017C356.782 26.1203 358.541 30.9486 360.59 36.5466C361.75 39.7154 362.949 42.9942 364.808 46.2431C368.277 52.3009 374.794 61.6775 383.26 64.8763C384.13 64.0966 385.03 63.3369 385.979 62.6471C386.939 61.9474 387.938 61.3176 388.958 60.7178L388.948 60.6978Z" fill="#A58C79"/>
<path d="M267.98 166.59C255.655 166.59 244.27 160.072 237.513 149.156C235.434 145.807 234.175 142.198 232.965 138.71C232.235 136.61 231.476 134.441 230.546 132.352C228.067 126.764 224.139 121.886 219.191 118.257C213.244 113.899 205.897 111.499 198.5 111.499C198.14 111.499 197.85 111.21 197.85 110.85C197.85 110.49 198.14 110.2 198.5 110.2C210.365 110.2 221.34 103.912 227.857 93.386C229.856 90.1572 231.036 86.7784 232.285 83.1997C233.025 81.0805 233.795 78.8813 234.744 76.742C237.313 70.9441 241.381 65.886 246.519 62.1273C252.687 57.609 260.313 55.1099 267.98 55.1099C275.647 55.1099 283.273 57.599 289.441 62.1273C294.569 65.886 298.647 70.9441 301.216 76.742C302.165 78.8813 302.935 81.0805 303.675 83.1997C304.924 86.7784 306.104 90.1572 308.103 93.386C314.62 103.912 325.595 110.2 337.46 110.2C337.82 110.2 338.11 110.49 338.11 110.85C338.11 111.21 337.82 111.499 337.46 111.499C330.063 111.499 322.716 113.899 316.769 118.257C311.821 121.886 307.893 126.754 305.414 132.352C304.484 134.441 303.735 136.61 302.995 138.71C301.775 142.198 300.516 145.807 298.447 149.156C291.69 160.072 280.295 166.59 267.98 166.59ZM205.257 110.83C210.555 111.839 215.623 114.019 219.971 117.197C225.099 120.956 229.177 126.014 231.746 131.812C232.695 133.951 233.465 136.151 234.205 138.27C235.454 141.849 236.634 145.227 238.633 148.456C245.15 158.982 256.125 165.27 267.99 165.27C279.855 165.27 290.83 158.982 297.347 148.456C299.347 145.227 300.526 141.849 301.775 138.27C302.515 136.151 303.285 133.951 304.234 131.812C306.803 126.014 310.872 120.956 316.009 117.197C320.357 114.009 325.425 111.829 330.723 110.83C321.077 108.92 312.511 102.943 307.003 94.0558C304.924 90.707 303.675 87.0983 302.455 83.6096C301.725 81.5103 300.966 79.3411 300.036 77.2519C297.557 71.6639 293.629 66.7856 288.681 63.157C282.734 58.7985 275.387 56.3994 267.99 56.3994C260.593 56.3994 253.246 58.7985 247.299 63.157C242.351 66.7856 238.423 71.6539 235.944 77.2519C235.014 79.3411 234.265 81.5103 233.525 83.6096C232.305 87.0983 231.046 90.707 228.977 94.0558C223.479 102.943 214.903 108.91 205.257 110.83Z" fill="#A58C79"/>
<path d="M227.477 126.354C227.248 126.354 227.018 126.224 226.898 126.004C226.728 125.684 226.848 125.294 227.168 125.125C235.284 120.806 241.421 112.299 245.15 105.921C247.129 102.533 248.448 99.1439 249.728 95.8751C251.777 90.647 253.396 86.5085 257.015 83.6495C260.203 81.1405 264.092 79.731 267.98 79.691C271.858 79.681 275.677 80.9805 278.745 83.3796C282.464 86.2786 283.823 90.0172 285.712 95.1854C286.852 98.2943 288.141 101.823 290.14 105.332C293.279 110.82 299.896 120.646 308.942 124.835C309.272 124.985 309.412 125.374 309.262 125.704C309.112 126.034 308.722 126.174 308.393 126.024C299.017 121.676 292.22 111.599 289.001 105.981C286.942 102.383 285.632 98.8041 284.473 95.6352C282.664 90.667 281.344 87.0783 277.926 84.4093C275.087 82.1901 271.568 80.9805 267.97 80.9905C264.372 81.0205 260.763 82.33 257.804 84.6592C254.456 87.2982 252.897 91.2868 250.917 96.335C249.618 99.6538 248.279 103.083 246.249 106.561C242.441 113.079 236.144 121.796 227.757 126.254C227.657 126.304 227.557 126.334 227.447 126.334L227.477 126.354Z" fill="#A58C79"/>
<path d="M267.98 133.462C266.541 133.462 265.371 132.292 265.371 130.853V118.947C265.371 117.507 266.541 116.338 267.98 116.338C269.419 116.338 270.589 117.507 270.589 118.947V130.853C270.589 132.292 269.419 133.462 267.98 133.462Z" fill="#A58C79"/>
<path d="M267.98 139.529C266.541 139.529 265.371 140.699 265.371 142.138V165.84C266.231 165.9 267.1 165.95 267.98 165.95C268.86 165.95 269.729 165.91 270.589 165.84V142.138C270.589 140.699 269.419 139.529 267.98 139.529Z" fill="#A58C79"/>
<path d="M251.147 139.529C249.708 139.529 248.538 140.699 248.538 142.138V159.882C250.188 161.022 251.937 162.001 253.756 162.841V142.138C253.756 140.699 252.587 139.529 251.147 139.529Z" fill="#A58C79"/>
<path d="M284.823 139.529C283.383 139.529 282.214 140.699 282.214 142.138V162.841C284.033 162.011 285.782 161.022 287.432 159.882V142.138C287.432 140.699 286.262 139.529 284.823 139.529Z" fill="#A58C79"/>
<path d="M267.46 109.56C269.188 109.56 270.589 108.159 270.589 106.431C270.589 104.703 269.188 103.302 267.46 103.302C265.732 103.302 264.332 104.703 264.332 106.431C264.332 108.159 265.732 109.56 267.46 109.56Z" fill="#A58C79"/>
<path d="M253.756 130.542C253.756 132.272 252.357 133.671 250.627 133.671C248.898 133.671 247.499 132.272 247.499 130.542C247.499 128.813 248.898 127.414 250.627 127.414C252.357 127.414 253.756 128.813 253.756 130.542Z" fill="#A58C79"/>
<path d="M285.343 133.671C287.07 133.671 288.471 132.27 288.471 130.542C288.471 128.814 287.07 127.414 285.343 127.414C283.615 127.414 282.214 128.814 282.214 130.542C282.214 132.27 283.615 133.671 285.343 133.671Z" fill="#A58C79"/>
<path d="M319.468 115.798C310.552 115.608 302.815 103.832 299.886 98.7141C298.247 95.8552 297.127 92.7863 296.048 89.8273C293.919 84.0094 291.72 77.9916 285.652 73.2433C280.695 69.3747 274.547 67.2655 268.33 67.3255C262.133 67.3854 255.955 69.5946 250.957 73.5432C245.1 78.1715 242.681 84.3493 240.342 90.3172C239.162 93.3261 237.953 96.4249 236.304 99.2439C233.455 104.122 226.258 114.998 217.972 116.578C218.551 116.948 219.131 117.327 219.691 117.737C220.84 118.577 221.92 119.497 222.959 120.466C231.056 116.858 237.413 107.811 240.852 101.903C242.701 98.7341 243.99 95.4353 245.24 92.2465C247.419 86.6785 249.478 81.4204 254.216 77.6817C258.314 74.4529 263.342 72.6435 268.38 72.6036C273.398 72.5636 278.396 74.263 282.414 77.4018C287.302 81.2204 289.061 86.0487 291.11 91.6467C292.27 94.8155 293.469 98.0943 295.328 101.343C298.797 107.401 305.314 116.778 313.78 119.976C314.65 119.197 315.55 118.437 316.499 117.747C317.459 117.047 318.458 116.418 319.478 115.818L319.468 115.798Z" fill="#A58C79"/>
<path d="M198.5 221.68C186.175 221.68 174.79 215.162 168.033 204.246C165.954 200.897 164.695 197.288 163.485 193.8C162.755 191.7 161.996 189.531 161.066 187.442C158.587 181.854 154.659 176.976 149.711 173.347C143.764 168.989 136.417 166.59 129.02 166.59C128.66 166.59 128.37 166.3 128.37 165.94C128.37 165.58 128.66 165.29 129.02 165.29C140.885 165.29 151.86 159.002 158.377 148.476C160.376 145.247 161.556 141.868 162.805 138.28C163.545 136.161 164.315 133.961 165.264 131.822C167.833 126.024 171.901 120.966 177.039 117.207C183.207 112.689 190.833 110.19 198.5 110.19C206.167 110.19 213.793 112.679 219.961 117.207C225.088 120.966 229.167 126.024 231.736 131.822C232.685 133.961 233.455 136.161 234.195 138.28C235.444 141.858 236.624 145.237 238.623 148.466C245.14 158.992 256.115 165.28 267.98 165.28C268.34 165.28 268.63 165.57 268.63 165.93C268.63 166.29 268.34 166.58 267.98 166.58C260.583 166.58 253.236 168.979 247.289 173.337C242.341 176.966 238.413 181.834 235.934 187.432C235.004 189.521 234.255 191.69 233.515 193.79C232.295 197.278 231.036 200.887 228.967 204.236C222.21 215.152 210.815 221.67 198.5 221.67V221.68ZM135.777 165.92C141.075 166.929 146.143 169.109 150.491 172.287C155.618 176.046 159.697 181.104 162.266 186.902C163.215 189.041 163.985 191.241 164.725 193.36C165.974 196.939 167.153 200.317 169.153 203.546C175.67 214.072 186.645 220.36 198.51 220.36C210.375 220.36 221.35 214.072 227.867 203.546C229.866 200.317 231.046 196.939 232.295 193.36C233.035 191.241 233.805 189.041 234.754 186.902C237.323 181.104 241.391 176.046 246.529 172.287C250.877 169.099 255.945 166.919 261.243 165.92C251.597 164.01 243.031 158.033 237.523 149.146C235.444 145.797 234.185 142.188 232.975 138.7C232.245 136.6 231.486 134.431 230.556 132.342C228.077 126.754 224.149 121.876 219.201 118.247C213.254 113.889 205.907 111.489 198.51 111.489C191.113 111.489 183.766 113.889 177.819 118.247C172.871 121.876 168.943 126.744 166.464 132.342C165.534 134.431 164.784 136.6 164.045 138.7C162.825 142.188 161.566 145.797 159.497 149.146C153.999 158.033 145.423 164 135.777 165.92Z" fill="#A58C79"/>
<path d="M157.997 181.444C157.768 181.444 157.538 181.314 157.418 181.094C157.248 180.774 157.368 180.385 157.688 180.215C165.804 175.896 171.941 167.389 175.67 161.012C177.649 157.623 178.968 154.234 180.248 150.965C182.297 145.737 183.916 141.599 187.535 138.74C190.723 136.23 194.612 134.821 198.5 134.781C202.388 134.761 206.197 136.071 209.265 138.47C212.984 141.369 214.343 145.107 216.232 150.275C217.372 153.384 218.661 156.913 220.66 160.422C223.799 165.91 230.416 175.736 239.462 179.925C239.792 180.075 239.932 180.464 239.782 180.794C239.632 181.124 239.242 181.264 238.913 181.114C229.537 176.766 222.74 166.689 219.521 161.071C217.462 157.473 216.152 153.894 214.993 150.725C213.184 145.757 211.864 142.168 208.446 139.499C205.607 137.28 202.078 136.071 198.49 136.081C194.892 136.111 191.283 137.42 188.324 139.749C184.976 142.388 183.416 146.377 181.437 151.425C180.138 154.744 178.798 158.173 176.769 161.651C172.961 168.169 166.664 176.886 158.277 181.344C158.177 181.394 158.077 181.424 157.967 181.424L157.997 181.444Z" fill="#A58C79"/>
<path d="M198.5 188.552C197.061 188.552 195.891 187.382 195.891 185.942V174.037C195.891 172.597 197.061 171.428 198.5 171.428C199.939 171.428 201.109 172.597 201.109 174.037V185.942C201.109 187.382 199.939 188.552 198.5 188.552Z" fill="#A58C79"/>
<path d="M198.5 194.62C197.061 194.62 195.891 195.789 195.891 197.229V220.93C196.751 220.99 197.62 221.04 198.5 221.04C199.38 221.04 200.249 221 201.109 220.93V197.229C201.109 195.789 199.939 194.62 198.5 194.62Z" fill="#A58C79"/>
<path d="M181.667 194.62C180.228 194.62 179.058 195.789 179.058 197.229V214.972C180.708 216.112 182.457 217.091 184.276 217.931V197.229C184.276 195.789 183.107 194.62 181.667 194.62Z" fill="#A58C79"/>
<path d="M215.343 194.62C213.903 194.62 212.734 195.789 212.734 197.229V217.931C214.553 217.101 216.302 216.112 217.952 214.972V197.229C217.952 195.789 216.782 194.62 215.343 194.62Z" fill="#A58C79"/>
<path d="M197.98 164.66C199.708 164.66 201.109 163.259 201.109 161.531C201.109 159.803 199.708 158.402 197.98 158.402C196.252 158.402 194.852 159.803 194.852 161.531C194.852 163.259 196.252 164.66 197.98 164.66Z" fill="#A58C79"/>
<path d="M181.147 188.762C182.875 188.762 184.276 187.361 184.276 185.633C184.276 183.905 182.875 182.504 181.147 182.504C179.42 182.504 178.019 183.905 178.019 185.633C178.019 187.361 179.42 188.762 181.147 188.762Z" fill="#A58C79"/>
<path d="M215.862 188.762C217.59 188.762 218.991 187.361 218.991 185.633C218.991 183.905 217.59 182.504 215.862 182.504C214.135 182.504 212.734 183.905 212.734 185.633C212.734 187.361 214.135 188.762 215.862 188.762Z" fill="#A58C79"/>
<path d="M249.978 170.888C241.062 170.698 233.325 158.922 230.396 153.804C228.757 150.945 227.637 147.876 226.558 144.917C224.429 139.099 222.23 133.081 216.162 128.333C211.204 124.465 205.057 122.355 198.84 122.415C192.642 122.475 186.465 124.684 181.467 128.633C175.61 133.261 173.191 139.439 170.852 145.407C169.672 148.416 168.463 151.515 166.814 154.334C163.965 159.212 156.768 170.088 148.482 171.667C149.061 172.037 149.641 172.417 150.201 172.827C151.35 173.667 152.43 174.586 153.469 175.556C161.566 171.947 167.923 162.901 171.362 156.993C173.211 153.824 174.5 150.525 175.75 147.336C177.929 141.768 179.988 136.51 184.726 132.772C188.824 129.543 193.852 127.733 198.89 127.693C203.908 127.653 208.905 129.353 212.924 132.492C217.812 136.31 219.571 141.139 221.62 146.737C222.779 149.905 223.979 153.184 225.838 156.433C229.307 162.491 235.824 171.867 244.29 175.066C245.16 174.287 246.059 173.527 247.009 172.837C247.969 172.137 248.968 171.508 249.988 170.908L249.978 170.888Z" fill="#A58C79"/>
<path d="M337.47 221.679C325.145 221.679 313.76 215.162 307.003 204.246C304.924 200.897 303.665 197.288 302.455 193.799C301.725 191.7 300.966 189.531 300.036 187.442C297.557 181.854 293.629 176.976 288.681 173.347C282.734 168.988 275.387 166.589 267.99 166.589C267.63 166.589 267.34 166.299 267.34 165.94C267.34 165.58 267.63 165.29 267.99 165.29C279.855 165.29 290.83 159.002 297.347 148.476C299.347 145.247 300.526 141.868 301.775 138.29C302.515 136.17 303.285 133.971 304.234 131.832C306.803 126.034 310.872 120.976 316.009 117.217C322.177 112.699 329.803 110.2 337.47 110.2C345.137 110.2 352.763 112.689 358.931 117.217C364.059 120.976 368.137 126.034 370.706 131.832C371.655 133.971 372.425 136.17 373.165 138.29C374.414 141.868 375.594 145.247 377.593 148.476C384.11 159.002 395.085 165.29 406.95 165.29C407.31 165.29 407.6 165.58 407.6 165.94C407.6 166.299 407.31 166.589 406.95 166.589C399.553 166.589 392.206 168.988 386.259 173.347C381.311 176.976 377.383 181.844 374.904 187.442C373.974 189.531 373.225 191.7 372.485 193.799C371.265 197.288 370.006 200.897 367.937 204.246C361.18 215.162 349.785 221.679 337.47 221.679ZM274.747 165.92C280.045 166.929 285.113 169.108 289.461 172.287C294.589 176.046 298.667 181.104 301.236 186.902C302.185 189.041 302.955 191.24 303.695 193.36C304.944 196.938 306.124 200.317 308.123 203.546C314.64 214.072 325.615 220.36 337.48 220.36C349.345 220.36 360.32 214.072 366.837 203.546C368.837 200.317 370.016 196.938 371.265 193.36C372.005 191.24 372.775 189.041 373.724 186.902C376.293 181.104 380.362 176.046 385.499 172.287C389.848 169.098 394.915 166.919 400.213 165.92C390.567 164.01 382.001 158.032 376.493 149.146C374.414 145.797 373.155 142.188 371.945 138.699C371.216 136.6 370.456 134.431 369.526 132.342C367.047 126.754 363.119 121.875 358.171 118.247C352.224 113.888 344.877 111.489 337.48 111.489C330.083 111.489 322.736 113.888 316.789 118.247C311.841 121.875 307.913 126.744 305.434 132.342C304.504 134.431 303.755 136.6 303.015 138.699C301.795 142.188 300.536 145.797 298.467 149.146C292.969 158.032 284.393 164 274.747 165.92Z" fill="#A58C79"/>
<path d="M296.958 181.444C296.728 181.444 296.498 181.314 296.378 181.094C296.208 180.774 296.328 180.385 296.648 180.215C304.764 175.896 310.902 167.389 314.63 161.012C316.609 157.623 317.928 154.234 319.208 150.965C321.257 145.737 322.876 141.599 326.495 138.74C329.683 136.23 333.572 134.821 337.46 134.781C341.328 134.761 345.157 136.071 348.225 138.47C351.944 141.369 353.303 145.107 355.192 150.275C356.332 153.384 357.621 156.913 359.621 160.422C362.759 165.91 369.376 175.736 378.422 179.925C378.752 180.075 378.892 180.464 378.742 180.794C378.592 181.124 378.203 181.264 377.873 181.114C368.497 176.766 361.7 166.689 358.481 161.071C356.422 157.473 355.112 153.894 353.953 150.725C352.144 145.757 350.824 142.168 347.406 139.499C344.567 137.28 341.049 136.071 337.45 136.081C333.852 136.111 330.243 137.42 327.284 139.749C323.936 142.388 322.377 146.377 320.397 151.425C319.098 154.744 317.759 158.173 315.729 161.651C311.921 168.169 305.624 176.886 297.237 181.344C297.137 181.394 297.037 181.424 296.928 181.424L296.958 181.444Z" fill="#A58C79"/>
<path d="M337.47 188.552C336.031 188.552 334.861 187.382 334.861 185.942V174.037C334.861 172.597 336.031 171.428 337.47 171.428C338.909 171.428 340.079 172.597 340.079 174.037V185.942C340.079 187.382 338.909 188.552 337.47 188.552Z" fill="#A58C79"/>
<path d="M337.47 194.619C336.031 194.619 334.861 195.789 334.861 197.228V220.93C335.721 220.99 336.59 221.04 337.47 221.04C338.35 221.04 339.219 221 340.079 220.93V197.228C340.079 195.789 338.909 194.619 337.47 194.619Z" fill="#A58C79"/>
<path d="M320.627 194.619C319.188 194.619 318.018 195.789 318.018 197.228V214.972C319.668 216.111 321.417 217.091 323.236 217.931V197.228C323.236 195.789 322.067 194.619 320.627 194.619Z" fill="#A58C79"/>
<path d="M354.303 194.619C352.863 194.619 351.694 195.789 351.694 197.228V217.931C353.513 217.101 355.262 216.111 356.912 214.972V197.228C356.912 195.789 355.742 194.619 354.303 194.619Z" fill="#A58C79"/>
<path d="M336.95 164.66C338.678 164.66 340.079 163.259 340.079 161.531C340.079 159.803 338.678 158.402 336.95 158.402C335.222 158.402 333.822 159.803 333.822 161.531C333.822 163.259 335.222 164.66 336.95 164.66Z" fill="#A58C79"/>
<path d="M320.108 188.761C321.835 188.761 323.236 187.36 323.236 185.632C323.236 183.904 321.835 182.503 320.108 182.503C318.38 182.503 316.979 183.904 316.979 185.632C316.979 187.36 318.38 188.761 320.108 188.761Z" fill="#A58C79"/>
<path d="M354.823 188.761C356.551 188.761 357.951 187.36 357.951 185.632C357.951 183.904 356.551 182.503 354.823 182.503C353.095 182.503 351.694 183.904 351.694 185.632C351.694 187.36 353.095 188.761 354.823 188.761Z" fill="#A58C79"/>
<path d="M388.948 170.888C380.032 170.698 372.295 158.922 369.366 153.804C367.727 150.945 366.607 147.876 365.528 144.917C363.399 139.099 361.2 133.081 355.132 128.333C350.175 124.465 344.027 122.355 337.81 122.415C331.613 122.475 325.435 124.684 320.437 128.633C314.58 133.261 312.161 139.439 309.822 145.407C308.642 148.416 307.433 151.515 305.784 154.334C302.935 159.212 295.738 170.088 287.452 171.667C288.031 172.037 288.611 172.417 289.171 172.827C290.32 173.667 291.4 174.586 292.439 175.556C300.536 171.947 306.893 162.901 310.332 156.993C312.181 153.824 313.47 150.525 314.72 147.336C316.899 141.768 318.958 136.51 323.696 132.772C327.794 129.543 332.822 127.733 337.86 127.693C342.878 127.653 347.876 129.353 351.894 132.492C356.782 136.31 358.541 141.139 360.59 146.737C361.75 149.905 362.949 153.184 364.808 156.433C368.277 162.491 374.794 171.867 383.26 175.066C384.13 174.287 385.03 173.527 385.979 172.837C386.939 172.137 387.938 171.508 388.958 170.908L388.948 170.888Z" fill="#A58C79"/>
<path d="M267.98 276.78C255.655 276.78 244.27 270.262 237.513 259.346C235.434 255.997 234.175 252.388 232.965 248.9C232.235 246.8 231.476 244.631 230.546 242.542C228.067 236.954 224.139 232.076 219.191 228.447C213.244 224.089 205.897 221.689 198.5 221.689C198.14 221.689 197.85 221.4 197.85 221.04C197.85 220.68 198.14 220.39 198.5 220.39C210.365 220.39 221.34 214.102 227.857 203.576C229.856 200.347 231.036 196.968 232.285 193.39C233.025 191.27 233.795 189.071 234.744 186.932C237.313 181.134 241.381 176.076 246.519 172.317C252.687 167.799 260.313 165.3 267.98 165.3C275.657 165.3 283.273 167.789 289.441 172.317C294.569 176.076 298.647 181.134 301.216 186.932C302.165 189.071 302.935 191.27 303.675 193.39C304.924 196.968 306.104 200.347 308.103 203.576C314.62 214.102 325.595 220.39 337.46 220.39C337.82 220.39 338.11 220.68 338.11 221.04C338.11 221.4 337.82 221.689 337.46 221.689C330.063 221.689 322.716 224.089 316.769 228.447C311.821 232.076 307.893 236.944 305.414 242.542C304.484 244.631 303.735 246.8 302.995 248.9C301.775 252.388 300.516 255.997 298.447 259.346C291.69 270.262 280.295 276.78 267.98 276.78ZM205.257 221.02C210.555 222.029 215.623 224.209 219.971 227.387C225.099 231.146 229.177 236.204 231.746 242.002C232.695 244.141 233.465 246.341 234.205 248.46C235.454 252.038 236.634 255.417 238.633 258.646C245.15 269.172 256.125 275.46 267.99 275.46C279.855 275.46 290.83 269.172 297.347 258.646C299.347 255.417 300.526 252.038 301.775 248.46C302.515 246.341 303.285 244.141 304.234 242.002C306.803 236.204 310.872 231.146 316.009 227.387C320.357 224.199 325.425 222.019 330.723 221.02C321.077 219.11 312.511 213.133 307.003 204.246C304.924 200.897 303.675 197.288 302.455 193.799C301.725 191.7 300.966 189.531 300.036 187.442C297.557 181.854 293.629 176.976 288.681 173.347C282.734 168.988 275.387 166.589 267.99 166.589C260.593 166.589 253.246 168.988 247.299 173.347C242.351 176.976 238.423 181.844 235.944 187.442C235.014 189.531 234.265 191.7 233.525 193.799C232.305 197.288 231.046 200.897 228.977 204.246C223.479 213.133 214.903 219.1 205.257 221.02Z" fill="#A58C79"/>
<path d="M227.477 236.544C227.248 236.544 227.018 236.414 226.898 236.194C226.728 235.874 226.848 235.484 227.168 235.314C235.284 230.996 241.421 222.489 245.15 216.111C247.129 212.723 248.448 209.334 249.728 206.065C251.777 200.837 253.396 196.698 257.015 193.839C260.203 191.33 264.092 189.921 267.98 189.881C271.858 189.871 275.677 191.17 278.745 193.57C282.464 196.469 283.823 200.207 285.712 205.375C286.852 208.484 288.141 212.013 290.14 215.522C293.279 221.01 299.896 230.836 308.942 235.025C309.272 235.175 309.412 235.564 309.262 235.894C309.112 236.224 308.722 236.364 308.393 236.214C299.017 231.866 292.22 221.789 289.001 216.171C286.942 212.573 285.632 208.994 284.473 205.825C282.664 200.857 281.344 197.268 277.926 194.599C275.087 192.38 271.568 191.17 267.97 191.18C264.372 191.21 260.763 192.52 257.804 194.849C254.456 197.488 252.897 201.477 250.917 206.525C249.618 209.844 248.279 213.272 246.249 216.751C242.441 223.269 236.144 231.986 227.757 236.444C227.657 236.494 227.557 236.524 227.447 236.524L227.477 236.544Z" fill="#A58C79"/>
<path d="M267.98 243.641C266.541 243.641 265.371 242.472 265.371 241.032V229.127C265.371 227.687 266.541 226.518 267.98 226.518C269.419 226.518 270.589 227.687 270.589 229.127V241.032C270.589 242.472 269.419 243.641 267.98 243.641Z" fill="#A58C79"/>
<path d="M267.98 249.709C266.541 249.709 265.371 250.879 265.371 252.319V276.02C266.231 276.08 267.1 276.13 267.98 276.13C268.86 276.13 269.729 276.09 270.589 276.02V252.319C270.589 250.879 269.419 249.709 267.98 249.709Z" fill="#A58C79"/>
<path d="M251.147 249.709C249.708 249.709 248.538 250.879 248.538 252.319V270.062C250.188 271.202 251.937 272.181 253.756 273.021V252.319C253.756 250.879 252.587 249.709 251.147 249.709Z" fill="#A58C79"/>
<path d="M284.823 249.709C283.383 249.709 282.214 250.879 282.214 252.319V273.021C284.033 272.191 285.782 271.202 287.432 270.062V252.319C287.432 250.879 286.262 249.709 284.823 249.709Z" fill="#A58C79"/>
<path d="M267.46 219.75C269.188 219.75 270.589 218.349 270.589 216.621C270.589 214.893 269.188 213.492 267.46 213.492C265.732 213.492 264.332 214.893 264.332 216.621C264.332 218.349 265.732 219.75 267.46 219.75Z" fill="#A58C79"/>
<path d="M253.756 240.732C253.756 242.462 252.357 243.861 250.627 243.861C248.898 243.861 247.499 242.462 247.499 240.732C247.499 239.003 248.898 237.604 250.627 237.604C252.357 237.604 253.756 239.003 253.756 240.732Z" fill="#A58C79"/>
<path d="M285.343 243.861C287.07 243.861 288.471 242.46 288.471 240.732C288.471 239.004 287.07 237.604 285.343 237.604C283.615 237.604 282.214 239.004 282.214 240.732C282.214 242.46 283.615 243.861 285.343 243.861Z" fill="#A58C79"/>
<path d="M319.468 225.988C310.552 225.798 302.815 214.022 299.886 208.904C298.247 206.045 297.127 202.976 296.048 200.017C293.919 194.199 291.72 188.182 285.652 183.433C280.695 179.565 274.547 177.455 268.33 177.515C262.133 177.575 255.955 179.785 250.957 183.733C245.1 188.361 242.681 194.539 240.342 200.507C239.162 203.516 237.953 206.615 236.304 209.434C233.455 214.312 226.258 225.188 217.972 226.768C218.551 227.137 219.131 227.517 219.691 227.927C220.84 228.767 221.92 229.687 222.959 230.656C231.056 227.048 237.413 218.001 240.852 212.093C242.701 208.924 243.99 205.625 245.24 202.436C247.419 196.868 249.478 191.61 254.216 187.872C258.314 184.643 263.342 182.833 268.38 182.793C273.398 182.754 278.396 184.453 282.414 187.592C287.302 191.41 289.061 196.239 291.11 201.837C292.27 205.005 293.469 208.284 295.328 211.533C298.797 217.591 305.314 226.968 313.78 230.166C314.65 229.387 315.55 228.627 316.499 227.937C317.459 227.237 318.458 226.608 319.478 226.008L319.468 225.988Z" fill="#A58C79"/>
<path d="M-9.87022 166.59C-22.1949 166.59 -33.58 160.072 -40.3371 149.156C-42.4162 145.807 -43.6757 142.199 -44.8851 138.71C-45.6148 136.611 -46.3745 134.441 -47.3041 132.352C-49.783 126.764 -53.7113 121.886 -58.6592 118.257C-64.6066 113.899 -71.9535 111.5 -79.3503 111.5C-79.7101 111.5 -80 111.21 -80 110.85C-80 110.49 -79.7101 110.2 -79.3503 110.2C-67.4854 110.2 -56.5101 103.912 -49.9929 93.3863C-47.9938 90.1574 -46.8143 86.7787 -45.5648 83.1899C-44.8252 81.0707 -44.0555 78.8715 -43.1059 76.7323C-40.537 70.9344 -36.4688 65.8762 -31.331 62.1176C-25.1636 57.5992 -17.5369 55.1001 -9.87022 55.1001C-2.20353 55.1001 5.42318 57.5892 11.5905 62.1176C16.7183 65.8762 20.7966 70.9344 23.3655 76.7323C24.315 78.8715 25.0847 81.0707 25.8244 83.1899C27.0739 86.7687 28.2533 90.1474 30.2525 93.3763C36.7697 103.902 47.7449 110.19 59.6098 110.19C59.9697 110.19 60.2596 110.48 60.2596 110.84C60.2596 111.2 59.9697 111.49 59.6098 111.49C52.213 111.49 44.8662 113.889 38.9187 118.247C33.9709 121.876 30.0426 126.744 27.5636 132.342C26.634 134.431 25.8844 136.601 25.1447 138.7C23.9252 142.189 22.6657 145.797 20.5966 149.146C13.8396 160.062 2.44447 166.58 -9.87022 166.58V166.59ZM-72.5932 110.83C-67.2955 111.84 -62.2277 114.019 -57.8795 117.198C-52.7517 120.956 -48.6735 126.014 -46.1046 131.812C-45.155 133.952 -44.3854 136.151 -43.6457 138.27C-42.3962 141.849 -41.2167 145.228 -39.2176 148.456C-32.7004 158.983 -21.7251 165.27 -9.86023 165.27C2.00465 165.27 12.9799 158.983 19.4971 148.456C21.4963 145.228 22.6758 141.849 23.9252 138.27C24.6649 136.151 25.4346 133.952 26.3841 131.812C28.953 126.014 33.0213 120.956 38.1591 117.198C42.5072 114.009 47.575 111.83 52.8727 110.83C43.2269 108.921 34.6606 102.943 29.153 94.056C27.0738 90.7072 25.8144 87.0985 24.6049 83.6098C23.8752 81.5106 23.1156 79.3413 22.186 77.2521C19.707 71.6641 15.7787 66.7859 10.8309 63.1572C4.88342 58.7988 -2.46342 56.3996 -9.86023 56.3996C-17.257 56.3996 -24.6039 58.7988 -30.5513 63.1572C-35.4992 66.7859 -39.4275 71.6541 -41.9064 77.2521C-42.836 79.3413 -43.5857 81.5106 -44.3254 83.6098C-45.5449 87.0985 -46.8043 90.7072 -48.8734 94.056C-54.371 102.943 -62.9473 108.911 -72.5932 110.83Z" fill="#A58C79"/>
<path d="M-50.3728 126.354C-50.6027 126.354 -50.8326 126.224 -50.9525 126.004C-51.1224 125.685 -51.0025 125.295 -50.6826 125.125C-42.5661 120.806 -36.4288 112.299 -32.7004 105.922C-30.7212 102.533 -29.4018 99.1441 -28.1224 95.8753C-26.0732 90.6472 -24.4539 86.5087 -20.8355 83.6497C-17.6469 81.1406 -13.7585 79.7311 -9.87022 79.6911C-5.9819 79.6712 -2.17354 80.9807 0.895134 83.3798C4.61353 86.2788 5.97295 90.0174 7.86213 95.1855C9.00164 98.2944 10.2911 101.823 12.2902 105.332C15.4289 110.82 22.046 120.646 31.0921 124.835C31.422 124.985 31.5619 125.375 31.412 125.705C31.262 126.034 30.8722 126.174 30.5424 126.024C21.1664 121.676 14.3693 111.6 11.1507 105.982C9.09161 102.383 7.78217 98.8042 6.62267 95.6354C4.81345 90.6672 3.49401 87.0785 0.075489 84.4094C-2.76329 82.1902 -6.29177 80.9807 -9.88022 80.9907C-13.4787 81.0207 -17.0871 82.3302 -20.0458 84.6593C-23.3944 87.2984 -24.9537 91.287 -26.9329 96.3351C-28.2323 99.6539 -29.5717 103.083 -31.6009 106.561C-35.4092 113.079 -41.7065 121.796 -50.0929 126.254C-50.1928 126.304 -50.2928 126.334 -50.4028 126.334L-50.3728 126.354Z" fill="#A58C79"/>
<path d="M6.97252 139.52C5.53314 139.52 4.36365 140.689 4.36365 142.129V162.831C6.18286 162.001 7.93211 161.012 9.5814 159.872V142.129C9.5814 140.689 8.4119 139.52 6.97252 139.52Z" fill="#A58C79"/>
<path d="M7.4923 133.672C9.2202 133.672 10.621 132.271 10.621 130.543C10.621 128.815 9.2202 127.414 7.4923 127.414C5.76439 127.414 4.36365 128.815 4.36365 130.543C4.36365 132.271 5.76439 133.672 7.4923 133.672Z" fill="#A58C79"/>
<path d="M41.6176 115.798C32.7014 115.608 24.9648 103.832 22.036 98.7141C20.3967 95.8552 19.2772 92.7863 18.1977 89.8273C16.0686 84.0094 13.8695 77.9916 7.80215 73.2433C2.84428 69.3747 -3.30306 67.2655 -9.52038 67.3255C-15.7177 67.3854 -21.8951 69.5946 -26.8929 73.5432C-32.7504 78.1715 -35.1693 84.3493 -37.5083 90.3172C-38.6878 93.3261 -39.8973 96.4249 -41.5466 99.2439C-44.3953 104.122 -51.5922 114.998 -59.8787 116.578C-59.2989 116.948 -58.7192 117.327 -58.1594 117.737C-57.0099 118.577 -55.9304 119.497 -54.8908 120.466C-46.7943 116.858 -40.4371 107.811 -36.9985 101.903C-35.1493 98.7341 -33.8599 95.4353 -32.6104 92.2465C-30.4314 86.6785 -28.3723 81.4204 -23.6343 77.6817C-19.5361 74.4529 -14.5082 72.6435 -9.47041 72.6036C-4.45257 72.5636 0.545277 74.263 4.56355 77.4018C9.45144 81.2204 11.2107 86.0487 13.2598 91.6467C14.4193 94.8155 15.6188 98.0943 17.478 101.343C20.9465 107.401 27.4637 116.778 35.93 119.976C36.7997 119.197 37.6993 118.437 38.6488 117.747C39.6084 117.047 40.608 116.418 41.6276 115.818L41.6176 115.798Z" fill="#A58C79"/>
<path d="M129.1 166.59C116.775 166.59 105.39 160.072 98.633 149.156C96.5539 145.807 95.2944 142.198 94.085 138.71C93.3553 136.61 92.5956 134.441 91.666 132.352C89.1871 126.764 85.2588 121.886 80.3109 118.257C74.3635 113.899 67.0166 111.499 59.6198 111.499C59.26 111.499 58.9701 111.21 58.9701 110.85C58.9701 110.49 59.26 110.2 59.6198 110.2C71.4847 110.2 82.46 103.912 88.9772 93.386C90.9763 90.1572 92.1558 86.7784 93.4052 83.1997C94.1449 81.0805 94.9146 78.8813 95.8642 76.742C98.4331 70.9441 102.501 65.886 107.639 62.1273C113.806 57.609 121.433 55.1099 129.1 55.1099C136.767 55.1099 144.393 57.599 150.561 62.1273C155.688 65.886 159.767 70.9441 162.336 76.742C163.285 78.8813 164.055 81.0805 164.794 83.1997C166.044 86.7784 167.223 90.1572 169.223 93.386C175.74 103.912 186.715 110.2 198.58 110.2C198.94 110.2 199.23 110.49 199.23 110.85C199.23 111.21 198.94 111.499 198.58 111.499C191.183 111.499 183.836 113.899 177.889 118.257C172.941 121.886 169.013 126.754 166.534 132.352C165.604 134.441 164.854 136.61 164.115 138.71C162.895 142.198 161.636 145.807 159.567 149.156C152.81 160.072 141.415 166.59 129.1 166.59ZM66.3769 110.83C71.6746 111.839 76.7424 114.019 81.0906 117.197C86.2184 120.956 90.2966 126.014 92.8655 131.812C93.8151 133.951 94.5847 136.151 95.3244 138.27C96.5739 141.849 97.7534 145.227 99.7525 148.456C106.27 158.982 117.245 165.27 129.11 165.27C140.975 165.27 151.95 158.982 158.467 148.456C160.466 145.227 161.646 141.849 162.895 138.27C163.635 136.151 164.405 133.951 165.354 131.812C167.923 126.014 171.991 120.956 177.129 117.197C181.477 114.009 186.545 111.829 191.843 110.83C182.197 108.92 173.631 102.943 168.123 94.0558C166.044 90.707 164.784 87.0983 163.575 83.6096C162.845 81.5103 162.086 79.3411 161.156 77.2519C158.677 71.6639 154.749 66.7856 149.801 63.157C143.854 58.7985 136.507 56.3994 129.11 56.3994C121.713 56.3994 114.366 58.7985 108.419 63.157C103.471 66.7856 99.5426 71.6539 97.0637 77.2519C96.1341 79.3411 95.3844 81.5103 94.6447 83.6096C93.4252 87.0983 92.1658 90.707 90.0967 94.0558C84.599 102.943 76.0227 108.91 66.3769 110.83Z" fill="#A58C79"/>
<path d="M88.5973 126.354C88.3674 126.354 88.1375 126.224 88.0176 126.004C87.8476 125.685 87.9676 125.295 88.2875 125.125C96.404 120.806 102.541 112.299 106.27 105.922C108.249 102.533 109.568 99.1441 110.848 95.8753C112.897 90.6472 114.516 86.5087 118.135 83.6497C121.323 81.1406 125.212 79.7311 129.1 79.6911C132.968 79.6712 136.797 80.9807 139.865 83.3798C143.584 86.2788 144.943 90.0174 146.832 95.1855C147.972 98.2944 149.261 101.823 151.26 105.332C154.399 110.82 161.016 120.646 170.062 124.835C170.392 124.985 170.532 125.375 170.382 125.705C170.232 126.034 169.842 126.174 169.512 126.024C160.136 121.676 153.339 111.6 150.121 105.982C148.062 102.383 146.752 98.8042 145.593 95.6354C143.784 90.6672 142.464 87.0785 139.046 84.4094C136.207 82.1902 132.688 80.9807 129.09 80.9907C125.491 81.0207 121.883 82.3302 118.924 84.6593C115.576 87.2984 114.016 91.287 112.037 96.3351C110.738 99.6539 109.398 103.083 107.369 106.561C103.561 113.079 97.2636 121.796 88.8772 126.254C88.7772 126.304 88.6773 126.334 88.5673 126.334L88.5973 126.354Z" fill="#A58C79"/>
<path d="M129.1 133.451C127.66 133.451 126.491 132.282 126.491 130.842V118.937C126.491 117.497 127.66 116.328 129.1 116.328C130.539 116.328 131.709 117.497 131.709 118.937V130.842C131.709 132.282 130.539 133.451 129.1 133.451Z" fill="#A58C79"/>
<path d="M129.1 139.52C127.66 139.52 126.491 140.689 126.491 142.129V165.83C127.351 165.89 128.22 165.94 129.1 165.94C129.979 165.94 130.849 165.9 131.709 165.83V142.129C131.709 140.689 130.539 139.52 129.1 139.52Z" fill="#A58C79"/>
<path d="M112.257 139.52C110.818 139.52 109.648 140.689 109.648 142.129V159.872C111.298 161.012 113.047 161.991 114.866 162.831V142.129C114.866 140.689 113.697 139.52 112.257 139.52Z" fill="#A58C79"/>
<path d="M145.933 139.52C144.493 139.52 143.324 140.689 143.324 142.129V162.831C145.143 162.001 146.892 161.012 148.541 159.872V142.129C148.541 140.689 147.372 139.52 145.933 139.52Z" fill="#A58C79"/>
<path d="M128.58 109.56C130.308 109.56 131.709 108.159 131.709 106.431C131.709 104.703 130.308 103.302 128.58 103.302C126.852 103.302 125.451 104.703 125.451 106.431C125.451 108.159 126.852 109.56 128.58 109.56Z" fill="#A58C79"/>
<path d="M111.737 133.671C113.465 133.671 114.866 132.27 114.866 130.542C114.866 128.814 113.465 127.414 111.737 127.414C110.009 127.414 108.609 128.814 108.609 130.542C108.609 132.27 110.009 133.671 111.737 133.671Z" fill="#A58C79"/>
<path d="M143.334 130.542C143.334 132.272 144.733 133.671 146.462 133.671C148.192 133.671 149.591 132.272 149.591 130.542C149.591 128.813 148.192 127.414 146.462 127.414C144.733 127.414 143.334 128.813 143.334 130.542Z" fill="#A58C79"/>
<path d="M180.578 115.798C171.662 115.608 163.925 103.832 160.996 98.7141C159.357 95.8552 158.237 92.7863 157.158 89.8273C155.029 84.0094 152.83 77.9916 146.762 73.2433C141.804 69.3747 135.657 67.2655 129.44 67.3255C123.242 67.3854 117.065 69.5946 112.067 73.5432C106.21 78.1715 103.791 84.3493 101.452 90.3172C100.272 93.3261 99.0628 96.4249 97.4135 99.2439C94.5648 104.122 87.3679 114.998 79.0814 116.578C79.6612 116.948 80.2409 117.327 80.8007 117.737C81.9502 118.577 83.0297 119.497 84.0693 120.466C92.1658 116.858 98.523 107.811 101.962 101.903C103.811 98.7341 105.1 95.4353 106.35 92.2465C108.529 86.6785 110.588 81.4204 115.326 77.6817C119.424 74.4529 124.452 72.6435 129.49 72.6036C134.508 72.5636 139.505 74.263 143.524 77.4018C148.412 81.2204 150.171 86.0487 152.22 91.6467C153.379 94.8155 154.579 98.0943 156.438 101.343C159.907 107.401 166.424 116.778 174.89 119.976C175.76 119.197 176.659 118.437 177.609 117.747C178.569 117.047 179.568 116.418 180.588 115.818L180.578 115.798Z" fill="#A58C79"/>
<path d="M59.6198 221.68C47.2951 221.68 35.91 215.162 29.153 204.246C27.0739 200.897 25.8144 197.289 24.6049 193.8C23.8752 191.701 23.1156 189.532 22.186 187.442C19.707 181.854 15.7787 176.976 10.8309 173.347C4.88342 168.989 -2.46342 166.59 -9.86023 166.59C-10.2201 166.59 -10.5099 166.3 -10.5099 165.94C-10.5099 165.58 -10.2201 165.29 -9.86023 165.29C2.00466 165.29 12.9799 159.003 19.4971 148.476C21.4963 145.248 22.6758 141.869 23.9252 138.29C24.6649 136.171 25.4346 133.972 26.3842 131.832C28.953 126.034 33.0213 120.976 38.1591 117.218C44.3264 112.699 51.9531 110.2 59.6198 110.2C67.2965 110.2 74.9132 112.689 81.0806 117.218C86.2084 120.976 90.2866 126.034 92.8555 131.832C93.8051 133.972 94.5748 136.171 95.3144 138.29C96.5639 141.869 97.7434 145.248 99.7425 148.476C106.26 159.003 117.235 165.29 129.1 165.29C129.46 165.29 129.75 165.58 129.75 165.94C129.75 166.3 129.46 166.59 129.1 166.59C121.703 166.59 114.356 168.989 108.409 173.347C103.461 176.976 99.5326 181.844 97.0537 187.442C96.1241 189.532 95.3744 191.701 94.6347 193.8C93.4153 197.289 92.1558 200.897 90.0867 204.246C83.3296 215.162 71.9345 221.68 59.6198 221.68ZM-3.10314 165.92C2.19458 166.93 7.2624 169.109 11.6105 172.288C16.7383 176.046 20.8166 181.105 23.3854 186.902C24.335 189.042 25.1047 191.241 25.8444 193.36C27.0938 196.939 28.2733 200.318 30.2725 203.546C36.7897 214.073 47.7649 220.36 59.6298 220.36C71.4947 220.36 82.47 214.073 88.9872 203.546C90.9863 200.318 92.1658 196.939 93.4153 193.36C94.1549 191.241 94.9246 189.042 95.8742 186.902C98.4431 181.105 102.511 176.046 107.649 172.288C111.997 169.099 117.065 166.92 122.363 165.92C112.717 164.011 104.151 158.033 98.643 149.146C96.5639 145.797 95.3144 142.189 94.095 138.7C93.3653 136.601 92.6056 134.431 91.676 132.342C89.1971 126.754 85.2688 121.876 80.3209 118.247C74.3735 113.889 67.0266 111.49 59.6298 111.49C52.233 111.49 44.8862 113.889 38.9387 118.247C33.9909 121.876 30.0626 126.744 27.5836 132.342C26.654 134.431 25.9044 136.601 25.1647 138.7C23.9452 142.189 22.6857 145.797 20.6166 149.146C15.119 158.033 6.54271 164.001 -3.10314 165.92Z" fill="#A58C79"/>
<path d="M19.1073 181.444C18.8774 181.444 18.6475 181.314 18.5275 181.095C18.3576 180.775 18.4776 180.385 18.7974 180.215C26.9139 175.896 33.0513 167.39 36.7797 161.012C38.7588 157.623 40.0783 154.234 41.3577 150.965C43.4068 145.737 45.0261 141.599 48.6446 138.74C51.8332 136.231 55.7215 134.821 59.6098 134.781C63.4882 134.771 67.3065 136.071 70.3752 138.47C74.0936 141.369 75.453 145.108 77.3422 150.276C78.4817 153.385 79.7711 156.913 81.7703 160.422C84.9089 165.91 91.5261 175.737 100.572 179.925C100.902 180.075 101.042 180.465 100.892 180.795C100.742 181.125 100.352 181.264 100.022 181.115C90.6465 176.766 83.8494 166.69 80.6308 161.072C78.5717 157.473 77.2622 153.894 76.1027 150.726C74.2935 145.757 72.9741 142.169 69.5555 139.5C66.7168 137.28 63.1983 136.071 59.5998 136.081C56.0014 136.111 52.3929 137.42 49.4342 139.75C46.0857 142.389 44.5263 146.377 42.5472 151.425C41.2477 154.744 39.9083 158.173 37.8792 161.652C34.0708 168.169 27.7736 176.886 19.3872 181.344C19.2872 181.394 19.1873 181.424 19.0773 181.424L19.1073 181.444Z" fill="#A58C79"/>
<path d="M59.6198 188.552C58.1804 188.552 57.011 187.382 57.011 185.943V174.037C57.011 172.598 58.1804 171.428 59.6198 171.428C61.0592 171.428 62.2287 172.598 62.2287 174.037V185.943C62.2287 187.382 61.0592 188.552 59.6198 188.552Z" fill="#A58C79"/>
<path d="M59.6198 194.62C58.1804 194.62 57.011 195.789 57.011 197.229V220.93C57.8706 220.99 58.7402 221.04 59.6198 221.04C60.4994 221.04 61.3691 221 62.2287 220.93V197.229C62.2287 195.789 61.0592 194.62 59.6198 194.62Z" fill="#A58C79"/>
<path d="M42.7771 194.62C41.3377 194.62 40.1682 195.789 40.1682 197.229V214.972C41.8175 216.112 43.5667 217.091 45.386 217.931V197.229C45.386 195.789 44.2165 194.62 42.7771 194.62Z" fill="#A58C79"/>
<path d="M76.4526 194.62C75.0132 194.62 73.8437 195.789 73.8437 197.229V217.931C75.6629 217.101 77.4122 216.112 79.0615 214.972V197.229C79.0615 195.789 77.892 194.62 76.4526 194.62Z" fill="#A58C79"/>
<path d="M59.1001 164.661C60.828 164.661 62.2287 163.26 62.2287 161.532C62.2287 159.804 60.828 158.403 59.1001 158.403C57.3722 158.403 55.9714 159.804 55.9714 161.532C55.9714 163.26 57.3722 164.661 59.1001 164.661Z" fill="#A58C79"/>
<path d="M42.2573 188.762C43.9852 188.762 45.386 187.361 45.386 185.633C45.386 183.905 43.9852 182.504 42.2573 182.504C40.5294 182.504 39.1287 183.905 39.1287 185.633C39.1287 187.361 40.5294 188.762 42.2573 188.762Z" fill="#A58C79"/>
<path d="M76.9723 188.762C78.7003 188.762 80.101 187.361 80.101 185.633C80.101 183.905 78.7003 182.504 76.9723 182.504C75.2444 182.504 73.8437 183.905 73.8437 185.633C73.8437 187.361 75.2444 188.762 76.9723 188.762Z" fill="#A58C79"/>
<path d="M111.098 170.888C102.181 170.698 94.4448 158.923 91.5161 153.804C89.8768 150.945 88.7573 147.877 87.6777 144.918C85.5486 139.1 83.3496 133.082 77.2822 128.334C72.3243 124.465 66.177 122.356 59.9597 122.416C53.7623 122.476 47.585 124.685 42.5872 128.634C36.7297 133.262 34.3107 139.44 31.9717 145.407C30.7922 148.416 29.5828 151.515 27.9335 154.334C25.0847 159.212 17.8878 170.089 9.60138 171.668C10.1811 172.038 10.7609 172.418 11.3206 172.828C12.4701 173.667 13.5497 174.587 14.5892 175.557C22.6857 171.948 29.043 162.901 32.4815 156.993C34.3307 153.824 35.6202 150.526 36.8696 147.337C39.0487 141.769 41.1078 136.511 45.8458 132.772C49.944 129.543 54.9718 127.734 60.0097 127.694C65.0275 127.654 70.0253 129.353 74.0436 132.492C78.9315 136.311 80.6907 141.139 82.7399 146.737C83.8994 149.906 85.0988 153.185 86.958 156.434C90.4265 162.491 96.9437 171.868 105.41 175.067C106.28 174.287 107.179 173.527 108.129 172.838C109.089 172.138 110.088 171.508 111.108 170.908L111.098 170.888Z" fill="#A58C79"/>
<path d="M129.1 276.91C116.775 276.91 105.39 270.392 98.633 259.476C96.5539 256.127 95.2945 252.519 94.085 249.03C93.3553 246.931 92.5956 244.761 91.666 242.672C89.1871 237.084 85.2588 232.206 80.3109 228.577C74.3635 224.219 67.0166 221.82 59.6198 221.82C59.26 221.82 58.9701 221.53 58.9701 221.17C58.9701 220.81 59.26 220.52 59.6198 220.52C71.4847 220.52 82.46 214.233 88.9772 203.706C90.9763 200.478 92.1558 197.099 93.4053 193.52C94.1449 191.401 94.9146 189.202 95.8642 187.062C98.4331 181.264 102.501 176.206 107.639 172.448C113.806 167.929 121.433 165.43 129.1 165.43C136.767 165.43 144.393 167.919 150.561 172.448C155.688 176.206 159.767 181.264 162.336 187.062C163.285 189.202 164.055 191.401 164.794 193.52C166.044 197.099 167.223 200.478 169.223 203.706C175.74 214.233 186.715 220.52 198.58 220.52C198.94 220.52 199.23 220.81 199.23 221.17C199.23 221.53 198.94 221.82 198.58 221.82C191.183 221.82 183.836 224.219 177.889 228.577C172.941 232.206 169.013 237.074 166.534 242.672C165.604 244.761 164.854 246.931 164.115 249.03C162.895 252.519 161.636 256.127 159.567 259.476C152.81 270.392 141.415 276.91 129.1 276.91ZM66.3769 221.15C71.6746 222.16 76.7425 224.339 81.0906 227.518C86.2184 231.276 90.2966 236.335 92.8655 242.132C93.8151 244.272 94.5848 246.471 95.3244 248.59C96.5739 252.169 97.7534 255.548 99.7525 258.776C106.27 269.303 117.245 275.59 129.11 275.59C140.975 275.59 151.95 269.303 158.467 258.776C160.466 255.548 161.646 252.169 162.895 248.59C163.635 246.471 164.405 244.272 165.354 242.132C167.923 236.335 171.991 231.286 177.129 227.518C181.477 224.329 186.545 222.15 191.843 221.15C182.197 219.241 173.631 213.263 168.123 204.376C166.044 201.027 164.784 197.419 163.575 193.93C162.845 191.831 162.086 189.661 161.156 187.572C158.677 181.984 154.749 177.106 149.801 173.477C143.854 169.119 136.507 166.72 129.11 166.72C121.713 166.72 114.366 169.119 108.419 173.477C103.471 177.106 99.5426 181.974 97.0637 187.572C96.1341 189.661 95.3844 191.831 94.6447 193.93C93.4253 197.419 92.1658 201.027 90.0967 204.376C84.5991 213.263 76.0228 219.231 66.3769 221.15Z" fill="#A58C79"/>
<path d="M88.5973 236.675C88.3674 236.675 88.1375 236.545 88.0176 236.325C87.8477 236.005 87.9676 235.615 88.2875 235.445C96.404 231.127 102.541 222.62 106.27 216.242C108.249 212.853 109.568 209.464 110.848 206.196C112.897 200.967 114.516 196.829 118.135 193.97C121.323 191.461 125.212 190.051 129.1 190.011C132.968 189.991 136.797 191.301 139.865 193.7C143.584 196.599 144.943 200.338 146.832 205.506C147.972 208.615 149.261 212.143 151.26 215.652C154.399 221.14 161.016 230.967 170.062 235.155C170.392 235.305 170.532 235.695 170.382 236.025C170.232 236.355 169.842 236.495 169.512 236.345C160.136 231.996 153.339 221.92 150.121 216.302C148.062 212.703 146.752 209.125 145.593 205.956C143.784 200.987 142.464 197.399 139.046 194.73C136.207 192.511 132.688 191.301 129.09 191.311C125.491 191.341 121.883 192.651 118.924 194.98C115.576 197.619 114.016 201.607 112.037 206.655C110.738 209.974 109.398 213.403 107.369 216.882C103.561 223.399 97.2636 232.116 88.8772 236.575C88.7773 236.625 88.6773 236.655 88.5673 236.655L88.5973 236.675Z" fill="#A58C79"/>
<path d="M129.1 243.772C127.661 243.772 126.491 242.602 126.491 241.163V229.257C126.491 227.818 127.661 226.648 129.1 226.648C130.539 226.648 131.709 227.818 131.709 229.257V241.163C131.709 242.602 130.539 243.772 129.1 243.772Z" fill="#A58C79"/>
<path d="M129.1 249.84C127.661 249.84 126.491 251.009 126.491 252.449V276.15C127.351 276.21 128.22 276.26 129.1 276.26C129.98 276.26 130.849 276.22 131.709 276.15V252.449C131.709 251.009 130.539 249.84 129.1 249.84Z" fill="#A58C79"/>
<path d="M112.257 249.84C110.818 249.84 109.648 251.009 109.648 252.449V270.193C111.298 271.332 113.047 272.312 114.866 273.151V252.449C114.866 251.009 113.697 249.84 112.257 249.84Z" fill="#A58C79"/>
<path d="M145.933 249.84C144.493 249.84 143.324 251.009 143.324 252.449V273.151C145.143 272.322 146.892 271.332 148.541 270.193V252.449C148.541 251.009 147.372 249.84 145.933 249.84Z" fill="#A58C79"/>
<path d="M128.58 219.88C130.308 219.88 131.709 218.479 131.709 216.751C131.709 215.023 130.308 213.623 128.58 213.623C126.852 213.623 125.451 215.023 125.451 216.751C125.451 218.479 126.852 219.88 128.58 219.88Z" fill="#A58C79"/>
<path d="M111.737 243.982C113.465 243.982 114.866 242.581 114.866 240.853C114.866 239.125 113.465 237.724 111.737 237.724C110.009 237.724 108.609 239.125 108.609 240.853C108.609 242.581 110.009 243.982 111.737 243.982Z" fill="#A58C79"/>
<path d="M143.334 240.853C143.334 242.582 144.733 243.982 146.462 243.982C148.192 243.982 149.591 242.582 149.591 240.853C149.591 239.124 148.192 237.724 146.462 237.724C144.733 237.724 143.334 239.124 143.334 240.853Z" fill="#A58C79"/>
<path d="M180.578 226.118C171.662 225.928 163.925 214.153 160.996 209.034C159.357 206.175 158.237 203.107 157.158 200.148C155.029 194.33 152.83 188.312 146.762 183.564C141.804 179.695 135.657 177.586 129.44 177.646C123.242 177.706 117.065 179.915 112.067 183.864C106.21 188.492 103.791 194.67 101.452 200.637C100.272 203.646 99.0628 206.745 97.4135 209.564C94.5648 214.442 87.3679 225.319 79.0814 226.898C79.6612 227.268 80.2409 227.648 80.8007 228.058C81.9502 228.897 83.0297 229.817 84.0693 230.787C92.1658 227.178 98.5231 218.131 101.962 212.223C103.811 209.054 105.1 205.756 106.35 202.567C108.529 196.999 110.588 191.741 115.326 188.002C119.424 184.773 124.452 182.964 129.49 182.924C134.508 182.884 139.505 184.583 143.524 187.722C148.412 191.541 150.171 196.369 152.22 201.967C153.379 205.136 154.579 208.415 156.438 211.663C159.907 217.721 166.424 227.098 174.89 230.297C175.76 229.517 176.659 228.757 177.609 228.068C178.569 227.368 179.568 226.738 180.588 226.138L180.578 226.118Z" fill="#A58C79"/>
<path d="M59.6198 332C47.2951 332 35.91 325.483 29.153 314.567C27.0739 311.218 25.8144 307.609 24.6049 304.12C23.8752 302.021 23.1156 299.852 22.186 297.763C19.707 292.175 15.7787 287.296 10.8309 283.668C4.88342 279.309 -2.46342 276.91 -9.86023 276.91C-10.2201 276.91 -10.5099 276.62 -10.5099 276.26C-10.5099 275.9 -10.2201 275.611 -9.86023 275.611C2.00466 275.611 12.9799 269.323 19.4971 258.797C21.4963 255.568 22.6758 252.189 23.9252 248.61C24.6649 246.491 25.4346 244.292 26.3842 242.153C28.953 236.355 33.0213 231.297 38.1591 227.538C44.3264 223.02 51.9531 220.521 59.6198 220.521C67.2965 220.521 74.9132 223.01 81.0806 227.538C86.2084 231.297 90.2866 236.355 92.8555 242.153C93.8051 244.292 94.5748 246.491 95.3144 248.61C96.5639 252.189 97.7434 255.568 99.7425 258.797C106.26 269.323 117.235 275.611 129.1 275.611C129.46 275.611 129.75 275.9 129.75 276.26C129.75 276.62 129.46 276.91 129.1 276.91C121.703 276.91 114.356 279.309 108.409 283.668C103.461 287.296 99.5326 292.165 97.0537 297.763C96.1241 299.852 95.3744 302.021 94.6347 304.12C93.4153 307.609 92.1558 311.218 90.0867 314.567C83.3296 325.483 71.9345 332 59.6198 332ZM-3.10314 276.24C2.19458 277.25 7.2624 279.429 11.6105 282.608C16.7383 286.367 20.8166 291.425 23.3854 297.223C24.335 299.362 25.1047 301.561 25.8444 303.68C27.0938 307.259 28.2733 310.638 30.2725 313.867C36.7897 324.393 47.7649 330.681 59.6298 330.681C71.4947 330.681 82.47 324.393 88.9872 313.867C90.9863 310.638 92.1658 307.259 93.4153 303.68C94.1549 301.561 94.9246 299.362 95.8742 297.223C98.4431 291.425 102.511 286.367 107.649 282.608C111.997 279.419 117.065 277.24 122.363 276.24C112.717 274.331 104.151 268.353 98.643 259.466C96.5639 256.118 95.3144 252.509 94.095 249.02C93.3653 246.921 92.6056 244.752 91.676 242.663C89.1971 237.075 85.2688 232.196 80.3209 228.568C74.3735 224.209 67.0266 221.81 59.6298 221.81C52.233 221.81 44.8862 224.209 38.9387 228.568C33.9909 232.196 30.0626 237.065 27.5836 242.663C26.654 244.752 25.9044 246.921 25.1647 249.02C23.9452 252.509 22.6857 256.118 20.6166 259.466C15.119 268.353 6.54271 274.321 -3.10314 276.24Z" fill="#A58C79"/>
<path d="M19.1073 291.765C18.8774 291.765 18.6475 291.635 18.5275 291.415C18.3576 291.095 18.4776 290.705 18.7974 290.535C26.9139 286.217 33.0513 277.71 36.7797 271.332C38.7588 267.943 40.0783 264.555 41.3577 261.286C43.4068 256.058 45.0261 251.919 48.6446 249.06C51.8332 246.551 55.7215 245.142 59.6098 245.102C63.4882 245.092 67.3065 246.391 70.3752 248.79C74.0936 251.689 75.453 255.428 77.3422 260.596C78.4817 263.705 79.7711 267.234 81.7703 270.742C84.9089 276.23 91.5261 286.057 100.572 290.245C100.902 290.395 101.042 290.785 100.892 291.115C100.742 291.445 100.352 291.585 100.022 291.435C90.6465 287.086 83.8494 277.01 80.6308 271.392C78.5717 267.793 77.2622 264.215 76.1027 261.046C74.2935 256.078 72.9741 252.489 69.5555 249.82C66.7168 247.601 63.1983 246.391 59.5998 246.401C56.0014 246.431 52.3929 247.741 49.4342 250.08C46.0857 252.719 44.5263 256.707 42.5472 261.756C41.2477 265.074 39.9083 268.503 37.8792 271.982C34.0708 278.5 27.7736 287.216 19.3872 291.675C19.2872 291.725 19.1873 291.755 19.0773 291.755L19.1073 291.765Z" fill="#A58C79"/>
<path d="M59.6198 298.872C58.1804 298.872 57.011 297.703 57.011 296.263V284.358C57.011 282.918 58.1804 281.749 59.6198 281.749C61.0592 281.749 62.2287 282.918 62.2287 284.358V296.263C62.2287 297.703 61.0592 298.872 59.6198 298.872Z" fill="#A58C79"/>
<path d="M59.6198 304.94C58.1804 304.94 57.011 306.11 57.011 307.549V331.25C57.8706 331.31 58.7402 331.36 59.6198 331.36C60.4994 331.36 61.3691 331.32 62.2287 331.25V307.549C62.2287 306.11 61.0592 304.94 59.6198 304.94Z" fill="#A58C79"/>
<path d="M42.7771 304.94C41.3377 304.94 40.1682 306.11 40.1682 307.549V325.293C41.8175 326.432 43.5667 327.412 45.386 328.252V307.549C45.386 306.11 44.2165 304.94 42.7771 304.94Z" fill="#A58C79"/>
<path d="M76.4526 304.94C75.0132 304.94 73.8437 306.11 73.8437 307.549V328.252C75.6629 327.422 77.4122 326.432 79.0615 325.293V307.549C79.0615 306.11 77.892 304.94 76.4526 304.94Z" fill="#A58C79"/>
<path d="M62.2187 271.842C62.2187 273.571 60.8193 274.971 59.0901 274.971C57.3608 274.971 55.9614 273.571 55.9614 271.842C55.9614 270.112 57.3608 268.713 59.0901 268.713C60.8193 268.713 62.2187 270.112 62.2187 271.842Z" fill="#A58C79"/>
<path d="M42.2573 299.082C43.9852 299.082 45.386 297.681 45.386 295.953C45.386 294.225 43.9852 292.824 42.2573 292.824C40.5294 292.824 39.1287 294.225 39.1287 295.953C39.1287 297.681 40.5294 299.082 42.2573 299.082Z" fill="#A58C79"/>
<path d="M76.9723 299.082C78.7003 299.082 80.101 297.681 80.101 295.953C80.101 294.225 78.7003 292.824 76.9723 292.824C75.2444 292.824 73.8437 294.225 73.8437 295.953C73.8437 297.681 75.2444 299.082 76.9723 299.082Z" fill="#A58C79"/>
<path d="M111.098 281.209C102.181 281.019 94.4448 269.243 91.5161 264.125C89.8768 261.266 88.7573 258.197 87.6777 255.238C85.5486 249.42 83.3496 243.402 77.2822 238.654C72.3243 234.785 66.177 232.676 59.9597 232.736C53.7623 232.796 47.585 235.005 42.5872 238.954C36.7297 243.582 34.3107 249.76 31.9717 255.728C30.7922 258.737 29.5828 261.836 27.9335 264.655C25.0847 269.533 17.8878 280.409 9.60138 281.988C10.1811 282.358 10.7609 282.738 11.3206 283.148C12.4701 283.988 13.5497 284.907 14.5892 285.877C22.6857 282.268 29.043 273.221 32.4815 267.314C34.3307 264.145 35.6202 260.846 36.8696 257.657C39.0487 252.089 41.1078 246.831 45.8458 243.092C49.944 239.864 54.9718 238.054 60.0097 238.014C65.0275 237.974 70.0253 239.674 74.0436 242.812C78.9315 246.631 80.6907 251.459 82.7399 257.057C83.8994 260.226 85.0988 263.505 86.958 266.754C90.4265 272.812 96.9437 282.188 105.41 285.387C106.28 284.607 107.179 283.848 108.129 283.158C109.089 282.458 110.088 281.828 111.108 281.229L111.098 281.209Z" fill="#A58C79"/>
<path d="M406.9 276.81C394.575 276.81 383.19 270.292 376.433 259.376C374.354 256.028 373.095 252.419 371.885 248.93C371.156 246.831 370.396 244.662 369.466 242.572C366.987 236.984 363.059 232.106 358.111 228.477C352.164 224.119 344.817 221.72 337.42 221.72C337.06 221.72 336.77 221.43 336.77 221.07C336.77 220.71 337.06 220.42 337.42 220.42C349.285 220.42 360.26 214.133 366.777 203.606C368.777 200.378 369.956 196.999 371.206 193.41C371.945 191.291 372.715 189.092 373.664 186.952C376.233 181.155 380.302 176.096 385.439 172.338C391.607 167.819 399.233 165.32 406.9 165.32C414.567 165.32 422.194 167.809 428.361 172.338C433.489 176.096 437.567 181.155 440.136 186.952C441.085 189.092 441.855 191.291 442.595 193.41C443.844 196.989 445.024 200.368 447.023 203.596C453.54 214.123 464.515 220.41 476.38 220.41C476.74 220.41 477.03 220.7 477.03 221.06C477.03 221.42 476.74 221.71 476.38 221.71C468.983 221.71 461.637 224.109 455.689 228.467C450.741 232.096 446.813 236.964 444.334 242.562C443.404 244.652 442.655 246.821 441.915 248.92C440.696 252.409 439.436 256.018 437.367 259.366C430.61 270.282 419.215 276.8 406.9 276.8V276.81ZM344.177 221.05C349.475 222.06 354.543 224.239 358.891 227.418C364.019 231.177 368.097 236.235 370.666 242.033C371.615 244.172 372.385 246.371 373.125 248.49C374.374 252.069 375.554 255.448 377.553 258.677C384.07 269.203 395.045 275.49 406.91 275.49C418.775 275.49 429.75 269.203 436.267 258.677C438.267 255.448 439.446 252.069 440.696 248.49C441.435 246.371 442.205 244.172 443.155 242.033C445.723 236.235 449.792 231.177 454.929 227.418C459.278 224.229 464.345 222.05 469.643 221.05C459.997 219.141 451.431 213.163 445.933 204.276C443.854 200.927 442.595 197.319 441.385 193.83C440.656 191.731 439.896 189.562 438.966 187.472C436.487 181.884 432.559 177.006 427.611 173.377C421.664 169.019 414.317 166.62 406.92 166.62C399.523 166.62 392.176 169.019 386.229 173.377C381.281 177.006 377.353 181.874 374.874 187.472C373.944 189.562 373.195 191.731 372.455 193.83C371.236 197.319 369.976 200.927 367.907 204.276C362.409 213.163 353.833 219.131 344.187 221.05H344.177Z" fill="#A58C79"/>
<path d="M366.398 236.575C366.168 236.575 365.938 236.445 365.818 236.225C365.648 235.905 365.768 235.515 366.088 235.345C374.204 231.026 380.342 222.52 384.07 216.142C386.049 212.753 387.369 209.364 388.648 206.096C390.697 200.867 392.316 196.729 395.935 193.87C399.124 191.361 403.012 189.951 406.9 189.911C410.788 189.891 414.597 191.201 417.666 193.6C421.384 196.499 422.743 200.238 424.632 205.406C425.772 208.515 427.061 212.043 429.061 215.552C432.199 221.04 438.816 230.867 447.863 235.055C448.192 235.205 448.332 235.595 448.182 235.925C448.032 236.255 447.643 236.395 447.313 236.245C437.937 231.896 431.14 221.82 427.921 216.202C425.862 212.603 424.553 209.024 423.393 205.856C421.584 200.887 420.264 197.299 416.846 194.63C414.007 192.41 410.479 191.201 406.89 191.211C403.292 191.241 399.683 192.55 396.725 194.88C393.376 197.519 391.817 201.507 389.838 206.555C388.538 209.874 387.199 213.303 385.17 216.782C381.361 223.299 375.064 232.016 366.677 236.475C366.578 236.525 366.478 236.555 366.368 236.555L366.398 236.575Z" fill="#A58C79"/>
<path d="M406.9 243.672C405.461 243.672 404.291 242.503 404.291 241.063V229.157C404.291 227.718 405.461 226.548 406.9 226.548C408.34 226.548 409.509 227.718 409.509 229.157V241.063C409.509 242.503 408.34 243.672 406.9 243.672Z" fill="#A58C79"/>
<path d="M406.9 249.74C405.461 249.74 404.291 250.909 404.291 252.349V276.05C405.151 276.11 406.02 276.16 406.9 276.16C407.78 276.16 408.649 276.12 409.509 276.05V252.349C409.509 250.909 408.34 249.74 406.9 249.74Z" fill="#A58C79"/>
<path d="M390.067 249.74C388.628 249.74 387.459 250.909 387.459 252.349V270.092C389.108 271.232 390.857 272.212 392.676 273.051V252.349C392.676 250.909 391.507 249.74 390.067 249.74Z" fill="#A58C79"/>
<path d="M423.743 249.74C422.303 249.74 421.134 250.909 421.134 252.349V273.051C422.953 272.222 424.702 271.232 426.352 270.092V252.349C426.352 250.909 425.182 249.74 423.743 249.74Z" fill="#A58C79"/>
<path d="M406.38 219.781C408.108 219.781 409.509 218.38 409.509 216.652C409.509 214.924 408.108 213.523 406.38 213.523C404.652 213.523 403.252 214.924 403.252 216.652C403.252 218.38 404.652 219.781 406.38 219.781Z" fill="#A58C79"/>
<path d="M389.548 243.892C391.276 243.892 392.676 242.491 392.676 240.763C392.676 239.035 391.276 237.634 389.548 237.634C387.82 237.634 386.419 239.035 386.419 240.763C386.419 242.491 387.82 243.892 389.548 243.892Z" fill="#A58C79"/>
<path d="M421.134 240.763C421.134 242.493 422.533 243.892 424.263 243.892C425.992 243.892 427.391 242.493 427.391 240.763C427.391 239.034 425.992 237.634 424.263 237.634C422.533 237.634 421.134 239.034 421.134 240.763Z" fill="#A58C79"/>
<path d="M458.388 226.018C449.472 225.828 441.735 214.052 438.806 208.934C437.167 206.075 436.048 203.006 434.968 200.048C432.839 194.23 430.64 188.212 424.573 183.464C419.615 179.595 413.467 177.486 407.25 177.546C401.053 177.606 394.875 179.815 389.877 183.763C384.02 188.392 381.601 194.57 379.262 200.537C378.083 203.546 376.873 206.645 375.224 209.464C372.375 214.342 365.178 225.218 356.892 226.798C357.471 227.168 358.051 227.548 358.611 227.957C359.76 228.797 360.84 229.717 361.88 230.686C369.976 227.078 376.333 218.031 379.772 212.123C381.621 208.954 382.91 205.656 384.16 202.467C386.339 196.899 388.398 191.641 393.136 187.902C397.234 184.673 402.262 182.864 407.3 182.824C412.318 182.784 417.316 184.483 421.334 187.622C426.222 191.441 427.981 196.269 430.03 201.867C431.19 205.036 432.389 208.315 434.248 211.563C437.717 217.621 444.234 226.998 452.7 230.197C453.57 229.417 454.47 228.657 455.419 227.967C456.379 227.268 457.378 226.638 458.398 226.038L458.388 226.018Z" fill="#A58C79"/>
<path d="M545.87 276.81C533.546 276.81 522.16 270.292 515.403 259.376C513.324 256.027 512.065 252.419 510.855 248.93C510.126 246.831 509.366 244.661 508.436 242.572C505.957 236.984 502.029 232.106 497.081 228.477C491.134 224.119 483.787 221.72 476.39 221.72C476.03 221.72 475.74 221.43 475.74 221.07C475.74 220.71 476.03 220.42 476.39 220.42C488.255 220.42 499.23 214.132 505.748 203.606C507.747 200.377 508.926 196.999 510.176 193.42C510.915 191.301 511.685 189.101 512.635 186.962C515.203 181.164 519.272 176.106 524.409 172.348C530.577 167.829 538.204 165.33 545.87 165.33C553.537 165.33 561.164 167.819 567.331 172.348C572.459 176.106 576.537 181.164 579.106 186.962C580.056 189.101 580.825 191.301 581.565 193.42C582.814 196.999 583.994 200.377 585.993 203.606C592.51 214.132 603.485 220.42 615.35 220.42C615.71 220.42 616 220.71 616 221.07C616 221.43 615.71 221.72 615.35 221.72C607.954 221.72 600.607 224.119 594.659 228.477C589.711 232.106 585.783 236.974 583.304 242.572C582.375 244.661 581.625 246.831 580.885 248.93C579.666 252.419 578.406 256.027 576.337 259.376C569.58 270.292 558.185 276.81 545.87 276.81ZM483.147 221.05C488.445 222.06 493.513 224.239 497.861 227.418C502.989 231.176 507.067 236.234 509.636 242.032C510.585 244.172 511.355 246.371 512.095 248.49C513.344 252.069 514.524 255.448 516.523 258.676C523.04 269.203 534.015 275.49 545.88 275.49C557.745 275.49 568.72 269.203 575.238 258.676C577.237 255.448 578.416 252.069 579.666 248.49C580.405 246.371 581.175 244.172 582.125 242.032C584.693 236.234 588.762 231.176 593.9 227.418C598.248 224.229 603.315 222.05 608.613 221.05C598.967 219.141 590.401 213.163 584.893 204.276C582.814 200.927 581.555 197.319 580.345 193.83C579.616 191.731 578.856 189.561 577.926 187.472C575.448 181.884 571.519 177.006 566.571 173.377C560.624 169.019 553.277 166.62 545.88 166.62C538.483 166.62 531.137 169.019 525.189 173.377C520.241 177.006 516.313 181.874 513.834 187.472C512.904 189.561 512.155 191.731 511.415 193.83C510.196 197.319 508.936 200.927 506.867 204.276C501.369 213.163 492.793 219.131 483.147 221.05Z" fill="#A58C79"/>
<path d="M505.368 236.575C505.138 236.575 504.908 236.445 504.788 236.225C504.618 235.905 504.738 235.515 505.058 235.345C513.174 231.026 519.312 222.52 523.04 216.142C525.019 212.753 526.339 209.364 527.618 206.096C529.667 200.867 531.287 196.729 534.905 193.87C538.094 191.361 541.982 189.951 545.87 189.911C549.739 189.891 553.567 191.201 556.636 193.6C560.354 196.499 561.713 200.238 563.603 205.406C564.742 208.515 566.032 212.043 568.031 215.552C571.169 221.04 577.787 230.867 586.833 235.055C587.162 235.205 587.302 235.595 587.152 235.925C587.003 236.255 586.613 236.395 586.283 236.245C576.907 231.896 570.11 221.82 566.891 216.202C564.832 212.603 563.523 209.024 562.363 205.856C560.554 200.887 559.235 197.299 555.816 194.63C552.977 192.41 549.459 191.201 545.86 191.211C542.262 191.241 538.653 192.55 535.695 194.88C532.346 197.519 530.787 201.507 528.808 206.555C527.508 209.874 526.169 213.303 524.14 216.782C520.331 223.299 514.034 232.016 505.648 236.475C505.548 236.525 505.448 236.555 505.338 236.555L505.368 236.575Z" fill="#A58C79"/>
<path d="M545.87 243.672C544.431 243.672 543.261 242.502 543.261 241.063V229.157C543.261 227.717 544.431 226.548 545.87 226.548C547.31 226.548 548.479 227.717 548.479 229.157V241.063C548.479 242.502 547.31 243.672 545.87 243.672Z" fill="#A58C79"/>
<path d="M545.87 249.74C544.431 249.74 543.261 250.909 543.261 252.349V276.05C544.121 276.11 544.991 276.16 545.87 276.16C546.75 276.16 547.619 276.12 548.479 276.05V252.349C548.479 250.909 547.31 249.74 545.87 249.74Z" fill="#A58C79"/>
<path d="M529.027 249.74C527.588 249.74 526.419 250.909 526.419 252.349V270.092C528.068 271.232 529.817 272.212 531.636 273.051V252.349C531.636 250.909 530.467 249.74 529.027 249.74Z" fill="#A58C79"/>
<path d="M562.703 249.74C561.264 249.74 560.094 250.909 560.094 252.349V273.051C561.913 272.222 563.663 271.232 565.312 270.092V252.349C565.312 250.909 564.142 249.74 562.703 249.74Z" fill="#A58C79"/>
<path d="M548.479 216.651C548.479 218.381 547.08 219.78 545.35 219.78C543.621 219.78 542.222 218.381 542.222 216.651C542.222 214.922 543.621 213.522 545.35 213.522C547.08 213.522 548.479 214.922 548.479 216.651Z" fill="#A58C79"/>
<path d="M528.508 243.892C530.236 243.892 531.636 242.491 531.636 240.763C531.636 239.035 530.236 237.634 528.508 237.634C526.78 237.634 525.379 239.035 525.379 240.763C525.379 242.491 526.78 243.892 528.508 243.892Z" fill="#A58C79"/>
<path d="M563.223 243.892C564.951 243.892 566.351 242.491 566.351 240.763C566.351 239.035 564.951 237.634 563.223 237.634C561.495 237.634 560.094 239.035 560.094 240.763C560.094 242.491 561.495 243.892 563.223 243.892Z" fill="#A58C79"/>
<path d="M597.348 226.018C588.432 225.828 580.695 214.052 577.766 208.934C576.127 206.075 575.008 203.006 573.928 200.048C571.799 194.23 569.6 188.212 563.533 183.464C558.575 179.595 552.427 177.486 546.21 177.546C540.013 177.606 533.835 179.815 528.838 183.763C522.98 188.392 520.561 194.57 518.222 200.537C517.043 203.546 515.833 206.645 514.184 209.464C511.335 214.342 504.138 225.218 495.852 226.798C496.432 227.168 497.011 227.548 497.571 227.957C498.721 228.797 499.8 229.717 500.84 230.686C508.936 227.078 515.293 218.031 518.732 212.123C520.581 208.954 521.871 205.656 523.12 202.467C525.299 196.899 527.358 191.641 532.096 187.902C536.194 184.673 541.222 182.864 546.26 182.824C551.278 182.784 556.276 184.483 560.294 187.622C565.182 191.441 566.941 196.269 568.99 201.867C570.15 205.036 571.349 208.315 573.208 211.563C576.677 217.621 583.194 226.998 591.661 230.197C592.53 229.417 593.43 228.657 594.379 227.967C595.339 227.268 596.339 226.638 597.358 226.038L597.348 226.018Z" fill="#A58C79"/>
<path d="M476.39 331.9C464.065 331.9 452.68 325.382 445.923 314.466C443.844 311.118 442.585 307.509 441.375 304.02C440.646 301.921 439.886 299.752 438.956 297.662C436.477 292.075 432.549 287.196 427.601 283.568C421.654 279.209 414.307 276.81 406.91 276.81C406.55 276.81 406.26 276.52 406.26 276.16C406.26 275.8 406.55 275.51 406.91 275.51C418.775 275.51 429.75 269.223 436.267 258.697C438.267 255.468 439.446 252.089 440.696 248.51C441.435 246.391 442.205 244.192 443.155 242.053C445.723 236.255 449.792 231.197 454.929 227.438C461.097 222.92 468.723 220.42 476.39 220.42C484.067 220.42 491.684 222.91 497.851 227.438C502.979 231.197 507.057 236.255 509.626 242.053C510.575 244.192 511.345 246.391 512.085 248.51C513.334 252.089 514.514 255.468 516.513 258.697C523.03 269.223 534.005 275.51 545.87 275.51C546.23 275.51 546.52 275.8 546.52 276.16C546.52 276.52 546.23 276.81 545.87 276.81C538.473 276.81 531.127 279.209 525.179 283.568C520.231 287.196 516.303 292.065 513.824 297.662C512.894 299.752 512.145 301.921 511.405 304.02C510.186 307.509 508.926 311.118 506.857 314.466C500.1 325.382 488.705 331.9 476.39 331.9ZM413.667 276.14C418.965 277.15 424.033 279.329 428.381 282.508C433.509 286.267 437.587 291.325 440.156 297.123C441.105 299.262 441.875 301.461 442.615 303.58C443.864 307.159 445.044 310.538 447.043 313.767C453.56 324.293 464.535 330.581 476.4 330.581C488.265 330.581 499.24 324.293 505.758 313.767C507.757 310.538 508.936 307.159 510.186 303.58C510.925 301.461 511.695 299.262 512.645 297.123C515.213 291.325 519.282 286.267 524.419 282.508C528.768 279.319 533.835 277.14 539.133 276.14C529.487 274.231 520.921 268.253 515.413 259.366C513.334 256.018 512.085 252.409 510.865 248.92C510.136 246.821 509.376 244.652 508.446 242.562C505.967 236.974 502.039 232.096 497.091 228.468C491.144 224.109 483.797 221.71 476.4 221.71C469.003 221.71 461.657 224.109 455.709 228.468C450.761 232.096 446.833 236.964 444.354 242.562C443.424 244.652 442.675 246.821 441.935 248.92C440.716 252.409 439.456 256.018 437.387 259.366C431.889 268.253 423.313 274.221 413.667 276.14Z" fill="#A58C79"/>
<path d="M435.878 291.665C435.648 291.665 435.418 291.535 435.298 291.315C435.128 290.995 435.248 290.605 435.568 290.435C443.684 286.117 449.822 277.61 453.55 271.232C455.529 267.843 456.849 264.454 458.128 261.186C460.177 255.958 461.796 251.819 465.415 248.96C468.604 246.451 472.492 245.042 476.38 245.002C480.258 244.992 484.077 246.291 487.146 248.69C490.864 251.589 492.223 255.328 494.113 260.496C495.252 263.605 496.541 267.134 498.541 270.642C501.679 276.13 508.296 285.957 517.342 290.145C517.672 290.295 517.812 290.685 517.662 291.015C517.512 291.345 517.123 291.485 516.793 291.335C507.417 286.986 500.62 276.91 497.401 271.292C495.342 267.693 494.033 264.115 492.873 260.946C491.064 255.978 489.744 252.389 486.326 249.72C483.487 247.501 479.969 246.291 476.37 246.301C472.772 246.331 469.163 247.641 466.205 249.97C462.856 252.609 461.297 256.597 459.318 261.646C458.018 264.964 456.679 268.393 454.65 271.872C450.841 278.389 444.544 287.106 436.158 291.565C436.058 291.615 435.958 291.645 435.848 291.645L435.878 291.665Z" fill="#A58C79"/>
<path d="M476.39 298.772C474.951 298.772 473.781 297.603 473.781 296.163V284.257C473.781 282.818 474.951 281.648 476.39 281.648C477.83 281.648 478.999 282.818 478.999 284.257V296.163C478.999 297.603 477.83 298.772 476.39 298.772Z" fill="#A58C79"/>
<path d="M476.39 304.84C474.951 304.84 473.781 306.009 473.781 307.449V331.15C474.641 331.21 475.511 331.26 476.39 331.26C477.27 331.26 478.139 331.22 478.999 331.15V307.449C478.999 306.009 477.83 304.84 476.39 304.84Z" fill="#A58C79"/>
<path d="M459.547 304.84C458.108 304.84 456.939 306.009 456.939 307.449V325.192C458.588 326.332 460.337 327.312 462.156 328.151V307.449C462.156 306.009 460.987 304.84 459.547 304.84Z" fill="#A58C79"/>
<path d="M493.223 304.84C491.784 304.84 490.614 306.009 490.614 307.449V328.151C492.433 327.322 494.183 326.332 495.832 325.192V307.449C495.832 306.009 494.662 304.84 493.223 304.84Z" fill="#A58C79"/>
<path d="M475.87 274.881C477.598 274.881 478.999 273.48 478.999 271.752C478.999 270.024 477.598 268.623 475.87 268.623C474.142 268.623 472.742 270.024 472.742 271.752C472.742 273.48 474.142 274.881 475.87 274.881Z" fill="#A58C79"/>
<path d="M459.028 298.982C460.756 298.982 462.156 297.581 462.156 295.853C462.156 294.125 460.756 292.724 459.028 292.724C457.3 292.724 455.899 294.125 455.899 295.853C455.899 297.581 457.3 298.982 459.028 298.982Z" fill="#A58C79"/>
<path d="M493.743 298.982C495.471 298.982 496.871 297.581 496.871 295.853C496.871 294.125 495.471 292.724 493.743 292.724C492.015 292.724 490.614 294.125 490.614 295.853C490.614 297.581 492.015 298.982 493.743 298.982Z" fill="#A58C79"/>
<path d="M527.868 281.108C518.952 280.919 511.215 269.143 508.286 264.025C506.647 261.166 505.528 258.097 504.448 255.138C502.319 249.32 500.12 243.302 494.053 238.554C489.095 234.685 482.947 232.576 476.73 232.636C470.533 232.696 464.355 234.905 459.358 238.854C453.5 243.482 451.081 249.66 448.742 255.628C447.563 258.637 446.353 261.735 444.704 264.554C441.855 269.433 434.658 280.309 426.372 281.888C426.951 282.258 427.531 282.638 428.091 283.048C429.24 283.887 430.32 284.807 431.36 285.777C439.456 282.168 445.813 273.121 449.252 267.214C451.101 264.045 452.391 260.746 453.64 257.557C455.819 251.989 457.878 246.731 462.616 242.992C466.714 239.763 471.742 237.954 476.78 237.914C481.798 237.874 486.796 239.574 490.814 242.712C495.702 246.531 497.461 251.359 499.51 256.957C500.67 260.126 501.869 263.405 503.728 266.654C507.197 272.712 513.714 282.088 522.18 285.287C523.05 284.507 523.95 283.748 524.899 283.058C525.859 282.358 526.858 281.728 527.878 281.128L527.868 281.108Z" fill="#A58C79"/>
</g>
<defs>
<clipPath id="clip0_19_964">
<rect width="696" height="332" fill="white" transform="translate(-80)"/>
</clipPath>
</defs>
</svg>
