<svg width="696" height="332" viewBox="0 0 696 332" fill="none" xmlns="http://www.w3.org/2000/svg">
<g opacity="0.3" clip-path="url(#clip0_19_643)">
<path d="M278.5 111.49C266.175 111.49 254.79 104.972 248.033 94.056C245.954 90.7072 244.695 87.0985 243.485 83.6098C242.755 81.5105 241.996 79.3413 241.066 77.2521C238.587 71.6641 234.659 66.7859 229.711 63.1572C223.764 58.7987 216.417 56.3996 209.02 56.3996C208.66 56.3996 208.37 56.1097 208.37 55.7499C208.37 55.39 208.66 55.1001 209.02 55.1001C220.885 55.1001 231.86 48.8124 238.377 38.2862C240.376 35.0573 241.556 31.6786 242.805 28.0898C243.545 25.9706 244.315 23.7714 245.264 21.6322C247.833 15.8343 251.901 10.7761 257.039 7.01746C263.207 2.4991 270.833 0 278.5 0C286.167 0 293.793 2.4891 299.961 7.01746C305.089 10.7761 309.167 15.8343 311.736 21.6322C312.685 23.7714 313.455 25.9706 314.195 28.0898C315.444 31.6686 316.624 35.0473 318.623 38.2762C325.14 48.8024 336.115 55.0901 347.98 55.0901C348.34 55.0901 348.63 55.38 348.63 55.7398C348.63 56.0997 348.34 56.3896 347.98 56.3896C340.583 56.3896 333.236 58.7887 327.289 63.1472C322.341 66.7759 318.413 71.6441 315.934 77.2421C315.004 79.3313 314.255 81.5005 313.515 83.5998C312.295 87.0885 311.036 90.6972 308.967 94.046C302.21 104.962 290.815 111.48 278.5 111.48V111.49ZM215.777 55.7299C221.075 56.7395 226.143 58.9187 230.491 62.0976C235.618 65.8562 239.697 70.9144 242.266 76.7123C243.215 78.8515 243.985 81.0507 244.725 83.1699C245.974 86.7486 247.154 90.1274 249.153 93.3563C255.67 103.882 266.645 110.17 278.51 110.17C290.375 110.17 301.35 103.882 307.867 93.3563C309.866 90.1274 311.046 86.7486 312.295 83.1699C313.035 81.0507 313.805 78.8515 314.754 76.7123C317.323 70.9144 321.392 65.8562 326.529 62.0976C330.877 58.9087 335.945 56.7295 341.243 55.7299C331.597 53.8205 323.031 47.8427 317.523 38.9559C315.444 35.6071 314.185 31.9984 312.975 28.5097C312.245 26.4105 311.486 24.2412 310.556 22.152C308.077 16.564 304.149 11.6858 299.201 8.05709C293.254 3.69866 285.907 1.29953 278.51 1.29953C271.113 1.29953 263.766 3.69866 257.819 8.05709C252.871 11.6858 248.943 16.554 246.464 22.152C245.534 24.2412 244.785 26.4105 244.045 28.5097C242.825 31.9984 241.566 35.6071 239.497 38.9559C233.999 47.8427 225.423 53.8106 215.777 55.7299Z" fill="#A58C79"/>
<path d="M237.997 71.2542C237.768 71.2542 237.538 71.1242 237.418 70.9043C237.248 70.5844 237.368 70.1946 237.688 70.0246C245.804 65.7062 251.941 57.1993 255.67 50.8216C257.649 47.4328 258.968 44.044 260.248 40.7752C262.297 35.5471 263.916 31.4086 267.535 28.5496C270.723 26.0405 274.612 24.631 278.5 24.591C282.388 24.5711 286.197 25.8806 289.265 28.2797C292.984 31.1787 294.343 34.9173 296.232 40.0854C297.372 43.1943 298.661 46.723 300.66 50.2318C303.799 55.7198 310.416 65.5462 319.462 69.7347C319.792 69.8847 319.932 70.2745 319.782 70.6044C319.632 70.9343 319.242 71.0742 318.913 70.9243C309.537 66.5759 302.74 56.4995 299.521 50.8815C297.462 47.2828 296.152 43.7041 294.993 40.5353C293.184 35.5671 291.864 31.9784 288.446 29.3093C285.607 27.0901 282.078 25.8806 278.49 25.8906C274.892 25.9206 271.283 27.2301 268.324 29.5592C264.976 32.1983 263.417 36.1869 261.437 41.235C260.138 44.5538 258.799 47.9826 256.769 51.4613C252.961 57.979 246.664 66.6958 238.277 71.1542C238.177 71.2042 238.077 71.2342 237.967 71.2342L237.997 71.2542Z" fill="#A58C79"/>
<path d="M278.5 78.3616C277.061 78.3616 275.891 77.192 275.891 75.7525V63.8469C275.891 62.4074 277.061 61.2378 278.5 61.2378C279.939 61.2378 281.109 62.4074 281.109 63.8469V75.7525C281.109 77.192 279.939 78.3616 278.5 78.3616Z" fill="#A58C79"/>
<path d="M278.5 84.4294C277.061 84.4294 275.891 85.599 275.891 87.0385V110.74C276.751 110.8 277.62 110.85 278.5 110.85C279.38 110.85 280.249 110.81 281.109 110.74V87.0385C281.109 85.599 279.939 84.4294 278.5 84.4294Z" fill="#A58C79"/>
<path d="M261.667 84.4294C260.228 84.4294 259.058 85.599 259.058 87.0385V104.782C260.708 105.922 262.457 106.901 264.276 107.741V87.0385C264.276 85.599 263.107 84.4294 261.667 84.4294Z" fill="#A58C79"/>
<path d="M295.343 84.4294C293.903 84.4294 292.734 85.599 292.734 87.0385V107.741C294.553 106.911 296.302 105.922 297.952 104.782V87.0385C297.952 85.599 296.782 84.4294 295.343 84.4294Z" fill="#A58C79"/>
<path d="M277.98 54.4704C279.708 54.4704 281.109 53.0695 281.109 51.3415C281.109 49.6135 279.708 48.2126 277.98 48.2126C276.252 48.2126 274.852 49.6135 274.852 51.3415C274.852 53.0695 276.252 54.4704 277.98 54.4704Z" fill="#A58C79"/>
<path d="M261.147 78.5717C262.875 78.5717 264.276 77.1709 264.276 75.4428C264.276 73.7148 262.875 72.314 261.147 72.314C259.42 72.314 258.019 73.7148 258.019 75.4428C258.019 77.1709 259.42 78.5717 261.147 78.5717Z" fill="#A58C79"/>
<path d="M295.863 78.5717C297.59 78.5717 298.991 77.1709 298.991 75.4428C298.991 73.7148 297.59 72.314 295.863 72.314C294.135 72.314 292.734 73.7148 292.734 75.4428C292.734 77.1709 294.135 78.5717 295.863 78.5717Z" fill="#A58C79"/>
<path d="M329.978 60.6981C321.062 60.5082 313.325 48.7324 310.396 43.6143C308.757 40.7553 307.637 37.6864 306.558 34.7275C304.429 28.9096 302.23 22.8918 296.162 18.1435C291.205 14.2749 285.057 12.1656 278.84 12.2256C272.643 12.2856 266.465 14.4948 261.467 18.4434C255.61 23.0717 253.191 29.2495 250.852 35.2173C249.672 38.2262 248.463 41.3251 246.814 44.1441C243.965 49.0223 236.768 59.8984 228.482 61.4778C229.061 61.8477 229.641 62.2275 230.201 62.6374C231.35 63.4771 232.43 64.3968 233.469 65.3664C241.566 61.7577 247.923 52.711 251.362 46.8031C253.211 43.6343 254.5 40.3355 255.75 37.1466C257.929 31.5786 259.988 26.3205 264.726 22.5819C268.824 19.353 273.852 17.5437 278.89 17.5037C283.908 17.4637 288.906 19.1631 292.924 22.302C297.812 26.1206 299.571 30.9488 301.62 36.5468C302.78 39.7157 303.979 42.9945 305.838 46.2433C309.307 52.3011 315.824 61.6777 324.29 64.8766C325.16 64.0969 326.059 63.3371 327.009 62.6474C327.969 61.9476 328.968 61.3179 329.988 60.7181L329.978 60.6981Z" fill="#A58C79"/>
<path d="M417.47 111.49C405.145 111.49 393.76 104.972 387.003 94.056C384.924 90.7072 383.665 87.0985 382.455 83.6098C381.726 81.5106 380.966 79.3413 380.036 77.2521C377.557 71.6641 373.629 66.7859 368.681 63.1572C362.734 58.7988 355.387 56.3996 347.99 56.3996C347.63 56.3996 347.34 56.1097 347.34 55.7499C347.34 55.39 347.63 55.1001 347.99 55.1001C359.855 55.1001 370.83 48.8124 377.347 38.2862C379.347 35.0573 380.526 31.6786 381.776 28.0999C382.515 25.9806 383.285 23.7814 384.234 21.6422C386.803 15.8443 390.872 10.7861 396.009 7.02747C402.177 2.50911 409.803 0.0100098 417.47 0.0100098C425.137 0.0100098 432.764 2.49911 438.931 7.02747C444.059 10.7861 448.137 15.8443 450.706 21.6422C451.655 23.7814 452.425 25.9806 453.165 28.0999C454.414 31.6786 455.594 35.0573 457.593 38.2862C464.11 48.8124 475.085 55.1001 486.95 55.1001C487.31 55.1001 487.6 55.39 487.6 55.7499C487.6 56.1097 487.31 56.3996 486.95 56.3996C479.553 56.3996 472.207 58.7988 466.259 63.1572C461.311 66.7859 457.383 71.6541 454.904 77.2521C453.974 79.3413 453.225 81.5106 452.485 83.6098C451.266 87.0985 450.006 90.7072 447.937 94.056C441.18 104.972 429.785 111.49 417.47 111.49ZM354.747 55.7299C360.045 56.7395 365.113 58.9187 369.461 62.0976C374.589 65.8562 378.667 70.9144 381.236 76.7123C382.185 78.8515 382.955 81.0507 383.695 83.17C384.944 86.7487 386.124 90.1274 388.123 93.3563C394.64 103.882 405.615 110.17 417.48 110.17C429.345 110.17 440.32 103.882 446.837 93.3563C448.837 90.1274 450.016 86.7487 451.266 83.17C452.005 81.0507 452.775 78.8515 453.725 76.7123C456.293 70.9144 460.362 65.8562 465.499 62.0976C469.848 58.9087 474.915 56.7295 480.213 55.7299C470.567 53.8206 462.001 47.8427 456.493 38.9559C454.414 35.6071 453.155 31.9984 451.945 28.5097C451.216 26.4105 450.456 24.2413 449.526 22.152C447.047 16.564 443.119 11.6858 438.171 8.0571C432.224 3.69868 424.877 1.29954 417.48 1.29954C410.083 1.29954 402.736 3.69868 396.789 8.0571C391.841 11.6858 387.913 16.554 385.434 22.152C384.504 24.2413 383.755 26.4105 383.015 28.5097C381.795 31.9984 380.536 35.6071 378.467 38.9559C372.969 47.8427 364.393 53.8106 354.747 55.7299Z" fill="#A58C79"/>
<path d="M376.958 71.2542C376.728 71.2542 376.498 71.1242 376.378 70.9043C376.208 70.5844 376.328 70.1946 376.648 70.0246C384.764 65.7062 390.902 57.1993 394.63 50.8216C396.609 47.4328 397.929 44.044 399.208 40.7752C401.257 35.5471 402.876 31.4086 406.495 28.5496C409.683 26.0405 413.572 24.631 417.46 24.591C421.328 24.5711 425.157 25.8806 428.225 28.2797C431.944 31.1787 433.303 34.9173 435.192 40.0854C436.332 43.1943 437.621 46.723 439.621 50.2318C442.759 55.7198 449.376 65.5462 458.422 69.7347C458.752 69.8847 458.892 70.2745 458.742 70.6044C458.592 70.9343 458.203 71.0742 457.873 70.9243C448.497 66.5759 441.7 56.4995 438.481 50.8815C436.422 47.2828 435.112 43.7041 433.953 40.5353C432.144 35.5671 430.824 31.9784 427.406 29.3093C424.567 27.0901 421.049 25.8806 417.45 25.8906C413.852 25.9206 410.243 27.2301 407.284 29.5592C403.936 32.1983 402.377 36.1869 400.397 41.235C399.098 44.5538 397.759 47.9826 395.729 51.4613C391.921 57.979 385.624 66.6958 377.237 71.1542C377.137 71.2042 377.038 71.2342 376.928 71.2342L376.958 71.2542Z" fill="#A58C79"/>
<path d="M417.47 78.3616C416.031 78.3616 414.861 77.192 414.861 75.7525V63.8469C414.861 62.4074 416.031 61.2378 417.47 61.2378C418.909 61.2378 420.079 62.4074 420.079 63.8469V75.7525C420.079 77.192 418.909 78.3616 417.47 78.3616Z" fill="#A58C79"/>
<path d="M417.47 84.4294C416.031 84.4294 414.861 85.599 414.861 87.0385V110.74C415.721 110.8 416.59 110.85 417.47 110.85C418.35 110.85 419.219 110.81 420.079 110.74V87.0385C420.079 85.599 418.909 84.4294 417.47 84.4294Z" fill="#A58C79"/>
<path d="M400.627 84.4294C399.188 84.4294 398.019 85.599 398.019 87.0385V104.782C399.668 105.922 401.417 106.901 403.236 107.741V87.0385C403.236 85.599 402.067 84.4294 400.627 84.4294Z" fill="#A58C79"/>
<path d="M434.303 84.4294C432.863 84.4294 431.694 85.599 431.694 87.0385V107.741C433.513 106.911 435.262 105.922 436.912 104.782V87.0385C436.912 85.599 435.742 84.4294 434.303 84.4294Z" fill="#A58C79"/>
<path d="M416.95 54.4704C418.678 54.4704 420.079 53.0695 420.079 51.3415C420.079 49.6135 418.678 48.2126 416.95 48.2126C415.222 48.2126 413.822 49.6135 413.822 51.3415C413.822 53.0695 415.222 54.4704 416.95 54.4704Z" fill="#A58C79"/>
<path d="M400.108 78.5717C401.835 78.5717 403.236 77.1709 403.236 75.4428C403.236 73.7148 401.835 72.314 400.108 72.314C398.38 72.314 396.979 73.7148 396.979 75.4428C396.979 77.1709 398.38 78.5717 400.108 78.5717Z" fill="#A58C79"/>
<path d="M434.823 78.5717C436.551 78.5717 437.951 77.1709 437.951 75.4428C437.951 73.7148 436.551 72.314 434.823 72.314C433.095 72.314 431.694 73.7148 431.694 75.4428C431.694 77.1709 433.095 78.5717 434.823 78.5717Z" fill="#A58C79"/>
<path d="M468.948 60.6981C460.032 60.5082 452.295 48.7324 449.366 43.6143C447.727 40.7553 446.608 37.6864 445.528 34.7275C443.399 28.9096 441.2 22.8918 435.133 18.1435C430.175 14.2749 424.027 12.1656 417.81 12.2256C411.613 12.2856 405.435 14.4948 400.437 18.4434C394.58 23.0717 392.161 29.2495 389.822 35.2173C388.643 38.2262 387.433 41.3251 385.784 44.1441C382.935 49.0223 375.738 59.8984 367.452 61.4778C368.031 61.8477 368.611 62.2275 369.171 62.6374C370.32 63.4771 371.4 64.3968 372.44 65.3664C380.536 61.7577 386.893 52.711 390.332 46.8031C392.181 43.6343 393.47 40.3355 394.72 37.1466C396.899 31.5786 398.958 26.3205 403.696 22.5819C407.794 19.353 412.822 17.5437 417.86 17.5037C422.878 17.4637 427.876 19.1631 431.894 22.302C436.782 26.1206 438.541 30.9488 440.59 36.5468C441.75 39.7157 442.949 42.9945 444.808 46.2433C448.277 52.3011 454.794 61.6777 463.26 64.8766C464.13 64.0969 465.03 63.3371 465.979 62.6474C466.939 61.9476 467.938 61.3179 468.958 60.7181L468.948 60.6981Z" fill="#A58C79"/>
<path d="M347.98 166.59C335.655 166.59 324.27 160.072 317.513 149.156C315.434 145.807 314.175 142.199 312.965 138.71C312.236 136.611 311.476 134.441 310.546 132.352C308.067 126.764 304.139 121.886 299.191 118.257C293.244 113.899 285.897 111.5 278.5 111.5C278.14 111.5 277.85 111.21 277.85 110.85C277.85 110.49 278.14 110.2 278.5 110.2C290.365 110.2 301.34 103.912 307.857 93.3863C309.857 90.1574 311.036 86.7787 312.286 83.2C313.025 81.0807 313.795 78.8815 314.744 76.7423C317.313 70.9444 321.382 65.8862 326.519 62.1276C332.687 57.6092 340.313 55.1101 347.98 55.1101C355.647 55.1101 363.274 57.5992 369.441 62.1276C374.569 65.8862 378.647 70.9444 381.216 76.7423C382.165 78.8815 382.935 81.0807 383.675 83.2C384.924 86.7787 386.104 90.1574 388.103 93.3863C394.62 103.912 405.595 110.2 417.46 110.2C417.82 110.2 418.11 110.49 418.11 110.85C418.11 111.21 417.82 111.5 417.46 111.5C410.063 111.5 402.717 113.899 396.769 118.257C391.821 121.886 387.893 126.754 385.414 132.352C384.484 134.441 383.735 136.611 382.995 138.71C381.776 142.199 380.516 145.807 378.447 149.156C371.69 160.072 360.295 166.59 347.98 166.59ZM285.257 110.83C290.555 111.84 295.623 114.019 299.971 117.198C305.099 120.956 309.177 126.014 311.746 131.812C312.695 133.952 313.465 136.151 314.205 138.27C315.454 141.849 316.634 145.228 318.633 148.456C325.15 158.983 336.125 165.27 347.99 165.27C359.855 165.27 370.83 158.983 377.347 148.456C379.347 145.228 380.526 141.849 381.776 138.27C382.515 136.151 383.285 133.952 384.234 131.812C386.803 126.014 390.872 120.956 396.009 117.198C400.358 114.009 405.425 111.83 410.723 110.83C401.077 108.921 392.511 102.943 387.003 94.056C384.924 90.7072 383.675 87.0985 382.455 83.6098C381.726 81.5106 380.966 79.3413 380.036 77.2521C377.557 71.6641 373.629 66.7859 368.681 63.1572C362.734 58.7988 355.387 56.3996 347.99 56.3996C340.593 56.3996 333.246 58.7988 327.299 63.1572C322.351 66.7859 318.423 71.6541 315.944 77.2521C315.014 79.3413 314.265 81.5106 313.525 83.6098C312.305 87.0985 311.046 90.7072 308.977 94.056C303.479 102.943 294.903 108.911 285.257 110.83Z" fill="#A58C79"/>
<path d="M307.478 126.354C307.248 126.354 307.018 126.224 306.898 126.004C306.728 125.685 306.848 125.295 307.168 125.125C315.284 120.806 321.422 112.299 325.15 105.922C327.129 102.533 328.449 99.1442 329.728 95.8754C331.777 90.6473 333.396 86.5088 337.015 83.6498C340.203 81.1407 344.092 79.7312 347.98 79.6912C351.858 79.6812 355.677 80.9808 358.745 83.3799C362.464 86.2788 363.823 90.0175 365.712 95.1856C366.852 98.2945 368.141 101.823 370.141 105.332C373.279 110.82 379.896 120.646 388.942 124.835C389.272 124.985 389.412 125.375 389.262 125.705C389.112 126.034 388.723 126.174 388.393 126.024C379.017 121.676 372.22 111.6 369.001 105.982C366.942 102.383 365.633 98.8043 364.473 95.6355C362.664 90.6672 361.344 87.0786 357.926 84.4095C355.087 82.1903 351.569 80.9807 347.97 80.9907C344.372 81.0207 340.763 82.3303 337.805 84.6594C334.456 87.2985 332.897 91.287 330.917 96.3352C329.618 99.654 328.279 103.083 326.25 106.562C322.441 113.079 316.144 121.796 307.757 126.254C307.658 126.304 307.558 126.334 307.448 126.334L307.478 126.354Z" fill="#A58C79"/>
<path d="M347.98 133.462C346.541 133.462 345.371 132.292 345.371 130.853V118.947C345.371 117.507 346.541 116.338 347.98 116.338C349.419 116.338 350.589 117.507 350.589 118.947V130.853C350.589 132.292 349.419 133.462 347.98 133.462Z" fill="#A58C79"/>
<path d="M347.98 139.53C346.541 139.53 345.371 140.699 345.371 142.139V165.84C346.231 165.9 347.1 165.95 347.98 165.95C348.86 165.95 349.729 165.91 350.589 165.84V142.139C350.589 140.699 349.419 139.53 347.98 139.53Z" fill="#A58C79"/>
<path d="M331.147 139.53C329.708 139.53 328.538 140.699 328.538 142.139V159.882C330.188 161.022 331.937 162.001 333.756 162.841V142.139C333.756 140.699 332.587 139.53 331.147 139.53Z" fill="#A58C79"/>
<path d="M364.823 139.53C363.384 139.53 362.214 140.699 362.214 142.139V162.841C364.033 162.011 365.782 161.022 367.432 159.882V142.139C367.432 140.699 366.262 139.53 364.823 139.53Z" fill="#A58C79"/>
<path d="M347.46 109.56C349.188 109.56 350.589 108.16 350.589 106.432C350.589 104.704 349.188 103.303 347.46 103.303C345.732 103.303 344.332 104.704 344.332 106.432C344.332 108.16 345.732 109.56 347.46 109.56Z" fill="#A58C79"/>
<path d="M333.756 130.543C333.756 132.272 332.357 133.672 330.628 133.672C328.898 133.672 327.499 132.272 327.499 130.543C327.499 128.814 328.898 127.414 330.628 127.414C332.357 127.414 333.756 128.814 333.756 130.543Z" fill="#A58C79"/>
<path d="M365.343 133.672C367.071 133.672 368.471 132.271 368.471 130.543C368.471 128.815 367.071 127.414 365.343 127.414C363.615 127.414 362.214 128.815 362.214 130.543C362.214 132.271 363.615 133.672 365.343 133.672Z" fill="#A58C79"/>
<path d="M399.468 115.798C390.552 115.608 382.815 103.833 379.886 98.7144C378.247 95.8554 377.128 92.7865 376.048 89.8276C373.919 84.0097 371.72 77.9919 365.652 73.2436C360.695 69.375 354.547 67.2657 348.33 67.3257C342.133 67.3857 335.955 69.5949 330.957 73.5435C325.1 78.1718 322.681 84.3496 320.342 90.3174C319.163 93.3263 317.953 96.4252 316.304 99.2442C313.455 104.122 306.258 114.998 297.972 116.578C298.551 116.948 299.131 117.328 299.691 117.737C300.84 118.577 301.92 119.497 302.96 120.467C311.056 116.858 317.413 107.811 320.852 101.903C322.701 98.7344 323.99 95.4355 325.24 92.2467C327.419 86.6787 329.478 81.4206 334.216 77.682C338.314 74.4531 343.342 72.6438 348.38 72.6038C353.398 72.5638 358.396 74.2632 362.414 77.4021C367.302 81.2207 369.061 86.0489 371.11 91.6469C372.27 94.8158 373.469 98.0946 375.328 101.343C378.797 107.401 385.314 116.778 393.78 119.977C394.65 119.197 395.55 118.437 396.499 117.747C397.459 117.048 398.458 116.418 399.478 115.818L399.468 115.798Z" fill="#A58C79"/>
<path d="M278.5 221.68C266.175 221.68 254.79 215.162 248.033 204.246C245.954 200.897 244.695 197.289 243.485 193.8C242.755 191.701 241.996 189.532 241.066 187.442C238.587 181.854 234.659 176.976 229.711 173.347C223.764 168.989 216.417 166.59 209.02 166.59C208.66 166.59 208.37 166.3 208.37 165.94C208.37 165.58 208.66 165.29 209.02 165.29C220.885 165.29 231.86 159.003 238.377 148.476C240.376 145.248 241.556 141.869 242.805 138.28C243.545 136.161 244.315 133.962 245.264 131.822C247.833 126.024 251.901 120.966 257.039 117.208C263.207 112.689 270.833 110.19 278.5 110.19C286.167 110.19 293.793 112.679 299.961 117.208C305.089 120.966 309.167 126.024 311.736 131.822C312.685 133.962 313.455 136.161 314.195 138.28C315.444 141.859 316.624 145.238 318.623 148.466C325.14 158.993 336.115 165.28 347.98 165.28C348.34 165.28 348.63 165.57 348.63 165.93C348.63 166.29 348.34 166.58 347.98 166.58C340.583 166.58 333.236 168.979 327.289 173.337C322.341 176.966 318.413 181.834 315.934 187.432C315.004 189.522 314.255 191.691 313.515 193.79C312.295 197.279 311.036 200.887 308.967 204.236C302.21 215.152 290.815 221.67 278.5 221.67V221.68ZM215.777 165.92C221.075 166.93 226.143 169.109 230.491 172.288C235.618 176.046 239.697 181.105 242.266 186.902C243.215 189.042 243.985 191.241 244.725 193.36C245.974 196.939 247.154 200.318 249.153 203.546C255.67 214.073 266.645 220.36 278.51 220.36C290.375 220.36 301.35 214.073 307.867 203.546C309.866 200.318 311.046 196.939 312.295 193.36C313.035 191.241 313.805 189.042 314.754 186.902C317.323 181.105 321.392 176.046 326.529 172.288C330.877 169.099 335.945 166.92 341.243 165.92C331.597 164.011 323.031 158.033 317.523 149.146C315.444 145.797 314.185 142.189 312.975 138.7C312.245 136.601 311.486 134.431 310.556 132.342C308.077 126.754 304.149 121.876 299.201 118.247C293.254 113.889 285.907 111.49 278.51 111.49C271.113 111.49 263.766 113.889 257.819 118.247C252.871 121.876 248.943 126.744 246.464 132.342C245.534 134.431 244.785 136.601 244.045 138.7C242.825 142.189 241.566 145.797 239.497 149.146C233.999 158.033 225.423 164.001 215.777 165.92Z" fill="#A58C79"/>
<path d="M237.997 181.444C237.768 181.444 237.538 181.314 237.418 181.094C237.248 180.775 237.368 180.385 237.688 180.215C245.804 175.896 251.941 167.389 255.67 161.012C257.649 157.623 258.968 154.234 260.248 150.965C262.297 145.737 263.916 141.599 267.535 138.74C270.723 136.231 274.612 134.821 278.5 134.781C282.388 134.761 286.197 136.071 289.265 138.47C292.984 141.369 294.343 145.108 296.232 150.276C297.372 153.385 298.661 156.913 300.66 160.422C303.799 165.91 310.416 175.736 319.462 179.925C319.792 180.075 319.932 180.465 319.782 180.795C319.632 181.124 319.242 181.264 318.913 181.114C309.537 176.766 302.74 166.69 299.521 161.072C297.462 157.473 296.152 153.894 294.993 150.725C293.184 145.757 291.864 142.169 288.446 139.5C285.607 137.28 282.078 136.071 278.49 136.081C274.892 136.111 271.283 137.42 268.324 139.749C264.976 142.388 263.417 146.377 261.437 151.425C260.138 154.744 258.799 158.173 256.769 161.652C252.961 168.169 246.664 176.886 238.277 181.344C238.177 181.394 238.077 181.424 237.967 181.424L237.997 181.444Z" fill="#A58C79"/>
<path d="M278.5 188.552C277.061 188.552 275.891 187.382 275.891 185.943V174.037C275.891 172.598 277.061 171.428 278.5 171.428C279.939 171.428 281.109 172.598 281.109 174.037V185.943C281.109 187.382 279.939 188.552 278.5 188.552Z" fill="#A58C79"/>
<path d="M278.5 194.62C277.061 194.62 275.891 195.789 275.891 197.229V220.93C276.751 220.99 277.62 221.04 278.5 221.04C279.38 221.04 280.249 221 281.109 220.93V197.229C281.109 195.789 279.939 194.62 278.5 194.62Z" fill="#A58C79"/>
<path d="M261.667 194.62C260.228 194.62 259.058 195.789 259.058 197.229V214.972C260.708 216.112 262.457 217.091 264.276 217.931V197.229C264.276 195.789 263.107 194.62 261.667 194.62Z" fill="#A58C79"/>
<path d="M295.343 194.62C293.903 194.62 292.734 195.789 292.734 197.229V217.931C294.553 217.101 296.302 216.112 297.952 214.972V197.229C297.952 195.789 296.782 194.62 295.343 194.62Z" fill="#A58C79"/>
<path d="M277.98 164.661C279.708 164.661 281.109 163.26 281.109 161.532C281.109 159.804 279.708 158.403 277.98 158.403C276.252 158.403 274.852 159.804 274.852 161.532C274.852 163.26 276.252 164.661 277.98 164.661Z" fill="#A58C79"/>
<path d="M261.147 188.762C262.875 188.762 264.276 187.361 264.276 185.633C264.276 183.905 262.875 182.504 261.147 182.504C259.42 182.504 258.019 183.905 258.019 185.633C258.019 187.361 259.42 188.762 261.147 188.762Z" fill="#A58C79"/>
<path d="M295.863 188.762C297.59 188.762 298.991 187.361 298.991 185.633C298.991 183.905 297.59 182.504 295.863 182.504C294.135 182.504 292.734 183.905 292.734 185.633C292.734 187.361 294.135 188.762 295.863 188.762Z" fill="#A58C79"/>
<path d="M329.978 170.888C321.062 170.698 313.325 158.923 310.396 153.804C308.757 150.945 307.637 147.877 306.558 144.918C304.429 139.1 302.23 133.082 296.162 128.334C291.205 124.465 285.057 122.356 278.84 122.416C272.643 122.476 266.465 124.685 261.467 128.634C255.61 133.262 253.191 139.44 250.852 145.407C249.672 148.416 248.463 151.515 246.814 154.334C243.965 159.212 236.768 170.089 228.482 171.668C229.061 172.038 229.641 172.418 230.201 172.828C231.35 173.667 232.43 174.587 233.469 175.557C241.566 171.948 247.923 162.901 251.362 156.993C253.211 153.824 254.5 150.526 255.75 147.337C257.929 141.769 259.988 136.511 264.726 132.772C268.824 129.543 273.852 127.734 278.89 127.694C283.908 127.654 288.906 129.353 292.924 132.492C297.812 136.311 299.571 141.139 301.62 146.737C302.78 149.906 303.979 153.185 305.838 156.434C309.307 162.491 315.824 171.868 324.29 175.067C325.16 174.287 326.059 173.527 327.009 172.838C327.969 172.138 328.968 171.508 329.988 170.908L329.978 170.888Z" fill="#A58C79"/>
<path d="M417.47 221.68C405.145 221.68 393.76 215.162 387.003 204.246C384.924 200.897 383.665 197.289 382.455 193.8C381.726 191.701 380.966 189.532 380.036 187.442C377.557 181.854 373.629 176.976 368.681 173.347C362.734 168.989 355.387 166.59 347.99 166.59C347.63 166.59 347.34 166.3 347.34 165.94C347.34 165.58 347.63 165.29 347.99 165.29C359.855 165.29 370.83 159.003 377.347 148.476C379.347 145.248 380.526 141.869 381.776 138.29C382.515 136.171 383.285 133.972 384.234 131.832C386.803 126.034 390.872 120.976 396.009 117.218C402.177 112.699 409.803 110.2 417.47 110.2C425.137 110.2 432.764 112.689 438.931 117.218C444.059 120.976 448.137 126.034 450.706 131.832C451.655 133.972 452.425 136.171 453.165 138.29C454.414 141.869 455.594 145.248 457.593 148.476C464.11 159.003 475.085 165.29 486.95 165.29C487.31 165.29 487.6 165.58 487.6 165.94C487.6 166.3 487.31 166.59 486.95 166.59C479.553 166.59 472.207 168.989 466.259 173.347C461.311 176.976 457.383 181.844 454.904 187.442C453.974 189.532 453.225 191.701 452.485 193.8C451.266 197.289 450.006 200.897 447.937 204.246C441.18 215.162 429.785 221.68 417.47 221.68ZM354.747 165.92C360.045 166.93 365.113 169.109 369.461 172.288C374.589 176.046 378.667 181.105 381.236 186.902C382.185 189.042 382.955 191.241 383.695 193.36C384.944 196.939 386.124 200.318 388.123 203.546C394.64 214.073 405.615 220.36 417.48 220.36C429.345 220.36 440.32 214.073 446.837 203.546C448.837 200.318 450.016 196.939 451.266 193.36C452.005 191.241 452.775 189.042 453.725 186.902C456.293 181.105 460.362 176.046 465.499 172.288C469.848 169.099 474.915 166.92 480.213 165.92C470.567 164.011 462.001 158.033 456.493 149.146C454.414 145.797 453.155 142.189 451.945 138.7C451.216 136.601 450.456 134.431 449.526 132.342C447.047 126.754 443.119 121.876 438.171 118.247C432.224 113.889 424.877 111.49 417.48 111.49C410.083 111.49 402.736 113.889 396.789 118.247C391.841 121.876 387.913 126.744 385.434 132.342C384.504 134.431 383.755 136.601 383.015 138.7C381.795 142.189 380.536 145.797 378.467 149.146C372.969 158.033 364.393 164.001 354.747 165.92Z" fill="#A58C79"/>
<path d="M376.958 181.444C376.728 181.444 376.498 181.314 376.378 181.094C376.208 180.775 376.328 180.385 376.648 180.215C384.764 175.896 390.902 167.389 394.63 161.012C396.609 157.623 397.929 154.234 399.208 150.965C401.257 145.737 402.876 141.599 406.495 138.74C409.683 136.231 413.572 134.821 417.46 134.781C421.328 134.761 425.157 136.071 428.225 138.47C431.944 141.369 433.303 145.108 435.192 150.276C436.332 153.385 437.621 156.913 439.621 160.422C442.759 165.91 449.376 175.736 458.422 179.925C458.752 180.075 458.892 180.465 458.742 180.795C458.592 181.124 458.203 181.264 457.873 181.114C448.497 176.766 441.7 166.69 438.481 161.072C436.422 157.473 435.112 153.894 433.953 150.725C432.144 145.757 430.824 142.169 427.406 139.5C424.567 137.28 421.049 136.071 417.45 136.081C413.852 136.111 410.243 137.42 407.284 139.749C403.936 142.388 402.377 146.377 400.397 151.425C399.098 154.744 397.759 158.173 395.729 161.652C391.921 168.169 385.624 176.886 377.237 181.344C377.137 181.394 377.038 181.424 376.928 181.424L376.958 181.444Z" fill="#A58C79"/>
<path d="M417.47 188.552C416.031 188.552 414.861 187.382 414.861 185.943V174.037C414.861 172.598 416.031 171.428 417.47 171.428C418.909 171.428 420.079 172.598 420.079 174.037V185.943C420.079 187.382 418.909 188.552 417.47 188.552Z" fill="#A58C79"/>
<path d="M417.47 194.62C416.031 194.62 414.861 195.789 414.861 197.229V220.93C415.721 220.99 416.59 221.04 417.47 221.04C418.35 221.04 419.219 221 420.079 220.93V197.229C420.079 195.789 418.909 194.62 417.47 194.62Z" fill="#A58C79"/>
<path d="M400.627 194.62C399.188 194.62 398.019 195.789 398.019 197.229V214.972C399.668 216.112 401.417 217.091 403.236 217.931V197.229C403.236 195.789 402.067 194.62 400.627 194.62Z" fill="#A58C79"/>
<path d="M434.303 194.62C432.863 194.62 431.694 195.789 431.694 197.229V217.931C433.513 217.101 435.262 216.112 436.912 214.972V197.229C436.912 195.789 435.742 194.62 434.303 194.62Z" fill="#A58C79"/>
<path d="M416.95 164.661C418.678 164.661 420.079 163.26 420.079 161.532C420.079 159.804 418.678 158.403 416.95 158.403C415.222 158.403 413.822 159.804 413.822 161.532C413.822 163.26 415.222 164.661 416.95 164.661Z" fill="#A58C79"/>
<path d="M400.108 188.762C401.835 188.762 403.236 187.361 403.236 185.633C403.236 183.905 401.835 182.504 400.108 182.504C398.38 182.504 396.979 183.905 396.979 185.633C396.979 187.361 398.38 188.762 400.108 188.762Z" fill="#A58C79"/>
<path d="M434.823 188.762C436.551 188.762 437.951 187.361 437.951 185.633C437.951 183.905 436.551 182.504 434.823 182.504C433.095 182.504 431.694 183.905 431.694 185.633C431.694 187.361 433.095 188.762 434.823 188.762Z" fill="#A58C79"/>
<path d="M468.948 170.888C460.032 170.698 452.295 158.923 449.366 153.804C447.727 150.945 446.608 147.877 445.528 144.918C443.399 139.1 441.2 133.082 435.133 128.334C430.175 124.465 424.027 122.356 417.81 122.416C411.613 122.476 405.435 124.685 400.437 128.634C394.58 133.262 392.161 139.44 389.822 145.407C388.643 148.416 387.433 151.515 385.784 154.334C382.935 159.212 375.738 170.089 367.452 171.668C368.031 172.038 368.611 172.418 369.171 172.828C370.32 173.667 371.4 174.587 372.44 175.557C380.536 171.948 386.893 162.901 390.332 156.993C392.181 153.824 393.47 150.526 394.72 147.337C396.899 141.769 398.958 136.511 403.696 132.772C407.794 129.543 412.822 127.734 417.86 127.694C422.878 127.654 427.876 129.353 431.894 132.492C436.782 136.311 438.541 141.139 440.59 146.737C441.75 149.906 442.949 153.185 444.808 156.434C448.277 162.491 454.794 171.868 463.26 175.067C464.13 174.287 465.03 173.527 465.979 172.838C466.939 172.138 467.938 171.508 468.958 170.908L468.948 170.888Z" fill="#A58C79"/>
<path d="M347.98 276.78C335.655 276.78 324.27 270.262 317.513 259.346C315.434 255.998 314.175 252.389 312.965 248.9C312.236 246.801 311.476 244.632 310.546 242.542C308.067 236.954 304.139 232.076 299.191 228.447C293.244 224.089 285.897 221.69 278.5 221.69C278.14 221.69 277.85 221.4 277.85 221.04C277.85 220.68 278.14 220.39 278.5 220.39C290.365 220.39 301.34 214.103 307.857 203.576C309.857 200.348 311.036 196.969 312.286 193.39C313.025 191.271 313.795 189.072 314.744 186.932C317.313 181.135 321.382 176.076 326.519 172.318C332.687 167.799 340.313 165.3 347.98 165.3C355.657 165.3 363.274 167.789 369.441 172.318C374.569 176.076 378.647 181.135 381.216 186.932C382.165 189.072 382.935 191.271 383.675 193.39C384.924 196.969 386.104 200.348 388.103 203.576C394.62 214.103 405.595 220.39 417.46 220.39C417.82 220.39 418.11 220.68 418.11 221.04C418.11 221.4 417.82 221.69 417.46 221.69C410.063 221.69 402.717 224.089 396.769 228.447C391.821 232.076 387.893 236.944 385.414 242.542C384.484 244.632 383.735 246.801 382.995 248.9C381.776 252.389 380.516 255.998 378.447 259.346C371.69 270.262 360.295 276.78 347.98 276.78ZM285.257 221.02C290.555 222.03 295.623 224.209 299.971 227.388C305.099 231.146 309.177 236.205 311.746 242.003C312.695 244.142 313.465 246.341 314.205 248.46C315.454 252.039 316.634 255.418 318.633 258.647C325.15 269.173 336.125 275.46 347.99 275.46C359.855 275.46 370.83 269.173 377.347 258.647C379.347 255.418 380.526 252.039 381.776 248.46C382.515 246.341 383.285 244.142 384.234 242.003C386.803 236.205 390.872 231.146 396.009 227.388C400.358 224.199 405.425 222.02 410.723 221.02C401.077 219.111 392.511 213.133 387.003 204.246C384.924 200.897 383.675 197.289 382.455 193.8C381.726 191.701 380.966 189.532 380.036 187.442C377.557 181.854 373.629 176.976 368.681 173.347C362.734 168.989 355.387 166.59 347.99 166.59C340.593 166.59 333.246 168.989 327.299 173.347C322.351 176.976 318.423 181.844 315.944 187.442C315.014 189.532 314.265 191.701 313.525 193.8C312.305 197.289 311.046 200.897 308.977 204.246C303.479 213.133 294.903 219.101 285.257 221.02Z" fill="#A58C79"/>
<path d="M307.478 236.545C307.248 236.545 307.018 236.415 306.898 236.195C306.728 235.875 306.848 235.485 307.168 235.315C315.284 230.997 321.422 222.49 325.15 216.112C327.129 212.723 328.449 209.334 329.728 206.066C331.777 200.837 333.396 196.699 337.015 193.84C340.203 191.331 344.092 189.921 347.98 189.881C351.858 189.871 355.677 191.171 358.745 193.57C362.464 196.469 363.823 200.208 365.712 205.376C366.852 208.485 368.141 212.013 370.141 215.522C373.279 221.01 379.896 230.837 388.942 235.025C389.272 235.175 389.412 235.565 389.262 235.895C389.112 236.225 388.723 236.365 388.393 236.215C379.017 231.866 372.22 221.79 369.001 216.172C366.942 212.573 365.633 208.994 364.473 205.826C362.664 200.857 361.344 197.269 357.926 194.6C355.087 192.381 351.569 191.171 347.97 191.181C344.372 191.211 340.763 192.52 337.805 194.85C334.456 197.489 332.897 201.477 330.917 206.525C329.618 209.844 328.279 213.273 326.25 216.752C322.441 223.269 316.144 231.986 307.757 236.445C307.658 236.495 307.558 236.525 307.448 236.525L307.478 236.545Z" fill="#A58C79"/>
<path d="M347.98 243.642C346.541 243.642 345.371 242.472 345.371 241.033V229.127C345.371 227.688 346.541 226.518 347.98 226.518C349.419 226.518 350.589 227.688 350.589 229.127V241.033C350.589 242.472 349.419 243.642 347.98 243.642Z" fill="#A58C79"/>
<path d="M347.98 249.71C346.541 249.71 345.371 250.879 345.371 252.319V276.02C346.231 276.08 347.1 276.13 347.98 276.13C348.86 276.13 349.729 276.09 350.589 276.02V252.319C350.589 250.879 349.419 249.71 347.98 249.71Z" fill="#A58C79"/>
<path d="M331.147 249.71C329.708 249.71 328.538 250.879 328.538 252.319V270.062C330.188 271.202 331.937 272.182 333.756 273.021V252.319C333.756 250.879 332.587 249.71 331.147 249.71Z" fill="#A58C79"/>
<path d="M364.823 249.71C363.384 249.71 362.214 250.879 362.214 252.319V273.021C364.033 272.192 365.782 271.202 367.432 270.062V252.319C367.432 250.879 366.262 249.71 364.823 249.71Z" fill="#A58C79"/>
<path d="M347.46 219.751C349.188 219.751 350.589 218.35 350.589 216.622C350.589 214.894 349.188 213.493 347.46 213.493C345.732 213.493 344.332 214.894 344.332 216.622C344.332 218.35 345.732 219.751 347.46 219.751Z" fill="#A58C79"/>
<path d="M333.756 240.733C333.756 242.462 332.357 243.862 330.628 243.862C328.898 243.862 327.499 242.462 327.499 240.733C327.499 239.004 328.898 237.604 330.628 237.604C332.357 237.604 333.756 239.004 333.756 240.733Z" fill="#A58C79"/>
<path d="M365.343 243.862C367.071 243.862 368.471 242.461 368.471 240.733C368.471 239.005 367.071 237.604 365.343 237.604C363.615 237.604 362.214 239.005 362.214 240.733C362.214 242.461 363.615 243.862 365.343 243.862Z" fill="#A58C79"/>
<path d="M399.468 225.988C390.552 225.798 382.815 214.023 379.886 208.905C378.247 206.046 377.128 202.977 376.048 200.018C373.919 194.2 371.72 188.182 365.652 183.434C360.695 179.565 354.547 177.456 348.33 177.516C342.133 177.576 335.955 179.785 330.957 183.734C325.1 188.362 322.681 194.54 320.342 200.508C319.163 203.516 317.953 206.615 316.304 209.434C313.455 214.313 306.258 225.189 297.972 226.768C298.551 227.138 299.131 227.518 299.691 227.928C300.84 228.767 301.92 229.687 302.96 230.657C311.056 227.048 317.413 218.001 320.852 212.093C322.701 208.925 323.99 205.626 325.24 202.437C327.419 196.869 329.478 191.611 334.216 187.872C338.314 184.643 343.342 182.834 348.38 182.794C353.398 182.754 358.396 184.453 362.414 187.592C367.302 191.411 369.061 196.239 371.11 201.837C372.27 205.006 373.469 208.285 375.328 211.534C378.797 217.591 385.314 226.968 393.78 230.167C394.65 229.387 395.55 228.627 396.499 227.938C397.459 227.238 398.458 226.608 399.478 226.008L399.468 225.988Z" fill="#A58C79"/>
<path d="M70.1298 166.59C57.8051 166.59 46.42 160.072 39.6629 149.156C37.5838 145.807 36.3243 142.199 35.1149 138.71C34.3852 136.611 33.6255 134.441 32.6959 132.352C30.217 126.764 26.2887 121.886 21.3408 118.257C15.3934 113.899 8.04653 111.5 0.64972 111.5C0.289875 111.5 0 111.21 0 110.85C0 110.49 0.289875 110.2 0.64972 110.2C12.5146 110.2 23.4899 103.912 30.0071 93.3863C32.0062 90.1574 33.1857 86.7787 34.4352 83.1899C35.1748 81.0707 35.9445 78.8715 36.8941 76.7323C39.463 70.9344 43.5312 65.8762 48.669 62.1176C54.8364 57.5992 62.4631 55.1001 70.1298 55.1001C77.7965 55.1001 85.4232 57.5892 91.5905 62.1176C96.7183 65.8762 100.797 70.9344 103.365 76.7323C104.315 78.8715 105.085 81.0707 105.824 83.1899C107.074 86.7687 108.253 90.1474 110.252 93.3763C116.77 103.902 127.745 110.19 139.61 110.19C139.97 110.19 140.26 110.48 140.26 110.84C140.26 111.2 139.97 111.49 139.61 111.49C132.213 111.49 124.866 113.889 118.919 118.247C113.971 121.876 110.043 126.744 107.564 132.342C106.634 134.431 105.884 136.601 105.145 138.7C103.925 142.189 102.666 145.797 100.597 149.146C93.8396 160.062 82.4445 166.58 70.1298 166.58V166.59ZM7.40681 110.83C12.7045 111.84 17.7723 114.019 22.1205 117.198C27.2483 120.956 31.3265 126.014 33.8954 131.812C34.845 133.952 35.6146 136.151 36.3543 138.27C37.6038 141.849 38.7833 145.228 40.7824 148.456C47.2996 158.983 58.2749 165.27 70.1398 165.27C82.0047 165.27 92.9799 158.983 99.4971 148.456C101.496 145.228 102.676 141.849 103.925 138.27C104.665 136.151 105.435 133.952 106.384 131.812C108.953 126.014 113.021 120.956 118.159 117.198C122.507 114.009 127.575 111.83 132.873 110.83C123.227 108.921 114.661 102.943 109.153 94.056C107.074 90.7072 105.814 87.0985 104.605 83.6098C103.875 81.5106 103.116 79.3413 102.186 77.2521C99.707 71.6641 95.7787 66.7859 90.8309 63.1572C84.8834 58.7988 77.5366 56.3996 70.1398 56.3996C62.743 56.3996 55.3961 58.7988 49.4487 63.1572C44.5008 66.7859 40.5725 71.6541 38.0936 77.2521C37.164 79.3413 36.4143 81.5106 35.6746 83.6098C34.4551 87.0985 33.1957 90.7072 31.1266 94.056C25.629 102.943 17.0527 108.911 7.40681 110.83Z" fill="#A58C79"/>
<path d="M29.6272 126.354C29.3973 126.354 29.1674 126.224 29.0475 126.004C28.8776 125.685 28.9975 125.295 29.3174 125.125C37.4339 120.806 43.5712 112.299 47.2996 105.922C49.2788 102.533 50.5982 99.1441 51.8776 95.8753C53.9268 90.6472 55.5461 86.5087 59.1645 83.6497C62.3531 81.1406 66.2415 79.7311 70.1298 79.6911C74.0181 79.6712 77.8265 80.9807 80.8951 83.3798C84.6135 86.2788 85.9729 90.0174 87.8621 95.1855C89.0016 98.2944 90.2911 101.823 92.2902 105.332C95.4289 110.82 102.046 120.646 111.092 124.835C111.422 124.985 111.562 125.375 111.412 125.705C111.262 126.034 110.872 126.174 110.542 126.024C101.166 121.676 94.3693 111.6 91.1507 105.982C89.0916 102.383 87.7822 98.8042 86.6227 95.6354C84.8134 90.6672 83.494 87.0785 80.0755 84.4094C77.2367 82.1902 73.7082 80.9807 70.1198 80.9907C66.5213 81.0207 62.9129 82.3302 59.9542 84.6593C56.6056 87.2984 55.0463 91.287 53.0671 96.3351C51.7677 99.6539 50.4283 103.083 48.3991 106.561C44.5908 113.079 38.2935 121.796 29.9071 126.254C29.8072 126.304 29.7072 126.334 29.5972 126.334L29.6272 126.354Z" fill="#A58C79"/>
<path d="M70.1298 133.452C68.6904 133.452 67.5209 132.282 67.5209 130.843V118.937C67.5209 117.497 68.6904 116.328 70.1298 116.328C71.5691 116.328 72.7386 117.497 72.7386 118.937V130.843C72.7386 132.282 71.5691 133.452 70.1298 133.452Z" fill="#A58C79"/>
<path d="M70.1298 139.52C68.6904 139.52 67.5209 140.689 67.5209 142.129V165.83C68.3805 165.89 69.2501 165.94 70.1298 165.94C71.0094 165.94 71.879 165.9 72.7386 165.83V142.129C72.7386 140.689 71.5691 139.52 70.1298 139.52Z" fill="#A58C79"/>
<path d="M53.297 139.52C51.8576 139.52 50.6881 140.689 50.6881 142.129V159.872C52.3374 161.012 54.0866 161.991 55.9059 162.831V142.129C55.9059 140.689 54.7364 139.52 53.297 139.52Z" fill="#A58C79"/>
<path d="M86.9725 139.52C85.5331 139.52 84.3636 140.689 84.3636 142.129V162.831C86.1829 162.001 87.9321 161.012 89.5814 159.872V142.129C89.5814 140.689 88.4119 139.52 86.9725 139.52Z" fill="#A58C79"/>
<path d="M72.7386 106.432C72.7386 108.161 71.3392 109.56 69.61 109.56C67.8807 109.56 66.4813 108.161 66.4813 106.432C66.4813 104.702 67.8807 103.303 69.61 103.303C71.3392 103.303 72.7386 104.702 72.7386 106.432Z" fill="#A58C79"/>
<path d="M52.7772 133.672C54.5051 133.672 55.9059 132.271 55.9059 130.543C55.9059 128.815 54.5051 127.414 52.7772 127.414C51.0493 127.414 49.6486 128.815 49.6486 130.543C49.6486 132.271 51.0493 133.672 52.7772 133.672Z" fill="#A58C79"/>
<path d="M87.4923 133.672C89.2202 133.672 90.621 132.271 90.621 130.543C90.621 128.815 89.2202 127.414 87.4923 127.414C85.7644 127.414 84.3636 128.815 84.3636 130.543C84.3636 132.271 85.7644 133.672 87.4923 133.672Z" fill="#A58C79"/>
<path d="M121.618 115.798C112.701 115.608 104.965 103.833 102.036 98.7144C100.397 95.8554 99.2772 92.7865 98.1977 89.8276C96.0686 84.0097 93.8695 77.9919 87.8022 73.2436C82.8443 69.375 76.697 67.2657 70.4796 67.3257C64.2823 67.3857 58.105 69.5949 53.1071 73.5435C47.2496 78.1718 44.8307 84.3496 42.4917 90.3174C41.3122 93.3263 40.1027 96.4252 38.4534 99.2442C35.6047 104.122 28.4078 114.998 20.1213 116.578C20.7011 116.948 21.2808 117.328 21.8406 117.737C22.9901 118.577 24.0696 119.497 25.1092 120.467C33.2057 116.858 39.563 107.811 43.0015 101.903C44.8507 98.7344 46.1401 95.4355 47.3896 92.2467C49.5686 86.6787 51.6278 81.4206 56.3657 77.682C60.464 74.4531 65.4918 72.6438 70.5296 72.6038C75.5474 72.5638 80.5453 74.2632 84.5636 77.4021C89.4515 81.2207 91.2107 86.0489 93.2598 91.6469C94.4193 94.8158 95.6188 98.0946 97.478 101.343C100.946 107.401 107.464 116.778 115.93 119.977C116.8 119.197 117.699 118.437 118.649 117.747C119.608 117.048 120.608 116.418 121.628 115.818L121.618 115.798Z" fill="#A58C79"/>
<path d="M209.1 166.59C196.775 166.59 185.39 160.072 178.633 149.156C176.554 145.807 175.294 142.199 174.085 138.71C173.355 136.611 172.596 134.441 171.666 132.352C169.187 126.764 165.259 121.886 160.311 118.257C154.363 113.899 147.017 111.5 139.62 111.5C139.26 111.5 138.97 111.21 138.97 110.85C138.97 110.49 139.26 110.2 139.62 110.2C151.485 110.2 162.46 103.912 168.977 93.3863C170.976 90.1574 172.156 86.7787 173.405 83.2C174.145 81.0807 174.915 78.8815 175.864 76.7423C178.433 70.9444 182.501 65.8862 187.639 62.1276C193.806 57.6092 201.433 55.1101 209.1 55.1101C216.767 55.1101 224.393 57.5992 230.561 62.1276C235.688 65.8862 239.767 70.9444 242.336 76.7423C243.285 78.8815 244.055 81.0807 244.794 83.2C246.044 86.7787 247.223 90.1574 249.223 93.3863C255.74 103.912 266.715 110.2 278.58 110.2C278.94 110.2 279.23 110.49 279.23 110.85C279.23 111.21 278.94 111.5 278.58 111.5C271.183 111.5 263.836 113.899 257.889 118.257C252.941 121.886 249.013 126.754 246.534 132.352C245.604 134.441 244.854 136.611 244.115 138.71C242.895 142.199 241.636 145.807 239.567 149.156C232.81 160.072 221.415 166.59 209.1 166.59ZM146.377 110.83C151.675 111.84 156.742 114.019 161.091 117.198C166.218 120.956 170.297 126.014 172.865 131.812C173.815 133.952 174.585 136.151 175.324 138.27C176.574 141.849 177.753 145.228 179.753 148.456C186.27 158.983 197.245 165.27 209.11 165.27C220.975 165.27 231.95 158.983 238.467 148.456C240.466 145.228 241.646 141.849 242.895 138.27C243.635 136.151 244.405 133.952 245.354 131.812C247.923 126.014 251.991 120.956 257.129 117.198C261.477 114.009 266.545 111.83 271.843 110.83C262.197 108.921 253.631 102.943 248.123 94.056C246.044 90.7072 244.784 87.0985 243.575 83.6098C242.845 81.5106 242.086 79.3413 241.156 77.2521C238.677 71.6641 234.749 66.7859 229.801 63.1572C223.854 58.7988 216.507 56.3996 209.11 56.3996C201.713 56.3996 194.366 58.7988 188.419 63.1572C183.471 66.7859 179.543 71.6541 177.064 77.2521C176.134 79.3413 175.384 81.5106 174.645 83.6098C173.425 87.0985 172.166 90.7072 170.097 94.056C164.599 102.943 156.023 108.911 146.377 110.83Z" fill="#A58C79"/>
<path d="M168.597 126.354C168.367 126.354 168.138 126.224 168.018 126.004C167.848 125.685 167.968 125.295 168.287 125.125C176.404 120.806 182.541 112.299 186.27 105.922C188.249 102.533 189.568 99.1441 190.848 95.8753C192.897 90.6472 194.516 86.5087 198.135 83.6497C201.323 81.1406 205.212 79.7311 209.1 79.6911C212.968 79.6712 216.797 80.9807 219.865 83.3798C223.584 86.2788 224.943 90.0174 226.832 95.1855C227.972 98.2944 229.261 101.823 231.26 105.332C234.399 110.82 241.016 120.646 250.062 124.835C250.392 124.985 250.532 125.375 250.382 125.705C250.232 126.034 249.842 126.174 249.512 126.024C240.136 121.676 233.339 111.6 230.121 105.982C228.062 102.383 226.752 98.8042 225.593 95.6354C223.784 90.6672 222.464 87.0785 219.046 84.4094C216.207 82.1902 212.688 80.9807 209.09 80.9907C205.491 81.0207 201.883 82.3302 198.924 84.6593C195.576 87.2984 194.016 91.287 192.037 96.3351C190.738 99.6539 189.398 103.083 187.369 106.561C183.561 113.079 177.264 121.796 168.877 126.254C168.777 126.304 168.677 126.334 168.567 126.334L168.597 126.354Z" fill="#A58C79"/>
<path d="M209.1 133.452C207.66 133.452 206.491 132.282 206.491 130.843V118.937C206.491 117.497 207.66 116.328 209.1 116.328C210.539 116.328 211.709 117.497 211.709 118.937V130.843C211.709 132.282 210.539 133.452 209.1 133.452Z" fill="#A58C79"/>
<path d="M209.1 139.52C207.66 139.52 206.491 140.689 206.491 142.129V165.83C207.351 165.89 208.22 165.94 209.1 165.94C209.979 165.94 210.849 165.9 211.709 165.83V142.129C211.709 140.689 210.539 139.52 209.1 139.52Z" fill="#A58C79"/>
<path d="M192.257 139.52C190.818 139.52 189.648 140.689 189.648 142.129V159.872C191.297 161.012 193.047 161.991 194.866 162.831V142.129C194.866 140.689 193.696 139.52 192.257 139.52Z" fill="#A58C79"/>
<path d="M225.933 139.52C224.493 139.52 223.324 140.689 223.324 142.129V162.831C225.143 162.001 226.892 161.012 228.541 159.872V142.129C228.541 140.689 227.372 139.52 225.933 139.52Z" fill="#A58C79"/>
<path d="M208.58 109.56C210.308 109.56 211.709 108.16 211.709 106.432C211.709 104.704 210.308 103.303 208.58 103.303C206.852 103.303 205.451 104.704 205.451 106.432C205.451 108.16 206.852 109.56 208.58 109.56Z" fill="#A58C79"/>
<path d="M191.737 133.672C193.465 133.672 194.866 132.271 194.866 130.543C194.866 128.815 193.465 127.414 191.737 127.414C190.01 127.414 188.609 128.815 188.609 130.543C188.609 132.271 190.01 133.672 191.737 133.672Z" fill="#A58C79"/>
<path d="M223.334 130.543C223.334 132.272 224.733 133.672 226.462 133.672C228.192 133.672 229.591 132.272 229.591 130.543C229.591 128.814 228.192 127.414 226.462 127.414C224.733 127.414 223.334 128.814 223.334 130.543Z" fill="#A58C79"/>
<path d="M260.578 115.798C251.662 115.608 243.925 103.833 240.996 98.7144C239.357 95.8554 238.237 92.7865 237.158 89.8276C235.029 84.0097 232.83 77.9919 226.762 73.2436C221.804 69.375 215.657 67.2657 209.44 67.3257C203.242 67.3857 197.065 69.5949 192.067 73.5435C186.21 78.1718 183.791 84.3496 181.452 90.3174C180.272 93.3263 179.063 96.4252 177.414 99.2442C174.565 104.122 167.368 114.998 159.081 116.578C159.661 116.948 160.241 117.328 160.801 117.737C161.95 118.577 163.03 119.497 164.069 120.467C172.166 116.858 178.523 107.811 181.962 101.903C183.811 98.7344 185.1 95.4355 186.35 92.2467C188.529 86.6787 190.588 81.4206 195.326 77.682C199.424 74.4531 204.452 72.6438 209.49 72.6038C214.508 72.5638 219.505 74.2632 223.524 77.4021C228.412 81.2207 230.171 86.0489 232.22 91.6469C233.379 94.8158 234.579 98.0946 236.438 101.343C239.907 107.401 246.424 116.778 254.89 119.977C255.76 119.197 256.659 118.437 257.609 117.747C258.569 117.048 259.568 116.418 260.588 115.818L260.578 115.798Z" fill="#A58C79"/>
<path d="M139.62 221.68C127.295 221.68 115.91 215.162 109.153 204.246C107.074 200.897 105.814 197.289 104.605 193.8C103.875 191.701 103.116 189.532 102.186 187.442C99.707 181.854 95.7787 176.976 90.8308 173.347C84.8834 168.989 77.5365 166.59 70.1397 166.59C69.7799 166.59 69.49 166.3 69.49 165.94C69.49 165.58 69.7799 165.29 70.1397 165.29C82.0046 165.29 92.9799 159.003 99.4971 148.476C101.496 145.248 102.676 141.869 103.925 138.29C104.665 136.171 105.435 133.972 106.384 131.832C108.953 126.034 113.021 120.976 118.159 117.218C124.326 112.699 131.953 110.2 139.62 110.2C147.296 110.2 154.913 112.689 161.081 117.218C166.208 120.976 170.287 126.034 172.855 131.832C173.805 133.972 174.575 136.171 175.314 138.29C176.564 141.869 177.743 145.248 179.742 148.476C186.26 159.003 197.235 165.29 209.1 165.29C209.46 165.29 209.75 165.58 209.75 165.94C209.75 166.3 209.46 166.59 209.1 166.59C201.703 166.59 194.356 168.989 188.409 173.347C183.461 176.976 179.533 181.844 177.054 187.442C176.124 189.532 175.374 191.701 174.635 193.8C173.415 197.289 172.156 200.897 170.087 204.246C163.33 215.162 151.934 221.68 139.62 221.68ZM76.8968 165.92C82.1945 166.93 87.2623 169.109 91.6105 172.288C96.7383 176.046 100.816 181.105 103.385 186.902C104.335 189.042 105.105 191.241 105.844 193.36C107.094 196.939 108.273 200.318 110.272 203.546C116.79 214.073 127.765 220.36 139.63 220.36C151.495 220.36 162.47 214.073 168.987 203.546C170.986 200.318 172.166 196.939 173.415 193.36C174.155 191.241 174.925 189.042 175.874 186.902C178.443 181.105 182.511 176.046 187.649 172.288C191.997 169.099 197.065 166.92 202.363 165.92C192.717 164.011 184.151 158.033 178.643 149.146C176.564 145.797 175.314 142.189 174.095 138.7C173.365 136.601 172.606 134.431 171.676 132.342C169.197 126.754 165.269 121.876 160.321 118.247C154.373 113.889 147.027 111.49 139.63 111.49C132.233 111.49 124.886 113.889 118.939 118.247C113.991 121.876 110.063 126.744 107.584 132.342C106.654 134.431 105.904 136.601 105.165 138.7C103.945 142.189 102.686 145.797 100.617 149.146C95.119 158.033 86.5426 164.001 76.8968 165.92Z" fill="#A58C79"/>
<path d="M99.1072 181.444C98.8773 181.444 98.6474 181.314 98.5275 181.095C98.3575 180.775 98.4775 180.385 98.7973 180.215C106.914 175.896 113.051 167.39 116.78 161.012C118.759 157.623 120.078 154.234 121.358 150.965C123.407 145.737 125.026 141.599 128.644 138.74C131.833 136.231 135.721 134.821 139.61 134.781C143.488 134.771 147.306 136.071 150.375 138.47C154.094 141.369 155.453 145.108 157.342 150.276C158.482 153.385 159.771 156.913 161.77 160.422C164.909 165.91 171.526 175.737 180.572 179.925C180.902 180.075 181.042 180.465 180.892 180.795C180.742 181.125 180.352 181.264 180.022 181.115C170.646 176.766 163.849 166.69 160.631 161.072C158.572 157.473 157.262 153.894 156.103 150.726C154.293 145.757 152.974 142.169 149.555 139.5C146.717 137.28 143.198 136.071 139.6 136.081C136.001 136.111 132.393 137.42 129.434 139.75C126.086 142.389 124.526 146.377 122.547 151.425C121.248 154.744 119.908 158.173 117.879 161.652C114.071 168.169 107.773 176.886 99.3871 181.344C99.2871 181.394 99.1872 181.424 99.0772 181.424L99.1072 181.444Z" fill="#A58C79"/>
<path d="M139.62 188.552C138.18 188.552 137.011 187.382 137.011 185.943V174.037C137.011 172.598 138.18 171.428 139.62 171.428C141.059 171.428 142.229 172.598 142.229 174.037V185.943C142.229 187.382 141.059 188.552 139.62 188.552Z" fill="#A58C79"/>
<path d="M139.62 194.62C138.18 194.62 137.011 195.789 137.011 197.229V220.93C137.87 220.99 138.74 221.04 139.62 221.04C140.499 221.04 141.369 221 142.229 220.93V197.229C142.229 195.789 141.059 194.62 139.62 194.62Z" fill="#A58C79"/>
<path d="M122.777 194.62C121.338 194.62 120.168 195.789 120.168 197.229V214.972C121.818 216.112 123.567 217.091 125.386 217.931V197.229C125.386 195.789 124.216 194.62 122.777 194.62Z" fill="#A58C79"/>
<path d="M156.453 194.62C155.013 194.62 153.844 195.789 153.844 197.229V217.931C155.663 217.101 157.412 216.112 159.061 214.972V197.229C159.061 195.789 157.892 194.62 156.453 194.62Z" fill="#A58C79"/>
<path d="M139.1 164.661C140.828 164.661 142.229 163.26 142.229 161.532C142.229 159.804 140.828 158.403 139.1 158.403C137.372 158.403 135.971 159.804 135.971 161.532C135.971 163.26 137.372 164.661 139.1 164.661Z" fill="#A58C79"/>
<path d="M122.257 188.762C123.985 188.762 125.386 187.361 125.386 185.633C125.386 183.905 123.985 182.504 122.257 182.504C120.529 182.504 119.129 183.905 119.129 185.633C119.129 187.361 120.529 188.762 122.257 188.762Z" fill="#A58C79"/>
<path d="M156.972 188.762C158.7 188.762 160.101 187.361 160.101 185.633C160.101 183.905 158.7 182.504 156.972 182.504C155.244 182.504 153.844 183.905 153.844 185.633C153.844 187.361 155.244 188.762 156.972 188.762Z" fill="#A58C79"/>
<path d="M191.098 170.888C182.181 170.698 174.445 158.923 171.516 153.804C169.877 150.945 168.757 147.877 167.678 144.918C165.549 139.1 163.35 133.082 157.282 128.334C152.324 124.465 146.177 122.356 139.96 122.416C133.762 122.476 127.585 124.685 122.587 128.634C116.73 133.262 114.311 139.44 111.972 145.407C110.792 148.416 109.583 151.515 107.933 154.334C105.085 159.212 97.8877 170.089 89.6013 171.668C90.1811 172.038 90.7608 172.418 91.3206 172.828C92.4701 173.667 93.5496 174.587 94.5892 175.557C102.686 171.948 109.043 162.901 112.481 156.993C114.331 153.824 115.62 150.526 116.87 147.337C119.049 141.769 121.108 136.511 125.846 132.772C129.944 129.543 134.972 127.734 140.01 127.694C145.027 127.654 150.025 129.353 154.044 132.492C158.931 136.311 160.691 141.139 162.74 146.737C163.899 149.906 165.099 153.185 166.958 156.434C170.426 162.491 176.944 171.868 185.41 175.067C186.28 174.287 187.179 173.527 188.129 172.838C189.088 172.138 190.088 171.508 191.108 170.908L191.098 170.888Z" fill="#A58C79"/>
<path d="M209.1 276.91C196.775 276.91 185.39 270.392 178.633 259.476C176.554 256.127 175.294 252.519 174.085 249.03C173.355 246.931 172.596 244.761 171.666 242.672C169.187 237.084 165.259 232.206 160.311 228.577C154.363 224.219 147.017 221.82 139.62 221.82C139.26 221.82 138.97 221.53 138.97 221.17C138.97 220.81 139.26 220.52 139.62 220.52C151.485 220.52 162.46 214.233 168.977 203.706C170.976 200.478 172.156 197.099 173.405 193.52C174.145 191.401 174.915 189.202 175.864 187.062C178.433 181.264 182.501 176.206 187.639 172.448C193.806 167.929 201.433 165.43 209.1 165.43C216.767 165.43 224.393 167.919 230.561 172.448C235.688 176.206 239.767 181.264 242.336 187.062C243.285 189.202 244.055 191.401 244.794 193.52C246.044 197.099 247.223 200.478 249.223 203.706C255.74 214.233 266.715 220.52 278.58 220.52C278.94 220.52 279.23 220.81 279.23 221.17C279.23 221.53 278.94 221.82 278.58 221.82C271.183 221.82 263.836 224.219 257.889 228.577C252.941 232.206 249.013 237.074 246.534 242.672C245.604 244.761 244.854 246.931 244.115 249.03C242.895 252.519 241.636 256.127 239.567 259.476C232.81 270.392 221.415 276.91 209.1 276.91ZM146.377 221.15C151.675 222.16 156.742 224.339 161.091 227.518C166.218 231.276 170.297 236.335 172.865 242.132C173.815 244.272 174.585 246.471 175.324 248.59C176.574 252.169 177.753 255.548 179.753 258.776C186.27 269.303 197.245 275.59 209.11 275.59C220.975 275.59 231.95 269.303 238.467 258.776C240.466 255.548 241.646 252.169 242.895 248.59C243.635 246.471 244.405 244.272 245.354 242.132C247.923 236.335 251.991 231.286 257.129 227.518C261.477 224.329 266.545 222.15 271.843 221.15C262.197 219.241 253.631 213.263 248.123 204.376C246.044 201.027 244.784 197.419 243.575 193.93C242.845 191.831 242.086 189.661 241.156 187.572C238.677 181.984 234.749 177.106 229.801 173.477C223.854 169.119 216.507 166.72 209.11 166.72C201.713 166.72 194.366 169.119 188.419 173.477C183.471 177.106 179.543 181.974 177.064 187.572C176.134 189.661 175.384 191.831 174.645 193.93C173.425 197.419 172.166 201.027 170.097 204.376C164.599 213.263 156.023 219.231 146.377 221.15Z" fill="#A58C79"/>
<path d="M168.597 236.674C168.367 236.674 168.138 236.544 168.018 236.324C167.848 236.005 167.968 235.615 168.287 235.445C176.404 231.126 182.541 222.619 186.27 216.242C188.249 212.853 189.568 209.464 190.848 206.195C192.897 200.967 194.516 196.829 198.135 193.97C201.323 191.461 205.212 190.051 209.1 190.011C212.968 189.991 216.797 191.301 219.865 193.7C223.584 196.599 224.943 200.337 226.832 205.506C227.972 208.614 229.261 212.143 231.26 215.652C234.399 221.14 241.016 230.966 250.062 235.155C250.392 235.305 250.532 235.695 250.382 236.025C250.232 236.354 249.842 236.494 249.512 236.344C240.136 231.996 233.339 221.92 230.121 216.302C228.062 212.703 226.752 209.124 225.593 205.955C223.784 200.987 222.464 197.399 219.046 194.73C216.207 192.51 212.688 191.301 209.09 191.311C205.491 191.341 201.883 192.65 198.924 194.979C195.576 197.618 194.016 201.607 192.037 206.655C190.738 209.974 189.398 213.403 187.369 216.882C183.561 223.399 177.264 232.116 168.877 236.574C168.777 236.624 168.677 236.654 168.567 236.654L168.597 236.674Z" fill="#A58C79"/>
<path d="M209.1 243.772C207.66 243.772 206.491 242.602 206.491 241.163V229.257C206.491 227.818 207.66 226.648 209.1 226.648C210.539 226.648 211.709 227.818 211.709 229.257V241.163C211.709 242.602 210.539 243.772 209.1 243.772Z" fill="#A58C79"/>
<path d="M209.1 249.84C207.66 249.84 206.491 251.009 206.491 252.449V276.15C207.351 276.21 208.22 276.26 209.1 276.26C209.979 276.26 210.849 276.22 211.709 276.15V252.449C211.709 251.009 210.539 249.84 209.1 249.84Z" fill="#A58C79"/>
<path d="M192.257 249.84C190.818 249.84 189.648 251.009 189.648 252.449V270.192C191.297 271.332 193.047 272.311 194.866 273.151V252.449C194.866 251.009 193.696 249.84 192.257 249.84Z" fill="#A58C79"/>
<path d="M225.933 249.84C224.493 249.84 223.324 251.009 223.324 252.449V273.151C225.143 272.321 226.892 271.332 228.541 270.192V252.449C228.541 251.009 227.372 249.84 225.933 249.84Z" fill="#A58C79"/>
<path d="M208.58 219.881C210.308 219.881 211.709 218.48 211.709 216.752C211.709 215.024 210.308 213.623 208.58 213.623C206.852 213.623 205.451 215.024 205.451 216.752C205.451 218.48 206.852 219.881 208.58 219.881Z" fill="#A58C79"/>
<path d="M191.737 243.982C193.465 243.982 194.866 242.581 194.866 240.853C194.866 239.125 193.465 237.724 191.737 237.724C190.009 237.724 188.609 239.125 188.609 240.853C188.609 242.581 190.009 243.982 191.737 243.982Z" fill="#A58C79"/>
<path d="M223.334 240.853C223.334 242.582 224.733 243.982 226.462 243.982C228.192 243.982 229.591 242.582 229.591 240.853C229.591 239.124 228.192 237.724 226.462 237.724C224.733 237.724 223.334 239.124 223.334 240.853Z" fill="#A58C79"/>
<path d="M260.578 226.118C251.662 225.928 243.925 214.153 240.996 209.034C239.357 206.175 238.237 203.107 237.158 200.148C235.029 194.33 232.83 188.312 226.762 183.564C221.804 179.695 215.657 177.586 209.44 177.646C203.242 177.706 197.065 179.915 192.067 183.864C186.21 188.492 183.791 194.67 181.452 200.637C180.272 203.646 179.063 206.745 177.414 209.564C174.565 214.442 167.368 225.319 159.081 226.898C159.661 227.268 160.241 227.648 160.801 228.058C161.95 228.897 163.03 229.817 164.069 230.787C172.166 227.178 178.523 218.131 181.962 212.223C183.811 209.054 185.1 205.756 186.35 202.567C188.529 196.999 190.588 191.741 195.326 188.002C199.424 184.773 204.452 182.964 209.49 182.924C214.508 182.884 219.505 184.583 223.524 187.722C228.412 191.541 230.171 196.369 232.22 201.967C233.379 205.136 234.579 208.415 236.438 211.663C239.907 217.721 246.424 227.098 254.89 230.297C255.76 229.517 256.659 228.757 257.609 228.068C258.569 227.368 259.568 226.738 260.588 226.138L260.578 226.118Z" fill="#A58C79"/>
<path d="M139.62 332C127.295 332 115.91 325.482 109.153 314.566C107.074 311.217 105.814 307.609 104.605 304.12C103.875 302.021 103.116 299.852 102.186 297.762C99.707 292.174 95.7787 287.296 90.8308 283.667C84.8834 279.309 77.5365 276.91 70.1397 276.91C69.7799 276.91 69.49 276.62 69.49 276.26C69.49 275.9 69.7799 275.61 70.1397 275.61C82.0046 275.61 92.9799 269.323 99.4971 258.796C101.496 255.568 102.676 252.189 103.925 248.61C104.665 246.491 105.435 244.292 106.384 242.152C108.953 236.355 113.021 231.296 118.159 227.538C124.326 223.019 131.953 220.52 139.62 220.52C147.296 220.52 154.913 223.009 161.081 227.538C166.208 231.296 170.287 236.355 172.855 242.152C173.805 244.292 174.575 246.491 175.314 248.61C176.564 252.189 177.743 255.568 179.742 258.796C186.26 269.323 197.235 275.61 209.1 275.61C209.46 275.61 209.75 275.9 209.75 276.26C209.75 276.62 209.46 276.91 209.1 276.91C201.703 276.91 194.356 279.309 188.409 283.667C183.461 287.296 179.533 292.164 177.054 297.762C176.124 299.852 175.374 302.021 174.635 304.12C173.415 307.609 172.156 311.217 170.087 314.566C163.33 325.482 151.934 332 139.62 332ZM76.8968 276.24C82.1945 277.25 87.2623 279.429 91.6105 282.608C96.7383 286.366 100.816 291.425 103.385 297.223C104.335 299.362 105.105 301.561 105.844 303.68C107.094 307.259 108.273 310.638 110.272 313.867C116.79 324.393 127.765 330.68 139.63 330.68C151.495 330.68 162.47 324.393 168.987 313.867C170.986 310.638 172.166 307.259 173.415 303.68C174.155 301.561 174.925 299.362 175.874 297.223C178.443 291.425 182.511 286.366 187.649 282.608C191.997 279.419 197.065 277.24 202.363 276.24C192.717 274.331 184.151 268.353 178.643 259.466C176.564 256.117 175.314 252.509 174.095 249.02C173.365 246.921 172.606 244.752 171.676 242.662C169.197 237.074 165.269 232.196 160.321 228.567C154.373 224.209 147.027 221.81 139.63 221.81C132.233 221.81 124.886 224.209 118.939 228.567C113.991 232.196 110.063 237.064 107.584 242.662C106.654 244.752 105.904 246.921 105.165 249.02C103.945 252.509 102.686 256.117 100.617 259.466C95.119 268.353 86.5426 274.321 76.8968 276.24Z" fill="#A58C79"/>
<path d="M99.1072 291.765C98.8773 291.765 98.6474 291.635 98.5275 291.415C98.3575 291.095 98.4775 290.705 98.7973 290.535C106.914 286.217 113.051 277.71 116.78 271.332C118.759 267.943 120.078 264.554 121.358 261.286C123.407 256.057 125.026 251.919 128.644 249.06C131.833 246.551 135.721 245.141 139.61 245.101C143.488 245.091 147.306 246.391 150.375 248.79C154.094 251.689 155.453 255.428 157.342 260.596C158.482 263.705 159.771 267.233 161.77 270.742C164.909 276.23 171.526 286.057 180.572 290.245C180.902 290.395 181.042 290.785 180.892 291.115C180.742 291.445 180.352 291.585 180.022 291.435C170.646 287.086 163.849 277.01 160.631 271.392C158.572 267.793 157.262 264.214 156.103 261.046C154.293 256.077 152.974 252.489 149.555 249.82C146.717 247.6 143.198 246.391 139.6 246.401C136.001 246.431 132.393 247.74 129.434 250.08C126.086 252.719 124.526 256.707 122.547 261.755C121.248 265.074 119.908 268.503 117.879 271.982C114.071 278.499 107.773 287.216 99.3871 291.675C99.2871 291.725 99.1872 291.754 99.0772 291.754L99.1072 291.765Z" fill="#A58C79"/>
<path d="M139.62 298.872C138.18 298.872 137.011 297.702 137.011 296.263V284.357C137.011 282.918 138.18 281.748 139.62 281.748C141.059 281.748 142.229 282.918 142.229 284.357V296.263C142.229 297.702 141.059 298.872 139.62 298.872Z" fill="#A58C79"/>
<path d="M139.62 304.94C138.18 304.94 137.011 306.109 137.011 307.549V331.25C137.87 331.31 138.74 331.36 139.62 331.36C140.499 331.36 141.369 331.32 142.229 331.25V307.549C142.229 306.109 141.059 304.94 139.62 304.94Z" fill="#A58C79"/>
<path d="M122.777 304.94C121.338 304.94 120.168 306.109 120.168 307.549V325.292C121.818 326.432 123.567 327.412 125.386 328.251V307.549C125.386 306.109 124.216 304.94 122.777 304.94Z" fill="#A58C79"/>
<path d="M156.453 304.94C155.013 304.94 153.844 306.109 153.844 307.549V328.251C155.663 327.422 157.412 326.432 159.061 325.292V307.549C159.061 306.109 157.892 304.94 156.453 304.94Z" fill="#A58C79"/>
<path d="M142.219 271.842C142.219 273.571 140.819 274.971 139.09 274.971C137.361 274.971 135.961 273.571 135.961 271.842C135.961 270.112 137.361 268.713 139.09 268.713C140.819 268.713 142.219 270.112 142.219 271.842Z" fill="#A58C79"/>
<path d="M122.257 299.082C123.985 299.082 125.386 297.681 125.386 295.953C125.386 294.225 123.985 292.824 122.257 292.824C120.529 292.824 119.129 294.225 119.129 295.953C119.129 297.681 120.529 299.082 122.257 299.082Z" fill="#A58C79"/>
<path d="M156.972 299.082C158.7 299.082 160.101 297.681 160.101 295.953C160.101 294.225 158.7 292.824 156.972 292.824C155.244 292.824 153.844 294.225 153.844 295.953C153.844 297.681 155.244 299.082 156.972 299.082Z" fill="#A58C79"/>
<path d="M191.098 281.208C182.181 281.018 174.445 269.243 171.516 264.125C169.877 261.266 168.757 258.197 167.678 255.238C165.549 249.42 163.35 243.402 157.282 238.654C152.324 234.785 146.177 232.676 139.96 232.736C133.762 232.796 127.585 235.005 122.587 238.954C116.73 243.582 114.311 249.76 111.972 255.728C110.792 258.736 109.583 261.835 107.933 264.654C105.085 269.533 97.8877 280.409 89.6013 281.988C90.1811 282.358 90.7608 282.738 91.3206 283.148C92.4701 283.987 93.5496 284.907 94.5892 285.877C102.686 282.268 109.043 273.221 112.481 267.313C114.331 264.145 115.62 260.846 116.87 257.657C119.049 252.089 121.108 246.831 125.846 243.092C129.944 239.863 134.972 238.054 140.01 238.014C145.027 237.974 150.025 239.673 154.044 242.812C158.931 246.631 160.691 251.459 162.74 257.057C163.899 260.226 165.099 263.505 166.958 266.754C170.426 272.811 176.944 282.188 185.41 285.387C186.28 284.607 187.179 283.847 188.129 283.158C189.088 282.458 190.088 281.828 191.108 281.228L191.098 281.208Z" fill="#A58C79"/>
<path d="M486.9 276.81C474.575 276.81 463.19 270.292 456.433 259.376C454.354 256.028 453.095 252.419 451.885 248.93C451.156 246.831 450.396 244.662 449.466 242.572C446.987 236.984 443.059 232.106 438.111 228.477C432.164 224.119 424.817 221.72 417.42 221.72C417.06 221.72 416.77 221.43 416.77 221.07C416.77 220.71 417.06 220.42 417.42 220.42C429.285 220.42 440.26 214.133 446.777 203.606C448.777 200.378 449.956 196.999 451.206 193.41C451.945 191.291 452.715 189.092 453.664 186.952C456.233 181.155 460.302 176.096 465.439 172.338C471.607 167.819 479.233 165.32 486.9 165.32C494.567 165.32 502.194 167.809 508.361 172.338C513.489 176.096 517.567 181.155 520.136 186.952C521.085 189.092 521.855 191.291 522.595 193.41C523.844 196.989 525.024 200.368 527.023 203.596C533.54 214.123 544.515 220.41 556.38 220.41C556.74 220.41 557.03 220.7 557.03 221.06C557.03 221.42 556.74 221.71 556.38 221.71C548.983 221.71 541.637 224.109 535.689 228.467C530.741 232.096 526.813 236.964 524.334 242.562C523.404 244.652 522.655 246.821 521.915 248.92C520.696 252.409 519.436 256.018 517.367 259.366C510.61 270.282 499.215 276.8 486.9 276.8V276.81ZM424.177 221.05C429.475 222.06 434.543 224.239 438.891 227.418C444.019 231.177 448.097 236.235 450.666 242.033C451.615 244.172 452.385 246.371 453.125 248.49C454.374 252.069 455.554 255.448 457.553 258.677C464.07 269.203 475.045 275.49 486.91 275.49C498.775 275.49 509.75 269.203 516.267 258.677C518.267 255.448 519.446 252.069 520.696 248.49C521.435 246.371 522.205 244.172 523.155 242.033C525.723 236.235 529.792 231.177 534.929 227.418C539.278 224.229 544.345 222.05 549.643 221.05C539.997 219.141 531.431 213.163 525.933 204.276C523.854 200.927 522.595 197.319 521.385 193.83C520.656 191.731 519.896 189.562 518.966 187.472C516.487 181.884 512.559 177.006 507.611 173.377C501.664 169.019 494.317 166.62 486.92 166.62C479.523 166.62 472.176 169.019 466.229 173.377C461.281 177.006 457.353 181.874 454.874 187.472C453.944 189.562 453.195 191.731 452.455 193.83C451.236 197.319 449.976 200.927 447.907 204.276C442.409 213.163 433.833 219.131 424.187 221.05H424.177Z" fill="#A58C79"/>
<path d="M446.398 236.575C446.168 236.575 445.938 236.445 445.818 236.225C445.648 235.905 445.768 235.515 446.088 235.345C454.204 231.026 460.342 222.52 464.07 216.142C466.049 212.753 467.369 209.364 468.648 206.096C470.697 200.867 472.316 196.729 475.935 193.87C479.124 191.361 483.012 189.951 486.9 189.911C490.788 189.891 494.597 191.201 497.666 193.6C501.384 196.499 502.743 200.238 504.633 205.406C505.772 208.515 507.061 212.043 509.061 215.552C512.199 221.04 518.816 230.867 527.863 235.055C528.192 235.205 528.332 235.595 528.182 235.925C528.032 236.255 527.643 236.395 527.313 236.245C517.937 231.896 511.14 221.82 507.921 216.202C505.862 212.603 504.553 209.024 503.393 205.856C501.584 200.887 500.264 197.299 496.846 194.63C494.007 192.41 490.479 191.201 486.89 191.211C483.292 191.241 479.683 192.55 476.725 194.88C473.376 197.519 471.817 201.507 469.838 206.555C468.538 209.874 467.199 213.303 465.17 216.782C461.361 223.299 455.064 232.016 446.677 236.475C446.578 236.525 446.478 236.555 446.368 236.555L446.398 236.575Z" fill="#A58C79"/>
<path d="M486.9 243.672C485.461 243.672 484.291 242.502 484.291 241.063V229.157C484.291 227.718 485.461 226.548 486.9 226.548C488.34 226.548 489.509 227.718 489.509 229.157V241.063C489.509 242.502 488.34 243.672 486.9 243.672Z" fill="#A58C79"/>
<path d="M486.9 249.74C485.461 249.74 484.291 250.909 484.291 252.349V276.05C485.151 276.11 486.02 276.16 486.9 276.16C487.78 276.16 488.649 276.12 489.509 276.05V252.349C489.509 250.909 488.34 249.74 486.9 249.74Z" fill="#A58C79"/>
<path d="M470.067 249.74C468.628 249.74 467.458 250.909 467.458 252.349V270.092C469.108 271.232 470.857 272.212 472.676 273.051V252.349C472.676 250.909 471.507 249.74 470.067 249.74Z" fill="#A58C79"/>
<path d="M503.743 249.74C502.304 249.74 501.134 250.909 501.134 252.349V273.051C502.953 272.222 504.702 271.232 506.352 270.092V252.349C506.352 250.909 505.182 249.74 503.743 249.74Z" fill="#A58C79"/>
<path d="M486.38 219.781C488.108 219.781 489.509 218.38 489.509 216.652C489.509 214.924 488.108 213.523 486.38 213.523C484.652 213.523 483.252 214.924 483.252 216.652C483.252 218.38 484.652 219.781 486.38 219.781Z" fill="#A58C79"/>
<path d="M469.548 243.892C471.276 243.892 472.676 242.491 472.676 240.763C472.676 239.035 471.276 237.634 469.548 237.634C467.82 237.634 466.419 239.035 466.419 240.763C466.419 242.491 467.82 243.892 469.548 243.892Z" fill="#A58C79"/>
<path d="M501.134 240.763C501.134 242.493 502.533 243.892 504.263 243.892C505.992 243.892 507.391 242.493 507.391 240.763C507.391 239.034 505.992 237.634 504.263 237.634C502.533 237.634 501.134 239.034 501.134 240.763Z" fill="#A58C79"/>
<path d="M538.388 226.018C529.472 225.828 521.735 214.053 518.806 208.935C517.167 206.076 516.048 203.007 514.968 200.048C512.839 194.23 510.64 188.212 504.573 183.464C499.615 179.595 493.467 177.486 487.25 177.546C481.053 177.606 474.875 179.815 469.878 183.764C464.02 188.392 461.601 194.57 459.262 200.538C458.083 203.547 456.873 206.645 455.224 209.464C452.375 214.343 445.178 225.219 436.892 226.798C437.471 227.168 438.051 227.548 438.611 227.958C439.76 228.797 440.84 229.717 441.88 230.687C449.976 227.078 456.333 218.031 459.772 212.123C461.621 208.955 462.911 205.656 464.16 202.467C466.339 196.899 468.398 191.641 473.136 187.902C477.234 184.673 482.262 182.864 487.3 182.824C492.318 182.784 497.316 184.483 501.334 187.622C506.222 191.441 507.981 196.269 510.03 201.867C511.19 205.036 512.389 208.315 514.248 211.564C517.717 217.621 524.234 226.998 532.7 230.197C533.57 229.417 534.47 228.657 535.419 227.968C536.379 227.268 537.378 226.638 538.398 226.038L538.388 226.018Z" fill="#A58C79"/>
<path d="M625.87 276.81C613.546 276.81 602.16 270.292 595.403 259.376C593.324 256.028 592.065 252.419 590.855 248.93C590.126 246.831 589.366 244.662 588.436 242.572C585.957 236.984 582.029 232.106 577.081 228.478C571.134 224.119 563.787 221.72 556.39 221.72C556.03 221.72 555.74 221.43 555.74 221.07C555.74 220.71 556.03 220.42 556.39 220.42C568.255 220.42 579.23 214.133 585.748 203.606C587.747 200.378 588.926 196.999 590.176 193.42C590.915 191.301 591.685 189.102 592.635 186.963C595.204 181.165 599.272 176.106 604.41 172.348C610.577 167.829 618.204 165.33 625.87 165.33C633.537 165.33 641.164 167.819 647.331 172.348C652.459 176.106 656.537 181.165 659.106 186.963C660.056 189.102 660.825 191.301 661.565 193.42C662.814 196.999 663.994 200.378 665.993 203.606C672.51 214.133 683.485 220.42 695.35 220.42C695.71 220.42 696 220.71 696 221.07C696 221.43 695.71 221.72 695.35 221.72C687.954 221.72 680.607 224.119 674.659 228.478C669.711 232.106 665.783 236.974 663.304 242.572C662.375 244.662 661.625 246.831 660.885 248.93C659.666 252.419 658.406 256.028 656.337 259.376C649.58 270.292 638.185 276.81 625.87 276.81ZM563.147 221.05C568.445 222.06 573.513 224.239 577.861 227.418C582.989 231.177 587.067 236.235 589.636 242.033C590.585 244.172 591.355 246.371 592.095 248.49C593.344 252.069 594.524 255.448 596.523 258.677C603.04 269.203 614.015 275.491 625.88 275.491C637.745 275.491 648.72 269.203 655.238 258.677C657.237 255.448 658.416 252.069 659.666 248.49C660.405 246.371 661.175 244.172 662.125 242.033C664.694 236.235 668.762 231.177 673.9 227.418C678.248 224.229 683.315 222.05 688.613 221.05C678.967 219.141 670.401 213.163 664.893 204.276C662.814 200.927 661.555 197.319 660.345 193.83C659.616 191.731 658.856 189.562 657.926 187.472C655.448 181.884 651.519 177.006 646.571 173.377C640.624 169.019 633.277 166.62 625.88 166.62C618.483 166.62 611.137 169.019 605.189 173.377C600.241 177.006 596.313 181.874 593.834 187.472C592.905 189.562 592.155 191.731 591.415 193.83C590.196 197.319 588.936 200.927 586.867 204.276C581.369 213.163 572.793 219.131 563.147 221.05Z" fill="#A58C79"/>
<path d="M585.368 236.575C585.138 236.575 584.908 236.445 584.788 236.225C584.618 235.905 584.738 235.515 585.058 235.345C593.174 231.026 599.312 222.52 603.04 216.142C605.019 212.753 606.339 209.364 607.618 206.096C609.667 200.867 611.287 196.729 614.905 193.87C618.094 191.361 621.982 189.951 625.87 189.911C629.739 189.891 633.567 191.201 636.636 193.6C640.354 196.499 641.713 200.238 643.603 205.406C644.742 208.515 646.032 212.043 648.031 215.552C651.169 221.04 657.787 230.867 666.833 235.055C667.162 235.205 667.302 235.595 667.152 235.925C667.003 236.255 666.613 236.395 666.283 236.245C656.907 231.896 650.11 221.82 646.891 216.202C644.832 212.603 643.523 209.024 642.363 205.856C640.554 200.887 639.235 197.299 635.816 194.63C632.977 192.41 629.459 191.201 625.86 191.211C622.262 191.241 618.653 192.55 615.695 194.88C612.346 197.519 610.787 201.507 608.808 206.555C607.508 209.874 606.169 213.303 604.14 216.782C600.331 223.299 594.034 232.016 585.648 236.475C585.548 236.525 585.448 236.555 585.338 236.555L585.368 236.575Z" fill="#A58C79"/>
<path d="M625.87 243.672C624.431 243.672 623.261 242.502 623.261 241.063V229.157C623.261 227.718 624.431 226.548 625.87 226.548C627.31 226.548 628.479 227.718 628.479 229.157V241.063C628.479 242.502 627.31 243.672 625.87 243.672Z" fill="#A58C79"/>
<path d="M625.87 249.74C624.431 249.74 623.261 250.909 623.261 252.349V276.05C624.121 276.11 624.991 276.16 625.87 276.16C626.75 276.16 627.62 276.12 628.479 276.05V252.349C628.479 250.909 627.31 249.74 625.87 249.74Z" fill="#A58C79"/>
<path d="M609.028 249.74C607.588 249.74 606.419 250.909 606.419 252.349V270.092C608.068 271.232 609.817 272.212 611.636 273.051V252.349C611.636 250.909 610.467 249.74 609.028 249.74Z" fill="#A58C79"/>
<path d="M642.703 249.74C641.264 249.74 640.094 250.909 640.094 252.349V273.051C641.913 272.222 643.663 271.232 645.312 270.092V252.349C645.312 250.909 644.142 249.74 642.703 249.74Z" fill="#A58C79"/>
<path d="M628.479 216.652C628.479 218.381 627.08 219.781 625.35 219.781C623.621 219.781 622.222 218.381 622.222 216.652C622.222 214.922 623.621 213.523 625.35 213.523C627.08 213.523 628.479 214.922 628.479 216.652Z" fill="#A58C79"/>
<path d="M608.508 243.892C610.236 243.892 611.636 242.491 611.636 240.763C611.636 239.035 610.236 237.634 608.508 237.634C606.78 237.634 605.379 239.035 605.379 240.763C605.379 242.491 606.78 243.892 608.508 243.892Z" fill="#A58C79"/>
<path d="M643.223 243.892C644.951 243.892 646.351 242.491 646.351 240.763C646.351 239.035 644.951 237.634 643.223 237.634C641.495 237.634 640.094 239.035 640.094 240.763C640.094 242.491 641.495 243.892 643.223 243.892Z" fill="#A58C79"/>
<path d="M677.348 226.018C668.432 225.828 660.695 214.053 657.767 208.935C656.127 206.076 655.008 203.007 653.928 200.048C651.799 194.23 649.6 188.212 643.533 183.464C638.575 179.595 632.427 177.486 626.21 177.546C620.013 177.606 613.835 179.815 608.838 183.764C602.98 188.392 600.561 194.57 598.222 200.538C597.043 203.547 595.833 206.645 594.184 209.464C591.335 214.343 584.138 225.219 575.852 226.798C576.432 227.168 577.011 227.548 577.571 227.958C578.721 228.797 579.8 229.717 580.84 230.687C588.936 227.078 595.293 218.031 598.732 212.123C600.581 208.955 601.871 205.656 603.12 202.467C605.299 196.899 607.358 191.641 612.096 187.902C616.194 184.673 621.222 182.864 626.26 182.824C631.278 182.784 636.276 184.483 640.294 187.622C645.182 191.441 646.941 196.269 648.99 201.867C650.15 205.036 651.349 208.315 653.208 211.564C656.677 217.621 663.194 226.998 671.661 230.197C672.53 229.417 673.43 228.657 674.379 227.968C675.339 227.268 676.339 226.638 677.358 226.038L677.348 226.018Z" fill="#A58C79"/>
<path d="M556.39 331.9C544.065 331.9 532.68 325.382 525.923 314.466C523.844 311.118 522.585 307.509 521.375 304.02C520.646 301.921 519.886 299.752 518.956 297.662C516.477 292.075 512.549 287.196 507.601 283.568C501.654 279.209 494.307 276.81 486.91 276.81C486.55 276.81 486.26 276.52 486.26 276.16C486.26 275.8 486.55 275.51 486.91 275.51C498.775 275.51 509.75 269.223 516.267 258.697C518.267 255.468 519.446 252.089 520.696 248.51C521.435 246.391 522.205 244.192 523.154 242.053C525.723 236.255 529.792 231.197 534.929 227.438C541.097 222.92 548.723 220.42 556.39 220.42C564.067 220.42 571.684 222.91 577.851 227.438C582.979 231.197 587.057 236.255 589.626 242.053C590.575 244.192 591.345 246.391 592.085 248.51C593.334 252.089 594.514 255.468 596.513 258.697C603.03 269.223 614.005 275.51 625.87 275.51C626.23 275.51 626.52 275.8 626.52 276.16C626.52 276.52 626.23 276.81 625.87 276.81C618.473 276.81 611.127 279.209 605.179 283.568C600.231 287.196 596.303 292.065 593.824 297.662C592.894 299.752 592.145 301.921 591.405 304.02C590.186 307.509 588.926 311.118 586.857 314.466C580.1 325.382 568.705 331.9 556.39 331.9ZM493.667 276.14C498.965 277.15 504.033 279.329 508.381 282.508C513.509 286.267 517.587 291.325 520.156 297.123C521.105 299.262 521.875 301.461 522.615 303.58C523.864 307.159 525.044 310.538 527.043 313.767C533.56 324.293 544.535 330.581 556.4 330.581C568.265 330.581 579.24 324.293 585.757 313.767C587.757 310.538 588.936 307.159 590.186 303.58C590.925 301.461 591.695 299.262 592.645 297.123C595.213 291.325 599.282 286.267 604.419 282.508C608.768 279.319 613.835 277.14 619.133 276.14C609.487 274.231 600.921 268.253 595.413 259.366C593.334 256.018 592.085 252.409 590.865 248.92C590.136 246.821 589.376 244.652 588.446 242.562C585.967 236.974 582.039 232.096 577.091 228.468C571.144 224.109 563.797 221.71 556.4 221.71C549.003 221.71 541.657 224.109 535.709 228.468C530.761 232.096 526.833 236.964 524.354 242.562C523.424 244.652 522.675 246.821 521.935 248.92C520.715 252.409 519.456 256.018 517.387 259.366C511.889 268.253 503.313 274.221 493.667 276.14Z" fill="#A58C79"/>
<path d="M515.878 291.665C515.648 291.665 515.418 291.535 515.298 291.315C515.128 290.995 515.248 290.605 515.568 290.435C523.684 286.117 529.822 277.61 533.55 271.232C535.529 267.843 536.849 264.454 538.128 261.186C540.177 255.958 541.796 251.819 545.415 248.96C548.604 246.451 552.492 245.042 556.38 245.002C560.258 244.992 564.077 246.291 567.146 248.69C570.864 251.589 572.223 255.328 574.112 260.496C575.252 263.605 576.541 267.134 578.541 270.642C581.679 276.13 588.296 285.957 597.342 290.145C597.672 290.295 597.812 290.685 597.662 291.015C597.512 291.345 597.123 291.485 596.793 291.335C587.417 286.986 580.62 276.91 577.401 271.292C575.342 267.693 574.033 264.115 572.873 260.946C571.064 255.978 569.744 252.389 566.326 249.72C563.487 247.501 559.969 246.291 556.37 246.301C552.772 246.331 549.163 247.641 546.205 249.97C542.856 252.609 541.297 256.597 539.317 261.646C538.018 264.964 536.679 268.393 534.65 271.872C530.841 278.389 524.544 287.106 516.157 291.565C516.058 291.615 515.958 291.645 515.848 291.645L515.878 291.665Z" fill="#A58C79"/>
<path d="M556.39 298.772C554.951 298.772 553.781 297.602 553.781 296.163V284.257C553.781 282.818 554.951 281.648 556.39 281.648C557.829 281.648 558.999 282.818 558.999 284.257V296.163C558.999 297.602 557.829 298.772 556.39 298.772Z" fill="#A58C79"/>
<path d="M556.39 304.84C554.951 304.84 553.781 306.009 553.781 307.449V331.15C554.641 331.21 555.51 331.26 556.39 331.26C557.27 331.26 558.139 331.22 558.999 331.15V307.449C558.999 306.009 557.829 304.84 556.39 304.84Z" fill="#A58C79"/>
<path d="M539.547 304.84C538.108 304.84 536.938 306.009 536.938 307.449V325.192C538.588 326.332 540.337 327.312 542.156 328.151V307.449C542.156 306.009 540.987 304.84 539.547 304.84Z" fill="#A58C79"/>
<path d="M573.223 304.84C571.783 304.84 570.614 306.009 570.614 307.449V328.151C572.433 327.322 574.183 326.332 575.832 325.192V307.449C575.832 306.009 574.662 304.84 573.223 304.84Z" fill="#A58C79"/>
<path d="M555.87 274.881C557.598 274.881 558.999 273.48 558.999 271.752C558.999 270.024 557.598 268.623 555.87 268.623C554.142 268.623 552.742 270.024 552.742 271.752C552.742 273.48 554.142 274.881 555.87 274.881Z" fill="#A58C79"/>
<path d="M539.028 298.982C540.755 298.982 542.156 297.581 542.156 295.853C542.156 294.125 540.755 292.724 539.028 292.724C537.3 292.724 535.899 294.125 535.899 295.853C535.899 297.581 537.3 298.982 539.028 298.982Z" fill="#A58C79"/>
<path d="M573.743 298.982C575.471 298.982 576.871 297.581 576.871 295.853C576.871 294.125 575.471 292.724 573.743 292.724C572.015 292.724 570.614 294.125 570.614 295.853C570.614 297.581 572.015 298.982 573.743 298.982Z" fill="#A58C79"/>
<path d="M607.868 281.108C598.952 280.919 591.215 269.143 588.286 264.025C586.647 261.166 585.528 258.097 584.448 255.138C582.319 249.32 580.12 243.302 574.053 238.554C569.095 234.685 562.947 232.576 556.73 232.636C550.533 232.696 544.355 234.905 539.358 238.854C533.5 243.482 531.081 249.66 528.742 255.628C527.563 258.637 526.353 261.735 524.704 264.554C521.855 269.433 514.658 280.309 506.372 281.888C506.951 282.258 507.531 282.638 508.091 283.048C509.24 283.887 510.32 284.807 511.36 285.777C519.456 282.168 525.813 273.121 529.252 267.214C531.101 264.045 532.39 260.746 533.64 257.557C535.819 251.989 537.878 246.731 542.616 242.992C546.714 239.763 551.742 237.954 556.78 237.914C561.798 237.874 566.796 239.574 570.814 242.712C575.702 246.531 577.461 251.359 579.51 256.957C580.67 260.126 581.869 263.405 583.728 266.654C587.197 272.712 593.714 282.088 602.18 285.287C603.05 284.507 603.95 283.748 604.899 283.058C605.859 282.358 606.858 281.728 607.878 281.128L607.868 281.108Z" fill="#A58C79"/>
</g>
<defs>
<clipPath id="clip0_19_643">
<rect width="696" height="332" fill="white"/>
</clipPath>
</defs>
</svg>
