<svg width="320" height="320" viewBox="0 0 320 320" fill="none" xmlns="http://www.w3.org/2000/svg">
<path d="M58.1895 65.7223C34.7486 90.5285 20 123.65 20 159.986C20 196.35 34.7486 229.443 58.1895 254.249C81.6303 279.056 113.791 295.715 148.896 299.323L155.458 300V164.214H42.6557L43.3006 170.782C48.0673 218.562 80.9573 257.97 125.091 272.008L133.11 274.094L132.83 267.357V186.934H97.164V215.292H109.053V198.887H120.913V257.801C87.154 244.045 62.0028 213.319 55.9744 176.166H143.513V286.582C113.931 282.016 86.8456 267.273 66.7975 246.018C45.2634 223.214 31.8886 193.051 31.8606 159.986C31.8606 126.92 45.2634 96.7583 66.7975 73.9535C86.8456 52.6991 113.931 37.9563 143.541 33.3897V143.805H56.0304C62.0589 106.653 87.2101 75.9267 120.969 62.1705V121.085H109.109V104.679H97.2201V133.037H132.886V52.6427L132.634 45.9619L125.119 47.9915C80.9854 62.0578 48.0953 101.438 43.3287 149.218L42.6838 155.786H155.486V20L148.924 20.6765C113.819 24.2565 81.6583 40.9161 58.2175 65.7505L58.1895 65.7223Z" fill="black" fill-opacity="0.02"/>
<path d="M261.811 65.7223C238.37 40.9161 206.209 24.2565 171.104 20.6765L164.542 20V155.786H277.344L276.699 149.218C271.933 101.438 239.043 62.0296 194.909 47.9915L187.282 45.6237L187.17 52.9246V133.094H222.836V104.736H210.947V121.142H199.087V62.1987C232.846 75.9549 257.997 106.681 264.026 143.834H176.487V33.4179C206.068 37.9845 233.154 52.7273 253.231 73.9817C274.765 96.7865 288.139 126.949 288.167 160.014C288.167 193.08 274.765 223.242 253.231 246.047C233.182 267.301 206.097 282.044 176.487 286.61V176.195H264.026C257.997 213.347 232.846 244.073 199.087 257.829V198.915H210.947V215.321H222.836V186.963H187.17V267.132L187.366 267.893L187.282 273.784L194.909 272.065C239.043 257.999 271.933 218.619 276.699 170.839L277.344 164.271H164.542V300.056L171.104 299.38C206.209 295.8 238.37 279.14 261.811 254.306C285.251 229.5 300 196.406 300 160.042C300 123.679 285.251 90.5849 261.811 65.7787V65.7223Z" fill="black" fill-opacity="0.02"/>
</svg>
