<svg width="538" height="225" viewBox="0 0 538 225" fill="none" xmlns="http://www.w3.org/2000/svg">
<g opacity="0.3" clip-path="url(#clip0_19_456)">
<path d="M216.041 185.448H243.736C249.074 185.448 253.392 189.757 253.392 195.081C253.392 200.404 249.074 204.713 243.736 204.713H216.041C210.703 204.713 206.385 200.404 206.385 195.081C206.385 189.757 210.703 185.448 216.041 185.448Z" stroke="#A58C79"/>
<path d="M10.1557 102.827H37.8512C43.1892 102.827 47.5068 107.137 47.5068 112.46C47.5068 117.783 43.1892 122.093 37.8512 122.093H10.1557C4.81762 122.093 0.5 117.783 0.5 112.46C0.5 107.137 4.81762 102.827 10.1557 102.827Z" stroke="#A58C79"/>
<path d="M229.868 103.405V103.905H355.228C360.566 103.905 364.884 108.215 364.884 113.538C364.884 118.862 360.566 123.171 355.228 123.171H248.969C243.081 123.171 238.313 127.926 238.313 133.804C238.313 139.682 243.081 144.437 248.969 144.437H318.308C323.646 144.437 327.964 148.746 327.964 154.07C327.964 159.393 323.646 163.703 318.308 163.703H166.443V164.203V164.703C171.781 164.703 176.099 169.012 176.099 174.336C176.099 179.659 171.781 183.968 166.443 183.968H104.238C98.9001 183.968 94.5825 179.659 94.5825 174.336C94.5825 169.012 98.9001 164.703 104.238 164.703V164.203V163.703H38.1012C32.7632 163.703 28.4456 159.393 28.4456 154.07C28.4456 148.746 32.7632 144.437 38.1012 144.437H112.843C118.731 144.437 123.499 139.682 123.499 133.804C123.499 127.926 118.731 123.171 112.843 123.171H92.9119C87.5738 123.171 83.2562 118.862 83.2562 113.538C83.2562 108.215 87.5738 103.905 92.9119 103.905H155.667V103.405V102.905C150.329 102.905 146.011 98.5958 146.011 93.2724C146.011 91.6103 146.43 90.045 147.171 88.6793C148.808 85.6793 151.995 83.6395 155.667 83.6395H229.868C233.541 83.6395 236.728 85.6703 238.364 88.6794C239.105 90.0451 239.524 91.6104 239.524 93.2724C239.524 98.5958 235.206 102.905 229.868 102.905V103.405Z" stroke="#A58C79"/>
<path d="M568.408 184.968H612.432H612.442C617.78 184.968 622.098 189.278 622.098 194.601C622.098 199.925 617.78 204.234 612.442 204.234H429.93C424.592 204.234 420.275 199.925 420.275 194.601C420.275 189.278 424.592 184.968 429.93 184.968H454.894C460.782 184.968 465.55 180.213 465.55 174.336C465.55 168.458 460.782 163.703 454.894 163.703H369.847C364.529 163.703 360.211 159.394 360.211 154.07C360.211 148.745 364.52 144.437 369.847 144.437H574.891C580.209 144.437 584.527 148.746 584.527 154.07C584.527 159.394 580.218 163.703 574.891 163.703H568.408C562.519 163.703 557.752 168.458 557.752 174.336C557.752 180.213 562.519 184.968 568.408 184.968Z" stroke="#A58C79"/>
<path d="M353.718 205.234H381.413C386.751 205.234 391.069 209.544 391.069 214.867C391.069 220.19 386.751 224.5 381.413 224.5H353.718C348.38 224.5 344.062 220.19 344.062 214.867C344.062 209.544 348.38 205.234 353.718 205.234Z" stroke="#A58C79"/>
<path d="M355.719 62.7939H173.197C167.043 62.7939 162.041 57.8024 162.041 51.6627C162.041 45.5231 167.043 40.5315 173.197 40.5315H198.161C203.214 40.5315 207.316 36.4385 207.316 31.397C207.316 26.3555 203.214 22.2624 198.161 22.2624H113.113C106.97 22.2624 101.977 17.2708 101.977 11.1312C101.977 4.99157 106.98 0 113.123 0H318.168C324.311 0 329.304 4.99157 329.304 11.1312C329.304 17.2708 324.311 22.2624 318.168 22.2624H311.684C306.631 22.2624 302.529 26.3555 302.529 31.397C302.529 36.4385 306.631 40.5315 311.684 40.5315H355.709C361.862 40.5315 366.865 45.5231 366.865 51.6627C366.865 57.8024 361.862 62.7939 355.709 62.7939H355.719ZM173.197 42.5282C168.144 42.5282 164.042 46.6213 164.042 51.6627C164.042 56.7042 168.144 60.7973 173.197 60.7973H355.719C360.772 60.7973 364.874 56.7042 364.874 51.6627C364.874 46.6213 360.772 42.5282 355.719 42.5282H311.694C305.541 42.5282 300.538 37.5366 300.538 31.397C300.538 25.2573 305.541 20.2658 311.694 20.2658H318.178C323.221 20.2658 327.313 16.1727 327.313 11.1312C327.313 6.08971 323.211 1.99663 318.178 1.99663H113.123C108.08 1.99663 103.988 6.08971 103.988 11.1312C103.988 16.1727 108.09 20.2658 113.123 20.2658H198.171C204.324 20.2658 209.327 25.2573 209.327 31.397C209.327 37.5366 204.324 42.5282 198.171 42.5282H173.207H173.197Z" fill="#953A3A"/>
<path d="M383.114 22.2624H355.419C349.265 22.2624 344.262 17.2708 344.262 11.1312C344.262 4.99157 349.265 0 355.419 0H383.114C389.268 0 394.27 4.99157 394.27 11.1312C394.27 17.2708 389.268 22.2624 383.114 22.2624ZM355.419 1.99663C350.366 1.99663 346.264 6.08971 346.264 11.1312C346.264 16.1727 350.366 20.2658 355.419 20.2658H383.114C388.167 20.2658 392.269 16.1727 392.269 11.1312C392.269 6.08971 388.167 1.99663 383.114 1.99663H355.419Z" fill="#953A3A"/>
<path d="M124.7 83.0598H97.0043C90.8508 83.0598 85.848 78.0682 85.848 71.9286C85.848 65.7889 90.8508 60.7974 97.0043 60.7974H124.7C130.853 60.7974 135.856 65.7889 135.856 71.9286C135.856 78.0682 130.853 83.0598 124.7 83.0598ZM97.0043 62.794C91.9514 62.794 87.8491 66.8871 87.8491 71.9286C87.8491 76.9701 91.9514 81.0631 97.0043 81.0631H124.7C129.753 81.0631 133.855 76.9701 133.855 71.9286C133.855 66.8871 129.753 62.794 124.7 62.794H97.0043Z" fill="#953A3A"/>
<path d="M616.415 82.5615H660.439H660.449C665.787 82.5615 670.105 86.871 670.105 92.1943C670.105 97.5177 665.787 101.827 660.449 101.827H477.937C472.599 101.827 468.281 97.5177 468.281 92.1943C468.281 86.871 472.599 82.5615 477.937 82.5615H502.901C508.789 82.5615 513.557 77.8063 513.557 71.9286C513.557 66.0508 508.789 61.2957 502.901 61.2957H417.854C412.536 61.2957 408.218 56.9868 408.218 51.6628C408.218 46.3385 412.526 42.0299 417.854 42.0299H622.898C628.216 42.0299 632.534 46.3388 632.534 51.6628C632.534 56.9871 628.225 61.2957 622.898 61.2957H616.415C610.526 61.2957 605.759 66.0508 605.759 71.9286C605.759 77.8063 610.526 82.5615 616.415 82.5615Z" stroke="#A58C79"/>
<path d="M401.735 102.827H429.43C434.768 102.827 439.086 107.137 439.086 112.46C439.086 117.783 434.768 122.093 429.43 122.093H401.735C396.397 122.093 392.079 117.783 392.079 112.46C392.079 107.137 396.397 102.827 401.735 102.827Z" stroke="#A58C79"/>
</g>
<defs>
<clipPath id="clip0_19_456">
<rect width="698" height="225" fill="white"/>
</clipPath>
</defs>
</svg>
