<svg width="616" height="333" viewBox="0 0 616 333" fill="none" xmlns="http://www.w3.org/2000/svg">
<g opacity="0.3" clip-path="url(#clip0_17_9867)">
<path d="M278.62 111.53C266.29 111.53 254.9 105.01 248.14 94.09C246.06 90.74 244.8 87.13 243.59 83.64C242.86 81.54 242.1 79.37 241.17 77.28C238.69 71.69 234.76 66.81 229.81 63.18C223.86 58.82 216.51 56.42 209.11 56.42C208.75 56.42 208.46 56.13 208.46 55.77C208.46 55.41 208.75 55.12 209.11 55.12C220.98 55.12 231.96 48.83 238.48 38.3C240.48 35.07 241.66 31.69 242.91 28.1C243.65 25.98 244.42 23.78 245.37 21.64C247.94 15.84 252.01 10.78 257.15 7.02C263.32 2.5 270.95 0 278.62 0C286.29 0 293.92 2.49 300.09 7.02C305.22 10.78 309.3 15.84 311.87 21.64C312.82 23.78 313.59 25.98 314.33 28.1C315.58 31.68 316.76 35.06 318.76 38.29C325.28 48.82 336.26 55.11 348.13 55.11C348.49 55.11 348.78 55.4 348.78 55.76C348.78 56.12 348.49 56.41 348.13 56.41C340.73 56.41 333.38 58.81 327.43 63.17C322.48 66.8 318.55 71.67 316.07 77.27C315.14 79.36 314.39 81.53 313.65 83.63C312.43 87.12 311.17 90.73 309.1 94.08C302.34 105 290.94 111.52 278.62 111.52V111.53ZM215.87 55.75C221.17 56.76 226.24 58.94 230.59 62.12C235.72 65.88 239.8 70.94 242.37 76.74C243.32 78.88 244.09 81.08 244.83 83.2C246.08 86.78 247.26 90.16 249.26 93.39C255.78 103.92 266.76 110.21 278.63 110.21C290.5 110.21 301.48 103.92 308 93.39C310 90.16 311.18 86.78 312.43 83.2C313.17 81.08 313.94 78.88 314.89 76.74C317.46 70.94 321.53 65.88 326.67 62.12C331.02 58.93 336.09 56.75 341.39 55.75C331.74 53.84 323.17 47.86 317.66 38.97C315.58 35.62 314.32 32.01 313.11 28.52C312.38 26.42 311.62 24.25 310.69 22.16C308.21 16.57 304.28 11.69 299.33 8.06C293.38 3.7 286.03 1.3 278.63 1.3C271.23 1.3 263.88 3.7 257.93 8.06C252.98 11.69 249.05 16.56 246.57 22.16C245.64 24.25 244.89 26.42 244.15 28.52C242.93 32.01 241.67 35.62 239.6 38.97C234.1 47.86 225.52 53.83 215.87 55.75Z" fill="white"/>
<path d="M238.1 71.2801C237.87 71.2801 237.64 71.1501 237.52 70.9301C237.35 70.6101 237.47 70.2201 237.79 70.0501C245.91 65.7301 252.05 57.2201 255.78 50.8401C257.76 47.4501 259.08 44.0601 260.36 40.7901C262.41 35.5601 264.03 31.4201 267.65 28.5601C270.84 26.0501 274.73 24.6401 278.62 24.6001C282.51 24.5801 286.32 25.8901 289.39 28.2901C293.11 31.1901 294.47 34.9301 296.36 40.1001C297.5 43.2101 298.79 46.7401 300.79 50.2501C303.93 55.7401 310.55 65.5701 319.6 69.7601C319.93 69.9101 320.07 70.3001 319.92 70.6301C319.77 70.9601 319.38 71.1001 319.05 70.9501C309.67 66.6001 302.87 56.5201 299.65 50.9001C297.59 47.3001 296.28 43.7201 295.12 40.5501C293.31 35.5801 291.99 31.9901 288.57 29.3201C285.73 27.1001 282.2 25.8901 278.61 25.9001C275.01 25.9301 271.4 27.2401 268.44 29.5701C265.09 32.2101 263.53 36.2001 261.55 41.2501C260.25 44.5701 258.91 48.0001 256.88 51.4801C253.07 58.0001 246.77 66.7201 238.38 71.1801C238.28 71.2301 238.18 71.2601 238.07 71.2601L238.1 71.2801Z" fill="white"/>
<path d="M278.62 78.39C277.18 78.39 276.01 77.22 276.01 75.78V63.87C276.01 62.43 277.18 61.26 278.62 61.26C280.06 61.26 281.23 62.43 281.23 63.87V75.78C281.23 77.22 280.06 78.39 278.62 78.39Z" fill="white"/>
<path d="M278.62 84.46C277.18 84.46 276.01 85.63 276.01 87.07V110.78C276.87 110.84 277.74 110.89 278.62 110.89C279.5 110.89 280.37 110.85 281.23 110.78V87.07C281.23 85.63 280.06 84.46 278.62 84.46Z" fill="white"/>
<path d="M261.78 84.46C260.34 84.46 259.17 85.63 259.17 87.07V104.82C260.82 105.96 262.57 106.94 264.39 107.78V87.07C264.39 85.63 263.22 84.46 261.78 84.46Z" fill="white"/>
<path d="M295.47 84.46C294.03 84.46 292.86 85.63 292.86 87.07V107.78C294.68 106.95 296.43 105.96 298.08 104.82V87.07C298.08 85.63 296.91 84.46 295.47 84.46Z" fill="white"/>
<path d="M278.1 54.49C279.829 54.49 281.23 53.0886 281.23 51.36C281.23 49.6313 279.829 48.23 278.1 48.23C276.371 48.23 274.97 49.6313 274.97 51.36C274.97 53.0886 276.371 54.49 278.1 54.49Z" fill="white"/>
<path d="M261.26 78.6001C262.989 78.6001 264.39 77.1987 264.39 75.4701C264.39 73.7414 262.989 72.3401 261.26 72.3401C259.531 72.3401 258.13 73.7414 258.13 75.4701C258.13 77.1987 259.531 78.6001 261.26 78.6001Z" fill="white"/>
<path d="M295.99 78.6001C297.719 78.6001 299.12 77.1987 299.12 75.4701C299.12 73.7414 297.719 72.3401 295.99 72.3401C294.261 72.3401 292.86 73.7414 292.86 75.4701C292.86 77.1987 294.261 78.6001 295.99 78.6001Z" fill="white"/>
<path d="M330.12 60.72C321.2 60.53 313.46 48.75 310.53 43.63C308.89 40.77 307.77 37.7 306.69 34.74C304.56 28.92 302.36 22.9 296.29 18.15C291.33 14.28 285.18 12.17 278.96 12.23C272.76 12.29 266.58 14.5 261.58 18.45C255.72 23.08 253.3 29.26 250.96 35.23C249.78 38.24 248.57 41.34 246.92 44.16C244.07 49.04 236.87 59.92 228.58 61.5C229.16 61.87 229.74 62.25 230.3 62.66C231.45 63.5 232.53 64.42 233.57 65.39C241.67 61.78 248.03 52.73 251.47 46.82C253.32 43.65 254.61 40.35 255.86 37.16C258.04 31.59 260.1 26.33 264.84 22.59C268.94 19.36 273.97 17.55 279.01 17.51C284.03 17.47 289.03 19.17 293.05 22.31C297.94 26.13 299.7 30.96 301.75 36.56C302.91 39.73 304.11 43.01 305.97 46.26C309.44 52.32 315.96 61.7 324.43 64.9C325.3 64.12 326.2 63.36 327.15 62.67C328.11 61.97 329.11 61.34 330.13 60.74L330.12 60.72Z" fill="white"/>
<path d="M417.65 111.53C405.32 111.53 393.93 105.01 387.17 94.09C385.09 90.74 383.83 87.13 382.62 83.64C381.89 81.54 381.13 79.37 380.2 77.28C377.72 71.69 373.79 66.81 368.84 63.18C362.89 58.82 355.54 56.42 348.14 56.42C347.78 56.42 347.49 56.13 347.49 55.77C347.49 55.41 347.78 55.12 348.14 55.12C360.01 55.12 370.99 48.83 377.51 38.3C379.51 35.07 380.69 31.69 381.94 28.11C382.68 25.99 383.45 23.79 384.4 21.65C386.97 15.85 391.04 10.79 396.18 7.03001C402.35 2.51001 409.98 0.0100098 417.65 0.0100098C425.32 0.0100098 432.95 2.50001 439.12 7.03001C444.25 10.79 448.33 15.85 450.9 21.65C451.85 23.79 452.62 25.99 453.36 28.11C454.61 31.69 455.79 35.07 457.79 38.3C464.31 48.83 475.29 55.12 487.16 55.12C487.52 55.12 487.81 55.41 487.81 55.77C487.81 56.13 487.52 56.42 487.16 56.42C479.76 56.42 472.41 58.82 466.46 63.18C461.51 66.81 457.58 71.68 455.1 77.28C454.17 79.37 453.42 81.54 452.68 83.64C451.46 87.13 450.2 90.74 448.13 94.09C441.37 105.01 429.97 111.53 417.65 111.53ZM354.9 55.75C360.2 56.76 365.27 58.94 369.62 62.12C374.75 65.88 378.83 70.94 381.4 76.74C382.35 78.88 383.12 81.08 383.86 83.2C385.11 86.78 386.29 90.16 388.29 93.39C394.81 103.92 405.79 110.21 417.66 110.21C429.53 110.21 440.51 103.92 447.03 93.39C449.03 90.16 450.21 86.78 451.46 83.2C452.2 81.08 452.97 78.88 453.92 76.74C456.49 70.94 460.56 65.88 465.7 62.12C470.05 58.93 475.12 56.75 480.42 55.75C470.77 53.84 462.2 47.86 456.69 38.97C454.61 35.62 453.35 32.01 452.14 28.52C451.41 26.42 450.65 24.25 449.72 22.16C447.24 16.57 443.31 11.69 438.36 8.06001C432.41 3.70001 425.06 1.30001 417.66 1.30001C410.26 1.30001 402.91 3.70001 396.96 8.06001C392.01 11.69 388.08 16.56 385.6 22.16C384.67 24.25 383.92 26.42 383.18 28.52C381.96 32.01 380.7 35.62 378.63 38.97C373.13 47.86 364.55 53.83 354.9 55.75Z" fill="white"/>
<path d="M377.12 71.2801C376.89 71.2801 376.66 71.1501 376.54 70.9301C376.37 70.6101 376.49 70.2201 376.81 70.0501C384.93 65.7301 391.07 57.2201 394.8 50.8401C396.78 47.4501 398.1 44.0601 399.38 40.7901C401.43 35.5601 403.05 31.4201 406.67 28.5601C409.86 26.0501 413.75 24.6401 417.64 24.6001C421.51 24.5801 425.34 25.8901 428.41 28.2901C432.13 31.1901 433.49 34.9301 435.38 40.1001C436.52 43.2101 437.81 46.7401 439.81 50.2501C442.95 55.7401 449.57 65.5701 458.62 69.7601C458.95 69.9101 459.09 70.3001 458.94 70.6301C458.79 70.9601 458.4 71.1001 458.07 70.9501C448.69 66.6001 441.89 56.5201 438.67 50.9001C436.61 47.3001 435.3 43.7201 434.14 40.5501C432.33 35.5801 431.01 31.9901 427.59 29.3201C424.75 27.1001 421.23 25.8901 417.63 25.9001C414.03 25.9301 410.42 27.2401 407.46 29.5701C404.11 32.2101 402.55 36.2001 400.57 41.2501C399.27 44.5701 397.93 48.0001 395.9 51.4801C392.09 58.0001 385.79 66.7201 377.4 71.1801C377.3 71.2301 377.2 71.2601 377.09 71.2601L377.12 71.2801Z" fill="white"/>
<path d="M417.65 78.39C416.21 78.39 415.04 77.22 415.04 75.78V63.87C415.04 62.43 416.21 61.26 417.65 61.26C419.09 61.26 420.26 62.43 420.26 63.87V75.78C420.26 77.22 419.09 78.39 417.65 78.39Z" fill="white"/>
<path d="M417.65 84.46C416.21 84.46 415.04 85.63 415.04 87.07V110.78C415.9 110.84 416.77 110.89 417.65 110.89C418.53 110.89 419.4 110.85 420.26 110.78V87.07C420.26 85.63 419.09 84.46 417.65 84.46Z" fill="white"/>
<path d="M400.8 84.46C399.36 84.46 398.19 85.63 398.19 87.07V104.82C399.84 105.96 401.59 106.94 403.41 107.78V87.07C403.41 85.63 402.24 84.46 400.8 84.46Z" fill="white"/>
<path d="M434.49 84.46C433.05 84.46 431.88 85.63 431.88 87.07V107.78C433.7 106.95 435.45 105.96 437.1 104.82V87.07C437.1 85.63 435.93 84.46 434.49 84.46Z" fill="white"/>
<path d="M417.13 54.49C418.859 54.49 420.26 53.0886 420.26 51.36C420.26 49.6313 418.859 48.23 417.13 48.23C415.401 48.23 414 49.6313 414 51.36C414 53.0886 415.401 54.49 417.13 54.49Z" fill="white"/>
<path d="M400.28 78.6001C402.009 78.6001 403.41 77.1987 403.41 75.4701C403.41 73.7414 402.009 72.3401 400.28 72.3401C398.551 72.3401 397.15 73.7414 397.15 75.4701C397.15 77.1987 398.551 78.6001 400.28 78.6001Z" fill="white"/>
<path d="M435.01 78.6001C436.739 78.6001 438.14 77.1987 438.14 75.4701C438.14 73.7414 436.739 72.3401 435.01 72.3401C433.281 72.3401 431.88 73.7414 431.88 75.4701C431.88 77.1987 433.281 78.6001 435.01 78.6001Z" fill="white"/>
<path d="M469.15 60.72C460.23 60.53 452.49 48.75 449.56 43.63C447.92 40.77 446.8 37.7 445.72 34.74C443.59 28.92 441.39 22.9 435.32 18.15C430.36 14.28 424.21 12.17 417.99 12.23C411.79 12.29 405.61 14.5 400.61 18.45C394.75 23.08 392.33 29.26 389.99 35.23C388.81 38.24 387.6 41.34 385.95 44.16C383.1 49.04 375.9 59.92 367.61 61.5C368.19 61.87 368.77 62.25 369.33 62.66C370.48 63.5 371.56 64.42 372.6 65.39C380.7 61.78 387.06 52.73 390.5 46.82C392.35 43.65 393.64 40.35 394.89 37.16C397.07 31.59 399.13 26.33 403.87 22.59C407.97 19.36 413 17.55 418.04 17.51C423.06 17.47 428.06 19.17 432.08 22.31C436.97 26.13 438.73 30.96 440.78 36.56C441.94 39.73 443.14 43.01 445 46.26C448.47 52.32 454.99 61.7 463.46 64.9C464.33 64.12 465.23 63.36 466.18 62.67C467.14 61.97 468.14 61.34 469.16 60.74L469.15 60.72Z" fill="white"/>
<path d="M348.13 166.65C335.8 166.65 324.41 160.13 317.65 149.21C315.57 145.86 314.31 142.25 313.1 138.76C312.37 136.66 311.61 134.49 310.68 132.4C308.2 126.81 304.27 121.93 299.32 118.3C293.37 113.94 286.02 111.54 278.62 111.54C278.26 111.54 277.97 111.25 277.97 110.89C277.97 110.53 278.26 110.24 278.62 110.24C290.49 110.24 301.47 103.95 307.99 93.4199C309.99 90.1899 311.17 86.8099 312.42 83.2299C313.16 81.1099 313.93 78.9099 314.88 76.7699C317.45 70.9699 321.52 65.9099 326.66 62.1499C332.83 57.6299 340.46 55.1299 348.13 55.1299C355.8 55.1299 363.43 57.6199 369.6 62.1499C374.73 65.9099 378.81 70.9699 381.38 76.7699C382.33 78.9099 383.1 81.1099 383.84 83.2299C385.09 86.8099 386.27 90.1899 388.27 93.4199C394.79 103.95 405.77 110.24 417.64 110.24C418 110.24 418.29 110.53 418.29 110.89C418.29 111.25 418 111.54 417.64 111.54C410.24 111.54 402.89 113.94 396.94 118.3C391.99 121.93 388.06 126.8 385.58 132.4C384.65 134.49 383.9 136.66 383.16 138.76C381.94 142.25 380.68 145.86 378.61 149.21C371.85 160.13 360.45 166.65 348.13 166.65ZM285.38 110.87C290.68 111.88 295.75 114.06 300.1 117.24C305.23 121 309.31 126.06 311.88 131.86C312.83 134 313.6 136.2 314.34 138.32C315.59 141.9 316.77 145.28 318.77 148.51C325.29 159.04 336.27 165.33 348.14 165.33C360.01 165.33 370.99 159.04 377.51 148.51C379.51 145.28 380.69 141.9 381.94 138.32C382.68 136.2 383.45 134 384.4 131.86C386.97 126.06 391.04 121 396.18 117.24C400.53 114.05 405.6 111.87 410.9 110.87C401.25 108.96 392.68 102.98 387.17 94.0899C385.09 90.7399 383.84 87.1299 382.62 83.6399C381.89 81.5399 381.13 79.3699 380.2 77.2799C377.72 71.6899 373.79 66.8099 368.84 63.1799C362.89 58.8199 355.54 56.4199 348.14 56.4199C340.74 56.4199 333.39 58.8199 327.44 63.1799C322.49 66.8099 318.56 71.6799 316.08 77.2799C315.15 79.3699 314.4 81.5399 313.66 83.6399C312.44 87.1299 311.18 90.7399 309.11 94.0899C303.61 102.98 295.03 108.95 285.38 110.87Z" fill="white"/>
<path d="M307.61 126.4C307.38 126.4 307.15 126.27 307.03 126.05C306.86 125.73 306.98 125.34 307.3 125.17C315.42 120.85 321.56 112.34 325.29 105.96C327.27 102.57 328.59 99.1798 329.87 95.9098C331.92 90.6798 333.54 86.5398 337.16 83.6798C340.35 81.1698 344.24 79.7598 348.13 79.7198C352.01 79.7098 355.83 81.0098 358.9 83.4098C362.62 86.3098 363.98 90.0498 365.87 95.2198C367.01 98.3298 368.3 101.86 370.3 105.37C373.44 110.86 380.06 120.69 389.11 124.88C389.44 125.03 389.58 125.42 389.43 125.75C389.28 126.08 388.89 126.22 388.56 126.07C379.18 121.72 372.38 111.64 369.16 106.02C367.1 102.42 365.79 98.8398 364.63 95.6698C362.82 90.6998 361.5 87.1098 358.08 84.4398C355.24 82.2198 351.72 81.0098 348.12 81.0198C344.52 81.0498 340.91 82.3598 337.95 84.6898C334.6 87.3298 333.04 91.3198 331.06 96.3698C329.76 99.6898 328.42 103.12 326.39 106.6C322.58 113.12 316.28 121.84 307.89 126.3C307.79 126.35 307.69 126.38 307.58 126.38L307.61 126.4Z" fill="white"/>
<path d="M348.13 133.51C346.69 133.51 345.52 132.34 345.52 130.9V118.99C345.52 117.55 346.69 116.38 348.13 116.38C349.57 116.38 350.74 117.55 350.74 118.99V130.9C350.74 132.34 349.57 133.51 348.13 133.51Z" fill="white"/>
<path d="M348.13 139.58C346.69 139.58 345.52 140.75 345.52 142.19V165.9C346.38 165.96 347.25 166.01 348.13 166.01C349.01 166.01 349.88 165.97 350.74 165.9V142.19C350.74 140.75 349.57 139.58 348.13 139.58Z" fill="white"/>
<path d="M331.29 139.58C329.85 139.58 328.68 140.75 328.68 142.19V159.94C330.33 161.08 332.08 162.06 333.9 162.9V142.19C333.9 140.75 332.73 139.58 331.29 139.58Z" fill="white"/>
<path d="M364.98 139.58C363.54 139.58 362.37 140.75 362.37 142.19V162.9C364.19 162.07 365.94 161.08 367.59 159.94V142.19C367.59 140.75 366.42 139.58 364.98 139.58Z" fill="white"/>
<path d="M347.61 109.6C349.339 109.6 350.74 108.198 350.74 106.47C350.74 104.741 349.339 103.34 347.61 103.34C345.881 103.34 344.48 104.741 344.48 106.47C344.48 108.198 345.881 109.6 347.61 109.6Z" fill="white"/>
<path d="M333.9 130.59C333.9 132.32 332.5 133.72 330.77 133.72C329.04 133.72 327.64 132.32 327.64 130.59C327.64 128.86 329.04 127.46 330.77 127.46C332.5 127.46 333.9 128.86 333.9 130.59Z" fill="white"/>
<path d="M365.5 133.72C367.229 133.72 368.63 132.319 368.63 130.59C368.63 128.861 367.229 127.46 365.5 127.46C363.771 127.46 362.37 128.861 362.37 130.59C362.37 132.319 363.771 133.72 365.5 133.72Z" fill="white"/>
<path d="M399.64 115.84C390.72 115.65 382.98 103.87 380.05 98.7499C378.41 95.8899 377.29 92.8199 376.21 89.8599C374.08 84.0399 371.88 78.0199 365.81 73.2699C360.85 69.3999 354.7 67.2899 348.48 67.3499C342.28 67.4099 336.1 69.6199 331.1 73.5699C325.24 78.1999 322.82 84.3799 320.48 90.3499C319.3 93.3599 318.09 96.4599 316.44 99.2799C313.59 104.16 306.39 115.04 298.1 116.62C298.68 116.99 299.26 117.37 299.82 117.78C300.97 118.62 302.05 119.54 303.09 120.51C311.19 116.9 317.55 107.85 320.99 101.94C322.84 98.7699 324.13 95.4699 325.38 92.2799C327.56 86.7099 329.62 81.4499 334.36 77.7099C338.46 74.4799 343.49 72.6699 348.53 72.6299C353.55 72.5899 358.55 74.2899 362.57 77.4299C367.46 81.2499 369.22 86.0799 371.27 91.6799C372.43 94.8499 373.63 98.1299 375.49 101.38C378.96 107.44 385.48 116.82 393.95 120.02C394.82 119.24 395.72 118.48 396.67 117.79C397.63 117.09 398.63 116.46 399.65 115.86L399.64 115.84Z" fill="white"/>
<path d="M278.62 221.76C266.29 221.76 254.9 215.24 248.14 204.32C246.06 200.97 244.8 197.36 243.59 193.87C242.86 191.77 242.1 189.6 241.17 187.51C238.69 181.92 234.76 177.04 229.81 173.41C223.86 169.05 216.51 166.65 209.11 166.65C208.75 166.65 208.46 166.36 208.46 166C208.46 165.64 208.75 165.35 209.11 165.35C220.98 165.35 231.96 159.06 238.48 148.53C240.48 145.3 241.66 141.92 242.91 138.33C243.65 136.21 244.42 134.01 245.37 131.87C247.94 126.07 252.01 121.01 257.15 117.25C263.32 112.73 270.95 110.23 278.62 110.23C286.29 110.23 293.92 112.72 300.09 117.25C305.22 121.01 309.3 126.07 311.87 131.87C312.82 134.01 313.59 136.21 314.33 138.33C315.58 141.91 316.76 145.29 318.76 148.52C325.28 159.05 336.26 165.34 348.13 165.34C348.49 165.34 348.78 165.63 348.78 165.99C348.78 166.35 348.49 166.64 348.13 166.64C340.73 166.64 333.38 169.04 327.43 173.4C322.48 177.03 318.55 181.9 316.07 187.5C315.14 189.59 314.39 191.76 313.65 193.86C312.43 197.35 311.17 200.96 309.1 204.31C302.34 215.23 290.94 221.75 278.62 221.75V221.76ZM215.87 165.98C221.17 166.99 226.24 169.17 230.59 172.35C235.72 176.11 239.8 181.17 242.37 186.97C243.32 189.11 244.09 191.31 244.83 193.43C246.08 197.01 247.26 200.39 249.26 203.62C255.78 214.15 266.76 220.44 278.63 220.44C290.5 220.44 301.48 214.15 308 203.62C310 200.39 311.18 197.01 312.43 193.43C313.17 191.31 313.94 189.11 314.89 186.97C317.46 181.17 321.53 176.11 326.67 172.35C331.02 169.16 336.09 166.98 341.39 165.98C331.74 164.07 323.17 158.09 317.66 149.2C315.58 145.85 314.32 142.24 313.11 138.75C312.38 136.65 311.62 134.48 310.69 132.39C308.21 126.8 304.28 121.92 299.33 118.29C293.38 113.93 286.03 111.53 278.63 111.53C271.23 111.53 263.88 113.93 257.93 118.29C252.98 121.92 249.05 126.79 246.57 132.39C245.64 134.48 244.89 136.65 244.15 138.75C242.93 142.24 241.67 145.85 239.6 149.2C234.1 158.09 225.52 164.06 215.87 165.98Z" fill="white"/>
<path d="M238.1 181.51C237.87 181.51 237.64 181.38 237.52 181.16C237.35 180.84 237.47 180.45 237.79 180.28C245.91 175.96 252.05 167.45 255.78 161.07C257.76 157.68 259.08 154.29 260.36 151.02C262.41 145.79 264.03 141.65 267.65 138.79C270.84 136.28 274.73 134.87 278.62 134.83C282.51 134.81 286.32 136.12 289.39 138.52C293.11 141.42 294.47 145.16 296.36 150.33C297.5 153.44 298.79 156.97 300.79 160.48C303.93 165.97 310.55 175.8 319.6 179.99C319.93 180.14 320.07 180.53 319.92 180.86C319.77 181.19 319.38 181.33 319.05 181.18C309.67 176.83 302.87 166.75 299.65 161.13C297.59 157.53 296.28 153.95 295.12 150.78C293.31 145.81 291.99 142.22 288.57 139.55C285.73 137.33 282.2 136.12 278.61 136.13C275.01 136.16 271.4 137.47 268.44 139.8C265.09 142.44 263.53 146.43 261.55 151.48C260.25 154.8 258.91 158.23 256.88 161.71C253.07 168.23 246.77 176.95 238.38 181.41C238.28 181.46 238.18 181.49 238.07 181.49L238.1 181.51Z" fill="white"/>
<path d="M278.62 188.62C277.18 188.62 276.01 187.45 276.01 186.01V174.1C276.01 172.66 277.18 171.49 278.62 171.49C280.06 171.49 281.23 172.66 281.23 174.1V186.01C281.23 187.45 280.06 188.62 278.62 188.62Z" fill="white"/>
<path d="M278.62 194.69C277.18 194.69 276.01 195.86 276.01 197.3V221.01C276.87 221.07 277.74 221.12 278.62 221.12C279.5 221.12 280.37 221.08 281.23 221.01V197.3C281.23 195.86 280.06 194.69 278.62 194.69Z" fill="white"/>
<path d="M261.78 194.69C260.34 194.69 259.17 195.86 259.17 197.3V215.05C260.82 216.19 262.57 217.17 264.39 218.01V197.3C264.39 195.86 263.22 194.69 261.78 194.69Z" fill="white"/>
<path d="M295.47 194.69C294.03 194.69 292.86 195.86 292.86 197.3V218.01C294.68 217.18 296.43 216.19 298.08 215.05V197.3C298.08 195.86 296.91 194.69 295.47 194.69Z" fill="white"/>
<path d="M278.1 164.72C279.829 164.72 281.23 163.319 281.23 161.59C281.23 159.861 279.829 158.46 278.1 158.46C276.371 158.46 274.97 159.861 274.97 161.59C274.97 163.319 276.371 164.72 278.1 164.72Z" fill="white"/>
<path d="M261.26 188.83C262.989 188.83 264.39 187.429 264.39 185.7C264.39 183.971 262.989 182.57 261.26 182.57C259.531 182.57 258.13 183.971 258.13 185.7C258.13 187.429 259.531 188.83 261.26 188.83Z" fill="white"/>
<path d="M295.99 188.83C297.719 188.83 299.12 187.429 299.12 185.7C299.12 183.971 297.719 182.57 295.99 182.57C294.261 182.57 292.86 183.971 292.86 185.7C292.86 187.429 294.261 188.83 295.99 188.83Z" fill="white"/>
<path d="M330.12 170.95C321.2 170.76 313.46 158.98 310.53 153.86C308.89 151 307.77 147.93 306.69 144.97C304.56 139.15 302.36 133.13 296.29 128.38C291.33 124.51 285.18 122.4 278.96 122.46C272.76 122.52 266.58 124.73 261.58 128.68C255.72 133.31 253.3 139.49 250.96 145.46C249.78 148.47 248.57 151.57 246.92 154.39C244.07 159.27 236.87 170.15 228.58 171.73C229.16 172.1 229.74 172.48 230.3 172.89C231.45 173.73 232.53 174.65 233.57 175.62C241.67 172.01 248.03 162.96 251.47 157.05C253.32 153.88 254.61 150.58 255.86 147.39C258.04 141.82 260.1 136.56 264.84 132.82C268.94 129.59 273.97 127.78 279.01 127.74C284.03 127.7 289.03 129.4 293.05 132.54C297.94 136.36 299.7 141.19 301.75 146.79C302.91 149.96 304.11 153.24 305.97 156.49C309.44 162.55 315.96 171.93 324.43 175.13C325.3 174.35 326.2 173.59 327.15 172.9C328.11 172.2 329.11 171.57 330.13 170.97L330.12 170.95Z" fill="white"/>
<path d="M417.65 221.76C405.32 221.76 393.93 215.24 387.17 204.32C385.09 200.97 383.83 197.36 382.62 193.87C381.89 191.77 381.13 189.6 380.2 187.51C377.72 181.92 373.79 177.04 368.84 173.41C362.89 169.05 355.54 166.65 348.14 166.65C347.78 166.65 347.49 166.36 347.49 166C347.49 165.64 347.78 165.35 348.14 165.35C360.01 165.35 370.99 159.06 377.51 148.53C379.51 145.3 380.69 141.92 381.94 138.34C382.68 136.22 383.45 134.02 384.4 131.88C386.97 126.08 391.04 121.02 396.18 117.26C402.35 112.74 409.98 110.24 417.65 110.24C425.32 110.24 432.95 112.73 439.12 117.26C444.25 121.02 448.33 126.08 450.9 131.88C451.85 134.02 452.62 136.22 453.36 138.34C454.61 141.92 455.79 145.3 457.79 148.53C464.31 159.06 475.29 165.35 487.16 165.35C487.52 165.35 487.81 165.64 487.81 166C487.81 166.36 487.52 166.65 487.16 166.65C479.76 166.65 472.41 169.05 466.46 173.41C461.51 177.04 457.58 181.91 455.1 187.51C454.17 189.6 453.42 191.77 452.68 193.87C451.46 197.36 450.2 200.97 448.13 204.32C441.37 215.24 429.97 221.76 417.65 221.76ZM354.9 165.98C360.2 166.99 365.27 169.17 369.62 172.35C374.75 176.11 378.83 181.17 381.4 186.97C382.35 189.11 383.12 191.31 383.86 193.43C385.11 197.01 386.29 200.39 388.29 203.62C394.81 214.15 405.79 220.44 417.66 220.44C429.53 220.44 440.51 214.15 447.03 203.62C449.03 200.39 450.21 197.01 451.46 193.43C452.2 191.31 452.97 189.11 453.92 186.97C456.49 181.17 460.56 176.11 465.7 172.35C470.05 169.16 475.12 166.98 480.42 165.98C470.77 164.07 462.2 158.09 456.69 149.2C454.61 145.85 453.35 142.24 452.14 138.75C451.41 136.65 450.65 134.48 449.72 132.39C447.24 126.8 443.31 121.92 438.36 118.29C432.41 113.93 425.06 111.53 417.66 111.53C410.26 111.53 402.91 113.93 396.96 118.29C392.01 121.92 388.08 126.79 385.6 132.39C384.67 134.48 383.92 136.65 383.18 138.75C381.96 142.24 380.7 145.85 378.63 149.2C373.13 158.09 364.55 164.06 354.9 165.98Z" fill="white"/>
<path d="M377.12 181.51C376.89 181.51 376.66 181.38 376.54 181.16C376.37 180.84 376.49 180.45 376.81 180.28C384.93 175.96 391.07 167.45 394.8 161.07C396.78 157.68 398.1 154.29 399.38 151.02C401.43 145.79 403.05 141.65 406.67 138.79C409.86 136.28 413.75 134.87 417.64 134.83C421.51 134.81 425.34 136.12 428.41 138.52C432.13 141.42 433.49 145.16 435.38 150.33C436.52 153.44 437.81 156.97 439.81 160.48C442.95 165.97 449.57 175.8 458.62 179.99C458.95 180.14 459.09 180.53 458.94 180.86C458.79 181.19 458.4 181.33 458.07 181.18C448.69 176.83 441.89 166.75 438.67 161.13C436.61 157.53 435.3 153.95 434.14 150.78C432.33 145.81 431.01 142.22 427.59 139.55C424.75 137.33 421.23 136.12 417.63 136.13C414.03 136.16 410.42 137.47 407.46 139.8C404.11 142.44 402.55 146.43 400.57 151.48C399.27 154.8 397.93 158.23 395.9 161.71C392.09 168.23 385.79 176.95 377.4 181.41C377.3 181.46 377.2 181.49 377.09 181.49L377.12 181.51Z" fill="white"/>
<path d="M417.65 188.62C416.21 188.62 415.04 187.45 415.04 186.01V174.1C415.04 172.66 416.21 171.49 417.65 171.49C419.09 171.49 420.26 172.66 420.26 174.1V186.01C420.26 187.45 419.09 188.62 417.65 188.62Z" fill="white"/>
<path d="M417.65 194.69C416.21 194.69 415.04 195.86 415.04 197.3V221.01C415.9 221.07 416.77 221.12 417.65 221.12C418.53 221.12 419.4 221.08 420.26 221.01V197.3C420.26 195.86 419.09 194.69 417.65 194.69Z" fill="white"/>
<path d="M400.8 194.69C399.36 194.69 398.19 195.86 398.19 197.3V215.05C399.84 216.19 401.59 217.17 403.41 218.01V197.3C403.41 195.86 402.24 194.69 400.8 194.69Z" fill="white"/>
<path d="M434.49 194.69C433.05 194.69 431.88 195.86 431.88 197.3V218.01C433.7 217.18 435.45 216.19 437.1 215.05V197.3C437.1 195.86 435.93 194.69 434.49 194.69Z" fill="white"/>
<path d="M417.13 164.72C418.859 164.72 420.26 163.319 420.26 161.59C420.26 159.861 418.859 158.46 417.13 158.46C415.401 158.46 414 159.861 414 161.59C414 163.319 415.401 164.72 417.13 164.72Z" fill="white"/>
<path d="M400.28 188.83C402.009 188.83 403.41 187.429 403.41 185.7C403.41 183.971 402.009 182.57 400.28 182.57C398.551 182.57 397.15 183.971 397.15 185.7C397.15 187.429 398.551 188.83 400.28 188.83Z" fill="white"/>
<path d="M435.01 188.83C436.739 188.83 438.14 187.429 438.14 185.7C438.14 183.971 436.739 182.57 435.01 182.57C433.281 182.57 431.88 183.971 431.88 185.7C431.88 187.429 433.281 188.83 435.01 188.83Z" fill="white"/>
<path d="M469.15 170.95C460.23 170.76 452.49 158.98 449.56 153.86C447.92 151 446.8 147.93 445.72 144.97C443.59 139.15 441.39 133.13 435.32 128.38C430.36 124.51 424.21 122.4 417.99 122.46C411.79 122.52 405.61 124.73 400.61 128.68C394.75 133.31 392.33 139.49 389.99 145.46C388.81 148.47 387.6 151.57 385.95 154.39C383.1 159.27 375.9 170.15 367.61 171.73C368.19 172.1 368.77 172.48 369.33 172.89C370.48 173.73 371.56 174.65 372.6 175.62C380.7 172.01 387.06 162.96 390.5 157.05C392.35 153.88 393.64 150.58 394.89 147.39C397.07 141.82 399.13 136.56 403.87 132.82C407.97 129.59 413 127.78 418.04 127.74C423.06 127.7 428.06 129.4 432.08 132.54C436.97 136.36 438.73 141.19 440.78 146.79C441.94 149.96 443.14 153.24 445 156.49C448.47 162.55 454.99 171.93 463.46 175.13C464.33 174.35 465.23 173.59 466.18 172.9C467.14 172.2 468.14 171.57 469.16 170.97L469.15 170.95Z" fill="white"/>
<path d="M348.13 276.88C335.8 276.88 324.41 270.36 317.65 259.44C315.57 256.09 314.31 252.48 313.1 248.99C312.37 246.89 311.61 244.72 310.68 242.63C308.2 237.04 304.27 232.16 299.32 228.53C293.37 224.17 286.02 221.77 278.62 221.77C278.26 221.77 277.97 221.48 277.97 221.12C277.97 220.76 278.26 220.47 278.62 220.47C290.49 220.47 301.47 214.18 307.99 203.65C309.99 200.42 311.17 197.04 312.42 193.46C313.16 191.34 313.93 189.14 314.88 187C317.45 181.2 321.52 176.14 326.66 172.38C332.83 167.86 340.46 165.36 348.13 165.36C355.81 165.36 363.43 167.85 369.6 172.38C374.73 176.14 378.81 181.2 381.38 187C382.33 189.14 383.1 191.34 383.84 193.46C385.09 197.04 386.27 200.42 388.27 203.65C394.79 214.18 405.77 220.47 417.64 220.47C418 220.47 418.29 220.76 418.29 221.12C418.29 221.48 418 221.77 417.64 221.77C410.24 221.77 402.89 224.17 396.94 228.53C391.99 232.16 388.06 237.03 385.58 242.63C384.65 244.72 383.9 246.89 383.16 248.99C381.94 252.48 380.68 256.09 378.61 259.44C371.85 270.36 360.45 276.88 348.13 276.88ZM285.38 221.1C290.68 222.11 295.75 224.29 300.1 227.47C305.23 231.23 309.31 236.29 311.88 242.09C312.83 244.23 313.6 246.43 314.34 248.55C315.59 252.13 316.77 255.51 318.77 258.74C325.29 269.27 336.27 275.56 348.14 275.56C360.01 275.56 370.99 269.27 377.51 258.74C379.51 255.51 380.69 252.13 381.94 248.55C382.68 246.43 383.45 244.23 384.4 242.09C386.97 236.29 391.04 231.23 396.18 227.47C400.53 224.28 405.6 222.1 410.9 221.1C401.25 219.19 392.68 213.21 387.17 204.32C385.09 200.97 383.84 197.36 382.62 193.87C381.89 191.77 381.13 189.6 380.2 187.51C377.72 181.92 373.79 177.04 368.84 173.41C362.89 169.05 355.54 166.65 348.14 166.65C340.74 166.65 333.39 169.05 327.44 173.41C322.49 177.04 318.56 181.91 316.08 187.51C315.15 189.6 314.4 191.77 313.66 193.87C312.44 197.36 311.18 200.97 309.11 204.32C303.61 213.21 295.03 219.18 285.38 221.1Z" fill="white"/>
<path d="M307.61 236.63C307.38 236.63 307.15 236.5 307.03 236.28C306.86 235.96 306.98 235.57 307.3 235.4C315.42 231.08 321.56 222.57 325.29 216.19C327.27 212.8 328.59 209.41 329.87 206.14C331.92 200.91 333.54 196.77 337.16 193.91C340.35 191.4 344.24 189.99 348.13 189.95C352.01 189.94 355.83 191.24 358.9 193.64C362.62 196.54 363.98 200.28 365.87 205.45C367.01 208.56 368.3 212.09 370.3 215.6C373.44 221.09 380.06 230.92 389.11 235.11C389.44 235.26 389.58 235.65 389.43 235.98C389.28 236.31 388.89 236.45 388.56 236.3C379.18 231.95 372.38 221.87 369.16 216.25C367.1 212.65 365.79 209.07 364.63 205.9C362.82 200.93 361.5 197.34 358.08 194.67C355.24 192.45 351.72 191.24 348.12 191.25C344.52 191.28 340.91 192.59 337.95 194.92C334.6 197.56 333.04 201.55 331.06 206.6C329.76 209.92 328.42 213.35 326.39 216.83C322.58 223.35 316.28 232.07 307.89 236.53C307.79 236.58 307.69 236.61 307.58 236.61L307.61 236.63Z" fill="white"/>
<path d="M348.13 243.73C346.69 243.73 345.52 242.56 345.52 241.12V229.21C345.52 227.77 346.69 226.6 348.13 226.6C349.57 226.6 350.74 227.77 350.74 229.21V241.12C350.74 242.56 349.57 243.73 348.13 243.73Z" fill="white"/>
<path d="M348.13 249.8C346.69 249.8 345.52 250.97 345.52 252.41V276.12C346.38 276.18 347.25 276.23 348.13 276.23C349.01 276.23 349.88 276.19 350.74 276.12V252.41C350.74 250.97 349.57 249.8 348.13 249.8Z" fill="white"/>
<path d="M331.29 249.8C329.85 249.8 328.68 250.97 328.68 252.41V270.16C330.33 271.3 332.08 272.28 333.9 273.12V252.41C333.9 250.97 332.73 249.8 331.29 249.8Z" fill="white"/>
<path d="M364.98 249.8C363.54 249.8 362.37 250.97 362.37 252.41V273.12C364.19 272.29 365.94 271.3 367.59 270.16V252.41C367.59 250.97 366.42 249.8 364.98 249.8Z" fill="white"/>
<path d="M347.61 219.83C349.339 219.83 350.74 218.428 350.74 216.7C350.74 214.971 349.339 213.57 347.61 213.57C345.881 213.57 344.48 214.971 344.48 216.7C344.48 218.428 345.881 219.83 347.61 219.83Z" fill="white"/>
<path d="M333.9 240.82C333.9 242.55 332.5 243.95 330.77 243.95C329.04 243.95 327.64 242.55 327.64 240.82C327.64 239.09 329.04 237.69 330.77 237.69C332.5 237.69 333.9 239.09 333.9 240.82Z" fill="white"/>
<path d="M365.5 243.95C367.229 243.95 368.63 242.549 368.63 240.82C368.63 239.091 367.229 237.69 365.5 237.69C363.771 237.69 362.37 239.091 362.37 240.82C362.37 242.549 363.771 243.95 365.5 243.95Z" fill="white"/>
<path d="M399.64 226.07C390.72 225.88 382.98 214.1 380.05 208.98C378.41 206.12 377.29 203.05 376.21 200.09C374.08 194.27 371.88 188.25 365.81 183.5C360.85 179.63 354.7 177.52 348.48 177.58C342.28 177.64 336.1 179.85 331.1 183.8C325.24 188.43 322.82 194.61 320.48 200.58C319.3 203.59 318.09 206.69 316.44 209.51C313.59 214.39 306.39 225.27 298.1 226.85C298.68 227.22 299.26 227.6 299.82 228.01C300.97 228.85 302.05 229.77 303.09 230.74C311.19 227.13 317.55 218.08 320.99 212.17C322.84 209 324.13 205.7 325.38 202.51C327.56 196.94 329.62 191.68 334.36 187.94C338.46 184.71 343.49 182.9 348.53 182.86C353.55 182.82 358.55 184.52 362.57 187.66C367.46 191.48 369.22 196.31 371.27 201.91C372.43 205.08 373.63 208.36 375.49 211.61C378.96 217.67 385.48 227.05 393.95 230.25C394.82 229.47 395.72 228.71 396.67 228.02C397.63 227.32 398.63 226.69 399.65 226.09L399.64 226.07Z" fill="white"/>
<path d="M70.16 166.65C57.83 166.65 46.44 160.13 39.68 149.21C37.6 145.86 36.34 142.25 35.13 138.76C34.4 136.66 33.64 134.49 32.71 132.4C30.23 126.81 26.3 121.93 21.35 118.3C15.4 113.94 8.05 111.54 0.65 111.54C0.29 111.54 0 111.25 0 110.89C0 110.53 0.29 110.24 0.65 110.24C12.52 110.24 23.5 103.95 30.02 93.4201C32.02 90.1901 33.2 86.8101 34.45 83.2201C35.19 81.1001 35.96 78.9001 36.91 76.7601C39.48 70.9601 43.55 65.9001 48.69 62.1401C54.86 57.6201 62.49 55.1201 70.16 55.1201C77.83 55.1201 85.46 57.6101 91.63 62.1401C96.76 65.9001 100.84 70.9601 103.41 76.7601C104.36 78.9001 105.13 81.1001 105.87 83.2201C107.12 86.8001 108.3 90.1801 110.3 93.4101C116.82 103.94 127.8 110.23 139.67 110.23C140.03 110.23 140.32 110.52 140.32 110.88C140.32 111.24 140.03 111.53 139.67 111.53C132.27 111.53 124.92 113.93 118.97 118.29C114.02 121.92 110.09 126.79 107.61 132.39C106.68 134.48 105.93 136.65 105.19 138.75C103.97 142.24 102.71 145.85 100.64 149.2C93.88 160.12 82.48 166.64 70.16 166.64V166.65ZM7.41 110.87C12.71 111.88 17.78 114.06 22.13 117.24C27.26 121 31.34 126.06 33.91 131.86C34.86 134 35.63 136.2 36.37 138.32C37.62 141.9 38.8 145.28 40.8 148.51C47.32 159.04 58.3 165.33 70.17 165.33C82.04 165.33 93.02 159.04 99.54 148.51C101.54 145.28 102.72 141.9 103.97 138.32C104.71 136.2 105.48 134 106.43 131.86C109 126.06 113.07 121 118.21 117.24C122.56 114.05 127.63 111.87 132.93 110.87C123.28 108.96 114.71 102.98 109.2 94.0901C107.12 90.7401 105.86 87.1301 104.65 83.6401C103.92 81.5401 103.16 79.3701 102.23 77.2801C99.75 71.6901 95.82 66.8101 90.87 63.1801C84.92 58.8201 77.57 56.4201 70.17 56.4201C62.77 56.4201 55.42 58.8201 49.47 63.1801C44.52 66.8101 40.59 71.6801 38.11 77.2801C37.18 79.3701 36.43 81.5401 35.69 83.6401C34.47 87.1301 33.21 90.7401 31.14 94.0901C25.64 102.98 17.06 108.95 7.41 110.87Z" fill="white"/>
<path d="M29.64 126.4C29.41 126.4 29.18 126.27 29.06 126.05C28.89 125.73 29.01 125.34 29.33 125.17C37.45 120.85 43.59 112.34 47.32 105.96C49.3 102.57 50.62 99.1802 51.9 95.9102C53.95 90.6802 55.57 86.5402 59.19 83.6802C62.38 81.1702 66.27 79.7602 70.16 79.7202C74.05 79.7002 77.86 81.0102 80.93 83.4102C84.65 86.3102 86.01 90.0502 87.9 95.2202C89.04 98.3302 90.33 101.86 92.33 105.37C95.47 110.86 102.09 120.69 111.14 124.88C111.47 125.03 111.61 125.42 111.46 125.75C111.31 126.08 110.92 126.22 110.59 126.07C101.21 121.72 94.41 111.64 91.19 106.02C89.13 102.42 87.82 98.8402 86.66 95.6702C84.85 90.7002 83.53 87.1102 80.11 84.4402C77.27 82.2202 73.74 81.0102 70.15 81.0202C66.55 81.0502 62.94 82.3602 59.98 84.6902C56.63 87.3302 55.07 91.3202 53.09 96.3702C51.79 99.6902 50.45 103.12 48.42 106.6C44.61 113.12 38.31 121.84 29.92 126.3C29.82 126.35 29.72 126.38 29.61 126.38L29.64 126.4Z" fill="white"/>
<path d="M70.16 133.5C68.72 133.5 67.55 132.33 67.55 130.89V118.98C67.55 117.54 68.72 116.37 70.16 116.37C71.6 116.37 72.77 117.54 72.77 118.98V130.89C72.77 132.33 71.6 133.5 70.16 133.5Z" fill="white"/>
<path d="M70.16 139.57C68.72 139.57 67.55 140.74 67.55 142.18V165.89C68.41 165.95 69.28 166 70.16 166C71.04 166 71.91 165.96 72.77 165.89V142.18C72.77 140.74 71.6 139.57 70.16 139.57Z" fill="white"/>
<path d="M53.32 139.57C51.88 139.57 50.71 140.74 50.71 142.18V159.93C52.36 161.07 54.11 162.05 55.93 162.89V142.18C55.93 140.74 54.76 139.57 53.32 139.57Z" fill="white"/>
<path d="M87.01 139.57C85.57 139.57 84.4 140.74 84.4 142.18V162.89C86.22 162.06 87.97 161.07 89.62 159.93V142.18C89.62 140.74 88.45 139.57 87.01 139.57Z" fill="white"/>
<path d="M72.77 106.47C72.77 108.2 71.37 109.6 69.64 109.6C67.91 109.6 66.51 108.2 66.51 106.47C66.51 104.74 67.91 103.34 69.64 103.34C71.37 103.34 72.77 104.74 72.77 106.47Z" fill="white"/>
<path d="M52.8 133.72C54.5287 133.72 55.93 132.319 55.93 130.59C55.93 128.862 54.5287 127.46 52.8 127.46C51.0714 127.46 49.67 128.862 49.67 130.59C49.67 132.319 51.0714 133.72 52.8 133.72Z" fill="white"/>
<path d="M87.53 133.72C89.2587 133.72 90.66 132.319 90.66 130.59C90.66 128.862 89.2587 127.46 87.53 127.46C85.8014 127.46 84.4 128.862 84.4 130.59C84.4 132.319 85.8014 133.72 87.53 133.72Z" fill="white"/>
<path d="M121.67 115.84C112.75 115.65 105.01 103.87 102.08 98.7501C100.44 95.8901 99.32 92.8201 98.24 89.8601C96.11 84.0401 93.91 78.0201 87.84 73.2701C82.88 69.4001 76.73 67.2901 70.51 67.3501C64.31 67.4101 58.13 69.6201 53.13 73.5701C47.27 78.2001 44.85 84.3801 42.51 90.3501C41.33 93.3601 40.12 96.4601 38.47 99.2801C35.62 104.16 28.42 115.04 20.13 116.62C20.71 116.99 21.29 117.37 21.85 117.78C23 118.62 24.08 119.54 25.12 120.51C33.22 116.9 39.58 107.85 43.02 101.94C44.87 98.7701 46.16 95.4701 47.41 92.2801C49.59 86.7101 51.65 81.4501 56.39 77.7101C60.49 74.4801 65.52 72.6701 70.56 72.6301C75.58 72.5901 80.58 74.2901 84.6 77.4301C89.49 81.2501 91.25 86.0801 93.3 91.6801C94.46 94.8501 95.66 98.1301 97.52 101.38C100.99 107.44 107.51 116.82 115.98 120.02C116.85 119.24 117.75 118.48 118.7 117.79C119.66 117.09 120.66 116.46 121.68 115.86L121.67 115.84Z" fill="white"/>
<path d="M209.19 166.65C196.86 166.65 185.47 160.13 178.71 149.21C176.63 145.86 175.37 142.25 174.16 138.76C173.43 136.66 172.67 134.49 171.74 132.4C169.26 126.81 165.33 121.93 160.38 118.3C154.43 113.94 147.08 111.54 139.68 111.54C139.32 111.54 139.03 111.25 139.03 110.89C139.03 110.53 139.32 110.24 139.68 110.24C151.55 110.24 162.53 103.95 169.05 93.4201C171.05 90.1901 172.23 86.8101 173.48 83.2301C174.22 81.1101 174.99 78.9101 175.94 76.7701C178.51 70.9701 182.58 65.9101 187.72 62.1501C193.89 57.6301 201.52 55.1301 209.19 55.1301C216.86 55.1301 224.49 57.6201 230.66 62.1501C235.79 65.9101 239.87 70.9701 242.44 76.7701C243.39 78.9101 244.16 81.1101 244.9 83.2301C246.15 86.8101 247.33 90.1901 249.33 93.4201C255.85 103.95 266.83 110.24 278.7 110.24C279.06 110.24 279.35 110.53 279.35 110.89C279.35 111.25 279.06 111.54 278.7 111.54C271.3 111.54 263.95 113.94 258 118.3C253.05 121.93 249.12 126.8 246.64 132.4C245.71 134.49 244.96 136.66 244.22 138.76C243 142.25 241.74 145.86 239.67 149.21C232.91 160.13 221.51 166.65 209.19 166.65ZM146.44 110.87C151.74 111.88 156.81 114.06 161.16 117.24C166.29 121 170.37 126.06 172.94 131.86C173.89 134 174.66 136.2 175.4 138.32C176.65 141.9 177.83 145.28 179.83 148.51C186.35 159.04 197.33 165.33 209.2 165.33C221.07 165.33 232.05 159.04 238.57 148.51C240.57 145.28 241.75 141.9 243 138.32C243.74 136.2 244.51 134 245.46 131.86C248.03 126.06 252.1 121 257.24 117.24C261.59 114.05 266.66 111.87 271.96 110.87C262.31 108.96 253.74 102.98 248.23 94.0901C246.15 90.7401 244.89 87.1301 243.68 83.6401C242.95 81.5401 242.19 79.3701 241.26 77.2801C238.78 71.6901 234.85 66.8101 229.9 63.1801C223.95 58.8201 216.6 56.4201 209.2 56.4201C201.8 56.4201 194.45 58.8201 188.5 63.1801C183.55 66.8101 179.62 71.6801 177.14 77.2801C176.21 79.3701 175.46 81.5401 174.72 83.6401C173.5 87.1301 172.24 90.7401 170.17 94.0901C164.67 102.98 156.09 108.95 146.44 110.87Z" fill="white"/>
<path d="M168.67 126.4C168.44 126.4 168.21 126.27 168.09 126.05C167.92 125.73 168.04 125.34 168.36 125.17C176.48 120.85 182.62 112.34 186.35 105.96C188.33 102.57 189.65 99.1802 190.93 95.9102C192.98 90.6802 194.6 86.5402 198.22 83.6802C201.41 81.1702 205.3 79.7602 209.19 79.7202C213.06 79.7002 216.89 81.0102 219.96 83.4102C223.68 86.3102 225.04 90.0502 226.93 95.2202C228.07 98.3302 229.36 101.86 231.36 105.37C234.5 110.86 241.12 120.69 250.17 124.88C250.5 125.03 250.64 125.42 250.49 125.75C250.34 126.08 249.95 126.22 249.62 126.07C240.24 121.72 233.44 111.64 230.22 106.02C228.16 102.42 226.85 98.8402 225.69 95.6702C223.88 90.7002 222.56 87.1102 219.14 84.4402C216.3 82.2202 212.78 81.0102 209.18 81.0202C205.58 81.0502 201.97 82.3602 199.01 84.6902C195.66 87.3302 194.1 91.3202 192.12 96.3702C190.82 99.6902 189.48 103.12 187.45 106.6C183.64 113.12 177.34 121.84 168.95 126.3C168.85 126.35 168.75 126.38 168.64 126.38L168.67 126.4Z" fill="white"/>
<path d="M209.19 133.5C207.75 133.5 206.58 132.33 206.58 130.89V118.98C206.58 117.54 207.75 116.37 209.19 116.37C210.63 116.37 211.8 117.54 211.8 118.98V130.89C211.8 132.33 210.63 133.5 209.19 133.5Z" fill="white"/>
<path d="M209.19 139.57C207.75 139.57 206.58 140.74 206.58 142.18V165.89C207.44 165.95 208.31 166 209.19 166C210.07 166 210.94 165.96 211.8 165.89V142.18C211.8 140.74 210.63 139.57 209.19 139.57Z" fill="white"/>
<path d="M192.34 139.57C190.9 139.57 189.73 140.74 189.73 142.18V159.93C191.38 161.07 193.13 162.05 194.95 162.89V142.18C194.95 140.74 193.78 139.57 192.34 139.57Z" fill="white"/>
<path d="M226.03 139.57C224.59 139.57 223.42 140.74 223.42 142.18V162.89C225.24 162.06 226.99 161.07 228.64 159.93V142.18C228.64 140.74 227.47 139.57 226.03 139.57Z" fill="white"/>
<path d="M208.67 109.6C210.399 109.6 211.8 108.199 211.8 106.47C211.8 104.741 210.399 103.34 208.67 103.34C206.941 103.34 205.54 104.741 205.54 106.47C205.54 108.199 206.941 109.6 208.67 109.6Z" fill="white"/>
<path d="M191.82 133.72C193.549 133.72 194.95 132.319 194.95 130.59C194.95 128.862 193.549 127.46 191.82 127.46C190.091 127.46 188.69 128.862 188.69 130.59C188.69 132.319 190.091 133.72 191.82 133.72Z" fill="white"/>
<path d="M223.43 130.59C223.43 132.32 224.83 133.72 226.56 133.72C228.29 133.72 229.69 132.32 229.69 130.59C229.69 128.86 228.29 127.46 226.56 127.46C224.83 127.46 223.43 128.86 223.43 130.59Z" fill="white"/>
<path d="M260.69 115.84C251.77 115.65 244.03 103.87 241.1 98.7501C239.46 95.8901 238.34 92.8201 237.26 89.8601C235.13 84.0401 232.93 78.0201 226.86 73.2701C221.9 69.4001 215.75 67.2901 209.53 67.3501C203.33 67.4101 197.15 69.6201 192.15 73.5701C186.29 78.2001 183.87 84.3801 181.53 90.3501C180.35 93.3601 179.14 96.4601 177.49 99.2801C174.64 104.16 167.44 115.04 159.15 116.62C159.73 116.99 160.31 117.37 160.87 117.78C162.02 118.62 163.1 119.54 164.14 120.51C172.24 116.9 178.6 107.85 182.04 101.94C183.89 98.7701 185.18 95.4701 186.43 92.2801C188.61 86.7101 190.67 81.4501 195.41 77.7101C199.51 74.4801 204.54 72.6701 209.58 72.6301C214.6 72.5901 219.6 74.2901 223.62 77.4301C228.51 81.2501 230.27 86.0801 232.32 91.6801C233.48 94.8501 234.68 98.1301 236.54 101.38C240.01 107.44 246.53 116.82 255 120.02C255.87 119.24 256.77 118.48 257.72 117.79C258.68 117.09 259.68 116.46 260.7 115.86L260.69 115.84Z" fill="white"/>
<path d="M139.68 221.76C127.35 221.76 115.96 215.24 109.2 204.32C107.12 200.97 105.86 197.36 104.65 193.87C103.92 191.77 103.16 189.6 102.23 187.51C99.75 181.92 95.82 177.04 90.87 173.41C84.92 169.05 77.57 166.65 70.17 166.65C69.81 166.65 69.52 166.36 69.52 166C69.52 165.64 69.81 165.35 70.17 165.35C82.04 165.35 93.02 159.06 99.54 148.53C101.54 145.3 102.72 141.92 103.97 138.34C104.71 136.22 105.48 134.02 106.43 131.88C109 126.08 113.07 121.02 118.21 117.26C124.38 112.74 132.01 110.24 139.68 110.24C147.36 110.24 154.98 112.73 161.15 117.26C166.28 121.02 170.36 126.08 172.93 131.88C173.88 134.02 174.65 136.22 175.39 138.34C176.64 141.92 177.82 145.3 179.82 148.53C186.34 159.06 197.32 165.35 209.19 165.35C209.55 165.35 209.84 165.64 209.84 166C209.84 166.36 209.55 166.65 209.19 166.65C201.79 166.65 194.44 169.05 188.49 173.41C183.54 177.04 179.61 181.91 177.13 187.51C176.2 189.6 175.45 191.77 174.71 193.87C173.49 197.36 172.23 200.97 170.16 204.32C163.4 215.24 152 221.76 139.68 221.76ZM76.93 165.98C82.23 166.99 87.3 169.17 91.65 172.35C96.78 176.11 100.86 181.17 103.43 186.97C104.38 189.11 105.15 191.31 105.89 193.43C107.14 197.01 108.32 200.39 110.32 203.62C116.84 214.15 127.82 220.44 139.69 220.44C151.56 220.44 162.54 214.15 169.06 203.62C171.06 200.39 172.24 197.01 173.49 193.43C174.23 191.31 175 189.11 175.95 186.97C178.52 181.17 182.59 176.11 187.73 172.35C192.08 169.16 197.15 166.98 202.45 165.98C192.8 164.07 184.23 158.09 178.72 149.2C176.64 145.85 175.39 142.24 174.17 138.75C173.44 136.65 172.68 134.48 171.75 132.39C169.27 126.8 165.34 121.92 160.39 118.29C154.44 113.93 147.09 111.53 139.69 111.53C132.29 111.53 124.94 113.93 118.99 118.29C114.04 121.92 110.11 126.79 107.63 132.39C106.7 134.48 105.95 136.65 105.21 138.75C103.99 142.24 102.73 145.85 100.66 149.2C95.16 158.09 86.58 164.06 76.93 165.98Z" fill="white"/>
<path d="M99.15 181.51C98.92 181.51 98.69 181.38 98.57 181.16C98.4 180.84 98.52 180.45 98.84 180.28C106.96 175.96 113.1 167.45 116.83 161.07C118.81 157.68 120.13 154.29 121.41 151.02C123.46 145.79 125.08 141.65 128.7 138.79C131.89 136.28 135.78 134.87 139.67 134.83C143.55 134.82 147.37 136.12 150.44 138.52C154.16 141.42 155.52 145.16 157.41 150.33C158.55 153.44 159.84 156.97 161.84 160.48C164.98 165.97 171.6 175.8 180.65 179.99C180.98 180.14 181.12 180.53 180.97 180.86C180.82 181.19 180.43 181.33 180.1 181.18C170.72 176.83 163.92 166.75 160.7 161.13C158.64 157.53 157.33 153.95 156.17 150.78C154.36 145.81 153.04 142.22 149.62 139.55C146.78 137.33 143.26 136.12 139.66 136.13C136.06 136.16 132.45 137.47 129.49 139.8C126.14 142.44 124.58 146.43 122.6 151.48C121.3 154.8 119.96 158.23 117.93 161.71C114.12 168.23 107.82 176.95 99.43 181.41C99.33 181.46 99.23 181.49 99.12 181.49L99.15 181.51Z" fill="white"/>
<path d="M139.68 188.62C138.24 188.62 137.07 187.45 137.07 186.01V174.1C137.07 172.66 138.24 171.49 139.68 171.49C141.12 171.49 142.29 172.66 142.29 174.1V186.01C142.29 187.45 141.12 188.62 139.68 188.62Z" fill="white"/>
<path d="M139.68 194.69C138.24 194.69 137.07 195.86 137.07 197.3V221.01C137.93 221.07 138.8 221.12 139.68 221.12C140.56 221.12 141.43 221.08 142.29 221.01V197.3C142.29 195.86 141.12 194.69 139.68 194.69Z" fill="white"/>
<path d="M122.83 194.69C121.39 194.69 120.22 195.86 120.22 197.3V215.05C121.87 216.19 123.62 217.17 125.44 218.01V197.3C125.44 195.86 124.27 194.69 122.83 194.69Z" fill="white"/>
<path d="M156.52 194.69C155.08 194.69 153.91 195.86 153.91 197.3V218.01C155.73 217.18 157.48 216.19 159.13 215.05V197.3C159.13 195.86 157.96 194.69 156.52 194.69Z" fill="white"/>
<path d="M139.16 164.72C140.889 164.72 142.29 163.319 142.29 161.59C142.29 159.862 140.889 158.46 139.16 158.46C137.431 158.46 136.03 159.862 136.03 161.59C136.03 163.319 137.431 164.72 139.16 164.72Z" fill="white"/>
<path d="M122.31 188.83C124.039 188.83 125.44 187.429 125.44 185.7C125.44 183.972 124.039 182.57 122.31 182.57C120.581 182.57 119.18 183.972 119.18 185.7C119.18 187.429 120.581 188.83 122.31 188.83Z" fill="white"/>
<path d="M157.04 188.83C158.769 188.83 160.17 187.429 160.17 185.7C160.17 183.972 158.769 182.57 157.04 182.57C155.311 182.57 153.91 183.972 153.91 185.7C153.91 187.429 155.311 188.83 157.04 188.83Z" fill="white"/>
<path d="M191.18 170.95C182.26 170.76 174.52 158.98 171.59 153.86C169.95 151 168.83 147.93 167.75 144.97C165.62 139.15 163.42 133.13 157.35 128.38C152.39 124.51 146.24 122.4 140.02 122.46C133.82 122.52 127.64 124.73 122.64 128.68C116.78 133.31 114.36 139.49 112.02 145.46C110.84 148.47 109.63 151.57 107.98 154.39C105.13 159.27 97.93 170.15 89.64 171.73C90.22 172.1 90.8 172.48 91.36 172.89C92.51 173.73 93.59 174.65 94.63 175.62C102.73 172.01 109.09 162.96 112.53 157.05C114.38 153.88 115.67 150.58 116.92 147.39C119.1 141.82 121.16 136.56 125.9 132.82C130 129.59 135.03 127.78 140.07 127.74C145.09 127.7 150.09 129.4 154.11 132.54C159 136.36 160.76 141.19 162.81 146.79C163.97 149.96 165.17 153.24 167.03 156.49C170.5 162.55 177.02 171.93 185.49 175.13C186.36 174.35 187.26 173.59 188.21 172.9C189.17 172.2 190.17 171.57 191.19 170.97L191.18 170.95Z" fill="white"/>
<path d="M209.19 277.01C196.86 277.01 185.47 270.49 178.71 259.57C176.63 256.22 175.37 252.61 174.16 249.12C173.43 247.02 172.67 244.85 171.74 242.76C169.26 237.17 165.33 232.29 160.38 228.66C154.43 224.3 147.08 221.9 139.68 221.9C139.32 221.9 139.03 221.61 139.03 221.25C139.03 220.89 139.32 220.6 139.68 220.6C151.55 220.6 162.53 214.31 169.05 203.78C171.05 200.55 172.23 197.17 173.48 193.59C174.22 191.47 174.99 189.27 175.94 187.13C178.51 181.33 182.58 176.27 187.72 172.51C193.89 167.99 201.52 165.49 209.19 165.49C216.86 165.49 224.49 167.98 230.66 172.51C235.79 176.27 239.87 181.33 242.44 187.13C243.39 189.27 244.16 191.47 244.9 193.59C246.15 197.17 247.33 200.55 249.33 203.78C255.85 214.31 266.83 220.6 278.7 220.6C279.06 220.6 279.35 220.89 279.35 221.25C279.35 221.61 279.06 221.9 278.7 221.9C271.3 221.9 263.95 224.3 258 228.66C253.05 232.29 249.12 237.16 246.64 242.76C245.71 244.85 244.96 247.02 244.22 249.12C243 252.61 241.74 256.22 239.67 259.57C232.91 270.49 221.51 277.01 209.19 277.01ZM146.44 221.23C151.74 222.24 156.81 224.42 161.16 227.6C166.29 231.36 170.37 236.42 172.94 242.22C173.89 244.36 174.66 246.56 175.4 248.68C176.65 252.26 177.83 255.64 179.83 258.87C186.35 269.4 197.33 275.69 209.2 275.69C221.07 275.69 232.05 269.4 238.57 258.87C240.57 255.64 241.75 252.26 243 248.68C243.74 246.56 244.51 244.36 245.46 242.22C248.03 236.42 252.1 231.37 257.24 227.6C261.59 224.41 266.66 222.23 271.96 221.23C262.31 219.32 253.74 213.34 248.23 204.45C246.15 201.1 244.89 197.49 243.68 194C242.95 191.9 242.19 189.73 241.26 187.64C238.78 182.05 234.85 177.17 229.9 173.54C223.95 169.18 216.6 166.78 209.2 166.78C201.8 166.78 194.45 169.18 188.5 173.54C183.55 177.17 179.62 182.04 177.14 187.64C176.21 189.73 175.46 191.9 174.72 194C173.5 197.49 172.24 201.1 170.17 204.45C164.67 213.34 156.09 219.31 146.44 221.23Z" fill="white"/>
<path d="M168.67 236.76C168.44 236.76 168.21 236.63 168.09 236.41C167.92 236.09 168.04 235.7 168.36 235.53C176.48 231.21 182.62 222.7 186.35 216.32C188.33 212.93 189.65 209.54 190.93 206.27C192.98 201.04 194.6 196.9 198.22 194.04C201.41 191.53 205.3 190.12 209.19 190.08C213.06 190.06 216.89 191.37 219.96 193.77C223.68 196.67 225.04 200.41 226.93 205.58C228.07 208.69 229.36 212.22 231.36 215.73C234.5 221.22 241.12 231.05 250.17 235.24C250.5 235.39 250.64 235.78 250.49 236.11C250.34 236.44 249.95 236.58 249.62 236.43C240.24 232.08 233.44 222 230.22 216.38C228.16 212.78 226.85 209.2 225.69 206.03C223.88 201.06 222.56 197.47 219.14 194.8C216.3 192.58 212.78 191.37 209.18 191.38C205.58 191.41 201.97 192.72 199.01 195.05C195.66 197.69 194.1 201.68 192.12 206.73C190.82 210.05 189.48 213.48 187.45 216.96C183.64 223.48 177.34 232.2 168.95 236.66C168.85 236.71 168.75 236.74 168.64 236.74L168.67 236.76Z" fill="white"/>
<path d="M209.19 243.86C207.75 243.86 206.58 242.69 206.58 241.25V229.34C206.58 227.9 207.75 226.73 209.19 226.73C210.63 226.73 211.8 227.9 211.8 229.34V241.25C211.8 242.69 210.63 243.86 209.19 243.86Z" fill="white"/>
<path d="M209.19 249.93C207.75 249.93 206.58 251.1 206.58 252.54V276.25C207.44 276.31 208.31 276.36 209.19 276.36C210.07 276.36 210.94 276.32 211.8 276.25V252.54C211.8 251.1 210.63 249.93 209.19 249.93Z" fill="white"/>
<path d="M192.34 249.93C190.9 249.93 189.73 251.1 189.73 252.54V270.29C191.38 271.43 193.13 272.41 194.95 273.25V252.54C194.95 251.1 193.78 249.93 192.34 249.93Z" fill="white"/>
<path d="M226.03 249.93C224.59 249.93 223.42 251.1 223.42 252.54V273.25C225.24 272.42 226.99 271.43 228.64 270.29V252.54C228.64 251.1 227.47 249.93 226.03 249.93Z" fill="white"/>
<path d="M208.67 219.96C210.399 219.96 211.8 218.559 211.8 216.83C211.8 215.101 210.399 213.7 208.67 213.7C206.941 213.7 205.54 215.101 205.54 216.83C205.54 218.559 206.941 219.96 208.67 219.96Z" fill="white"/>
<path d="M191.82 244.07C193.549 244.07 194.95 242.669 194.95 240.94C194.95 239.211 193.549 237.81 191.82 237.81C190.091 237.81 188.69 239.211 188.69 240.94C188.69 242.669 190.091 244.07 191.82 244.07Z" fill="white"/>
<path d="M223.43 240.94C223.43 242.67 224.83 244.07 226.56 244.07C228.29 244.07 229.69 242.67 229.69 240.94C229.69 239.21 228.29 237.81 226.56 237.81C224.83 237.81 223.43 239.21 223.43 240.94Z" fill="white"/>
<path d="M260.69 226.2C251.77 226.01 244.03 214.23 241.1 209.11C239.46 206.25 238.34 203.18 237.26 200.22C235.13 194.4 232.93 188.38 226.86 183.63C221.9 179.76 215.75 177.65 209.53 177.71C203.33 177.77 197.15 179.98 192.15 183.93C186.29 188.56 183.87 194.74 181.53 200.71C180.35 203.72 179.14 206.82 177.49 209.64C174.64 214.52 167.44 225.4 159.15 226.98C159.73 227.35 160.31 227.73 160.87 228.14C162.02 228.98 163.1 229.9 164.14 230.87C172.24 227.26 178.6 218.21 182.04 212.3C183.89 209.13 185.18 205.83 186.43 202.64C188.61 197.07 190.67 191.81 195.41 188.07C199.51 184.84 204.54 183.03 209.58 182.99C214.6 182.95 219.6 184.65 223.62 187.79C228.51 191.61 230.27 196.44 232.32 202.04C233.48 205.21 234.68 208.49 236.54 211.74C240.01 217.8 246.53 227.18 255 230.38C255.87 229.6 256.77 228.84 257.72 228.15C258.68 227.45 259.68 226.82 260.7 226.22L260.69 226.2Z" fill="white"/>
<path d="M139.68 332.12C127.35 332.12 115.96 325.6 109.2 314.68C107.12 311.33 105.86 307.72 104.65 304.23C103.92 302.13 103.16 299.96 102.23 297.87C99.75 292.28 95.82 287.4 90.87 283.77C84.92 279.41 77.57 277.01 70.17 277.01C69.81 277.01 69.52 276.72 69.52 276.36C69.52 276 69.81 275.71 70.17 275.71C82.04 275.71 93.02 269.42 99.54 258.89C101.54 255.66 102.72 252.28 103.97 248.7C104.71 246.58 105.48 244.38 106.43 242.24C109 236.44 113.07 231.38 118.21 227.62C124.38 223.1 132.01 220.6 139.68 220.6C147.36 220.6 154.98 223.09 161.15 227.62C166.28 231.38 170.36 236.44 172.93 242.24C173.88 244.38 174.65 246.58 175.39 248.7C176.64 252.28 177.82 255.66 179.82 258.89C186.34 269.42 197.32 275.71 209.19 275.71C209.55 275.71 209.84 276 209.84 276.36C209.84 276.72 209.55 277.01 209.19 277.01C201.79 277.01 194.44 279.41 188.49 283.77C183.54 287.4 179.61 292.27 177.13 297.87C176.2 299.96 175.45 302.13 174.71 304.23C173.49 307.72 172.23 311.33 170.16 314.68C163.4 325.6 152 332.12 139.68 332.12ZM76.93 276.34C82.23 277.35 87.3 279.53 91.65 282.71C96.78 286.47 100.86 291.53 103.43 297.33C104.38 299.47 105.15 301.67 105.89 303.79C107.14 307.37 108.32 310.75 110.32 313.98C116.84 324.51 127.82 330.8 139.69 330.8C151.56 330.8 162.54 324.51 169.06 313.98C171.06 310.75 172.24 307.37 173.49 303.79C174.23 301.67 175 299.47 175.95 297.33C178.52 291.53 182.59 286.47 187.73 282.71C192.08 279.52 197.15 277.34 202.45 276.34C192.8 274.43 184.23 268.45 178.72 259.56C176.64 256.21 175.39 252.6 174.17 249.11C173.44 247.01 172.68 244.84 171.75 242.75C169.27 237.16 165.34 232.28 160.39 228.65C154.44 224.29 147.09 221.89 139.69 221.89C132.29 221.89 124.94 224.29 118.99 228.65C114.04 232.28 110.11 237.15 107.63 242.75C106.7 244.84 105.95 247.01 105.21 249.11C103.99 252.6 102.73 256.21 100.66 259.56C95.16 268.45 86.58 274.42 76.93 276.34Z" fill="white"/>
<path d="M99.15 291.87C98.92 291.87 98.69 291.74 98.57 291.52C98.4 291.2 98.52 290.81 98.84 290.64C106.96 286.32 113.1 277.81 116.83 271.43C118.81 268.04 120.13 264.65 121.41 261.38C123.46 256.15 125.08 252.01 128.7 249.15C131.89 246.64 135.78 245.23 139.67 245.19C143.55 245.18 147.37 246.48 150.44 248.88C154.16 251.78 155.52 255.52 157.41 260.69C158.55 263.8 159.84 267.33 161.84 270.84C164.98 276.33 171.6 286.16 180.65 290.35C180.98 290.5 181.12 290.89 180.97 291.22C180.82 291.55 180.43 291.69 180.1 291.54C170.72 287.19 163.92 277.11 160.7 271.49C158.64 267.89 157.33 264.31 156.17 261.14C154.36 256.17 153.04 252.58 149.62 249.91C146.78 247.69 143.26 246.48 139.66 246.49C136.06 246.52 132.45 247.83 129.49 250.17C126.14 252.81 124.58 256.8 122.6 261.85C121.3 265.17 119.96 268.6 117.93 272.08C114.12 278.6 107.82 287.32 99.43 291.78C99.33 291.83 99.23 291.86 99.12 291.86L99.15 291.87Z" fill="white"/>
<path d="M139.68 298.98C138.24 298.98 137.07 297.81 137.07 296.37V284.46C137.07 283.02 138.24 281.85 139.68 281.85C141.12 281.85 142.29 283.02 142.29 284.46V296.37C142.29 297.81 141.12 298.98 139.68 298.98Z" fill="white"/>
<path d="M139.68 305.05C138.24 305.05 137.07 306.22 137.07 307.66V331.37C137.93 331.43 138.8 331.48 139.68 331.48C140.56 331.48 141.43 331.44 142.29 331.37V307.66C142.29 306.22 141.12 305.05 139.68 305.05Z" fill="white"/>
<path d="M122.83 305.05C121.39 305.05 120.22 306.22 120.22 307.66V325.41C121.87 326.55 123.62 327.53 125.44 328.37V307.66C125.44 306.22 124.27 305.05 122.83 305.05Z" fill="white"/>
<path d="M156.52 305.05C155.08 305.05 153.91 306.22 153.91 307.66V328.37C155.73 327.54 157.48 326.55 159.13 325.41V307.66C159.13 306.22 157.96 305.05 156.52 305.05Z" fill="white"/>
<path d="M142.28 271.94C142.28 273.67 140.88 275.07 139.15 275.07C137.42 275.07 136.02 273.67 136.02 271.94C136.02 270.21 137.42 268.81 139.15 268.81C140.88 268.81 142.28 270.21 142.28 271.94Z" fill="white"/>
<path d="M122.31 299.19C124.039 299.19 125.44 297.789 125.44 296.06C125.44 294.332 124.039 292.93 122.31 292.93C120.581 292.93 119.18 294.332 119.18 296.06C119.18 297.789 120.581 299.19 122.31 299.19Z" fill="white"/>
<path d="M157.04 299.19C158.769 299.19 160.17 297.789 160.17 296.06C160.17 294.332 158.769 292.93 157.04 292.93C155.311 292.93 153.91 294.332 153.91 296.06C153.91 297.789 155.311 299.19 157.04 299.19Z" fill="white"/>
<path d="M191.18 281.31C182.26 281.12 174.52 269.34 171.59 264.22C169.95 261.36 168.83 258.29 167.75 255.33C165.62 249.51 163.42 243.49 157.35 238.74C152.39 234.87 146.24 232.76 140.02 232.82C133.82 232.88 127.64 235.09 122.64 239.04C116.78 243.67 114.36 249.85 112.02 255.82C110.84 258.83 109.63 261.93 107.98 264.75C105.13 269.63 97.93 280.51 89.64 282.09C90.22 282.46 90.8 282.84 91.36 283.25C92.51 284.09 93.59 285.01 94.63 285.98C102.73 282.37 109.09 273.32 112.53 267.41C114.38 264.24 115.67 260.94 116.92 257.75C119.1 252.18 121.16 246.92 125.9 243.18C130 239.95 135.03 238.14 140.07 238.1C145.09 238.06 150.09 239.76 154.11 242.9C159 246.72 160.76 251.55 162.81 257.15C163.97 260.32 165.17 263.6 167.03 266.85C170.5 272.91 177.02 282.29 185.49 285.49C186.36 284.71 187.26 283.95 188.21 283.26C189.17 282.56 190.17 281.93 191.19 281.33L191.18 281.31Z" fill="white"/>
<path d="M487.11 276.91C474.78 276.91 463.39 270.39 456.63 259.47C454.55 256.12 453.29 252.51 452.08 249.02C451.35 246.92 450.59 244.75 449.66 242.66C447.18 237.07 443.25 232.19 438.3 228.56C432.35 224.2 425 221.8 417.6 221.8C417.24 221.8 416.95 221.51 416.95 221.15C416.95 220.79 417.24 220.5 417.6 220.5C429.47 220.5 440.45 214.21 446.97 203.68C448.97 200.45 450.15 197.07 451.4 193.48C452.14 191.36 452.91 189.16 453.86 187.02C456.43 181.22 460.5 176.16 465.64 172.4C471.81 167.88 479.44 165.38 487.11 165.38C494.78 165.38 502.41 167.87 508.58 172.4C513.71 176.16 517.79 181.22 520.36 187.02C521.31 189.16 522.08 191.36 522.82 193.48C524.07 197.06 525.25 200.44 527.25 203.67C533.77 214.2 544.75 220.49 556.62 220.49C556.98 220.49 557.27 220.78 557.27 221.14C557.27 221.5 556.98 221.79 556.62 221.79C549.22 221.79 541.87 224.19 535.92 228.55C530.97 232.18 527.04 237.05 524.56 242.65C523.63 244.74 522.88 246.91 522.14 249.01C520.92 252.5 519.66 256.11 517.59 259.46C510.83 270.38 499.43 276.9 487.11 276.9V276.91ZM424.36 221.13C429.66 222.14 434.73 224.32 439.08 227.5C444.21 231.26 448.29 236.32 450.86 242.12C451.81 244.26 452.58 246.46 453.32 248.58C454.57 252.16 455.75 255.54 457.75 258.77C464.27 269.3 475.25 275.59 487.12 275.59C498.99 275.59 509.97 269.3 516.49 258.77C518.49 255.54 519.67 252.16 520.92 248.58C521.66 246.46 522.43 244.26 523.38 242.12C525.95 236.32 530.02 231.26 535.16 227.5C539.51 224.31 544.58 222.13 549.88 221.13C540.23 219.22 531.66 213.24 526.16 204.35C524.08 201 522.82 197.39 521.61 193.9C520.88 191.8 520.12 189.63 519.19 187.54C516.71 181.95 512.78 177.07 507.83 173.44C501.88 169.08 494.53 166.68 487.13 166.68C479.73 166.68 472.38 169.08 466.43 173.44C461.48 177.07 457.55 181.94 455.07 187.54C454.14 189.63 453.39 191.8 452.65 193.9C451.43 197.39 450.17 201 448.1 204.35C442.6 213.24 434.02 219.21 424.37 221.13H424.36Z" fill="white"/>
<path d="M446.59 236.66C446.36 236.66 446.13 236.53 446.01 236.31C445.84 235.99 445.96 235.6 446.28 235.43C454.4 231.11 460.54 222.6 464.27 216.22C466.25 212.83 467.57 209.44 468.85 206.17C470.9 200.94 472.52 196.8 476.14 193.94C479.33 191.43 483.22 190.02 487.11 189.98C491 189.96 494.81 191.27 497.88 193.67C501.6 196.57 502.96 200.31 504.85 205.48C505.99 208.59 507.28 212.12 509.28 215.63C512.42 221.12 519.04 230.95 528.09 235.14C528.42 235.29 528.56 235.68 528.41 236.01C528.26 236.34 527.87 236.48 527.54 236.33C518.16 231.98 511.36 221.9 508.14 216.28C506.08 212.68 504.77 209.1 503.61 205.93C501.8 200.96 500.48 197.37 497.06 194.7C494.22 192.48 490.69 191.27 487.1 191.28C483.5 191.31 479.89 192.62 476.93 194.95C473.58 197.59 472.02 201.58 470.04 206.63C468.74 209.95 467.4 213.38 465.37 216.86C461.56 223.38 455.26 232.1 446.87 236.56C446.77 236.61 446.67 236.64 446.56 236.64L446.59 236.66Z" fill="white"/>
<path d="M487.11 243.76C485.67 243.76 484.5 242.59 484.5 241.15V229.24C484.5 227.8 485.67 226.63 487.11 226.63C488.55 226.63 489.72 227.8 489.72 229.24V241.15C489.72 242.59 488.55 243.76 487.11 243.76Z" fill="white"/>
<path d="M487.11 249.83C485.67 249.83 484.5 251 484.5 252.44V276.15C485.36 276.21 486.23 276.26 487.11 276.26C487.99 276.26 488.86 276.22 489.72 276.15V252.44C489.72 251 488.55 249.83 487.11 249.83Z" fill="white"/>
<path d="M470.27 249.83C468.83 249.83 467.66 251 467.66 252.44V270.19C469.31 271.33 471.06 272.31 472.88 273.15V252.44C472.88 251 471.71 249.83 470.27 249.83Z" fill="white"/>
<path d="M503.96 249.83C502.52 249.83 501.35 251 501.35 252.44V273.15C503.17 272.32 504.92 271.33 506.57 270.19V252.44C506.57 251 505.4 249.83 503.96 249.83Z" fill="white"/>
<path d="M486.59 219.86C488.319 219.86 489.72 218.458 489.72 216.73C489.72 215.001 488.319 213.6 486.59 213.6C484.861 213.6 483.46 215.001 483.46 216.73C483.46 218.458 484.861 219.86 486.59 219.86Z" fill="white"/>
<path d="M469.75 243.98C471.479 243.98 472.88 242.579 472.88 240.85C472.88 239.121 471.479 237.72 469.75 237.72C468.021 237.72 466.62 239.121 466.62 240.85C466.62 242.579 468.021 243.98 469.75 243.98Z" fill="white"/>
<path d="M501.35 240.85C501.35 242.58 502.75 243.98 504.48 243.98C506.21 243.98 507.61 242.58 507.61 240.85C507.61 239.12 506.21 237.72 504.48 237.72C502.75 237.72 501.35 239.12 501.35 240.85Z" fill="white"/>
<path d="M538.62 226.1C529.7 225.91 521.96 214.13 519.03 209.01C517.39 206.15 516.27 203.08 515.19 200.12C513.06 194.3 510.86 188.28 504.79 183.53C499.83 179.66 493.68 177.55 487.46 177.61C481.26 177.67 475.08 179.88 470.08 183.83C464.22 188.46 461.8 194.64 459.46 200.61C458.28 203.62 457.07 206.72 455.42 209.54C452.57 214.42 445.37 225.3 437.08 226.88C437.66 227.25 438.24 227.63 438.8 228.04C439.95 228.88 441.03 229.8 442.07 230.77C450.17 227.16 456.53 218.11 459.97 212.2C461.82 209.03 463.11 205.73 464.36 202.54C466.54 196.97 468.6 191.71 473.34 187.97C477.44 184.74 482.47 182.93 487.51 182.89C492.53 182.85 497.53 184.55 501.55 187.69C506.44 191.51 508.2 196.34 510.25 201.94C511.41 205.11 512.61 208.39 514.47 211.64C517.94 217.7 524.46 227.08 532.93 230.28C533.8 229.5 534.7 228.74 535.65 228.05C536.61 227.35 537.61 226.72 538.63 226.12L538.62 226.1Z" fill="white"/>
<path d="M626.14 276.91C613.81 276.91 602.42 270.39 595.66 259.47C593.58 256.12 592.32 252.51 591.11 249.02C590.38 246.92 589.62 244.75 588.69 242.66C586.21 237.07 582.28 232.19 577.33 228.56C571.38 224.2 564.03 221.8 556.63 221.8C556.27 221.8 555.98 221.51 555.98 221.15C555.98 220.79 556.27 220.5 556.63 220.5C568.5 220.5 579.48 214.21 586 203.68C588 200.45 589.18 197.07 590.43 193.49C591.17 191.37 591.94 189.17 592.89 187.03C595.46 181.23 599.53 176.17 604.67 172.41C610.84 167.89 618.47 165.39 626.14 165.39C633.81 165.39 641.44 167.88 647.61 172.41C652.74 176.17 656.82 181.23 659.39 187.03C660.34 189.17 661.11 191.37 661.85 193.49C663.1 197.07 664.28 200.45 666.28 203.68C672.8 214.21 683.78 220.5 695.65 220.5C696.01 220.5 696.3 220.79 696.3 221.15C696.3 221.51 696.01 221.8 695.65 221.8C688.25 221.8 680.9 224.2 674.95 228.56C670 232.19 666.07 237.06 663.59 242.66C662.66 244.75 661.91 246.92 661.17 249.02C659.95 252.51 658.69 256.12 656.62 259.47C649.86 270.39 638.46 276.91 626.14 276.91ZM563.39 221.13C568.69 222.14 573.76 224.32 578.11 227.5C583.24 231.26 587.32 236.32 589.89 242.12C590.84 244.26 591.61 246.46 592.35 248.58C593.6 252.16 594.78 255.54 596.78 258.77C603.3 269.3 614.28 275.59 626.15 275.59C638.02 275.59 649 269.3 655.52 258.77C657.52 255.54 658.7 252.16 659.95 248.58C660.69 246.46 661.46 244.26 662.41 242.12C664.98 236.32 669.05 231.26 674.19 227.5C678.54 224.31 683.61 222.13 688.91 221.13C679.26 219.22 670.69 213.24 665.18 204.35C663.1 201 661.84 197.39 660.63 193.9C659.9 191.8 659.14 189.63 658.21 187.54C655.73 181.95 651.8 177.07 646.85 173.44C640.9 169.08 633.55 166.68 626.15 166.68C618.75 166.68 611.4 169.08 605.45 173.44C600.5 177.07 596.57 181.94 594.09 187.54C593.16 189.63 592.41 191.8 591.67 193.9C590.45 197.39 589.19 201 587.12 204.35C581.62 213.24 573.04 219.21 563.39 221.13Z" fill="white"/>
<path d="M585.62 236.66C585.39 236.66 585.16 236.53 585.04 236.31C584.87 235.99 584.99 235.6 585.31 235.43C593.43 231.11 599.57 222.6 603.3 216.22C605.28 212.83 606.6 209.44 607.88 206.17C609.93 200.94 611.55 196.8 615.17 193.94C618.36 191.43 622.25 190.02 626.14 189.98C630.01 189.96 633.84 191.27 636.91 193.67C640.63 196.57 641.99 200.31 643.88 205.48C645.02 208.59 646.31 212.12 648.31 215.63C651.45 221.12 658.07 230.95 667.12 235.14C667.45 235.29 667.59 235.68 667.44 236.01C667.29 236.34 666.9 236.48 666.57 236.33C657.19 231.98 650.39 221.9 647.17 216.28C645.11 212.68 643.8 209.1 642.64 205.93C640.83 200.96 639.51 197.37 636.09 194.7C633.25 192.48 629.73 191.27 626.13 191.28C622.53 191.31 618.92 192.62 615.96 194.95C612.61 197.59 611.05 201.58 609.07 206.63C607.77 209.95 606.43 213.38 604.4 216.86C600.59 223.38 594.29 232.1 585.9 236.56C585.8 236.61 585.7 236.64 585.59 236.64L585.62 236.66Z" fill="white"/>
<path d="M609.29 249.83C607.85 249.83 606.68 251 606.68 252.44V270.19C608.33 271.33 610.08 272.31 611.9 273.15V252.44C611.9 251 610.73 249.83 609.29 249.83Z" fill="white"/>
<path d="M608.77 243.98C610.499 243.98 611.9 242.579 611.9 240.85C611.9 239.121 610.499 237.72 608.77 237.72C607.041 237.72 605.64 239.121 605.64 240.85C605.64 242.579 607.041 243.98 608.77 243.98Z" fill="white"/>
<path d="M677.64 226.1C668.72 225.91 660.98 214.13 658.05 209.01C656.41 206.15 655.29 203.08 654.21 200.12C652.08 194.3 649.88 188.28 643.81 183.53C638.85 179.66 632.7 177.55 626.48 177.61C620.28 177.67 614.1 179.88 609.1 183.83C603.24 188.46 600.82 194.64 598.48 200.61C597.3 203.62 596.09 206.72 594.44 209.54C591.59 214.42 584.39 225.3 576.1 226.88C576.68 227.25 577.26 227.63 577.82 228.04C578.97 228.88 580.05 229.8 581.09 230.77C589.19 227.16 595.55 218.11 598.99 212.2C600.84 209.03 602.13 205.73 603.38 202.54C605.56 196.97 607.62 191.71 612.36 187.97C616.46 184.74 621.49 182.93 626.53 182.89C631.55 182.85 636.55 184.55 640.57 187.69C645.46 191.51 647.22 196.34 649.27 201.94C650.43 205.11 651.63 208.39 653.49 211.64C656.96 217.7 663.48 227.08 671.95 230.28C672.82 229.5 673.72 228.74 674.67 228.05C675.63 227.35 676.63 226.72 677.65 226.12L677.64 226.1Z" fill="white"/>
<path d="M556.63 332.02C544.3 332.02 532.91 325.5 526.15 314.58C524.07 311.23 522.81 307.62 521.6 304.13C520.87 302.03 520.11 299.86 519.18 297.77C516.7 292.18 512.77 287.3 507.82 283.67C501.87 279.31 494.52 276.91 487.12 276.91C486.76 276.91 486.47 276.62 486.47 276.26C486.47 275.9 486.76 275.61 487.12 275.61C498.99 275.61 509.97 269.32 516.49 258.79C518.49 255.56 519.67 252.18 520.92 248.6C521.66 246.48 522.43 244.28 523.38 242.14C525.95 236.34 530.02 231.28 535.16 227.52C541.33 223 548.96 220.5 556.63 220.5C564.31 220.5 571.93 222.99 578.1 227.52C583.23 231.28 587.31 236.34 589.88 242.14C590.83 244.28 591.6 246.48 592.34 248.6C593.59 252.18 594.77 255.56 596.77 258.79C603.29 269.32 614.27 275.61 626.14 275.61C626.5 275.61 626.79 275.9 626.79 276.26C626.79 276.62 626.5 276.91 626.14 276.91C618.74 276.91 611.39 279.31 605.44 283.67C600.49 287.3 596.56 292.17 594.08 297.77C593.15 299.86 592.4 302.03 591.66 304.13C590.44 307.62 589.18 311.23 587.11 314.58C580.35 325.5 568.95 332.02 556.63 332.02ZM493.88 276.24C499.18 277.25 504.25 279.43 508.6 282.61C513.73 286.37 517.81 291.43 520.38 297.23C521.33 299.37 522.1 301.57 522.84 303.69C524.09 307.27 525.27 310.65 527.27 313.88C533.79 324.41 544.77 330.7 556.64 330.7C568.51 330.7 579.49 324.41 586.01 313.88C588.01 310.65 589.19 307.27 590.44 303.69C591.18 301.57 591.95 299.37 592.9 297.23C595.47 291.43 599.54 286.37 604.68 282.61C609.03 279.42 614.1 277.24 619.4 276.24C609.75 274.33 601.18 268.35 595.67 259.46C593.59 256.11 592.34 252.5 591.12 249.01C590.39 246.91 589.63 244.74 588.7 242.65C586.22 237.06 582.29 232.18 577.34 228.55C571.39 224.19 564.04 221.79 556.64 221.79C549.24 221.79 541.89 224.19 535.94 228.55C530.99 232.18 527.06 237.05 524.58 242.65C523.65 244.74 522.9 246.91 522.16 249.01C520.94 252.5 519.68 256.11 517.61 259.46C512.11 268.35 503.53 274.32 493.88 276.24Z" fill="white"/>
<path d="M516.1 291.77C515.87 291.77 515.64 291.64 515.52 291.42C515.35 291.1 515.47 290.71 515.79 290.54C523.91 286.22 530.05 277.71 533.78 271.33C535.76 267.94 537.08 264.55 538.36 261.28C540.41 256.05 542.03 251.91 545.65 249.05C548.84 246.54 552.73 245.13 556.62 245.09C560.5 245.08 564.32 246.38 567.39 248.78C571.11 251.68 572.47 255.42 574.36 260.59C575.5 263.7 576.79 267.23 578.79 270.74C581.93 276.23 588.55 286.06 597.6 290.25C597.93 290.4 598.07 290.79 597.92 291.12C597.77 291.45 597.38 291.59 597.05 291.44C587.67 287.09 580.87 277.01 577.65 271.39C575.59 267.79 574.28 264.21 573.12 261.04C571.31 256.07 569.99 252.48 566.57 249.81C563.73 247.59 560.21 246.38 556.61 246.39C553.01 246.42 549.4 247.73 546.44 250.06C543.09 252.7 541.53 256.69 539.55 261.74C538.25 265.06 536.91 268.49 534.88 271.97C531.07 278.49 524.77 287.21 516.38 291.67C516.28 291.72 516.18 291.75 516.07 291.75L516.1 291.77Z" fill="white"/>
<path d="M556.63 298.88C555.19 298.88 554.02 297.71 554.02 296.27V284.36C554.02 282.92 555.19 281.75 556.63 281.75C558.07 281.75 559.24 282.92 559.24 284.36V296.27C559.24 297.71 558.07 298.88 556.63 298.88Z" fill="white"/>
<path d="M556.63 304.95C555.19 304.95 554.02 306.12 554.02 307.56V331.27C554.88 331.33 555.75 331.38 556.63 331.38C557.51 331.38 558.38 331.34 559.24 331.27V307.56C559.24 306.12 558.07 304.95 556.63 304.95Z" fill="white"/>
<path d="M539.78 304.95C538.34 304.95 537.17 306.12 537.17 307.56V325.31C538.82 326.45 540.57 327.43 542.39 328.27V307.56C542.39 306.12 541.22 304.95 539.78 304.95Z" fill="white"/>
<path d="M573.47 304.95C572.03 304.95 570.86 306.12 570.86 307.56V328.27C572.68 327.44 574.43 326.45 576.08 325.31V307.56C576.08 306.12 574.91 304.95 573.47 304.95Z" fill="white"/>
<path d="M556.11 274.98C557.839 274.98 559.24 273.579 559.24 271.85C559.24 270.121 557.839 268.72 556.11 268.72C554.381 268.72 552.98 270.121 552.98 271.85C552.98 273.579 554.381 274.98 556.11 274.98Z" fill="white"/>
<path d="M539.26 299.09C540.989 299.09 542.39 297.689 542.39 295.96C542.39 294.231 540.989 292.83 539.26 292.83C537.531 292.83 536.13 294.231 536.13 295.96C536.13 297.689 537.531 299.09 539.26 299.09Z" fill="white"/>
<path d="M573.99 299.09C575.719 299.09 577.12 297.689 577.12 295.96C577.12 294.231 575.719 292.83 573.99 292.83C572.261 292.83 570.86 294.231 570.86 295.96C570.86 297.689 572.261 299.09 573.99 299.09Z" fill="white"/>
<path d="M608.13 281.21C599.21 281.02 591.47 269.24 588.54 264.12C586.9 261.26 585.78 258.19 584.7 255.23C582.57 249.41 580.37 243.39 574.3 238.64C569.34 234.77 563.19 232.66 556.97 232.72C550.77 232.78 544.59 234.99 539.59 238.94C533.73 243.57 531.31 249.75 528.97 255.72C527.79 258.73 526.58 261.83 524.93 264.65C522.08 269.53 514.88 280.41 506.59 281.99C507.17 282.36 507.75 282.74 508.31 283.15C509.46 283.99 510.54 284.91 511.58 285.88C519.68 282.27 526.04 273.22 529.48 267.31C531.33 264.14 532.62 260.84 533.87 257.65C536.05 252.08 538.11 246.82 542.85 243.08C546.95 239.85 551.98 238.04 557.02 238C562.04 237.96 567.04 239.66 571.06 242.8C575.95 246.62 577.71 251.45 579.76 257.05C580.92 260.22 582.12 263.5 583.98 266.75C587.45 272.81 593.97 282.19 602.44 285.39C603.31 284.61 604.21 283.85 605.16 283.16C606.12 282.46 607.12 281.83 608.14 281.23L608.13 281.21Z" fill="white"/>
</g>
<defs>
<clipPath id="clip0_17_9867">
<rect width="696.3" height="332.12" fill="white"/>
</clipPath>
</defs>
</svg>
