<svg width="37" height="29" viewBox="0 0 37 29" fill="none" xmlns="http://www.w3.org/2000/svg">
<path d="M35.0703 9.46875C35.8906 9.96094 36.2188 11.0547 35.7266 11.875C35.2891 12.6953 34.1953 13.0234 33.375 12.5312L18.4453 4.27344L3.57031 12.5312C2.75 13.0234 1.65625 12.6953 1.21875 11.875C0.726562 11.0547 1.05469 9.96094 1.875 9.46875L17.625 0.773438C18.1719 0.445312 18.7734 0.445312 19.3203 0.773438L35.0703 9.46875ZM16.2578 11.4375C16.2578 10.2344 17.2422 9.25 18.4453 9.25C19.7031 9.25 20.6328 10.2344 20.6328 11.4375C20.6328 12.6953 19.7031 13.625 18.4453 13.625C17.2422 13.625 16.2578 12.6953 16.2578 11.4375ZM6.63281 16.6875C6.63281 15.4844 7.61719 14.5 8.82031 14.5C10.0781 14.5 11.0078 15.4844 11.0078 16.6875C11.0078 17.9453 10.0781 18.875 8.82031 18.875C7.61719 18.875 6.63281 17.9453 6.63281 16.6875ZM30.2578 16.6875C30.2578 17.9453 29.3281 18.875 28.0703 18.875C26.8672 18.875 25.8828 17.9453 25.8828 16.6875C25.8828 15.4844 26.8672 14.5 28.0703 14.5C29.3281 14.5 30.2578 15.4844 30.2578 16.6875ZM13.3594 27.4062L11.8828 24.6719V26.75C11.8828 27.7344 11.1172 28.5 10.1328 28.5H7.50781C6.57812 28.5 5.75781 27.7344 5.75781 26.75V24.6719L4.33594 27.4062C3.95312 28.0078 3.1875 28.2812 2.53125 27.9531C1.875 27.5703 1.65625 26.8047 1.98438 26.1484L4.0625 22.3203C4.9375 20.7344 6.52344 19.75 8.32812 19.75H9.36719C10.2969 19.75 11.1172 20.0234 11.8828 20.4609L13.6875 17.0703C14.5625 15.4844 16.1484 14.5 17.9531 14.5H18.9922C20.7969 14.5 22.3828 15.4844 23.2578 17.0703L25.0625 20.4609C25.8281 20.0234 26.6484 19.75 27.5781 19.75H28.6172C30.4219 19.75 32.0078 20.7344 32.8828 22.3203L34.9609 26.1484C35.2891 26.8047 35.0703 27.5703 34.4141 27.9531C33.7578 28.2812 32.9922 28.0078 32.6094 27.4062L31.1328 24.6719V26.75C31.1328 27.7344 30.3672 28.5 29.3828 28.5H26.7578C25.8281 28.5 25.0078 27.7344 25.0078 26.75V24.6719L23.5859 27.4062C23.2031 28.0078 22.4375 28.2812 21.7812 27.9531C21.125 27.5703 20.9062 26.8047 21.2344 26.1484L23.2578 22.4844C23.1484 22.375 23.0938 22.2656 22.9844 22.1562L21.5078 19.4219V22.375C21.5078 23.3594 20.7422 24.125 19.7578 24.125H17.1328C16.2031 24.125 15.3828 23.3594 15.3828 22.375V19.4219L13.9609 22.1562C13.8516 22.2656 13.7969 22.375 13.6875 22.4844L15.7109 26.1484C16.0391 26.8047 15.8203 27.5703 15.1641 27.9531C14.5078 28.2812 13.7422 28.0078 13.3594 27.4062Z" fill="#A58C79"/>
</svg>
