<svg width="35" height="29" viewBox="0 0 35 29" fill="none" xmlns="http://www.w3.org/2000/svg">
<path d="M3.0625 12.75C2.29688 12.75 1.75 12.2031 1.75 11.4375V3.5625C1.75 1.92188 3.11719 0.5 4.8125 0.5H30.1875C31.8281 0.5 33.25 1.92188 33.25 3.5625V11.4375C33.25 12.2031 32.6484 12.75 31.9375 12.75C31.1719 12.75 30.625 12.2031 30.625 11.4375V3.5625C30.625 3.34375 30.4062 3.125 30.1875 3.125H4.8125C4.53906 3.125 4.375 3.34375 4.375 3.5625V11.4375C4.375 12.2031 3.77344 12.75 3.0625 12.75ZM29.75 14.5C31.6641 14.5547 33.1953 16.0859 33.1953 18C33.1953 19.9688 31.6641 21.5 29.75 21.5C27.7812 21.5 26.25 19.9688 26.25 18C26.25 16.0859 27.7812 14.5547 29.75 14.5ZM29.75 18.875C30.1875 18.875 30.5703 18.4922 30.5703 18C30.5703 17.5625 30.1875 17.1797 29.75 17.1797C29.2578 17.1797 28.875 17.5625 28.875 18C28.875 18.4922 29.2578 18.875 29.75 18.875ZM18.7578 23.25C20.9453 23.25 22.75 25.1094 22.75 27.3516C22.75 28.0078 22.2031 28.5 21.6016 28.5H13.3438C12.7422 28.5 12.25 28.0078 12.25 27.3516C12.25 25.1094 14 23.25 16.1875 23.25H18.7578ZM31.0078 23.25C33.1953 23.25 35 25.1094 35 27.3516C35 28.0078 34.4531 28.5 33.8516 28.5H25.5938C24.9922 28.5 24.5 28.0078 24.5 27.3516C24.5 25.1094 26.25 23.25 28.4375 23.25H31.0078ZM14 18C14 16.0859 15.5312 14.5547 17.5 14.5C19.4141 14.5547 20.9453 16.0859 20.9453 18C20.9453 19.9688 19.4141 21.5 17.4453 21.5C15.5312 21.5 14 19.9688 14 18ZM18.3203 18C18.3203 17.5625 17.9375 17.1797 17.5 17.1797C17.0078 17.1797 16.625 17.5625 16.625 18C16.625 18.4922 17.0078 18.875 17.5 18.875C17.9375 18.875 18.3203 18.4922 18.3203 18ZM6.50781 23.25C8.69531 23.25 10.5 25.1094 10.5 27.3516C10.5 28.0078 9.95312 28.5 9.35156 28.5H1.09375C0.492188 28.5 0 28.0078 0 27.3516C0 25.1094 1.75 23.25 3.9375 23.25H6.50781ZM1.75 18C1.75 16.0859 3.28125 14.5547 5.25 14.5C7.16406 14.5547 8.69531 16.0859 8.69531 18C8.69531 19.9688 7.16406 21.5 5.25 21.5C3.28125 21.5 1.75 19.9688 1.75 18ZM6.07031 18C6.07031 17.5625 5.6875 17.1797 5.25 17.1797C4.75781 17.1797 4.375 17.5625 4.375 18C4.375 18.4922 4.75781 18.875 5.25 18.875C5.6875 18.875 6.07031 18.4922 6.07031 18Z" fill="#A58C79"/>
</svg>
