<svg width="35" height="29" viewBox="0 0 35 29" fill="none" xmlns="http://www.w3.org/2000/svg">
<path d="M32.375 0.5C33.7969 0.5 35 1.75781 35 3.23438V20.5703C35 22.0469 33.7969 23.25 32.3203 23.25H18.4844C17.8281 21.8828 16.8984 20.6797 15.6953 19.75H20.9453V17.125C20.9453 16.6875 21.3281 16.25 21.8203 16.25H27.0703C27.5078 16.25 27.9453 16.6875 27.9453 17.125V19.75H31.4453V4H12.1953V6.73438C11.2109 6.13281 10.0078 5.75 8.75 5.75V3.23438C8.75 1.75781 9.89844 0.5 11.375 0.5H32.375ZM8.75 18C5.79688 18 3.5 15.6484 3.5 12.75C3.5 9.85156 5.79688 7.5 8.75 7.5C11.6484 7.5 14 9.85156 14 12.75C14 15.7031 11.6484 18 8.75 18ZM10.5 19.75C14.3281 19.75 17.5 22.9219 17.5 26.75C17.5 27.7344 16.6797 28.5 15.75 28.5H1.75C0.765625 28.5 0 27.7344 0 26.75C0 22.9219 3.11719 19.75 7 19.75H10.5Z" fill="#A58C79"/>
</svg>
