<svg width="616" height="332" viewBox="0 0 616 332" fill="none" xmlns="http://www.w3.org/2000/svg">
<g opacity="0.3" clip-path="url(#clip0_19_1124)">
<path d="M417.5 111.49C429.825 111.49 441.21 104.972 447.967 94.056C450.046 90.7072 451.305 87.0985 452.515 83.6098C453.245 81.5105 454.004 79.3413 454.934 77.2521C457.413 71.6641 461.341 66.7859 466.289 63.1572C472.236 58.7987 479.583 56.3996 486.98 56.3996C487.34 56.3996 487.63 56.1097 487.63 55.7499C487.63 55.39 487.34 55.1001 486.98 55.1001C475.115 55.1001 464.14 48.8124 457.623 38.2862C455.624 35.0573 454.444 31.6786 453.195 28.0898C452.455 25.9706 451.685 23.7714 450.736 21.6322C448.167 15.8343 444.099 10.7761 438.961 7.01746C432.793 2.4991 425.167 0 417.5 0C409.833 0 402.207 2.4891 396.039 7.01746C390.911 10.7761 386.833 15.8343 384.264 21.6322C383.315 23.7714 382.545 25.9706 381.805 28.0898C380.556 31.6686 379.376 35.0473 377.377 38.2762C370.86 48.8024 359.885 55.0901 348.02 55.0901C347.66 55.0901 347.37 55.38 347.37 55.7398C347.37 56.0997 347.66 56.3896 348.02 56.3896C355.417 56.3896 362.764 58.7887 368.711 63.1472C373.659 66.7759 377.587 71.6441 380.066 77.2421C380.996 79.3313 381.745 81.5005 382.485 83.5998C383.705 87.0885 384.964 90.6972 387.033 94.046C393.79 104.962 405.185 111.48 417.5 111.48V111.49ZM480.223 55.7299C474.925 56.7395 469.857 58.9187 465.509 62.0976C460.382 65.8562 456.303 70.9144 453.734 76.7123C452.785 78.8515 452.015 81.0507 451.275 83.1699C450.026 86.7486 448.846 90.1274 446.847 93.3563C440.33 103.882 429.355 110.17 417.49 110.17C405.625 110.17 394.65 103.882 388.133 93.3563C386.134 90.1274 384.954 86.7486 383.705 83.1699C382.965 81.0507 382.195 78.8515 381.246 76.7123C378.677 70.9144 374.608 65.8562 369.471 62.0976C365.123 58.9087 360.055 56.7295 354.757 55.7299C364.403 53.8205 372.969 47.8427 378.477 38.9559C380.556 35.6071 381.815 31.9984 383.025 28.5097C383.755 26.4105 384.514 24.2412 385.444 22.152C387.923 16.564 391.851 11.6858 396.799 8.05709C402.746 3.69866 410.093 1.29953 417.49 1.29953C424.887 1.29953 432.234 3.69866 438.181 8.05709C443.129 11.6858 447.057 16.554 449.536 22.152C450.466 24.2412 451.215 26.4105 451.955 28.5097C453.175 31.9984 454.434 35.6071 456.503 38.9559C462.001 47.8427 470.577 53.8106 480.223 55.7299Z" fill="#A58C79"/>
<path d="M458.003 71.2542C458.232 71.2542 458.462 71.1242 458.582 70.9043C458.752 70.5844 458.632 70.1946 458.312 70.0246C450.196 65.7062 444.059 57.1993 440.33 50.8216C438.351 47.4328 437.032 44.044 435.752 40.7752C433.703 35.5471 432.084 31.4086 428.465 28.5496C425.277 26.0405 421.388 24.631 417.5 24.591C413.612 24.5711 409.803 25.8806 406.735 28.2797C403.016 31.1787 401.657 34.9173 399.768 40.0854C398.628 43.1943 397.339 46.723 395.34 50.2318C392.201 55.7198 385.584 65.5462 376.538 69.7347C376.208 69.8847 376.068 70.2745 376.218 70.6044C376.368 70.9343 376.758 71.0742 377.087 70.9243C386.463 66.5759 393.26 56.4995 396.479 50.8815C398.538 47.2828 399.848 43.7041 401.007 40.5353C402.816 35.5671 404.136 31.9784 407.554 29.3093C410.393 27.0901 413.922 25.8806 417.51 25.8906C421.108 25.9206 424.717 27.2301 427.676 29.5592C431.024 32.1983 432.583 36.1869 434.563 41.235C435.862 44.5538 437.201 47.9826 439.231 51.4613C443.039 57.979 449.336 66.6958 457.723 71.1542C457.823 71.2042 457.923 71.2342 458.033 71.2342L458.003 71.2542Z" fill="#A58C79"/>
<path d="M417.5 78.3616C418.939 78.3616 420.109 77.192 420.109 75.7525V63.8469C420.109 62.4074 418.939 61.2378 417.5 61.2378C416.061 61.2378 414.891 62.4074 414.891 63.8469V75.7525C414.891 77.192 416.061 78.3616 417.5 78.3616Z" fill="#A58C79"/>
<path d="M417.5 84.4297C418.939 84.4297 420.109 85.5993 420.109 87.0387V110.74C419.249 110.8 418.38 110.85 417.5 110.85C416.62 110.85 415.751 110.81 414.891 110.74V87.0387C414.891 85.5993 416.061 84.4297 417.5 84.4297Z" fill="#A58C79"/>
<path d="M434.333 84.4297C435.772 84.4297 436.942 85.5993 436.942 87.0387V104.782C435.292 105.922 433.543 106.902 431.724 107.741V87.0387C431.724 85.5993 432.893 84.4297 434.333 84.4297Z" fill="#A58C79"/>
<path d="M400.657 84.4297C402.097 84.4297 403.266 85.5993 403.266 87.0387V107.741C401.447 106.912 399.698 105.922 398.048 104.782V87.0387C398.048 85.5993 399.218 84.4297 400.657 84.4297Z" fill="#A58C79"/>
<path d="M418.02 54.4701C416.292 54.4701 414.891 53.0693 414.891 51.3413C414.891 49.6132 416.292 48.2124 418.02 48.2124C419.748 48.2124 421.148 49.6132 421.148 51.3413C421.148 53.0693 419.748 54.4701 418.02 54.4701Z" fill="#A58C79"/>
<path d="M434.853 78.5717C433.125 78.5717 431.724 77.1709 431.724 75.4428C431.724 73.7148 433.125 72.314 434.853 72.314C436.58 72.314 437.981 73.7148 437.981 75.4428C437.981 77.1709 436.58 78.5717 434.853 78.5717Z" fill="#A58C79"/>
<path d="M400.137 78.5717C398.41 78.5717 397.009 77.1709 397.009 75.4428C397.009 73.7148 398.41 72.314 400.137 72.314C401.865 72.314 403.266 73.7148 403.266 75.4428C403.266 77.1709 401.865 78.5717 400.137 78.5717Z" fill="#A58C79"/>
<path d="M366.022 60.6978C374.938 60.5079 382.675 48.7322 385.604 43.614C387.243 40.7551 388.363 37.6862 389.442 34.7272C391.571 28.9093 393.77 22.8915 399.838 18.1432C404.795 14.2746 410.943 12.1654 417.16 12.2254C423.357 12.2853 429.535 14.4945 434.533 18.4431C440.39 23.0714 442.809 29.2492 445.148 35.2171C446.328 38.226 447.537 41.3248 449.186 44.1438C452.035 49.0221 459.232 59.8981 467.518 61.4776C466.939 61.8474 466.359 62.2273 465.799 62.6371C464.65 63.4768 463.57 64.3965 462.531 65.3662C454.434 61.7575 448.077 52.7107 444.638 46.8029C442.789 43.634 441.5 40.3352 440.25 37.1464C438.071 31.5784 436.012 26.3203 431.274 22.5816C427.176 19.3528 422.148 17.5434 417.11 17.5035C412.092 17.4635 407.094 19.1629 403.076 22.3017C398.188 26.1203 396.429 30.9486 394.38 36.5466C393.22 39.7154 392.021 42.9942 390.162 46.2431C386.693 52.3009 380.176 61.6775 371.71 64.8763C370.84 64.0966 369.941 63.3369 368.991 62.6471C368.031 61.9474 367.032 61.3176 366.012 60.7178L366.022 60.6978Z" fill="#A58C79"/>
<path d="M278.53 111.489C290.855 111.489 302.24 104.972 308.997 94.0558C311.076 90.707 312.335 87.0983 313.545 83.6096C314.274 81.5103 315.034 79.3411 315.964 77.2518C318.443 71.6639 322.371 66.7856 327.319 63.1569C333.266 58.7985 340.613 56.3994 348.01 56.3994C348.37 56.3994 348.66 56.1095 348.66 55.7496C348.66 55.3898 348.37 55.0999 348.01 55.0999C336.145 55.0999 325.17 48.8121 318.653 38.2859C316.653 35.0571 315.474 31.6783 314.224 28.0996C313.485 25.9804 312.715 23.7812 311.766 21.6419C309.197 15.844 305.128 10.7859 299.991 7.02723C293.823 2.50886 286.197 0.00976562 278.53 0.00976562C270.863 0.00976562 263.236 2.49887 257.069 7.02723C251.941 10.7859 247.863 15.844 245.294 21.6419C244.345 23.7812 243.575 25.9804 242.835 28.0996C241.586 31.6783 240.406 35.0571 238.407 38.2859C231.89 48.8121 220.915 55.0999 209.05 55.0999C208.69 55.0999 208.4 55.3898 208.4 55.7496C208.4 56.1095 208.69 56.3994 209.05 56.3994C216.447 56.3994 223.793 58.7985 229.741 63.1569C234.689 66.7856 238.617 71.6539 241.096 77.2518C242.026 79.3411 242.775 81.5103 243.515 83.6096C244.734 87.0983 245.994 90.707 248.063 94.0558C254.82 104.972 266.215 111.489 278.53 111.489ZM341.253 55.7296C335.955 56.7393 330.887 58.9185 326.539 62.0973C321.411 65.856 317.333 70.9141 314.764 76.712C313.815 78.8513 313.045 81.0505 312.305 83.1697C311.056 86.7484 309.876 90.1272 307.877 93.356C301.36 103.882 290.385 110.17 278.52 110.17C266.655 110.17 255.68 103.882 249.163 93.356C247.163 90.1272 245.984 86.7484 244.734 83.1697C243.995 81.0505 243.225 78.8513 242.275 76.712C239.707 70.9141 235.638 65.856 230.501 62.0973C226.152 58.9085 221.085 56.7293 215.787 55.7296C225.433 53.8203 233.999 47.8425 239.507 38.9557C241.586 35.6069 242.845 31.9982 244.055 28.5095C244.784 26.4102 245.544 24.241 246.474 22.1518C248.953 16.5638 252.881 11.6855 257.829 8.05686C263.776 3.69843 271.123 1.2993 278.52 1.2993C285.917 1.2993 293.264 3.69843 299.211 8.05686C304.159 11.6855 308.087 16.5538 310.566 22.1518C311.496 24.241 312.245 26.4102 312.985 28.5095C314.205 31.9982 315.464 35.6069 317.533 38.9557C323.031 47.8425 331.607 53.8103 341.253 55.7296Z" fill="#A58C79"/>
<path d="M319.042 71.2542C319.272 71.2542 319.502 71.1242 319.622 70.9043C319.792 70.5844 319.672 70.1946 319.352 70.0246C311.236 65.7062 305.098 57.1993 301.37 50.8216C299.391 47.4328 298.071 44.044 296.792 40.7752C294.743 35.5471 293.124 31.4086 289.505 28.5496C286.317 26.0405 282.428 24.631 278.54 24.591C274.672 24.5711 270.843 25.8806 267.775 28.2797C264.056 31.1787 262.697 34.9173 260.808 40.0854C259.668 43.1943 258.379 46.723 256.379 50.2318C253.241 55.7198 246.624 65.5462 237.578 69.7347C237.248 69.8847 237.108 70.2745 237.258 70.6044C237.408 70.9343 237.797 71.0742 238.127 70.9243C247.503 66.5759 254.3 56.4995 257.519 50.8815C259.578 47.2828 260.888 43.7041 262.047 40.5353C263.856 35.5671 265.176 31.9784 268.594 29.3093C271.433 27.0901 274.951 25.8806 278.55 25.8906C282.148 25.9206 285.757 27.2301 288.716 29.5592C292.064 32.1983 293.623 36.1869 295.603 41.235C296.902 44.5538 298.241 47.9826 300.271 51.4613C304.079 57.979 310.376 66.6958 318.763 71.1542C318.863 71.2042 318.962 71.2342 319.072 71.2342L319.042 71.2542Z" fill="#A58C79"/>
<path d="M278.53 78.3616C279.969 78.3616 281.139 77.192 281.139 75.7525V63.8469C281.139 62.4074 279.969 61.2378 278.53 61.2378C277.091 61.2378 275.921 62.4074 275.921 63.8469V75.7525C275.921 77.192 277.091 78.3616 278.53 78.3616Z" fill="#A58C79"/>
<path d="M278.53 84.4292C279.969 84.4292 281.139 85.5988 281.139 87.0383V110.74C280.279 110.8 279.41 110.85 278.53 110.85C277.65 110.85 276.781 110.81 275.921 110.74V87.0383C275.921 85.5988 277.091 84.4292 278.53 84.4292Z" fill="#A58C79"/>
<path d="M295.373 84.4292C296.812 84.4292 297.981 85.5988 297.981 87.0383V104.782C296.332 105.921 294.583 106.901 292.764 107.741V87.0383C292.764 85.5988 293.933 84.4292 295.373 84.4292Z" fill="#A58C79"/>
<path d="M261.697 84.4292C263.137 84.4292 264.306 85.5988 264.306 87.0383V107.741C262.487 106.911 260.738 105.921 259.088 104.782V87.0383C259.088 85.5988 260.258 84.4292 261.697 84.4292Z" fill="#A58C79"/>
<path d="M279.05 54.4701C277.322 54.4701 275.921 53.0693 275.921 51.3413C275.921 49.6132 277.322 48.2124 279.05 48.2124C280.778 48.2124 282.178 49.6132 282.178 51.3413C282.178 53.0693 280.778 54.4701 279.05 54.4701Z" fill="#A58C79"/>
<path d="M295.892 78.5712C294.165 78.5712 292.764 77.1704 292.764 75.4424C292.764 73.7143 294.165 72.3135 295.892 72.3135C297.62 72.3135 299.021 73.7143 299.021 75.4424C299.021 77.1704 297.62 78.5712 295.892 78.5712Z" fill="#A58C79"/>
<path d="M261.177 78.5712C259.449 78.5712 258.049 77.1704 258.049 75.4424C258.049 73.7143 259.449 72.3135 261.177 72.3135C262.905 72.3135 264.306 73.7143 264.306 75.4424C264.306 77.1704 262.905 78.5712 261.177 78.5712Z" fill="#A58C79"/>
<path d="M227.052 60.6978C235.968 60.5079 243.705 48.7322 246.634 43.614C248.273 40.7551 249.392 37.6862 250.472 34.7272C252.601 28.9093 254.8 22.8915 260.867 18.1432C265.825 14.2746 271.973 12.1654 278.19 12.2254C284.387 12.2853 290.565 14.4945 295.563 18.4431C301.42 23.0714 303.839 29.2492 306.178 35.2171C307.357 38.226 308.567 41.3248 310.216 44.1438C313.065 49.0221 320.262 59.8981 328.548 61.4776C327.969 61.8474 327.389 62.2273 326.829 62.6371C325.68 63.4768 324.6 64.3965 323.56 65.3662C315.464 61.7575 309.107 52.7107 305.668 46.8029C303.819 43.634 302.53 40.3352 301.28 37.1464C299.101 31.5784 297.042 26.3203 292.304 22.5816C288.206 19.3528 283.178 17.5434 278.14 17.5035C273.122 17.4635 268.124 19.1629 264.106 22.3017C259.218 26.1203 257.459 30.9486 255.41 36.5466C254.25 39.7154 253.051 42.9942 251.192 46.2431C247.723 52.3009 241.206 61.6775 232.74 64.8763C231.87 64.0966 230.97 63.3369 230.021 62.6471C229.061 61.9474 228.062 61.3176 227.042 60.7178L227.052 60.6978Z" fill="#A58C79"/>
<path d="M348.02 166.59C360.345 166.59 371.73 160.072 378.487 149.156C380.566 145.807 381.825 142.198 383.035 138.71C383.764 136.61 384.524 134.441 385.454 132.352C387.933 126.764 391.861 121.886 396.809 118.257C402.756 113.899 410.103 111.499 417.5 111.499C417.86 111.499 418.15 111.21 418.15 110.85C418.15 110.49 417.86 110.2 417.5 110.2C405.635 110.2 394.66 103.912 388.143 93.386C386.143 90.1572 384.964 86.7784 383.714 83.1997C382.975 81.0805 382.205 78.8813 381.256 76.742C378.687 70.9441 374.618 65.886 369.481 62.1273C363.313 57.609 355.687 55.1099 348.02 55.1099C340.353 55.1099 332.726 57.599 326.559 62.1273C321.431 65.886 317.353 70.9441 314.784 76.742C313.835 78.8813 313.065 81.0805 312.325 83.1997C311.076 86.7784 309.896 90.1572 307.897 93.386C301.38 103.912 290.405 110.2 278.54 110.2C278.18 110.2 277.89 110.49 277.89 110.85C277.89 111.21 278.18 111.499 278.54 111.499C285.937 111.499 293.283 113.899 299.231 118.257C304.179 121.886 308.107 126.754 310.586 132.352C311.516 134.441 312.265 136.61 313.005 138.71C314.224 142.198 315.484 145.807 317.553 149.156C324.31 160.072 335.705 166.59 348.02 166.59ZM410.743 110.83C405.445 111.839 400.377 114.019 396.029 117.197C390.901 120.956 386.823 126.014 384.254 131.812C383.305 133.951 382.535 136.151 381.795 138.27C380.546 141.849 379.366 145.227 377.367 148.456C370.85 158.982 359.875 165.27 348.01 165.27C336.145 165.27 325.17 158.982 318.653 148.456C316.653 145.227 315.474 141.849 314.224 138.27C313.485 136.151 312.715 133.951 311.766 131.812C309.197 126.014 305.128 120.956 299.991 117.197C295.642 114.009 290.575 111.829 285.277 110.83C294.923 108.92 303.489 102.943 308.997 94.0558C311.076 90.707 312.325 87.0983 313.545 83.6096C314.274 81.5103 315.034 79.3411 315.964 77.2519C318.443 71.6639 322.371 66.7856 327.319 63.157C333.266 58.7985 340.613 56.3994 348.01 56.3994C355.407 56.3994 362.754 58.7985 368.701 63.157C373.649 66.7856 377.577 71.6539 380.056 77.2519C380.986 79.3411 381.735 81.5103 382.475 83.6096C383.695 87.0983 384.954 90.707 387.023 94.0558C392.521 102.943 401.097 108.91 410.743 110.83Z" fill="#A58C79"/>
<path d="M388.522 126.354C388.752 126.354 388.982 126.224 389.102 126.004C389.272 125.684 389.152 125.294 388.832 125.125C380.716 120.806 374.578 112.299 370.85 105.921C368.871 102.533 367.551 99.1439 366.272 95.8751C364.223 90.647 362.604 86.5085 358.985 83.6495C355.797 81.1405 351.908 79.731 348.02 79.691C344.142 79.681 340.323 80.9805 337.255 83.3796C333.536 86.2786 332.177 90.0172 330.288 95.1854C329.148 98.2943 327.859 101.823 325.859 105.332C322.721 110.82 316.104 120.646 307.058 124.835C306.728 124.985 306.588 125.374 306.738 125.704C306.888 126.034 307.277 126.174 307.607 126.024C316.983 121.676 323.78 111.599 326.999 105.981C329.058 102.383 330.367 98.8041 331.527 95.6352C333.336 90.667 334.656 87.0783 338.074 84.4093C340.913 82.1901 344.431 80.9805 348.03 80.9905C351.628 81.0205 355.237 82.33 358.195 84.6592C361.544 87.2982 363.103 91.2868 365.083 96.335C366.382 99.6538 367.721 103.083 369.75 106.561C373.559 113.079 379.856 121.796 388.243 126.254C388.342 126.304 388.442 126.334 388.552 126.334L388.522 126.354Z" fill="#A58C79"/>
<path d="M348.02 133.462C349.459 133.462 350.629 132.292 350.629 130.853V118.947C350.629 117.507 349.459 116.338 348.02 116.338C346.581 116.338 345.411 117.507 345.411 118.947V130.853C345.411 132.292 346.581 133.462 348.02 133.462Z" fill="#A58C79"/>
<path d="M348.02 139.529C349.459 139.529 350.629 140.699 350.629 142.138V165.84C349.769 165.9 348.9 165.95 348.02 165.95C347.14 165.95 346.271 165.91 345.411 165.84V142.138C345.411 140.699 346.581 139.529 348.02 139.529Z" fill="#A58C79"/>
<path d="M364.853 139.529C366.292 139.529 367.462 140.699 367.462 142.138V159.882C365.812 161.022 364.063 162.001 362.244 162.841V142.138C362.244 140.699 363.413 139.529 364.853 139.529Z" fill="#A58C79"/>
<path d="M331.177 139.529C332.616 139.529 333.786 140.699 333.786 142.138V162.841C331.967 162.011 330.218 161.022 328.568 159.882V142.138C328.568 140.699 329.738 139.529 331.177 139.529Z" fill="#A58C79"/>
<path d="M348.54 109.56C346.812 109.56 345.411 108.159 345.411 106.431C345.411 104.703 346.812 103.302 348.54 103.302C350.268 103.302 351.668 104.703 351.668 106.431C351.668 108.159 350.268 109.56 348.54 109.56Z" fill="#A58C79"/>
<path d="M362.244 130.542C362.244 132.272 363.643 133.671 365.372 133.671C367.102 133.671 368.501 132.272 368.501 130.542C368.501 128.813 367.102 127.414 365.372 127.414C363.643 127.414 362.244 128.813 362.244 130.542Z" fill="#A58C79"/>
<path d="M330.657 133.671C328.929 133.671 327.529 132.27 327.529 130.542C327.529 128.814 328.929 127.414 330.657 127.414C332.385 127.414 333.786 128.814 333.786 130.542C333.786 132.27 332.385 133.671 330.657 133.671Z" fill="#A58C79"/>
<path d="M296.532 115.798C305.448 115.608 313.185 103.832 316.114 98.7141C317.753 95.8552 318.872 92.7863 319.952 89.8273C322.081 84.0094 324.28 77.9916 330.348 73.2433C335.305 69.3747 341.453 67.2655 347.67 67.3255C353.867 67.3854 360.045 69.5946 365.043 73.5432C370.9 78.1715 373.319 84.3493 375.658 90.3172C376.837 93.3261 378.047 96.4249 379.696 99.2439C382.545 104.122 389.742 114.998 398.028 116.578C397.449 116.948 396.869 117.327 396.309 117.737C395.16 118.577 394.08 119.497 393.04 120.466C384.944 116.858 378.587 107.811 375.148 101.903C373.299 98.7341 372.01 95.4353 370.76 92.2465C368.581 86.6785 366.522 81.4204 361.784 77.6817C357.686 74.4529 352.658 72.6435 347.62 72.6036C342.602 72.5636 337.604 74.263 333.586 77.4018C328.698 81.2204 326.939 86.0487 324.89 91.6467C323.73 94.8155 322.531 98.0943 320.672 101.343C317.203 107.401 310.686 116.778 302.22 119.976C301.35 119.197 300.45 118.437 299.501 117.747C298.541 117.047 297.542 116.418 296.522 115.818L296.532 115.798Z" fill="#A58C79"/>
<path d="M417.5 221.68C429.825 221.68 441.21 215.162 447.967 204.246C450.046 200.897 451.305 197.288 452.515 193.8C453.245 191.7 454.004 189.531 454.934 187.442C457.413 181.854 461.341 176.976 466.289 173.347C472.236 168.989 479.583 166.59 486.98 166.59C487.34 166.59 487.63 166.3 487.63 165.94C487.63 165.58 487.34 165.29 486.98 165.29C475.115 165.29 464.14 159.002 457.623 148.476C455.624 145.247 454.444 141.868 453.195 138.28C452.455 136.161 451.685 133.961 450.736 131.822C448.167 126.024 444.099 120.966 438.961 117.207C432.793 112.689 425.167 110.19 417.5 110.19C409.833 110.19 402.207 112.679 396.039 117.207C390.911 120.966 386.833 126.024 384.264 131.822C383.315 133.961 382.545 136.161 381.805 138.28C380.556 141.858 379.376 145.237 377.377 148.466C370.86 158.992 359.885 165.28 348.02 165.28C347.66 165.28 347.37 165.57 347.37 165.93C347.37 166.29 347.66 166.58 348.02 166.58C355.417 166.58 362.764 168.979 368.711 173.337C373.659 176.966 377.587 181.834 380.066 187.432C380.996 189.521 381.745 191.69 382.485 193.79C383.705 197.278 384.964 200.887 387.033 204.236C393.79 215.152 405.185 221.67 417.5 221.67V221.68ZM480.223 165.92C474.925 166.929 469.857 169.109 465.509 172.287C460.382 176.046 456.303 181.104 453.734 186.902C452.785 189.041 452.015 191.241 451.275 193.36C450.026 196.939 448.846 200.317 446.847 203.546C440.33 214.072 429.355 220.36 417.49 220.36C405.625 220.36 394.65 214.072 388.133 203.546C386.134 200.317 384.954 196.939 383.705 193.36C382.965 191.241 382.195 189.041 381.246 186.902C378.677 181.104 374.608 176.046 369.471 172.287C365.123 169.099 360.055 166.919 354.757 165.92C364.403 164.01 372.969 158.033 378.477 149.146C380.556 145.797 381.815 142.188 383.025 138.7C383.755 136.6 384.514 134.431 385.444 132.342C387.923 126.754 391.851 121.876 396.799 118.247C402.746 113.889 410.093 111.489 417.49 111.489C424.887 111.489 432.234 113.889 438.181 118.247C443.129 121.876 447.057 126.744 449.536 132.342C450.466 134.431 451.215 136.6 451.955 138.7C453.175 142.188 454.434 145.797 456.503 149.146C462.001 158.033 470.577 164 480.223 165.92Z" fill="#A58C79"/>
<path d="M458.003 181.444C458.232 181.444 458.462 181.314 458.582 181.094C458.752 180.774 458.632 180.385 458.312 180.215C450.196 175.896 444.059 167.389 440.33 161.012C438.351 157.623 437.032 154.234 435.752 150.965C433.703 145.737 432.084 141.599 428.465 138.74C425.277 136.23 421.388 134.821 417.5 134.781C413.612 134.761 409.803 136.071 406.735 138.47C403.016 141.369 401.657 145.107 399.768 150.275C398.628 153.384 397.339 156.913 395.34 160.422C392.201 165.91 385.584 175.736 376.538 179.925C376.208 180.075 376.068 180.464 376.218 180.794C376.368 181.124 376.758 181.264 377.087 181.114C386.463 176.766 393.26 166.689 396.479 161.071C398.538 157.473 399.848 153.894 401.007 150.725C402.816 145.757 404.136 142.168 407.554 139.499C410.393 137.28 413.922 136.071 417.51 136.081C421.108 136.111 424.717 137.42 427.676 139.749C431.024 142.388 432.583 146.377 434.563 151.425C435.862 154.744 437.201 158.173 439.231 161.651C443.039 168.169 449.336 176.886 457.723 181.344C457.823 181.394 457.923 181.424 458.033 181.424L458.003 181.444Z" fill="#A58C79"/>
<path d="M417.5 188.552C418.939 188.552 420.109 187.382 420.109 185.942V174.037C420.109 172.597 418.939 171.428 417.5 171.428C416.061 171.428 414.891 172.597 414.891 174.037V185.942C414.891 187.382 416.061 188.552 417.5 188.552Z" fill="#A58C79"/>
<path d="M417.5 194.62C418.939 194.62 420.109 195.789 420.109 197.229V220.93C419.249 220.99 418.38 221.04 417.5 221.04C416.62 221.04 415.751 221 414.891 220.93V197.229C414.891 195.789 416.061 194.62 417.5 194.62Z" fill="#A58C79"/>
<path d="M434.333 194.62C435.772 194.62 436.942 195.789 436.942 197.229V214.972C435.292 216.112 433.543 217.091 431.724 217.931V197.229C431.724 195.789 432.893 194.62 434.333 194.62Z" fill="#A58C79"/>
<path d="M400.657 194.62C402.097 194.62 403.266 195.789 403.266 197.229V217.931C401.447 217.101 399.698 216.112 398.048 214.972V197.229C398.048 195.789 399.218 194.62 400.657 194.62Z" fill="#A58C79"/>
<path d="M418.02 164.66C416.292 164.66 414.891 163.259 414.891 161.531C414.891 159.803 416.292 158.402 418.02 158.402C419.748 158.402 421.148 159.803 421.148 161.531C421.148 163.259 419.748 164.66 418.02 164.66Z" fill="#A58C79"/>
<path d="M434.853 188.762C433.125 188.762 431.724 187.361 431.724 185.633C431.724 183.905 433.125 182.504 434.853 182.504C436.58 182.504 437.981 183.905 437.981 185.633C437.981 187.361 436.58 188.762 434.853 188.762Z" fill="#A58C79"/>
<path d="M400.137 188.762C398.41 188.762 397.009 187.361 397.009 185.633C397.009 183.905 398.41 182.504 400.137 182.504C401.865 182.504 403.266 183.905 403.266 185.633C403.266 187.361 401.865 188.762 400.137 188.762Z" fill="#A58C79"/>
<path d="M366.022 170.888C374.938 170.698 382.675 158.922 385.604 153.804C387.243 150.945 388.363 147.876 389.442 144.917C391.571 139.099 393.77 133.081 399.838 128.333C404.795 124.465 410.943 122.355 417.16 122.415C423.357 122.475 429.535 124.684 434.533 128.633C440.39 133.261 442.809 139.439 445.148 145.407C446.328 148.416 447.537 151.515 449.186 154.334C452.035 159.212 459.232 170.088 467.518 171.667C466.939 172.037 466.359 172.417 465.799 172.827C464.65 173.667 463.57 174.586 462.531 175.556C454.434 171.947 448.077 162.901 444.638 156.993C442.789 153.824 441.5 150.525 440.25 147.336C438.071 141.768 436.012 136.51 431.274 132.772C427.176 129.543 422.148 127.733 417.11 127.693C412.092 127.653 407.094 129.353 403.076 132.492C398.188 136.31 396.429 141.139 394.38 146.737C393.22 149.905 392.021 153.184 390.162 156.433C386.693 162.491 380.176 171.867 371.71 175.066C370.84 174.287 369.941 173.527 368.991 172.837C368.031 172.137 367.032 171.508 366.012 170.908L366.022 170.888Z" fill="#A58C79"/>
<path d="M278.53 221.679C290.855 221.679 302.24 215.162 308.997 204.246C311.076 200.897 312.335 197.288 313.545 193.799C314.274 191.7 315.034 189.531 315.964 187.442C318.443 181.854 322.371 176.976 327.319 173.347C333.266 168.988 340.613 166.589 348.01 166.589C348.37 166.589 348.66 166.299 348.66 165.94C348.66 165.58 348.37 165.29 348.01 165.29C336.145 165.29 325.17 159.002 318.653 148.476C316.653 145.247 315.474 141.868 314.224 138.29C313.485 136.17 312.715 133.971 311.766 131.832C309.197 126.034 305.128 120.976 299.991 117.217C293.823 112.699 286.197 110.2 278.53 110.2C270.863 110.2 263.236 112.689 257.069 117.217C251.941 120.976 247.863 126.034 245.294 131.832C244.345 133.971 243.575 136.17 242.835 138.29C241.586 141.868 240.406 145.247 238.407 148.476C231.89 159.002 220.915 165.29 209.05 165.29C208.69 165.29 208.4 165.58 208.4 165.94C208.4 166.299 208.69 166.589 209.05 166.589C216.447 166.589 223.793 168.988 229.741 173.347C234.689 176.976 238.617 181.844 241.096 187.442C242.026 189.531 242.775 191.7 243.515 193.799C244.734 197.288 245.994 200.897 248.063 204.246C254.82 215.162 266.215 221.679 278.53 221.679ZM341.253 165.92C335.955 166.929 330.887 169.108 326.539 172.287C321.411 176.046 317.333 181.104 314.764 186.902C313.815 189.041 313.045 191.24 312.305 193.36C311.056 196.938 309.876 200.317 307.877 203.546C301.36 214.072 290.385 220.36 278.52 220.36C266.655 220.36 255.68 214.072 249.163 203.546C247.163 200.317 245.984 196.938 244.734 193.36C243.995 191.24 243.225 189.041 242.275 186.902C239.707 181.104 235.638 176.046 230.501 172.287C226.152 169.098 221.085 166.919 215.787 165.92C225.433 164.01 233.999 158.032 239.507 149.146C241.586 145.797 242.845 142.188 244.055 138.699C244.784 136.6 245.544 134.431 246.474 132.342C248.953 126.754 252.881 121.875 257.829 118.247C263.776 113.888 271.123 111.489 278.52 111.489C285.917 111.489 293.264 113.888 299.211 118.247C304.159 121.875 308.087 126.744 310.566 132.342C311.496 134.431 312.245 136.6 312.985 138.699C314.205 142.188 315.464 145.797 317.533 149.146C323.031 158.032 331.607 164 341.253 165.92Z" fill="#A58C79"/>
<path d="M319.042 181.444C319.272 181.444 319.502 181.314 319.622 181.094C319.792 180.774 319.672 180.385 319.352 180.215C311.236 175.896 305.098 167.389 301.37 161.012C299.391 157.623 298.071 154.234 296.792 150.965C294.743 145.737 293.124 141.599 289.505 138.74C286.317 136.23 282.428 134.821 278.54 134.781C274.672 134.761 270.843 136.071 267.775 138.47C264.056 141.369 262.697 145.107 260.808 150.275C259.668 153.384 258.379 156.913 256.379 160.422C253.241 165.91 246.624 175.736 237.578 179.925C237.248 180.075 237.108 180.464 237.258 180.794C237.408 181.124 237.797 181.264 238.127 181.114C247.503 176.766 254.3 166.689 257.519 161.071C259.578 157.473 260.888 153.894 262.047 150.725C263.856 145.757 265.176 142.168 268.594 139.499C271.433 137.28 274.951 136.071 278.55 136.081C282.148 136.111 285.757 137.42 288.716 139.749C292.064 142.388 293.623 146.377 295.603 151.425C296.902 154.744 298.241 158.173 300.271 161.651C304.079 168.169 310.376 176.886 318.763 181.344C318.863 181.394 318.962 181.424 319.072 181.424L319.042 181.444Z" fill="#A58C79"/>
<path d="M278.53 188.552C279.969 188.552 281.139 187.382 281.139 185.942V174.037C281.139 172.597 279.969 171.428 278.53 171.428C277.091 171.428 275.921 172.597 275.921 174.037V185.942C275.921 187.382 277.091 188.552 278.53 188.552Z" fill="#A58C79"/>
<path d="M278.53 194.619C279.969 194.619 281.139 195.789 281.139 197.228V220.93C280.279 220.99 279.41 221.04 278.53 221.04C277.65 221.04 276.781 221 275.921 220.93V197.228C275.921 195.789 277.091 194.619 278.53 194.619Z" fill="#A58C79"/>
<path d="M295.373 194.619C296.812 194.619 297.981 195.789 297.981 197.228V214.972C296.332 216.111 294.583 217.091 292.764 217.931V197.228C292.764 195.789 293.933 194.619 295.373 194.619Z" fill="#A58C79"/>
<path d="M261.697 194.619C263.137 194.619 264.306 195.789 264.306 197.228V217.931C262.487 217.101 260.738 216.111 259.088 214.972V197.228C259.088 195.789 260.258 194.619 261.697 194.619Z" fill="#A58C79"/>
<path d="M279.05 164.66C277.322 164.66 275.921 163.259 275.921 161.531C275.921 159.803 277.322 158.402 279.05 158.402C280.778 158.402 282.178 159.803 282.178 161.531C282.178 163.259 280.778 164.66 279.05 164.66Z" fill="#A58C79"/>
<path d="M295.892 188.761C294.165 188.761 292.764 187.36 292.764 185.632C292.764 183.904 294.165 182.503 295.892 182.503C297.62 182.503 299.021 183.904 299.021 185.632C299.021 187.36 297.62 188.761 295.892 188.761Z" fill="#A58C79"/>
<path d="M261.177 188.761C259.449 188.761 258.049 187.36 258.049 185.632C258.049 183.904 259.449 182.503 261.177 182.503C262.905 182.503 264.306 183.904 264.306 185.632C264.306 187.36 262.905 188.761 261.177 188.761Z" fill="#A58C79"/>
<path d="M227.052 170.888C235.968 170.698 243.705 158.922 246.634 153.804C248.273 150.945 249.392 147.876 250.472 144.917C252.601 139.099 254.8 133.081 260.867 128.333C265.825 124.465 271.973 122.355 278.19 122.415C284.387 122.475 290.565 124.684 295.563 128.633C301.42 133.261 303.839 139.439 306.178 145.407C307.357 148.416 308.567 151.515 310.216 154.334C313.065 159.212 320.262 170.088 328.548 171.667C327.969 172.037 327.389 172.417 326.829 172.827C325.68 173.667 324.6 174.586 323.56 175.556C315.464 171.947 309.107 162.901 305.668 156.993C303.819 153.824 302.53 150.525 301.28 147.336C299.101 141.768 297.042 136.51 292.304 132.772C288.206 129.543 283.178 127.733 278.14 127.693C273.122 127.653 268.124 129.353 264.106 132.492C259.218 136.31 257.459 141.139 255.41 146.737C254.25 149.905 253.051 153.184 251.192 156.433C247.723 162.491 241.206 171.867 232.74 175.066C231.87 174.287 230.97 173.527 230.021 172.837C229.061 172.137 228.062 171.508 227.042 170.908L227.052 170.888Z" fill="#A58C79"/>
<path d="M348.02 276.78C360.345 276.78 371.73 270.262 378.487 259.346C380.566 255.997 381.825 252.388 383.035 248.9C383.764 246.8 384.524 244.631 385.454 242.542C387.933 236.954 391.861 232.076 396.809 228.447C402.756 224.089 410.103 221.689 417.5 221.689C417.86 221.689 418.15 221.4 418.15 221.04C418.15 220.68 417.86 220.39 417.5 220.39C405.635 220.39 394.66 214.102 388.143 203.576C386.143 200.347 384.964 196.968 383.714 193.39C382.975 191.27 382.205 189.071 381.256 186.932C378.687 181.134 374.618 176.076 369.481 172.317C363.313 167.799 355.687 165.3 348.02 165.3C340.343 165.3 332.726 167.789 326.559 172.317C321.431 176.076 317.353 181.134 314.784 186.932C313.835 189.071 313.065 191.27 312.325 193.39C311.076 196.968 309.896 200.347 307.897 203.576C301.38 214.102 290.405 220.39 278.54 220.39C278.18 220.39 277.89 220.68 277.89 221.04C277.89 221.4 278.18 221.689 278.54 221.689C285.937 221.689 293.283 224.089 299.231 228.447C304.179 232.076 308.107 236.944 310.586 242.542C311.516 244.631 312.265 246.8 313.005 248.9C314.224 252.388 315.484 255.997 317.553 259.346C324.31 270.262 335.705 276.78 348.02 276.78ZM410.743 221.02C405.445 222.029 400.377 224.209 396.029 227.387C390.901 231.146 386.823 236.204 384.254 242.002C383.305 244.141 382.535 246.341 381.795 248.46C380.546 252.038 379.366 255.417 377.367 258.646C370.85 269.172 359.875 275.46 348.01 275.46C336.145 275.46 325.17 269.172 318.653 258.646C316.653 255.417 315.474 252.038 314.224 248.46C313.485 246.341 312.715 244.141 311.766 242.002C309.197 236.204 305.128 231.146 299.991 227.387C295.642 224.199 290.575 222.019 285.277 221.02C294.923 219.11 303.489 213.133 308.997 204.246C311.076 200.897 312.325 197.288 313.545 193.799C314.274 191.7 315.034 189.531 315.964 187.442C318.443 181.854 322.371 176.976 327.319 173.347C333.266 168.988 340.613 166.589 348.01 166.589C355.407 166.589 362.754 168.988 368.701 173.347C373.649 176.976 377.577 181.844 380.056 187.442C380.986 189.531 381.735 191.7 382.475 193.799C383.695 197.288 384.954 200.897 387.023 204.246C392.521 213.133 401.097 219.1 410.743 221.02Z" fill="#A58C79"/>
<path d="M388.522 236.544C388.752 236.544 388.982 236.414 389.102 236.194C389.272 235.874 389.152 235.484 388.832 235.314C380.716 230.996 374.578 222.489 370.85 216.111C368.871 212.723 367.551 209.334 366.272 206.065C364.223 200.837 362.604 196.698 358.985 193.839C355.797 191.33 351.908 189.921 348.02 189.881C344.142 189.871 340.323 191.17 337.255 193.57C333.536 196.469 332.177 200.207 330.288 205.375C329.148 208.484 327.859 212.013 325.859 215.522C322.721 221.01 316.104 230.836 307.058 235.025C306.728 235.175 306.588 235.564 306.738 235.894C306.888 236.224 307.277 236.364 307.607 236.214C316.983 231.866 323.78 221.789 326.999 216.171C329.058 212.573 330.367 208.994 331.527 205.825C333.336 200.857 334.656 197.268 338.074 194.599C340.913 192.38 344.431 191.17 348.03 191.18C351.628 191.21 355.237 192.52 358.195 194.849C361.544 197.488 363.103 201.477 365.083 206.525C366.382 209.844 367.721 213.272 369.75 216.751C373.559 223.269 379.856 231.986 388.243 236.444C388.342 236.494 388.442 236.524 388.552 236.524L388.522 236.544Z" fill="#A58C79"/>
<path d="M348.02 243.641C349.459 243.641 350.629 242.472 350.629 241.032V229.127C350.629 227.687 349.459 226.518 348.02 226.518C346.581 226.518 345.411 227.687 345.411 229.127V241.032C345.411 242.472 346.581 243.641 348.02 243.641Z" fill="#A58C79"/>
<path d="M348.02 249.709C349.459 249.709 350.629 250.879 350.629 252.319V276.02C349.769 276.08 348.9 276.13 348.02 276.13C347.14 276.13 346.271 276.09 345.411 276.02V252.319C345.411 250.879 346.581 249.709 348.02 249.709Z" fill="#A58C79"/>
<path d="M364.853 249.709C366.292 249.709 367.462 250.879 367.462 252.319V270.062C365.812 271.202 364.063 272.181 362.244 273.021V252.319C362.244 250.879 363.413 249.709 364.853 249.709Z" fill="#A58C79"/>
<path d="M331.177 249.709C332.616 249.709 333.786 250.879 333.786 252.319V273.021C331.967 272.191 330.218 271.202 328.568 270.062V252.319C328.568 250.879 329.738 249.709 331.177 249.709Z" fill="#A58C79"/>
<path d="M348.54 219.75C346.812 219.75 345.411 218.349 345.411 216.621C345.411 214.893 346.812 213.492 348.54 213.492C350.268 213.492 351.668 214.893 351.668 216.621C351.668 218.349 350.268 219.75 348.54 219.75Z" fill="#A58C79"/>
<path d="M362.244 240.732C362.244 242.462 363.643 243.861 365.372 243.861C367.102 243.861 368.501 242.462 368.501 240.732C368.501 239.003 367.102 237.604 365.372 237.604C363.643 237.604 362.244 239.003 362.244 240.732Z" fill="#A58C79"/>
<path d="M330.657 243.861C328.929 243.861 327.529 242.46 327.529 240.732C327.529 239.004 328.929 237.604 330.657 237.604C332.385 237.604 333.786 239.004 333.786 240.732C333.786 242.46 332.385 243.861 330.657 243.861Z" fill="#A58C79"/>
<path d="M296.532 225.988C305.448 225.798 313.185 214.022 316.114 208.904C317.753 206.045 318.872 202.976 319.952 200.017C322.081 194.199 324.28 188.182 330.348 183.433C335.305 179.565 341.453 177.455 347.67 177.515C353.867 177.575 360.045 179.785 365.043 183.733C370.9 188.361 373.319 194.539 375.658 200.507C376.837 203.516 378.047 206.615 379.696 209.434C382.545 214.312 389.742 225.188 398.028 226.768C397.449 227.137 396.869 227.517 396.309 227.927C395.16 228.767 394.08 229.687 393.04 230.656C384.944 227.048 378.587 218.001 375.148 212.093C373.299 208.924 372.01 205.625 370.76 202.436C368.581 196.868 366.522 191.61 361.784 187.872C357.686 184.643 352.658 182.833 347.62 182.793C342.602 182.754 337.604 184.453 333.586 187.592C328.698 191.41 326.939 196.239 324.89 201.837C323.73 205.005 322.531 208.284 320.672 211.533C317.203 217.591 310.686 226.968 302.22 230.166C301.35 229.387 300.45 228.627 299.501 227.937C298.541 227.237 297.542 226.608 296.522 226.008L296.532 225.988Z" fill="#A58C79"/>
<path d="M625.87 166.59C638.195 166.59 649.58 160.072 656.337 149.156C658.416 145.807 659.676 142.199 660.885 138.71C661.615 136.611 662.374 134.441 663.304 132.352C665.783 126.764 669.711 121.886 674.659 118.257C680.607 113.899 687.953 111.5 695.35 111.5C695.71 111.5 696 111.21 696 110.85C696 110.49 695.71 110.2 695.35 110.2C683.485 110.2 672.51 103.912 665.993 93.3863C663.994 90.1574 662.814 86.7787 661.565 83.1899C660.825 81.0707 660.055 78.8715 659.106 76.7323C656.537 70.9344 652.469 65.8762 647.331 62.1176C641.164 57.5992 633.537 55.1001 625.87 55.1001C618.204 55.1001 610.577 57.5892 604.409 62.1176C599.282 65.8762 595.203 70.9344 592.635 76.7323C591.685 78.8715 590.915 81.0707 590.176 83.1899C588.926 86.7687 587.747 90.1474 585.748 93.3763C579.23 103.902 568.255 110.19 556.39 110.19C556.03 110.19 555.74 110.48 555.74 110.84C555.74 111.2 556.03 111.49 556.39 111.49C563.787 111.49 571.134 113.889 577.081 118.247C582.029 121.876 585.957 126.744 588.436 132.342C589.366 134.431 590.116 136.601 590.855 138.7C592.075 142.189 593.334 145.797 595.403 149.146C602.16 160.062 613.556 166.58 625.87 166.58V166.59ZM688.593 110.83C683.295 111.84 678.228 114.019 673.88 117.198C668.752 120.956 664.674 126.014 662.105 131.812C661.155 133.952 660.385 136.151 659.646 138.27C658.396 141.849 657.217 145.228 655.218 148.456C648.7 158.983 637.725 165.27 625.86 165.27C613.995 165.27 603.02 158.983 596.503 148.456C594.504 145.228 593.324 141.849 592.075 138.27C591.335 136.151 590.565 133.952 589.616 131.812C587.047 126.014 582.979 120.956 577.841 117.198C573.493 114.009 568.425 111.83 563.127 110.83C572.773 108.921 581.339 102.943 586.847 94.056C588.926 90.7072 590.186 87.0985 591.395 83.6098C592.125 81.5106 592.884 79.3413 593.814 77.2521C596.293 71.6641 600.221 66.7859 605.169 63.1572C611.117 58.7988 618.463 56.3996 625.86 56.3996C633.257 56.3996 640.604 58.7988 646.551 63.1572C651.499 66.7859 655.427 71.6541 657.906 77.2521C658.836 79.3413 659.586 81.5106 660.325 83.6098C661.545 87.0985 662.804 90.7072 664.873 94.056C670.371 102.943 678.947 108.911 688.593 110.83Z" fill="#A58C79"/>
<path d="M666.373 126.354C666.603 126.354 666.833 126.224 666.953 126.004C667.122 125.685 667.002 125.295 666.683 125.125C658.566 120.806 652.429 112.299 648.7 105.922C646.721 102.533 645.402 99.1441 644.122 95.8753C642.073 90.6472 640.454 86.5087 636.836 83.6497C633.647 81.1406 629.759 79.7311 625.87 79.6911C621.982 79.6712 618.174 80.9807 615.105 83.3798C611.386 86.2788 610.027 90.0174 608.138 95.1855C606.998 98.2944 605.709 101.823 603.71 105.332C600.571 110.82 593.954 120.646 584.908 124.835C584.578 124.985 584.438 125.375 584.588 125.705C584.738 126.034 585.128 126.174 585.458 126.024C594.834 121.676 601.631 111.6 604.849 105.982C606.908 102.383 608.218 98.8042 609.377 95.6354C611.187 90.6672 612.506 87.0785 615.925 84.4094C618.763 82.1902 622.292 80.9807 625.88 80.9907C629.479 81.0207 633.087 82.3302 636.046 84.6593C639.394 87.2984 640.954 91.287 642.933 96.3351C644.232 99.6539 645.572 103.083 647.601 106.561C651.409 113.079 657.707 121.796 666.093 126.254C666.193 126.304 666.293 126.334 666.403 126.334L666.373 126.354Z" fill="#A58C79"/>
<path d="M609.027 139.52C610.467 139.52 611.636 140.689 611.636 142.129V162.831C609.817 162.001 608.068 161.012 606.419 159.872V142.129C606.419 140.689 607.588 139.52 609.027 139.52Z" fill="#A58C79"/>
<path d="M608.508 133.672C606.78 133.672 605.379 132.271 605.379 130.543C605.379 128.815 606.78 127.414 608.508 127.414C610.236 127.414 611.636 128.815 611.636 130.543C611.636 132.271 610.236 133.672 608.508 133.672Z" fill="#A58C79"/>
<path d="M574.382 115.798C583.299 115.608 591.035 103.832 593.964 98.7141C595.603 95.8552 596.723 92.7863 597.802 89.8273C599.931 84.0094 602.13 77.9916 608.198 73.2433C613.156 69.3747 619.303 67.2655 625.52 67.3255C631.718 67.3854 637.895 69.5946 642.893 73.5432C648.75 78.1715 651.169 84.3493 653.508 90.3172C654.688 93.3261 655.897 96.4249 657.547 99.2439C660.395 104.122 667.592 114.998 675.879 116.578C675.299 116.948 674.719 117.327 674.159 117.737C673.01 118.577 671.93 119.497 670.891 120.466C662.794 116.858 656.437 107.811 652.999 101.903C651.149 98.7341 649.86 95.4353 648.61 92.2465C646.431 86.6785 644.372 81.4204 639.634 77.6817C635.536 74.4529 630.508 72.6435 625.47 72.6036C620.453 72.5636 615.455 74.263 611.436 77.4018C606.549 81.2204 604.789 86.0487 602.74 91.6467C601.581 94.8155 600.381 98.0943 598.522 101.343C595.054 107.401 588.536 116.778 580.07 119.976C579.2 119.197 578.301 118.437 577.351 117.747C576.392 117.047 575.392 116.418 574.372 115.818L574.382 115.798Z" fill="#A58C79"/>
<path d="M486.9 166.59C499.225 166.59 510.61 160.072 517.367 149.156C519.446 145.807 520.706 142.198 521.915 138.71C522.645 136.61 523.404 134.441 524.334 132.352C526.813 126.764 530.741 121.886 535.689 118.257C541.637 113.899 548.983 111.499 556.38 111.499C556.74 111.499 557.03 111.21 557.03 110.85C557.03 110.49 556.74 110.2 556.38 110.2C544.515 110.2 533.54 103.912 527.023 93.386C525.024 90.1572 523.844 86.7784 522.595 83.1997C521.855 81.0805 521.085 78.8813 520.136 76.742C517.567 70.9441 513.499 65.886 508.361 62.1273C502.194 57.609 494.567 55.1099 486.9 55.1099C479.233 55.1099 471.607 57.599 465.439 62.1273C460.312 65.886 456.233 70.9441 453.664 76.742C452.715 78.8813 451.945 81.0805 451.206 83.1997C449.956 86.7784 448.777 90.1572 446.777 93.386C440.26 103.912 429.285 110.2 417.42 110.2C417.06 110.2 416.77 110.49 416.77 110.85C416.77 111.21 417.06 111.499 417.42 111.499C424.817 111.499 432.164 113.899 438.111 118.257C443.059 121.886 446.987 126.754 449.466 132.352C450.396 134.441 451.146 136.61 451.885 138.71C453.105 142.198 454.364 145.807 456.433 149.156C463.19 160.072 474.585 166.59 486.9 166.59ZM549.623 110.83C544.325 111.839 539.258 114.019 534.909 117.197C529.782 120.956 525.703 126.014 523.135 131.812C522.185 133.951 521.415 136.151 520.676 138.27C519.426 141.849 518.247 145.227 516.247 148.456C509.73 158.982 498.755 165.27 486.89 165.27C475.025 165.27 464.05 158.982 457.533 148.456C455.534 145.227 454.354 141.849 453.105 138.27C452.365 136.151 451.595 133.951 450.646 131.812C448.077 126.014 444.009 120.956 438.871 117.197C434.523 114.009 429.455 111.829 424.157 110.83C433.803 108.92 442.369 102.943 447.877 94.0558C449.956 90.707 451.216 87.0983 452.425 83.6096C453.155 81.5103 453.914 79.3411 454.844 77.2519C457.323 71.6639 461.251 66.7856 466.199 63.157C472.146 58.7985 479.493 56.3994 486.89 56.3994C494.287 56.3994 501.634 58.7985 507.581 63.157C512.529 66.7856 516.457 71.6539 518.936 77.2519C519.866 79.3411 520.616 81.5103 521.355 83.6096C522.575 87.0983 523.834 90.707 525.903 94.0558C531.401 102.943 539.977 108.91 549.623 110.83Z" fill="#A58C79"/>
<path d="M527.403 126.354C527.633 126.354 527.862 126.224 527.982 126.004C528.152 125.685 528.032 125.295 527.713 125.125C519.596 120.806 513.459 112.299 509.73 105.922C507.751 102.533 506.432 99.1441 505.152 95.8753C503.103 90.6472 501.484 86.5087 497.865 83.6497C494.677 81.1406 490.788 79.7311 486.9 79.6911C483.032 79.6712 479.203 80.9807 476.135 83.3798C472.416 86.2788 471.057 90.0174 469.168 95.1855C468.028 98.2944 466.739 101.823 464.74 105.332C461.601 110.82 454.984 120.646 445.938 124.835C445.608 124.985 445.468 125.375 445.618 125.705C445.768 126.034 446.158 126.174 446.488 126.024C455.864 121.676 462.661 111.6 465.879 105.982C467.938 102.383 469.248 98.8042 470.407 95.6354C472.216 90.6672 473.536 87.0785 476.954 84.4094C479.793 82.1902 483.312 80.9807 486.91 80.9907C490.509 81.0207 494.117 82.3302 497.076 84.6593C500.424 87.2984 501.984 91.287 503.963 96.3351C505.262 99.6539 506.602 103.083 508.631 106.561C512.439 113.079 518.736 121.796 527.123 126.254C527.223 126.304 527.323 126.334 527.433 126.334L527.403 126.354Z" fill="#A58C79"/>
<path d="M486.9 133.451C488.34 133.451 489.509 132.282 489.509 130.842V118.937C489.509 117.497 488.34 116.328 486.9 116.328C485.461 116.328 484.291 117.497 484.291 118.937V130.842C484.291 132.282 485.461 133.451 486.9 133.451Z" fill="#A58C79"/>
<path d="M486.9 139.52C488.34 139.52 489.509 140.689 489.509 142.129V165.83C488.649 165.89 487.78 165.94 486.9 165.94C486.021 165.94 485.151 165.9 484.291 165.83V142.129C484.291 140.689 485.461 139.52 486.9 139.52Z" fill="#A58C79"/>
<path d="M503.743 139.52C505.182 139.52 506.352 140.689 506.352 142.129V159.872C504.703 161.012 502.953 161.991 501.134 162.831V142.129C501.134 140.689 502.304 139.52 503.743 139.52Z" fill="#A58C79"/>
<path d="M470.067 139.52C471.507 139.52 472.676 140.689 472.676 142.129V162.831C470.857 162.001 469.108 161.012 467.459 159.872V142.129C467.459 140.689 468.628 139.52 470.067 139.52Z" fill="#A58C79"/>
<path d="M487.42 109.56C485.692 109.56 484.291 108.159 484.291 106.431C484.291 104.703 485.692 103.302 487.42 103.302C489.148 103.302 490.549 104.703 490.549 106.431C490.549 108.159 489.148 109.56 487.42 109.56Z" fill="#A58C79"/>
<path d="M504.263 133.671C502.535 133.671 501.134 132.27 501.134 130.542C501.134 128.814 502.535 127.414 504.263 127.414C505.99 127.414 507.391 128.814 507.391 130.542C507.391 132.27 505.99 133.671 504.263 133.671Z" fill="#A58C79"/>
<path d="M472.666 130.542C472.666 132.272 471.267 133.671 469.538 133.671C467.808 133.671 466.409 132.272 466.409 130.542C466.409 128.813 467.808 127.414 469.538 127.414C471.267 127.414 472.666 128.813 472.666 130.542Z" fill="#A58C79"/>
<path d="M435.422 115.798C444.338 115.608 452.075 103.832 455.004 98.7141C456.643 95.8552 457.763 92.7863 458.842 89.8273C460.971 84.0094 463.17 77.9916 469.238 73.2433C474.196 69.3747 480.343 67.2655 486.56 67.3255C492.758 67.3854 498.935 69.5946 503.933 73.5432C509.79 78.1715 512.209 84.3493 514.548 90.3172C515.728 93.3261 516.937 96.4249 518.586 99.2439C521.435 104.122 528.632 114.998 536.919 116.578C536.339 116.948 535.759 117.327 535.199 117.737C534.05 118.577 532.97 119.497 531.931 120.466C523.834 116.858 517.477 107.811 514.038 101.903C512.189 98.7341 510.9 95.4353 509.65 92.2465C507.471 86.6785 505.412 81.4204 500.674 77.6817C496.576 74.4529 491.548 72.6435 486.51 72.6036C481.492 72.5636 476.495 74.263 472.476 77.4018C467.588 81.2204 465.829 86.0487 463.78 91.6467C462.621 94.8155 461.421 98.0943 459.562 101.343C456.093 107.401 449.576 116.778 441.11 119.976C440.24 119.197 439.341 118.437 438.391 117.747C437.431 117.047 436.432 116.418 435.412 115.818L435.422 115.798Z" fill="#A58C79"/>
<path d="M556.38 221.68C568.705 221.68 580.09 215.162 586.847 204.246C588.926 200.897 590.186 197.289 591.395 193.8C592.125 191.701 592.884 189.532 593.814 187.442C596.293 181.854 600.221 176.976 605.169 173.347C611.117 168.989 618.463 166.59 625.86 166.59C626.22 166.59 626.51 166.3 626.51 165.94C626.51 165.58 626.22 165.29 625.86 165.29C613.995 165.29 603.02 159.003 596.503 148.476C594.504 145.248 593.324 141.869 592.075 138.29C591.335 136.171 590.565 133.972 589.616 131.832C587.047 126.034 582.979 120.976 577.841 117.218C571.674 112.699 564.047 110.2 556.38 110.2C548.704 110.2 541.087 112.689 534.919 117.218C529.792 120.976 525.713 126.034 523.145 131.832C522.195 133.972 521.425 136.171 520.686 138.29C519.436 141.869 518.257 145.248 516.258 148.476C509.74 159.003 498.765 165.29 486.9 165.29C486.54 165.29 486.25 165.58 486.25 165.94C486.25 166.3 486.54 166.59 486.9 166.59C494.297 166.59 501.644 168.989 507.591 173.347C512.539 176.976 516.467 181.844 518.946 187.442C519.876 189.532 520.626 191.701 521.365 193.8C522.585 197.289 523.844 200.897 525.913 204.246C532.67 215.162 544.066 221.68 556.38 221.68ZM619.103 165.92C613.805 166.93 608.738 169.109 604.39 172.288C599.262 176.046 595.184 181.105 592.615 186.902C591.665 189.042 590.895 191.241 590.156 193.36C588.906 196.939 587.727 200.318 585.728 203.546C579.21 214.073 568.235 220.36 556.37 220.36C544.505 220.36 533.53 214.073 527.013 203.546C525.014 200.318 523.834 196.939 522.585 193.36C521.845 191.241 521.075 189.042 520.126 186.902C517.557 181.105 513.489 176.046 508.351 172.288C504.003 169.099 498.935 166.92 493.637 165.92C503.283 164.011 511.849 158.033 517.357 149.146C519.436 145.797 520.686 142.189 521.905 138.7C522.635 136.601 523.394 134.431 524.324 132.342C526.803 126.754 530.731 121.876 535.679 118.247C541.627 113.889 548.973 111.49 556.37 111.49C563.767 111.49 571.114 113.889 577.061 118.247C582.009 121.876 585.937 126.744 588.416 132.342C589.346 134.431 590.096 136.601 590.835 138.7C592.055 142.189 593.314 145.797 595.383 149.146C600.881 158.033 609.457 164.001 619.103 165.92Z" fill="#A58C79"/>
<path d="M596.893 181.444C597.123 181.444 597.353 181.314 597.473 181.095C597.642 180.775 597.523 180.385 597.203 180.215C589.086 175.896 582.949 167.39 579.22 161.012C577.241 157.623 575.922 154.234 574.642 150.965C572.593 145.737 570.974 141.599 567.356 138.74C564.167 136.231 560.279 134.821 556.39 134.781C552.512 134.771 548.694 136.071 545.625 138.47C541.906 141.369 540.547 145.108 538.658 150.276C537.518 153.385 536.229 156.913 534.23 160.422C531.091 165.91 524.474 175.737 515.428 179.925C515.098 180.075 514.958 180.465 515.108 180.795C515.258 181.125 515.648 181.264 515.978 181.115C525.354 176.766 532.151 166.69 535.369 161.072C537.428 157.473 538.738 153.894 539.897 150.726C541.707 145.757 543.026 142.169 546.445 139.5C549.283 137.28 552.802 136.071 556.4 136.081C559.999 136.111 563.607 137.42 566.566 139.75C569.914 142.389 571.474 146.377 573.453 151.425C574.752 154.744 576.092 158.173 578.121 161.652C581.929 168.169 588.227 176.886 596.613 181.344C596.713 181.394 596.813 181.424 596.923 181.424L596.893 181.444Z" fill="#A58C79"/>
<path d="M556.38 188.552C557.82 188.552 558.989 187.382 558.989 185.943V174.037C558.989 172.598 557.82 171.428 556.38 171.428C554.941 171.428 553.771 172.598 553.771 174.037V185.943C553.771 187.382 554.941 188.552 556.38 188.552Z" fill="#A58C79"/>
<path d="M556.38 194.62C557.82 194.62 558.989 195.789 558.989 197.229V220.93C558.13 220.99 557.26 221.04 556.38 221.04C555.501 221.04 554.631 221 553.771 220.93V197.229C553.771 195.789 554.941 194.62 556.38 194.62Z" fill="#A58C79"/>
<path d="M573.223 194.62C574.662 194.62 575.832 195.789 575.832 197.229V214.972C574.182 216.112 572.433 217.091 570.614 217.931V197.229C570.614 195.789 571.784 194.62 573.223 194.62Z" fill="#A58C79"/>
<path d="M539.547 194.62C540.987 194.62 542.156 195.789 542.156 197.229V217.931C540.337 217.101 538.588 216.112 536.939 214.972V197.229C536.939 195.789 538.108 194.62 539.547 194.62Z" fill="#A58C79"/>
<path d="M556.9 164.661C555.172 164.661 553.771 163.26 553.771 161.532C553.771 159.804 555.172 158.403 556.9 158.403C558.628 158.403 560.029 159.804 560.029 161.532C560.029 163.26 558.628 164.661 556.9 164.661Z" fill="#A58C79"/>
<path d="M573.743 188.762C572.015 188.762 570.614 187.361 570.614 185.633C570.614 183.905 572.015 182.504 573.743 182.504C575.471 182.504 576.871 183.905 576.871 185.633C576.871 187.361 575.471 188.762 573.743 188.762Z" fill="#A58C79"/>
<path d="M539.028 188.762C537.3 188.762 535.899 187.361 535.899 185.633C535.899 183.905 537.3 182.504 539.028 182.504C540.756 182.504 542.156 183.905 542.156 185.633C542.156 187.361 540.756 188.762 539.028 188.762Z" fill="#A58C79"/>
<path d="M504.902 170.888C513.819 170.698 521.555 158.923 524.484 153.804C526.123 150.945 527.243 147.877 528.322 144.918C530.451 139.1 532.65 133.082 538.718 128.334C543.676 124.465 549.823 122.356 556.04 122.416C562.238 122.476 568.415 124.685 573.413 128.634C579.27 133.262 581.689 139.44 584.028 145.407C585.208 148.416 586.417 151.515 588.067 154.334C590.915 159.212 598.112 170.089 606.399 171.668C605.819 172.038 605.239 172.418 604.679 172.828C603.53 173.667 602.45 174.587 601.411 175.557C593.314 171.948 586.957 162.901 583.519 156.993C581.669 153.824 580.38 150.526 579.13 147.337C576.951 141.769 574.892 136.511 570.154 132.772C566.056 129.543 561.028 127.734 555.99 127.694C550.973 127.654 545.975 129.353 541.956 132.492C537.069 136.311 535.309 141.139 533.26 146.737C532.101 149.906 530.901 153.185 529.042 156.434C525.574 162.491 519.056 171.868 510.59 175.067C509.72 174.287 508.821 173.527 507.871 172.838C506.912 172.138 505.912 171.508 504.892 170.908L504.902 170.888Z" fill="#A58C79"/>
<path d="M486.9 276.91C499.225 276.91 510.61 270.392 517.367 259.476C519.446 256.127 520.706 252.519 521.915 249.03C522.645 246.931 523.404 244.761 524.334 242.672C526.813 237.084 530.741 232.206 535.689 228.577C541.637 224.219 548.983 221.82 556.38 221.82C556.74 221.82 557.03 221.53 557.03 221.17C557.03 220.81 556.74 220.52 556.38 220.52C544.515 220.52 533.54 214.233 527.023 203.706C525.024 200.478 523.844 197.099 522.595 193.52C521.855 191.401 521.085 189.202 520.136 187.062C517.567 181.264 513.499 176.206 508.361 172.448C502.194 167.929 494.567 165.43 486.9 165.43C479.233 165.43 471.607 167.919 465.439 172.448C460.312 176.206 456.233 181.264 453.664 187.062C452.715 189.202 451.945 191.401 451.206 193.52C449.956 197.099 448.777 200.478 446.777 203.706C440.26 214.233 429.285 220.52 417.42 220.52C417.06 220.52 416.77 220.81 416.77 221.17C416.77 221.53 417.06 221.82 417.42 221.82C424.817 221.82 432.164 224.219 438.111 228.577C443.059 232.206 446.987 237.074 449.466 242.672C450.396 244.761 451.146 246.931 451.885 249.03C453.105 252.519 454.364 256.127 456.433 259.476C463.19 270.392 474.585 276.91 486.9 276.91ZM549.623 221.15C544.325 222.16 539.258 224.339 534.909 227.518C529.782 231.276 525.703 236.335 523.135 242.132C522.185 244.272 521.415 246.471 520.676 248.59C519.426 252.169 518.247 255.548 516.247 258.776C509.73 269.303 498.755 275.59 486.89 275.59C475.025 275.59 464.05 269.303 457.533 258.776C455.534 255.548 454.354 252.169 453.105 248.59C452.365 246.471 451.595 244.272 450.646 242.132C448.077 236.335 444.009 231.286 438.871 227.518C434.523 224.329 429.455 222.15 424.157 221.15C433.803 219.241 442.369 213.263 447.877 204.376C449.956 201.027 451.216 197.419 452.425 193.93C453.155 191.831 453.914 189.661 454.844 187.572C457.323 181.984 461.251 177.106 466.199 173.477C472.146 169.119 479.493 166.72 486.89 166.72C494.287 166.72 501.634 169.119 507.581 173.477C512.529 177.106 516.457 181.974 518.936 187.572C519.866 189.661 520.616 191.831 521.355 193.93C522.575 197.419 523.834 201.027 525.903 204.376C531.401 213.263 539.977 219.231 549.623 221.15Z" fill="#A58C79"/>
<path d="M527.403 236.675C527.633 236.675 527.862 236.545 527.982 236.325C528.152 236.005 528.032 235.615 527.713 235.445C519.596 231.127 513.459 222.62 509.73 216.242C507.751 212.853 506.432 209.464 505.152 206.196C503.103 200.967 501.484 196.829 497.865 193.97C494.677 191.461 490.788 190.051 486.9 190.011C483.032 189.991 479.203 191.301 476.135 193.7C472.416 196.599 471.057 200.338 469.168 205.506C468.028 208.615 466.739 212.143 464.74 215.652C461.601 221.14 454.984 230.967 445.938 235.155C445.608 235.305 445.468 235.695 445.618 236.025C445.768 236.355 446.158 236.495 446.488 236.345C455.864 231.996 462.661 221.92 465.879 216.302C467.938 212.703 469.248 209.125 470.407 205.956C472.216 200.987 473.536 197.399 476.954 194.73C479.793 192.511 483.312 191.301 486.91 191.311C490.509 191.341 494.117 192.651 497.076 194.98C500.424 197.619 501.984 201.607 503.963 206.655C505.262 209.974 506.602 213.403 508.631 216.882C512.439 223.399 518.736 232.116 527.123 236.575C527.223 236.625 527.323 236.655 527.433 236.655L527.403 236.675Z" fill="#A58C79"/>
<path d="M486.9 243.772C488.34 243.772 489.509 242.602 489.509 241.163V229.257C489.509 227.818 488.34 226.648 486.9 226.648C485.461 226.648 484.291 227.818 484.291 229.257V241.163C484.291 242.602 485.461 243.772 486.9 243.772Z" fill="#A58C79"/>
<path d="M486.9 249.84C488.34 249.84 489.509 251.009 489.509 252.449V276.15C488.649 276.21 487.78 276.26 486.9 276.26C486.021 276.26 485.151 276.22 484.291 276.15V252.449C484.291 251.009 485.461 249.84 486.9 249.84Z" fill="#A58C79"/>
<path d="M503.743 249.84C505.182 249.84 506.352 251.009 506.352 252.449V270.193C504.703 271.332 502.953 272.312 501.134 273.151V252.449C501.134 251.009 502.304 249.84 503.743 249.84Z" fill="#A58C79"/>
<path d="M470.067 249.84C471.507 249.84 472.676 251.009 472.676 252.449V273.151C470.857 272.322 469.108 271.332 467.459 270.193V252.449C467.459 251.009 468.628 249.84 470.067 249.84Z" fill="#A58C79"/>
<path d="M487.42 219.88C485.692 219.88 484.291 218.479 484.291 216.751C484.291 215.023 485.692 213.623 487.42 213.623C489.148 213.623 490.549 215.023 490.549 216.751C490.549 218.479 489.148 219.88 487.42 219.88Z" fill="#A58C79"/>
<path d="M504.263 243.982C502.535 243.982 501.134 242.581 501.134 240.853C501.134 239.125 502.535 237.724 504.263 237.724C505.991 237.724 507.391 239.125 507.391 240.853C507.391 242.581 505.991 243.982 504.263 243.982Z" fill="#A58C79"/>
<path d="M472.666 240.853C472.666 242.582 471.267 243.982 469.538 243.982C467.808 243.982 466.409 242.582 466.409 240.853C466.409 239.124 467.808 237.724 469.538 237.724C471.267 237.724 472.666 239.124 472.666 240.853Z" fill="#A58C79"/>
<path d="M435.422 226.118C444.338 225.928 452.075 214.153 455.004 209.034C456.643 206.175 457.763 203.107 458.842 200.148C460.971 194.33 463.17 188.312 469.238 183.564C474.196 179.695 480.343 177.586 486.56 177.646C492.758 177.706 498.935 179.915 503.933 183.864C509.79 188.492 512.209 194.67 514.548 200.637C515.728 203.646 516.937 206.745 518.586 209.564C521.435 214.442 528.632 225.319 536.919 226.898C536.339 227.268 535.759 227.648 535.199 228.058C534.05 228.897 532.97 229.817 531.931 230.787C523.834 227.178 517.477 218.131 514.038 212.223C512.189 209.054 510.9 205.756 509.65 202.567C507.471 196.999 505.412 191.741 500.674 188.002C496.576 184.773 491.548 182.964 486.51 182.924C481.492 182.884 476.495 184.583 472.476 187.722C467.588 191.541 465.829 196.369 463.78 201.967C462.621 205.136 461.421 208.415 459.562 211.663C456.093 217.721 449.576 227.098 441.11 230.297C440.24 229.517 439.341 228.757 438.391 228.068C437.431 227.368 436.432 226.738 435.412 226.138L435.422 226.118Z" fill="#A58C79"/>
<path d="M556.38 332C568.705 332 580.09 325.483 586.847 314.567C588.926 311.218 590.186 307.609 591.395 304.12C592.125 302.021 592.884 299.852 593.814 297.763C596.293 292.175 600.221 287.296 605.169 283.668C611.117 279.309 618.463 276.91 625.86 276.91C626.22 276.91 626.51 276.62 626.51 276.26C626.51 275.9 626.22 275.611 625.86 275.611C613.995 275.611 603.02 269.323 596.503 258.797C594.504 255.568 593.324 252.189 592.075 248.61C591.335 246.491 590.565 244.292 589.616 242.153C587.047 236.355 582.979 231.297 577.841 227.538C571.674 223.02 564.047 220.521 556.38 220.521C548.704 220.521 541.087 223.01 534.919 227.538C529.792 231.297 525.713 236.355 523.145 242.153C522.195 244.292 521.425 246.491 520.686 248.61C519.436 252.189 518.257 255.568 516.258 258.797C509.74 269.323 498.765 275.611 486.9 275.611C486.54 275.611 486.25 275.9 486.25 276.26C486.25 276.62 486.54 276.91 486.9 276.91C494.297 276.91 501.644 279.309 507.591 283.668C512.539 287.296 516.467 292.165 518.946 297.763C519.876 299.852 520.626 302.021 521.365 304.12C522.585 307.609 523.844 311.218 525.913 314.567C532.67 325.483 544.066 332 556.38 332ZM619.103 276.24C613.805 277.25 608.738 279.429 604.39 282.608C599.262 286.367 595.184 291.425 592.615 297.223C591.665 299.362 590.895 301.561 590.156 303.68C588.906 307.259 587.727 310.638 585.728 313.867C579.21 324.393 568.235 330.681 556.37 330.681C544.505 330.681 533.53 324.393 527.013 313.867C525.014 310.638 523.834 307.259 522.585 303.68C521.845 301.561 521.075 299.362 520.126 297.223C517.557 291.425 513.489 286.367 508.351 282.608C504.003 279.419 498.935 277.24 493.637 276.24C503.283 274.331 511.849 268.353 517.357 259.466C519.436 256.118 520.686 252.509 521.905 249.02C522.635 246.921 523.394 244.752 524.324 242.663C526.803 237.075 530.731 232.196 535.679 228.568C541.627 224.209 548.973 221.81 556.37 221.81C563.767 221.81 571.114 224.209 577.061 228.568C582.009 232.196 585.937 237.065 588.416 242.663C589.346 244.752 590.096 246.921 590.835 249.02C592.055 252.509 593.314 256.118 595.383 259.466C600.881 268.353 609.457 274.321 619.103 276.24Z" fill="#A58C79"/>
<path d="M596.893 291.765C597.123 291.765 597.353 291.635 597.473 291.415C597.642 291.095 597.523 290.705 597.203 290.535C589.086 286.217 582.949 277.71 579.22 271.332C577.241 267.943 575.922 264.555 574.642 261.286C572.593 256.058 570.974 251.919 567.356 249.06C564.167 246.551 560.279 245.142 556.39 245.102C552.512 245.092 548.694 246.391 545.625 248.79C541.906 251.689 540.547 255.428 538.658 260.596C537.518 263.705 536.229 267.234 534.23 270.742C531.091 276.23 524.474 286.057 515.428 290.245C515.098 290.395 514.958 290.785 515.108 291.115C515.258 291.445 515.648 291.585 515.978 291.435C525.354 287.086 532.151 277.01 535.369 271.392C537.428 267.793 538.738 264.215 539.897 261.046C541.707 256.078 543.026 252.489 546.445 249.82C549.283 247.601 552.802 246.391 556.4 246.401C559.999 246.431 563.607 247.741 566.566 250.08C569.914 252.719 571.474 256.707 573.453 261.756C574.752 265.074 576.092 268.503 578.121 271.982C581.929 278.5 588.227 287.216 596.613 291.675C596.713 291.725 596.813 291.755 596.923 291.755L596.893 291.765Z" fill="#A58C79"/>
<path d="M556.38 298.872C557.82 298.872 558.989 297.703 558.989 296.263V284.358C558.989 282.918 557.82 281.749 556.38 281.749C554.941 281.749 553.771 282.918 553.771 284.358V296.263C553.771 297.703 554.941 298.872 556.38 298.872Z" fill="#A58C79"/>
<path d="M556.38 304.94C557.82 304.94 558.989 306.11 558.989 307.549V331.25C558.13 331.31 557.26 331.36 556.38 331.36C555.501 331.36 554.631 331.32 553.771 331.25V307.549C553.771 306.11 554.941 304.94 556.38 304.94Z" fill="#A58C79"/>
<path d="M573.223 304.94C574.662 304.94 575.832 306.11 575.832 307.549V325.293C574.182 326.432 572.433 327.412 570.614 328.252V307.549C570.614 306.11 571.784 304.94 573.223 304.94Z" fill="#A58C79"/>
<path d="M539.547 304.94C540.987 304.94 542.156 306.11 542.156 307.549V328.252C540.337 327.422 538.588 326.432 536.939 325.293V307.549C536.939 306.11 538.108 304.94 539.547 304.94Z" fill="#A58C79"/>
<path d="M553.781 271.842C553.781 273.571 555.181 274.971 556.91 274.971C558.639 274.971 560.039 273.571 560.039 271.842C560.039 270.112 558.639 268.713 556.91 268.713C555.181 268.713 553.781 270.112 553.781 271.842Z" fill="#A58C79"/>
<path d="M573.743 299.082C572.015 299.082 570.614 297.681 570.614 295.953C570.614 294.225 572.015 292.824 573.743 292.824C575.471 292.824 576.871 294.225 576.871 295.953C576.871 297.681 575.471 299.082 573.743 299.082Z" fill="#A58C79"/>
<path d="M539.028 299.082C537.3 299.082 535.899 297.681 535.899 295.953C535.899 294.225 537.3 292.824 539.028 292.824C540.756 292.824 542.156 294.225 542.156 295.953C542.156 297.681 540.756 299.082 539.028 299.082Z" fill="#A58C79"/>
<path d="M504.902 281.209C513.819 281.019 521.555 269.243 524.484 264.125C526.123 261.266 527.243 258.197 528.322 255.238C530.451 249.42 532.65 243.402 538.718 238.654C543.676 234.785 549.823 232.676 556.04 232.736C562.238 232.796 568.415 235.005 573.413 238.954C579.27 243.582 581.689 249.76 584.028 255.728C585.208 258.737 586.417 261.836 588.067 264.655C590.915 269.533 598.112 280.409 606.399 281.988C605.819 282.358 605.239 282.738 604.679 283.148C603.53 283.988 602.45 284.907 601.411 285.877C593.314 282.268 586.957 273.221 583.519 267.314C581.669 264.145 580.38 260.846 579.13 257.657C576.951 252.089 574.892 246.831 570.154 243.092C566.056 239.864 561.028 238.054 555.99 238.014C550.973 237.974 545.975 239.674 541.956 242.812C537.069 246.631 535.309 251.459 533.26 257.057C532.101 260.226 530.901 263.505 529.042 266.754C525.574 272.812 519.056 282.188 510.59 285.387C509.72 284.607 508.821 283.848 507.871 283.158C506.912 282.458 505.912 281.828 504.892 281.229L504.902 281.209Z" fill="#A58C79"/>
<path d="M209.1 276.81C221.425 276.81 232.81 270.292 239.567 259.376C241.646 256.028 242.905 252.419 244.115 248.93C244.844 246.831 245.604 244.662 246.534 242.572C249.013 236.984 252.941 232.106 257.889 228.477C263.836 224.119 271.183 221.72 278.58 221.72C278.94 221.72 279.23 221.43 279.23 221.07C279.23 220.71 278.94 220.42 278.58 220.42C266.715 220.42 255.74 214.133 249.223 203.606C247.223 200.378 246.044 196.999 244.794 193.41C244.055 191.291 243.285 189.092 242.336 186.952C239.767 181.155 235.698 176.096 230.561 172.338C224.393 167.819 216.767 165.32 209.1 165.32C201.433 165.32 193.806 167.809 187.639 172.338C182.511 176.096 178.433 181.155 175.864 186.952C174.915 189.092 174.145 191.291 173.405 193.41C172.156 196.989 170.976 200.368 168.977 203.596C162.46 214.123 151.485 220.41 139.62 220.41C139.26 220.41 138.97 220.7 138.97 221.06C138.97 221.42 139.26 221.71 139.62 221.71C147.017 221.71 154.363 224.109 160.311 228.467C165.259 232.096 169.187 236.964 171.666 242.562C172.596 244.652 173.345 246.821 174.085 248.92C175.304 252.409 176.564 256.018 178.633 259.366C185.39 270.282 196.785 276.8 209.1 276.8V276.81ZM271.823 221.05C266.525 222.06 261.457 224.239 257.109 227.418C251.981 231.177 247.903 236.235 245.334 242.033C244.385 244.172 243.615 246.371 242.875 248.49C241.626 252.069 240.446 255.448 238.447 258.677C231.93 269.203 220.955 275.49 209.09 275.49C197.225 275.49 186.25 269.203 179.733 258.677C177.733 255.448 176.554 252.069 175.304 248.49C174.565 246.371 173.795 244.172 172.845 242.033C170.277 236.235 166.208 231.177 161.071 227.418C156.722 224.229 151.655 222.05 146.357 221.05C156.003 219.141 164.569 213.163 170.067 204.276C172.146 200.927 173.405 197.319 174.615 193.83C175.344 191.731 176.104 189.562 177.034 187.472C179.513 181.884 183.441 177.006 188.389 173.377C194.336 169.019 201.683 166.62 209.08 166.62C216.477 166.62 223.824 169.019 229.771 173.377C234.719 177.006 238.647 181.874 241.126 187.472C242.056 189.562 242.805 191.731 243.545 193.83C244.764 197.319 246.024 200.927 248.093 204.276C253.591 213.163 262.167 219.131 271.813 221.05H271.823Z" fill="#A58C79"/>
<path d="M249.602 236.575C249.832 236.575 250.062 236.445 250.182 236.225C250.352 235.905 250.232 235.515 249.912 235.345C241.796 231.026 235.658 222.52 231.93 216.142C229.951 212.753 228.631 209.364 227.352 206.096C225.303 200.867 223.684 196.729 220.065 193.87C216.876 191.361 212.988 189.951 209.1 189.911C205.212 189.891 201.403 191.201 198.334 193.6C194.616 196.499 193.257 200.238 191.367 205.406C190.228 208.515 188.939 212.043 186.939 215.552C183.801 221.04 177.184 230.867 168.137 235.055C167.808 235.205 167.668 235.595 167.818 235.925C167.968 236.255 168.357 236.395 168.687 236.245C178.063 231.896 184.86 221.82 188.079 216.202C190.138 212.603 191.447 209.024 192.607 205.856C194.416 200.887 195.736 197.299 199.154 194.63C201.993 192.41 205.521 191.201 209.11 191.211C212.708 191.241 216.317 192.55 219.275 194.88C222.624 197.519 224.183 201.507 226.162 206.555C227.462 209.874 228.801 213.303 230.83 216.782C234.639 223.299 240.936 232.016 249.323 236.475C249.422 236.525 249.522 236.555 249.632 236.555L249.602 236.575Z" fill="#A58C79"/>
<path d="M209.1 243.672C210.539 243.672 211.709 242.503 211.709 241.063V229.157C211.709 227.718 210.539 226.548 209.1 226.548C207.66 226.548 206.491 227.718 206.491 229.157V241.063C206.491 242.503 207.66 243.672 209.1 243.672Z" fill="#A58C79"/>
<path d="M209.1 249.74C210.539 249.74 211.709 250.909 211.709 252.349V276.05C210.849 276.11 209.98 276.16 209.1 276.16C208.22 276.16 207.351 276.12 206.491 276.05V252.349C206.491 250.909 207.66 249.74 209.1 249.74Z" fill="#A58C79"/>
<path d="M225.933 249.74C227.372 249.74 228.542 250.909 228.542 252.349V270.092C226.892 271.232 225.143 272.212 223.324 273.051V252.349C223.324 250.909 224.493 249.74 225.933 249.74Z" fill="#A58C79"/>
<path d="M192.257 249.74C193.696 249.74 194.866 250.909 194.866 252.349V273.051C193.047 272.222 191.298 271.232 189.648 270.092V252.349C189.648 250.909 190.818 249.74 192.257 249.74Z" fill="#A58C79"/>
<path d="M209.62 219.781C207.892 219.781 206.491 218.38 206.491 216.652C206.491 214.924 207.892 213.523 209.62 213.523C211.348 213.523 212.748 214.924 212.748 216.652C212.748 218.38 211.348 219.781 209.62 219.781Z" fill="#A58C79"/>
<path d="M226.452 243.892C224.724 243.892 223.324 242.491 223.324 240.763C223.324 239.035 224.724 237.634 226.452 237.634C228.18 237.634 229.581 239.035 229.581 240.763C229.581 242.491 228.18 243.892 226.452 243.892Z" fill="#A58C79"/>
<path d="M194.866 240.763C194.866 242.493 193.467 243.892 191.737 243.892C190.008 243.892 188.609 242.493 188.609 240.763C188.609 239.034 190.008 237.634 191.737 237.634C193.467 237.634 194.866 239.034 194.866 240.763Z" fill="#A58C79"/>
<path d="M157.612 226.018C166.528 225.828 174.265 214.052 177.194 208.934C178.833 206.075 179.952 203.006 181.032 200.048C183.161 194.23 185.36 188.212 191.427 183.464C196.385 179.595 202.533 177.486 208.75 177.546C214.947 177.606 221.125 179.815 226.122 183.763C231.98 188.392 234.399 194.57 236.738 200.537C237.917 203.546 239.127 206.645 240.776 209.464C243.625 214.342 250.822 225.218 259.108 226.798C258.529 227.168 257.949 227.548 257.389 227.957C256.24 228.797 255.16 229.717 254.12 230.686C246.024 227.078 239.667 218.031 236.228 212.123C234.379 208.954 233.089 205.656 231.84 202.467C229.661 196.899 227.602 191.641 222.864 187.902C218.766 184.673 213.738 182.864 208.7 182.824C203.682 182.784 198.684 184.483 194.666 187.622C189.778 191.441 188.019 196.269 185.97 201.867C184.81 205.036 183.611 208.315 181.752 211.563C178.283 217.621 171.766 226.998 163.3 230.197C162.43 229.417 161.53 228.657 160.581 227.967C159.621 227.268 158.622 226.638 157.602 226.038L157.612 226.018Z" fill="#A58C79"/>
<path d="M70.1297 276.81C82.4544 276.81 93.8395 270.292 100.597 259.376C102.676 256.027 103.935 252.419 105.145 248.93C105.874 246.831 106.634 244.661 107.564 242.572C110.043 236.984 113.971 232.106 118.919 228.477C124.866 224.119 132.213 221.72 139.61 221.72C139.97 221.72 140.26 221.43 140.26 221.07C140.26 220.71 139.97 220.42 139.61 220.42C127.745 220.42 116.77 214.132 110.252 203.606C108.253 200.377 107.074 196.999 105.824 193.42C105.085 191.301 104.315 189.101 103.365 186.962C100.796 181.164 96.7283 176.106 91.5905 172.348C85.4232 167.829 77.7964 165.33 70.1297 165.33C62.463 165.33 54.8363 167.819 48.669 172.348C43.5412 176.106 39.4629 181.164 36.894 186.962C35.9445 189.101 35.1748 191.301 34.4351 193.42C33.1857 196.999 32.0061 200.377 30.007 203.606C23.4898 214.132 12.5145 220.42 0.649643 220.42C0.28981 220.42 -3.05176e-05 220.71 -3.05176e-05 221.07C-3.05176e-05 221.43 0.28981 221.72 0.649643 221.72C8.04646 221.72 15.3933 224.119 21.3407 228.477C26.2886 232.106 30.2169 236.974 32.6958 242.572C33.6254 244.661 34.3752 246.831 35.1148 248.93C36.3343 252.419 37.5938 256.027 39.6629 259.376C46.42 270.292 57.815 276.81 70.1297 276.81ZM132.853 221.05C127.555 222.06 122.487 224.239 118.139 227.418C113.011 231.176 108.933 236.234 106.364 242.032C105.415 244.172 104.645 246.371 103.905 248.49C102.656 252.069 101.476 255.448 99.4771 258.676C92.9599 269.203 81.9846 275.49 70.1197 275.49C58.2548 275.49 47.2796 269.203 40.7624 258.676C38.7632 255.448 37.5837 252.069 36.3343 248.49C35.5946 246.371 34.825 244.172 33.8754 242.032C31.3065 236.234 27.2382 231.176 22.1004 227.418C17.7523 224.229 12.6845 222.05 7.3868 221.05C17.0326 219.141 25.5989 213.163 31.1066 204.276C33.1857 200.927 34.4451 197.319 35.6546 193.83C36.3843 191.731 37.1439 189.561 38.0735 187.472C40.5525 181.884 44.4808 177.006 49.4287 173.377C55.3761 169.019 62.7229 166.62 70.1197 166.62C77.5165 166.62 84.8634 169.019 90.8108 173.377C95.7587 177.006 99.687 181.874 102.166 187.472C103.095 189.561 103.845 191.731 104.585 193.83C105.804 197.319 107.064 200.927 109.133 204.276C114.631 213.163 123.207 219.131 132.853 221.05Z" fill="#A58C79"/>
<path d="M110.632 236.575C110.862 236.575 111.092 236.445 111.212 236.225C111.382 235.905 111.262 235.515 110.942 235.345C102.826 231.026 96.6883 222.52 92.9599 216.142C90.9808 212.753 89.6613 209.364 88.3819 206.096C86.3327 200.867 84.7135 196.729 81.095 193.87C77.9064 191.361 74.018 189.951 70.1297 189.911C66.2614 189.891 62.4331 191.201 59.3644 193.6C55.646 196.499 54.2866 200.238 52.3974 205.406C51.2579 208.515 49.9684 212.043 47.9693 215.552C44.8306 221.04 38.2135 230.867 29.1674 235.055C28.8375 235.205 28.6976 235.595 28.8475 235.925C28.9975 236.255 29.3873 236.395 29.7171 236.245C39.0931 231.896 45.8902 221.82 49.1088 216.202C51.1679 212.603 52.4773 209.024 53.6368 205.856C55.446 200.887 56.7655 197.299 60.184 194.63C63.0228 192.41 66.5413 191.201 70.1397 191.211C73.7382 191.241 77.3466 192.55 80.3053 194.88C83.6539 197.519 85.2132 201.507 87.1924 206.555C88.4918 209.874 89.8312 213.303 91.8603 216.782C95.6687 223.299 101.966 232.016 110.352 236.475C110.452 236.525 110.552 236.555 110.662 236.555L110.632 236.575Z" fill="#A58C79"/>
<path d="M70.1297 243.672C71.569 243.672 72.7385 242.502 72.7385 241.063V229.157C72.7385 227.717 71.569 226.548 70.1297 226.548C68.6903 226.548 67.5208 227.717 67.5208 229.157V241.063C67.5208 242.502 68.6903 243.672 70.1297 243.672Z" fill="#A58C79"/>
<path d="M70.1297 249.74C71.569 249.74 72.7385 250.909 72.7385 252.349V276.05C71.8789 276.11 71.0093 276.16 70.1297 276.16C69.25 276.16 68.3804 276.12 67.5208 276.05V252.349C67.5208 250.909 68.6903 249.74 70.1297 249.74Z" fill="#A58C79"/>
<path d="M86.9724 249.74C88.4118 249.74 89.5813 250.909 89.5813 252.349V270.092C87.932 271.232 86.1827 272.212 84.3635 273.051V252.349C84.3635 250.909 85.5331 249.74 86.9724 249.74Z" fill="#A58C79"/>
<path d="M53.297 249.74C54.7364 249.74 55.9059 250.909 55.9059 252.349V273.051C54.0867 272.222 52.3374 271.232 50.6881 270.092V252.349C50.6881 250.909 51.8576 249.74 53.297 249.74Z" fill="#A58C79"/>
<path d="M67.5209 216.651C67.5209 218.381 68.9203 219.78 70.6495 219.78C72.3788 219.78 73.7782 218.381 73.7782 216.651C73.7782 214.922 72.3788 213.522 70.6495 213.522C68.9203 213.522 67.5209 214.922 67.5209 216.651Z" fill="#A58C79"/>
<path d="M87.4922 243.892C85.7643 243.892 84.3635 242.491 84.3635 240.763C84.3635 239.035 85.7643 237.634 87.4922 237.634C89.2201 237.634 90.6208 239.035 90.6208 240.763C90.6208 242.491 89.2201 243.892 87.4922 243.892Z" fill="#A58C79"/>
<path d="M52.7772 243.892C51.0493 243.892 49.6486 242.491 49.6486 240.763C49.6486 239.035 51.0493 237.634 52.7772 237.634C54.5051 237.634 55.9059 239.035 55.9059 240.763C55.9059 242.491 54.5051 243.892 52.7772 243.892Z" fill="#A58C79"/>
<path d="M18.6519 226.018C27.5681 225.828 35.3048 214.052 38.2335 208.934C39.8728 206.075 40.9923 203.006 42.0718 200.048C44.2009 194.23 46.4 188.212 52.4673 183.464C57.4252 179.595 63.5726 177.486 69.7899 177.546C75.9872 177.606 82.1646 179.815 87.1624 183.763C93.0199 188.392 95.4388 194.57 97.7778 200.537C98.9573 203.546 100.167 206.645 101.816 209.464C104.665 214.342 111.862 225.218 120.148 226.798C119.568 227.168 118.989 227.548 118.429 227.957C117.279 228.797 116.2 229.717 115.16 230.686C107.064 227.078 100.707 218.031 97.268 212.123C95.4188 208.954 94.1294 205.656 92.8799 202.467C90.7009 196.899 88.6418 191.641 83.9038 187.902C79.8056 184.673 74.7777 182.864 69.7399 182.824C64.722 182.784 59.7242 184.483 55.7059 187.622C50.818 191.441 49.0588 196.269 47.0097 201.867C45.8502 205.036 44.6507 208.315 42.7915 211.563C39.323 217.621 32.8058 226.998 24.3395 230.197C23.4698 229.417 22.5703 228.657 21.6207 227.967C20.6611 227.268 19.6615 226.638 18.6419 226.038L18.6519 226.018Z" fill="#A58C79"/>
<path d="M139.61 331.9C151.935 331.9 163.32 325.382 170.077 314.466C172.156 311.118 173.415 307.509 174.625 304.02C175.354 301.921 176.114 299.752 177.044 297.662C179.523 292.075 183.451 287.196 188.399 283.568C194.346 279.209 201.693 276.81 209.09 276.81C209.45 276.81 209.74 276.52 209.74 276.16C209.74 275.8 209.45 275.51 209.09 275.51C197.225 275.51 186.25 269.223 179.733 258.697C177.733 255.468 176.554 252.089 175.304 248.51C174.565 246.391 173.795 244.192 172.846 242.053C170.277 236.255 166.208 231.197 161.071 227.438C154.903 222.92 147.277 220.42 139.61 220.42C131.933 220.42 124.316 222.91 118.149 227.438C113.021 231.197 108.943 236.255 106.374 242.053C105.425 244.192 104.655 246.391 103.915 248.51C102.666 252.089 101.486 255.468 99.4871 258.697C92.9699 269.223 81.9947 275.51 70.1298 275.51C69.7699 275.51 69.4801 275.8 69.4801 276.16C69.4801 276.52 69.7699 276.81 70.1298 276.81C77.5266 276.81 84.8734 279.209 90.8209 283.568C95.7687 287.196 99.697 292.065 102.176 297.662C103.106 299.752 103.855 301.921 104.595 304.02C105.814 307.509 107.074 311.118 109.143 314.466C115.9 325.382 127.295 331.9 139.61 331.9ZM202.333 276.14C197.035 277.15 191.967 279.329 187.619 282.508C182.491 286.267 178.413 291.325 175.844 297.123C174.895 299.262 174.125 301.461 173.385 303.58C172.136 307.159 170.956 310.538 168.957 313.767C162.44 324.293 151.465 330.581 139.6 330.581C127.735 330.581 116.76 324.293 110.243 313.767C108.243 310.538 107.064 307.159 105.814 303.58C105.075 301.461 104.305 299.262 103.355 297.123C100.787 291.325 96.7183 286.267 91.5806 282.508C87.2324 279.319 82.1646 277.14 76.8669 276.14C86.5127 274.231 95.0791 268.253 100.587 259.366C102.666 256.018 103.915 252.409 105.135 248.92C105.864 246.821 106.624 244.652 107.554 242.562C110.033 236.974 113.961 232.096 118.909 228.468C124.856 224.109 132.203 221.71 139.6 221.71C146.997 221.71 154.343 224.109 160.291 228.468C165.239 232.096 169.167 236.964 171.646 242.562C172.576 244.652 173.325 246.821 174.065 248.92C175.285 252.409 176.544 256.018 178.613 259.366C184.111 268.253 192.687 274.221 202.333 276.14Z" fill="#A58C79"/>
<path d="M180.122 291.665C180.352 291.665 180.582 291.535 180.702 291.315C180.872 290.995 180.752 290.605 180.432 290.435C172.316 286.117 166.178 277.61 162.45 271.232C160.471 267.843 159.151 264.454 157.872 261.186C155.823 255.958 154.204 251.819 150.585 248.96C147.396 246.451 143.508 245.042 139.62 245.002C135.742 244.992 131.923 246.291 128.854 248.69C125.136 251.589 123.777 255.328 121.888 260.496C120.748 263.605 119.459 267.134 117.459 270.642C114.321 276.13 107.704 285.957 98.6575 290.145C98.3277 290.295 98.1877 290.685 98.3377 291.015C98.4876 291.345 98.8774 291.485 99.2073 291.335C108.583 286.986 115.38 276.91 118.599 271.292C120.658 267.693 121.967 264.115 123.127 260.946C124.936 255.978 126.256 252.389 129.674 249.72C132.513 247.501 136.031 246.291 139.63 246.301C143.228 246.331 146.837 247.641 149.795 249.97C153.144 252.609 154.703 256.597 156.683 261.646C157.982 264.964 159.321 268.393 161.35 271.872C165.159 278.389 171.456 287.106 179.843 291.565C179.942 291.615 180.042 291.645 180.152 291.645L180.122 291.665Z" fill="#A58C79"/>
<path d="M139.61 298.772C141.049 298.772 142.219 297.603 142.219 296.163V284.257C142.219 282.818 141.049 281.648 139.61 281.648C138.171 281.648 137.001 282.818 137.001 284.257V296.163C137.001 297.603 138.171 298.772 139.61 298.772Z" fill="#A58C79"/>
<path d="M139.61 304.84C141.049 304.84 142.219 306.009 142.219 307.449V331.15C141.359 331.21 140.49 331.26 139.61 331.26C138.73 331.26 137.861 331.22 137.001 331.15V307.449C137.001 306.009 138.171 304.84 139.61 304.84Z" fill="#A58C79"/>
<path d="M156.453 304.84C157.892 304.84 159.062 306.009 159.062 307.449V325.192C157.412 326.332 155.663 327.312 153.844 328.151V307.449C153.844 306.009 155.013 304.84 156.453 304.84Z" fill="#A58C79"/>
<path d="M122.777 304.84C124.217 304.84 125.386 306.009 125.386 307.449V328.151C123.567 327.322 121.817 326.332 120.168 325.192V307.449C120.168 306.009 121.338 304.84 122.777 304.84Z" fill="#A58C79"/>
<path d="M140.13 274.881C138.402 274.881 137.001 273.48 137.001 271.752C137.001 270.024 138.402 268.623 140.13 268.623C141.858 268.623 143.258 270.024 143.258 271.752C143.258 273.48 141.858 274.881 140.13 274.881Z" fill="#A58C79"/>
<path d="M156.972 298.982C155.245 298.982 153.844 297.581 153.844 295.853C153.844 294.125 155.245 292.724 156.972 292.724C158.7 292.724 160.101 294.125 160.101 295.853C160.101 297.581 158.7 298.982 156.972 298.982Z" fill="#A58C79"/>
<path d="M122.257 298.982C120.529 298.982 119.129 297.581 119.129 295.853C119.129 294.125 120.529 292.724 122.257 292.724C123.985 292.724 125.386 294.125 125.386 295.853C125.386 297.581 123.985 298.982 122.257 298.982Z" fill="#A58C79"/>
<path d="M88.132 281.108C97.0482 280.919 104.785 269.143 107.714 264.025C109.353 261.166 110.472 258.097 111.552 255.138C113.681 249.32 115.88 243.302 121.947 238.554C126.905 234.685 133.053 232.576 139.27 232.636C145.467 232.696 151.645 234.905 156.642 238.854C162.5 243.482 164.919 249.66 167.258 255.628C168.437 258.637 169.647 261.735 171.296 264.554C174.145 269.433 181.342 280.309 189.628 281.888C189.049 282.258 188.469 282.638 187.909 283.048C186.76 283.887 185.68 284.807 184.64 285.777C176.544 282.168 170.187 273.121 166.748 267.214C164.899 264.045 163.61 260.746 162.36 257.557C160.181 251.989 158.122 246.731 153.384 242.992C149.286 239.763 144.258 237.954 139.22 237.914C134.202 237.874 129.204 239.574 125.186 242.712C120.298 246.531 118.539 251.359 116.49 256.957C115.33 260.126 114.131 263.405 112.272 266.654C108.803 272.712 102.286 282.088 93.8196 285.287C92.95 284.507 92.0504 283.748 91.1008 283.058C90.1412 282.358 89.1416 281.728 88.122 281.128L88.132 281.108Z" fill="#A58C79"/>
</g>
<defs>
<clipPath id="clip0_19_1124">
<rect width="696" height="332" fill="white" transform="matrix(-1 0 0 1 696 0)"/>
</clipPath>
</defs>
</svg>
