<svg width="614" height="470" viewBox="0 0 614 470" fill="none" xmlns="http://www.w3.org/2000/svg">
<path d="M111.651 54.1047C66.674 101.702 38.375 165.254 38.375 234.973C38.375 304.746 66.674 368.244 111.651 415.841C156.628 463.438 218.337 495.404 285.695 502.327L298.284 503.625V243.086H81.8457L83.0831 255.688C92.2291 347.367 155.337 422.981 240.019 449.916L255.405 453.919L254.867 440.992V286.681H186.433V341.092H209.245V309.614H232.002V422.656C167.227 396.262 118.968 337.306 107.401 266.019H275.365V477.879C218.606 469.117 166.635 440.83 128.168 400.048C86.8491 356.291 61.1863 298.417 61.1325 234.973C61.1325 171.528 86.8491 113.655 128.168 69.8983C166.635 29.1164 218.606 0.828667 275.419 -7.93349V203.927H107.508C119.075 132.64 167.334 73.6844 232.11 47.2897V160.332H209.352V128.854H186.541V183.265H254.975V29.0082L254.491 16.1895L240.072 20.0838C155.391 47.0734 92.2829 122.633 83.1369 214.312L81.8995 226.914H298.338V-33.625L285.749 -32.3269C218.391 -25.4578 156.682 6.50784 111.705 54.1588L111.651 54.1047Z" fill="white" fill-opacity="0.02"/>
<path d="M502.349 54.1047C457.372 6.50784 395.663 -25.4578 328.305 -32.3269L315.716 -33.625V226.914H532.154L530.917 214.312C521.771 122.633 458.663 47.0193 373.981 20.0838L359.348 15.5404L359.133 29.5491V183.374H427.567V128.962H404.755V160.441H381.998V47.3438C446.773 73.7385 495.032 132.694 506.599 203.981H338.635V-7.8794C395.394 0.882755 447.365 29.1705 485.886 69.9523C527.205 113.709 552.867 171.583 552.921 235.027C552.921 298.472 527.205 356.345 485.886 400.102C447.419 440.884 395.448 469.171 338.635 477.934V266.073H506.599C495.032 337.36 446.773 396.316 381.998 422.71V309.668H404.755V341.147H427.567V286.735H359.133V440.559L359.509 442.02L359.348 453.324L373.981 450.024C458.663 423.035 521.771 347.475 530.917 255.797L532.154 243.194H315.716V503.733L328.305 502.435C395.663 495.566 457.372 463.6 502.349 415.949C547.326 368.352 575.625 304.854 575.625 235.081C575.625 165.308 547.326 101.81 502.349 54.2129V54.1047Z" fill="white" fill-opacity="0.02"/>
</svg>
