<svg width="698" height="225" viewBox="0 0 698 225" fill="none" xmlns="http://www.w3.org/2000/svg">
<g opacity="0.3" clip-path="url(#clip0_17_9478)">
<path d="M216.041 39.5522H243.736C249.074 39.5522 253.392 35.2427 253.392 29.9194C253.392 24.596 249.074 20.2865 243.736 20.2865H216.041C210.703 20.2865 206.385 24.596 206.385 29.9194C206.385 35.2427 210.703 39.5522 216.041 39.5522Z" stroke="#A58C79"/>
<path d="M10.1557 122.173H37.8512C43.1892 122.173 47.5068 117.863 47.5068 112.54C47.5068 107.217 43.1892 102.907 37.8512 102.907H10.1557C4.81762 102.907 0.5 107.217 0.5 112.54C0.5 117.863 4.81762 122.173 10.1557 122.173Z" stroke="#A58C79"/>
<path d="M229.868 121.595V121.095H355.229C360.567 121.095 364.884 116.785 364.884 111.462C364.884 106.138 360.567 101.829 355.229 101.829H248.969C243.081 101.829 238.313 97.0737 238.313 91.1959C238.313 85.3182 243.081 80.563 248.969 80.563H318.308C323.646 80.563 327.964 76.2535 327.964 70.9301C327.964 65.6068 323.646 61.2973 318.308 61.2973H166.443V60.7973V60.2973C171.781 60.2973 176.099 55.9877 176.099 50.6644C176.099 45.341 171.781 41.0315 166.443 41.0315H104.238C98.9002 41.0315 94.5826 45.341 94.5826 50.6644C94.5826 55.9877 98.9002 60.2973 104.238 60.2973V60.7973V61.2973H38.1013C32.7632 61.2973 28.4456 65.6068 28.4456 70.9301C28.4456 76.2535 32.7632 80.563 38.1013 80.563H112.843C118.731 80.563 123.499 85.3182 123.499 91.1959C123.499 97.0737 118.731 101.829 112.843 101.829H92.9119C87.5739 101.829 83.2562 106.138 83.2562 111.462C83.2562 116.785 87.5739 121.095 92.9119 121.095H155.667V121.595V122.095C150.329 122.095 146.011 126.404 146.011 131.727C146.011 133.39 146.43 134.955 147.171 136.321C148.808 139.321 151.995 141.36 155.667 141.36H229.868C233.541 141.36 236.728 139.33 238.364 136.32C239.105 134.955 239.524 133.39 239.524 131.727C239.524 126.404 235.206 122.095 229.868 122.095V121.595Z" stroke="#A58C79"/>
<path d="M568.408 40.0314H612.432H612.442C617.78 40.0314 622.098 35.7219 622.098 30.3986C622.098 25.0752 617.78 20.7657 612.442 20.7657H429.93C424.592 20.7657 420.275 25.0752 420.275 30.3986C420.275 35.7219 424.592 40.0314 429.93 40.0314H454.894C460.782 40.0314 465.55 44.7866 465.55 50.6643C465.55 56.5421 460.782 61.2972 454.894 61.2972H369.847C364.529 61.2972 360.211 65.6061 360.211 70.9301C360.211 76.2544 364.52 80.563 369.847 80.563H574.891C580.209 80.563 584.527 76.2541 584.527 70.9301C584.527 65.6058 580.218 61.2972 574.891 61.2972H568.408C562.519 61.2972 557.752 56.5421 557.752 50.6643C557.752 44.7866 562.519 40.0314 568.408 40.0314Z" stroke="#A58C79"/>
<path d="M612.142 80.563H639.837C645.176 80.563 649.493 76.2534 649.493 70.9301C649.493 65.6068 645.176 61.2972 639.837 61.2972H612.142C606.804 61.2972 602.486 65.6068 602.486 70.9301C602.486 76.2534 606.804 80.563 612.142 80.563Z" stroke="#A58C79"/>
<path d="M353.718 19.7656H381.413C386.751 19.7656 391.069 15.4561 391.069 10.1327C391.069 4.8094 386.751 0.499849 381.413 0.499849H353.718C348.38 0.499849 344.062 4.8094 344.062 10.1327C344.062 15.4561 348.38 19.7656 353.718 19.7656Z" stroke="#A58C79"/>
<path d="M355.719 162.206H173.197C167.043 162.206 162.041 167.198 162.041 173.337C162.041 179.477 167.043 184.468 173.197 184.468H198.161C203.214 184.468 207.316 188.562 207.316 193.603C207.316 198.645 203.214 202.738 198.161 202.738H113.113C106.97 202.738 101.977 207.729 101.977 213.869C101.977 220.008 106.98 225 113.123 225H318.168C324.311 225 329.304 220.008 329.304 213.869C329.304 207.729 324.311 202.738 318.168 202.738H311.684C306.631 202.738 302.529 198.645 302.529 193.603C302.529 188.562 306.631 184.468 311.684 184.468H355.709C361.862 184.468 366.865 179.477 366.865 173.337C366.865 167.198 361.862 162.206 355.709 162.206H355.719ZM173.197 182.472C168.144 182.472 164.042 178.379 164.042 173.337C164.042 168.296 168.144 164.203 173.197 164.203H355.719C360.772 164.203 364.874 168.296 364.874 173.337C364.874 178.379 360.772 182.472 355.719 182.472H311.694C305.541 182.472 300.538 187.463 300.538 193.603C300.538 199.743 305.541 204.734 311.694 204.734H318.178C323.221 204.734 327.313 208.827 327.313 213.869C327.313 218.91 323.211 223.003 318.178 223.003H113.123C108.08 223.003 103.988 218.91 103.988 213.869C103.988 208.827 108.09 204.734 113.123 204.734H198.171C204.324 204.734 209.327 199.743 209.327 193.603C209.327 187.463 204.324 182.472 198.171 182.472H173.207H173.197Z" fill="#953A3A"/>
<path d="M383.114 202.738H355.419C349.265 202.738 344.262 207.729 344.262 213.869C344.262 220.008 349.265 225 355.419 225H383.114C389.268 225 394.27 220.008 394.27 213.869C394.27 207.729 389.268 202.738 383.114 202.738ZM355.419 223.003C350.366 223.003 346.264 218.91 346.264 213.869C346.264 208.827 350.366 204.734 355.419 204.734H383.114C388.167 204.734 392.269 208.827 392.269 213.869C392.269 218.91 388.167 223.003 383.114 223.003H355.419Z" fill="#953A3A"/>
<path d="M124.7 141.94H97.0042C90.8508 141.94 85.848 146.932 85.848 153.071C85.848 159.211 90.8508 164.203 97.0042 164.203H124.7C130.853 164.203 135.856 159.211 135.856 153.071C135.856 146.932 130.853 141.94 124.7 141.94ZM97.0042 162.206C91.9514 162.206 87.8491 158.113 87.8491 153.071C87.8491 148.03 91.9514 143.937 97.0042 143.937H124.7C129.752 143.937 133.855 148.03 133.855 153.071C133.855 158.113 129.752 162.206 124.7 162.206H97.0042Z" fill="#953A3A"/>
<path d="M616.414 142.439H660.439H660.449C665.787 142.439 670.105 138.129 670.105 132.806C670.105 127.482 665.787 123.173 660.449 123.173H477.937C472.599 123.173 468.281 127.482 468.281 132.806C468.281 138.129 472.599 142.439 477.937 142.439H502.901C508.789 142.439 513.557 147.194 513.557 153.072C513.557 158.949 508.789 163.704 502.901 163.704H417.853C412.536 163.704 408.218 168.013 408.218 173.337C408.218 178.662 412.526 182.97 417.853 182.97H622.898C628.215 182.97 632.534 178.661 632.534 173.337C632.534 168.013 628.225 163.704 622.898 163.704H616.414C610.526 163.704 605.759 158.949 605.759 153.072C605.759 147.194 610.526 142.439 616.414 142.439Z" stroke="#A58C79"/>
<path d="M660.149 182.97H687.844C693.182 182.97 697.5 178.661 697.5 173.337C697.5 168.014 693.182 163.704 687.844 163.704H660.149C654.811 163.704 650.493 168.014 650.493 173.337C650.493 178.661 654.811 182.97 660.149 182.97Z" stroke="#A58C79"/>
<path d="M401.734 122.173H429.43C434.768 122.173 439.086 117.863 439.086 112.54C439.086 107.217 434.768 102.907 429.43 102.907H401.734C396.396 102.907 392.079 107.217 392.079 112.54C392.079 117.863 396.396 122.173 401.734 122.173Z" stroke="#A58C79"/>
</g>
<defs>
<clipPath id="clip0_17_9478">
<rect width="698" height="225" fill="white" transform="matrix(1 0 0 -1 0 225)"/>
</clipPath>
</defs>
</svg>
