<svg width="30" height="29" viewBox="0 0 30 29" fill="none" xmlns="http://www.w3.org/2000/svg">
<path d="M27.4688 19.0391C28.8359 20.4062 28.8359 22.6484 27.4688 24.0156L24.4609 27.0234C23.0938 28.3906 20.8516 28.3906 19.4844 27.0234L15.9297 23.4688L17.7891 21.6094L21.3438 25.1641C21.6719 25.4922 22.2734 25.4922 22.6016 25.1641L25.6094 22.1562C25.9375 21.8281 25.9375 21.2266 25.6094 20.8984L24.7344 20.0234L23.4766 21.2812C23.1484 21.6094 22.5469 21.6094 22.2188 21.2812C21.8906 20.9531 21.8906 20.3516 22.2188 20.0234L23.4766 18.7656L22.0547 17.3438L23.9141 15.4844L27.4688 19.0391ZM6.03125 13.5703L2.47656 10.0156C1.10938 8.64844 1.10938 6.40625 2.47656 5.03906L5.48438 2.03125C6.85156 0.664062 9.09375 0.664062 10.4609 2.03125L14.0156 5.58594L12.1562 7.44531L10.7344 6.02344L9.47656 7.28125C9.14844 7.60938 8.54688 7.60938 8.21875 7.28125C7.89062 6.95312 7.89062 6.35156 8.21875 6.02344L9.47656 4.76562L8.60156 3.89062C8.27344 3.5625 7.67188 3.5625 7.34375 3.89062L4.33594 6.89844C4.00781 7.22656 4.00781 7.82812 4.33594 8.15625L7.89062 11.7109L6.03125 13.5703ZM4.17188 18.2188L20.7969 1.59375C22.1641 0.226562 24.4062 0.226562 25.7734 1.59375L27.9062 3.72656C28.0703 3.89062 28.2344 4.10938 28.3438 4.27344C29.2734 5.64062 29.1094 7.5 27.9062 8.70312L11.2812 25.3281C11.2266 25.3828 11.1172 25.4375 11.0625 25.5469C10.5156 25.9844 9.91406 26.3125 9.25781 26.5312L2.64062 28.4453C2.20312 28.6094 1.71094 28.5 1.38281 28.1172C1 27.7891 0.890625 27.2969 1 26.8594L2.96875 20.2422C3.1875 19.4766 3.625 18.7656 4.17188 18.2188ZM5.48438 21.0078L4.22656 25.2734L8.49219 24.0156C8.82031 23.9062 9.14844 23.7422 9.42188 23.4688L21.9453 10.9453L18.5 7.55469L6.03125 20.0781C5.97656 20.0781 5.97656 20.1328 5.92188 20.1875C5.70312 20.4062 5.59375 20.6797 5.48438 21.0078Z" fill="#A58C79"/>
</svg>
